# Blender v2.79 (sub 0) OBJ File: ''
# www.blender.org
mtllib office_papers.mtl
o polySurface1_polySurfaceShape3
v -5.458200 -2.467499 -3.375201
v -1.052000 -2.467501 6.167300
v -5.458200 -0.549899 -3.375200
v -1.052000 -0.549901 6.167300
v 1.051400 -0.549899 -6.381100
v 5.457700 -0.549901 3.161500
v 1.051400 -2.467499 -6.381101
v 5.457700 -2.467500 3.161500
v -4.706900 2.421701 -4.387000
v -2.268100 2.421699 5.836901
v -4.706900 2.498901 -4.387000
v -2.268100 2.498899 5.836901
v 2.267600 2.498901 -6.050700
v 4.706400 2.498899 4.173201
v 2.267600 2.421701 -6.050700
v 4.706400 2.421699 4.173201
v -5.493000 0.292201 -3.147600
v -0.984500 0.292199 6.347100
v -5.493000 0.910301 -3.147600
v -0.984500 0.910299 6.347100
v 0.984000 0.910301 -6.223100
v 5.492500 0.910299 3.271600
v 0.984000 0.292201 -6.223100
v 5.492500 0.292199 3.271600
v -4.931900 -0.364199 -3.956800
v -1.942600 -0.364201 6.120000
v -4.931900 0.253901 -3.956800
v -1.942600 0.253899 6.120000
v 1.942100 0.253901 -5.995900
v 4.931400 0.253899 4.080800
v 1.942100 -0.364199 -5.995900
v 4.931400 -0.364201 4.080800
v -5.101900 0.915901 -3.559200
v -1.677500 0.915899 6.378000
v -5.101900 1.534101 -3.559200
v -1.677500 1.534099 6.378000
v 1.677000 1.534101 -5.895299
v 5.101400 1.534099 4.042000
v 1.677000 0.915901 -5.895300
v 5.101400 0.915899 4.042000
v -5.621500 1.556901 -3.063900
v -0.722700 1.556899 6.235401
v -5.621500 2.379500 -3.063900
v -0.722700 2.379499 6.235401
v 0.722200 2.379501 -6.405700
v 5.621000 2.379499 2.893600
v 0.722200 1.556901 -6.405700
v 5.621000 1.556900 2.893600
vt 0.948100 0.024000
vt 0.948100 0.983600
vt 0.681700 0.024000
vt 0.681700 0.983600
vt 0.046200 1.096900
vt 0.068300 0.382900
vt 0.660900 1.108800
vt 0.683000 0.394900
vt 0.978200 0.001800
vt 0.978200 0.979900
vt 0.682400 0.001800
vt 0.682400 0.979900
vt 0.660900 1.108800
vt 0.683000 0.394900
vt 0.046200 1.096900
vt 0.068300 0.382900
vt 0.969600 0.003800
vt 0.969600 1.125200
vt 0.698200 0.003800
vt 0.698200 1.125200
vt 0.685500 1.000000
vt 0.685500 0.000000
vt 0.997500 1.000000
vt 0.997500 0.000000
vt 0.766700 0.004700
vt 0.766700 1.000700
vt 0.759200 0.004700
vt 0.759200 1.000700
vt 0.002300 0.973200
vt -0.003500 0.218900
vt 0.643700 0.970100
vt 0.637900 0.215700
vt 0.751800 0.004700
vt 0.751800 1.000700
vt 0.744300 0.004700
vt 0.744300 1.000700
vt 0.000000 3.000000
vt 1.000000 3.000000
vt 0.000000 4.000000
vt 1.000000 4.000000
vt 0.788700 0.684200
vt 0.788700 0.004700
vt 0.796200 0.684200
vt 0.796200 0.004700
vt 0.781500 0.004700
vt 0.781500 0.684200
vt 0.774000 0.004700
vt 0.774000 0.684200
vt 0.855800 0.007600
vt 0.855800 1.007600
vt 0.705700 0.007600
vt 0.705700 1.007600
vt 0.002300 0.973200
vt -0.003500 0.218900
vt 0.643700 0.970100
vt 0.637900 0.215700
vt 0.824200 0.007600
vt 0.824200 1.007600
vt 0.684200 0.007600
vt 0.684200 1.007600
vt 0.002300 0.973200
vt -0.003500 0.218900
vt 0.643700 0.970100
vt 0.637900 0.215700
vt 0.839400 0.007600
vt 0.839400 1.007600
vt 0.714600 0.007600
vt 0.714600 1.007600
vt 0.719700 1.000000
vt 0.719700 0.000000
vt 0.849500 1.000000
vt 0.849500 0.000000
vt 0.855800 0.007600
vt 0.855800 1.007600
vt 0.705700 0.007600
vt 0.705700 1.007600
vt 0.002300 0.973200
vt -0.003500 0.218900
vt 0.643700 0.970100
vt 0.637900 0.215700
vt 0.824200 0.007600
vt 0.824200 1.007600
vt 0.684200 0.007600
vt 0.684200 1.007600
vt 0.002300 0.973200
vt -0.003500 0.218900
vt 0.643700 0.970100
vt 0.637900 0.215700
vt 0.839400 0.007600
vt 0.839400 1.007600
vt 0.714600 0.007600
vt 0.714600 1.007600
vt 0.719700 1.000000
vt 0.719700 0.000000
vt 0.849500 1.000000
vt 0.849500 0.000000
vt 0.855800 0.007600
vt 0.855800 1.007600
vt 0.705700 0.007600
vt 0.705700 1.007600
vt 0.002300 0.973200
vt -0.003500 0.218900
vt 0.643700 0.970100
vt 0.637900 0.215700
vt 0.824200 0.007600
vt 0.824200 1.007600
vt 0.684200 0.007600
vt 0.684200 1.007600
vt 0.002300 0.973200
vt -0.003500 0.218900
vt 0.643700 0.970100
vt 0.637900 0.215700
vt 0.839400 0.007600
vt 0.839400 1.007600
vt 0.714600 0.007600
vt 0.714600 1.007600
vt 0.719700 1.000000
vt 0.719700 0.000000
vt 0.849500 1.000000
vt 0.849500 0.000000
vt 0.855800 0.007600
vt 0.855800 1.007600
vt 0.705700 0.007600
vt 0.705700 1.007600
vt 0.002300 0.973200
vt -0.003500 0.218900
vt 0.643700 0.970100
vt 0.637900 0.215700
vt 0.824200 0.007600
vt 0.824200 1.007600
vt 0.684200 0.007600
vt 0.684200 1.007600
vt 0.002300 0.973200
vt -0.003500 0.218900
vt 0.643700 0.970100
vt 0.637900 0.215700
vt 0.839400 0.007600
vt 0.839400 1.007600
vt 0.714600 0.007600
vt 0.714600 1.007600
vt 0.719700 1.000000
vt 0.719700 0.000000
vt 0.849500 1.000000
vt 0.849500 0.000000
vn -0.7662 -0.5773 -0.2821
vn -0.2821 -0.5773 0.7662
vn -0.7662 0.5773 -0.2821
vn -0.2821 0.5773 0.7662
vn 0.2821 0.5773 -0.7662
vn 0.7662 0.5773 0.2821
vn 0.2821 -0.5773 -0.7662
vn 0.7662 -0.5773 0.2821
vn -0.6955 -0.5773 -0.4276
vn -0.4276 -0.5773 0.6955
vn -0.6955 0.5773 -0.4276
vn -0.4276 0.5773 0.6955
vn 0.4276 0.5773 -0.6955
vn 0.6955 0.5773 0.4276
vn 0.4276 -0.5773 -0.6955
vn 0.6955 -0.5773 0.4276
vn -0.7692 -0.5773 -0.2739
vn -0.2739 -0.5773 0.7692
vn -0.7692 0.5773 -0.2739
vn -0.2739 0.5773 0.7692
vn 0.2739 0.5773 -0.7692
vn 0.7692 0.5773 0.2739
vn 0.2739 -0.5773 -0.7692
vn 0.7692 -0.5773 0.2739
vn -0.7177 -0.5773 -0.3893
vn -0.3893 -0.5773 0.7177
vn -0.7177 0.5773 -0.3893
vn -0.3893 0.5773 0.7177
vn 0.3893 0.5773 -0.7177
vn 0.7177 0.5773 0.3893
vn 0.3893 -0.5773 -0.7177
vn 0.7177 -0.5773 0.3893
vn -0.7339 -0.5773 -0.3577
vn -0.3577 -0.5773 0.7339
vn -0.7339 0.5773 -0.3577
vn -0.3577 0.5773 0.7339
vn 0.3577 0.5773 -0.7339
vn 0.7339 0.5773 0.3577
vn 0.3577 -0.5773 -0.7339
vn 0.7339 -0.5773 0.3577
vn -0.7799 -0.5773 -0.2417
vn -0.2417 -0.5773 0.7799
vn -0.7799 0.5773 -0.2417
vn -0.2417 0.5773 0.7799
vn 0.2417 0.5773 -0.7799
vn 0.7799 0.5773 0.2417
vn 0.2417 -0.5773 -0.7799
vn 0.7799 -0.5773 0.2417
usemtl lambert2
s 1
f 1/1/1 2/2/2 3/3/3
f 2/2/2 4/4/4 3/3/3
f 3/5/3 4/6/4 5/7/5
f 4/6/4 6/8/6 5/7/5
f 5/9/5 6/10/6 7/11/7
f 6/10/6 8/12/8 7/11/7
f 7/13/7 8/14/8 1/15/1
f 8/14/8 2/16/2 1/15/1
f 2/17/2 8/18/8 4/19/4
f 8/18/8 6/20/6 4/19/4
f 7/21/7 1/22/1 5/23/5
f 1/22/1 3/24/3 5/23/5
f 9/25/9 10/26/10 11/27/11
f 10/26/10 12/28/12 11/27/11
f 11/29/11 12/30/12 13/31/13
f 12/30/12 14/32/14 13/31/13
f 13/33/13 14/34/14 15/35/15
f 14/34/14 16/36/16 15/35/15
f 15/37/15 16/38/16 9/39/9
f 16/38/16 10/40/10 9/39/9
f 10/41/10 16/42/16 12/43/12
f 16/42/16 14/44/14 12/43/12
f 15/45/15 9/46/9 13/47/13
f 9/46/9 11/48/11 13/47/13
f 17/49/17 18/50/18 19/51/19
f 18/50/18 20/52/20 19/51/19
f 19/53/19 20/54/20 21/55/21
f 20/54/20 22/56/22 21/55/21
f 21/57/21 22/58/22 23/59/23
f 22/58/22 24/60/24 23/59/23
f 23/61/23 24/62/24 17/63/17
f 24/62/24 18/64/18 17/63/17
f 18/65/18 24/66/24 20/67/20
f 24/66/24 22/68/22 20/67/20
f 23/69/23 17/70/17 21/71/21
f 17/70/17 19/72/19 21/71/21
f 25/73/25 26/74/26 27/75/27
f 26/74/26 28/76/28 27/75/27
f 27/77/27 28/78/28 29/79/29
f 28/78/28 30/80/30 29/79/29
f 29/81/29 30/82/30 31/83/31
f 30/82/30 32/84/32 31/83/31
f 31/85/31 32/86/32 25/87/25
f 32/86/32 26/88/26 25/87/25
f 26/89/26 32/90/32 28/91/28
f 32/90/32 30/92/30 28/91/28
f 31/93/31 25/94/25 29/95/29
f 25/94/25 27/96/27 29/95/29
f 33/97/33 34/98/34 35/99/35
f 34/98/34 36/100/36 35/99/35
f 35/101/35 36/102/36 37/103/37
f 36/102/36 38/104/38 37/103/37
f 37/105/37 38/106/38 39/107/39
f 38/106/38 40/108/40 39/107/39
f 39/109/39 40/110/40 33/111/33
f 40/110/40 34/112/34 33/111/33
f 34/113/34 40/114/40 36/115/36
f 40/114/40 38/116/38 36/115/36
f 39/117/39 33/118/33 37/119/37
f 33/118/33 35/120/35 37/119/37
f 41/121/41 42/122/42 43/123/43
f 42/122/42 44/124/44 43/123/43
f 43/125/43 44/126/44 45/127/45
f 44/126/44 46/128/46 45/127/45
f 45/129/45 46/130/46 47/131/47
f 46/130/46 48/132/48 47/131/47
f 47/133/47 48/134/48 41/135/41
f 48/134/48 42/136/42 41/135/41
f 42/137/42 48/138/48 44/139/44
f 48/138/48 46/140/46 44/139/44
f 47/141/47 41/142/41 45/143/45
f 41/142/41 43/144/43 45/143/45
