# 3ds Max Wavefront OBJ Exporter v0.97b - (c)2007 guruware
# File Created: 04.04.2021 15:37:43

mtllib SM_HiRezTV_Screen.mtl

#
# object SM_HiRezTV_Screen
#

v  -91.2672 153.1371 -94.5149
v  -89.9489 152.1895 -105.5524
v  -90.5768 144.7919 -113.1623
v  -92.1319 145.5405 -102.1649
v  -93.4927 146.2890 -90.4886
v  -92.4139 153.8326 -84.4214
v  -93.0112 138.2910 -102.6235
v  -91.2410 137.7921 -113.7738
v  -91.8864 130.6873 -113.2934
v  -93.8129 130.9989 -102.0148
v  -95.6057 131.3106 -91.0510
v  -94.6145 138.7899 -90.7943
v  -95.8638 139.1934 -80.7989
v  -94.5310 146.8943 -80.6078
v  -93.2729 154.5779 -75.6095
v  -95.5757 147.4995 -70.7271
v  -94.1447 154.9321 -66.7975
v  -94.7330 155.3246 -57.5707
v  -96.2892 147.8183 -60.4629
v  -97.9816 139.8092 -60.5011
v  -97.1166 139.5968 -70.8035
v  -98.5182 131.8147 -70.8677
v  -97.0633 131.5627 -80.9593
v  -98.3342 123.9320 -81.1198
v  -96.6472 123.8314 -91.3077
v  -94.6419 123.7069 -102.3998
v  -92.5342 123.5824 -114.8006
v  -93.0447 116.2678 -115.1178
v  -95.2066 116.3297 -102.6377
v  -97.4207 116.3917 -91.4663
v  -99.2477 116.4417 -81.2189
v  -100.9947 116.4917 -70.9715
v  -99.9544 124.0326 -70.9318
v  -101.1165 124.0854 -60.5653
v  -99.5286 131.9473 -60.5332
v  -100.7202 132.0800 -50.1988
v  -99.0566 140.0216 -50.1988
v  -97.2326 148.1371 -50.1988
v  -95.5575 155.7171 -48.3439
v  -96.2596 155.8252 -38.9097
v  -97.9761 148.2248 -39.7429
v  -99.8428 140.0801 -39.7429
v  -101.5430 132.1165 -39.7429
v  -103.2846 124.1529 -39.7429
v  -102.4256 124.1383 -50.1988
v  -103.6084 116.5442 -50.1988
v  -102.2215 116.5179 -60.5851
v  -103.3282 108.9504 -60.6050
v  -102.0262 108.9509 -71.0111
v  -100.1409 108.9514 -81.3180
v  -98.1878 108.9520 -91.6249
v  -95.8157 108.9526 -102.8756
v  -98.5884 101.5321 -91.6797
v  -100.5959 101.5314 -81.3523
v  -102.5395 101.5307 -71.0248
v  -103.9273 101.5301 -60.6118
v  -105.4270 101.5295 -50.1988
v  -104.7919 108.9499 -50.1988
v  -105.6952 108.9497 -39.7429
v  -104.4900 116.5513 -39.7429
v  -104.7569 116.5584 -29.2871
v  -103.5290 124.1674 -29.2871
v  -101.7511 132.1530 -29.2871
v  -100.0143 140.1386 -29.2871
v  -98.1050 148.3126 -29.2871
v  -99.8428 140.0801 -18.8313
v  -101.5430 132.1165 -18.8313
v  -103.2846 124.1529 -18.8313
v  -104.4900 116.5513 -18.8313
v  -105.6952 108.9497 -18.8313
v  -105.9839 108.9495 -29.2871
v  -106.6313 101.5289 -29.2871
v  -106.3365 101.5292 -39.7429
v  -106.9085 94.1087 -39.7429
v  -105.9936 94.1090 -50.1988
v  -104.4585 94.1098 -60.6186
v  -102.9894 94.1105 -71.0385
v  -100.9931 94.1113 -81.3865
v  -102.9127 86.6903 -71.0248
v  -104.3237 86.6894 -60.6118
v  -105.8237 86.6885 -50.1988
v  -106.7332 86.6881 -39.7429
v  -107.0279 86.6877 -29.2871
v  -107.2086 94.1083 -29.2871
v  -106.9085 94.1087 -18.8313
v  -106.3365 101.5292 -18.8313
v  -105.4503 101.5295 -8.3755
v  -104.8358 108.9500 -8.3755
v  -103.6735 116.5442 -8.3755
v  -102.5114 124.1383 -8.3755
v  -100.8279 132.0800 -8.3755
v  -101.3464 124.0855 1.9911
v  -102.4437 116.5179 2.0109
v  -103.5299 108.9504 2.0307
v  -104.0592 101.5301 2.0376
v  -104.5250 94.1098 2.0444
v  -105.9937 94.1090 -8.3755
v  -105.8235 86.6885 -8.3755
v  -106.7332 86.6881 -18.8313
v  -106.4424 79.2676 -18.8313
v  -106.7311 79.2671 -29.2871
v  -106.4424 79.2676 -39.7429
v  -105.5390 79.2681 -50.1988
v  -104.0749 79.2691 -60.6049
v  -104.6188 71.6745 -50.1988
v  -105.5007 71.6667 -39.7429
v  -105.7679 71.6589 -29.2871
v  -105.5007 71.6667 -18.8313
v  -104.6188 71.6745 -8.3754
v  -105.5389 79.2681 -8.3755
v  -104.1197 79.2691 2.0307
v  -104.3795 86.6894 2.0376
v  -103.0669 86.6903 12.4506
v  -103.1403 94.1105 12.4643
v  -102.6853 101.5307 12.4506
v  -102.1974 108.9509 12.4369
v  -101.2146 116.4917 12.3973
v  -100.2114 108.9515 22.7438
v  -100.5966 101.5314 22.7781
v  -101.0128 94.1114 22.8123
v  -101.0084 86.6913 22.7781
v  -100.9219 79.2713 22.7438
v  -102.8494 79.2701 12.4369
v  -102.0739 71.7211 12.3890
v  -103.2644 71.6978 2.0068
v  -102.3212 64.1265 1.9828
v  -103.6101 64.0809 -8.3754
v  -104.4695 64.0658 -18.8313
v  -104.7141 64.0506 -29.2871
v  -104.4695 64.0658 -39.7429
v  -103.0494 56.0672 -29.2871
v  -102.8410 56.1041 -18.8313
v  -102.0179 56.1411 -8.3754
v  -100.8330 56.2533 1.9382
v  -99.8343 56.3655 12.2518
v  -101.2091 64.1721 12.3410
v  -99.5808 64.2484 22.5040
v  -100.3092 71.7598 22.6239
v  -98.4934 71.7986 32.8588
v  -98.9507 79.2724 33.0507
v  -98.9760 86.6923 33.1055
v  -98.9858 94.1122 33.1603
v  -98.5875 101.5321 33.1055
v  -96.5399 94.1131 43.4723
v  -96.5783 86.6934 43.3902
v  -96.5802 79.2737 43.3080
v  -96.2440 71.8450 43.0202
v  -95.8219 64.4163 42.7323
v  -97.9119 64.3247 32.6669
v  -96.9229 56.7428 32.3104
v  -98.3796 56.5542 22.2811
v  -97.1789 48.8599 22.0583
v  -98.4338 48.5589 12.1627
v  -99.3002 48.3801 1.8936
v  -100.3755 48.2013 -8.3754
v  -101.1617 48.1425 -18.8313
v  -98.5507 40.0884 -8.3754
v  -97.6074 40.3559 1.8388
v  -96.8923 40.6235 12.0530
v  -95.8455 41.0743 21.7840
v  -94.8086 41.5252 31.5149
v  -95.9307 49.1610 31.9538
v  -94.3357 49.5232 41.6626
v  -95.0900 56.9698 42.1975
v  -93.0604 57.1967 54.4988
v  -93.5779 64.5079 55.2119
v  -93.9165 71.8914 55.5957
v  -94.2054 79.2749 55.9795
v  -94.2198 86.6945 56.0891
v  -94.1971 94.1140 56.1986
v  -93.9043 101.5336 56.0891
v  -96.1735 101.5329 43.3902
v  -95.8158 108.9526 43.3080
v  -93.6003 108.9532 55.9795
v  -93.0621 116.2678 55.6623
v  -95.2069 116.3298 43.0701
v  -97.4732 116.3917 32.8921
v  -98.1873 108.9520 33.0507
v  -99.4309 116.4417 22.6447
v  -98.6197 123.9320 22.5456
v  -96.8078 123.8314 32.7335
v  -94.6509 123.7069 42.8322
v  -92.5538 123.5825 55.3451
v  -91.8864 130.6873 54.8317
v  -93.8695 130.9990 42.4471
v  -95.8677 131.3107 32.4768
v  -97.4413 131.5627 22.3851
v  -98.9028 131.8147 12.2934
v  -100.2593 124.0326 12.3576
v  -99.8157 131.9474 1.9590
v  -98.3202 139.8092 1.9269
v  -97.5684 139.5968 12.2293
v  -96.3164 139.1934 22.2247
v  -94.9572 138.7899 32.2201
v  -93.1360 138.2910 42.0621
v  -91.2410 137.7921 54.3183
v  -90.5770 144.7919 53.7068
v  -92.3210 145.5405 41.6035
v  -93.8928 146.2890 31.9144
v  -95.0360 146.8943 22.0336
v  -96.0763 147.4996 12.1528
v  -96.6693 147.8183 1.8887
v  -97.3811 148.1371 -8.3755
v  -99.1852 140.0217 -8.3755
v  -97.9761 148.2249 -18.8313
v  -96.2596 155.8252 -20.0412
v  -95.7189 155.7171 -10.6070
v  -95.1330 155.5823 -1.3802
v  -94.6671 155.1898 7.8467
v  -93.8050 154.7619 16.6586
v  -92.8465 154.0903 25.4705
v  -91.4995 153.4019 35.9461
v  -89.9557 152.4544 47.0140
v  -96.3470 155.9333 -29.4755
v  -102.7275 79.2701 -71.0111
v  -101.9861 71.7211 -70.9632
v  -103.2307 71.6978 -60.5810
v  -102.2995 64.1265 -60.5570
v  -103.6101 64.0809 -50.1988
v  -102.0178 56.1411 -50.1988
v  -102.8410 56.1041 -39.7429
v  -101.1617 48.1425 -39.7429
v  -100.3755 48.2013 -50.1988
v  -99.3002 48.3801 -60.4678
v  -100.8247 56.2533 -60.5124
v  -99.8202 56.3655 -70.8260
v  -101.1568 64.1721 -70.9152
v  -99.5346 64.2484 -81.0782
v  -100.2360 71.7598 -81.1981
v  -100.8446 79.2712 -81.3180
v  -100.9493 86.6913 -81.3523
v  -98.9756 86.6923 -91.6797
v  -98.9455 79.2724 -91.6249
v  -98.4750 71.7985 -91.4330
v  -97.9013 64.3246 -91.2411
v  -96.9229 56.7428 -90.8846
v  -98.3771 56.5541 -80.8553
v  -97.1789 48.8599 -80.6325
v  -98.4338 48.5589 -70.7369
v  -96.8923 40.6235 -70.6272
v  -97.6074 40.3559 -60.4130
v  -98.5507 40.0884 -50.1988
v  -99.2943 40.0005 -39.7429
v  -97.5758 30.4912 -39.7429
v  -96.8736 30.6082 -50.1987
v  -96.0508 30.9645 -60.3581
v  -95.4617 31.3208 -70.5175
v  -94.5910 31.9214 -79.8560
v  -95.8455 41.0743 -80.3582
v  -94.8086 41.5252 -90.0891
v  -95.9307 49.1610 -90.5280
v  -94.3357 49.5232 -102.2240
v  -95.0900 56.9697 -102.7589
v  -95.8219 64.4163 -103.2937
v  -96.2440 71.8450 -103.5815
v  -96.5802 79.2736 -103.8694
v  -93.9154 71.8914 -115.0512
v  -93.5779 64.5079 -114.6674
v  -93.0604 57.1967 -114.4669
v  -92.5429 49.8854 -114.2554
v  -91.9365 42.6103 -113.9838
v  -93.4585 42.0677 -101.5657
v  -92.5996 33.2449 -100.9074
v  -93.7344 32.5221 -89.6503
v  -91.3233 33.9678 -113.2217
v  -96.5783 86.6934 -103.9516
v  -94.2081 86.6944 -115.5446
v  -94.1989 79.2749 -115.4350
v  -96.5399 94.1131 -103.0400
v  -94.1802 94.1140 -115.6541
v  -93.8827 101.5336 -115.5446
v  -98.9853 94.1122 -91.7345
v  -96.1735 101.5328 -102.9578
v  -93.5856 108.9531 -115.4350
v  -101.3331 48.0837 -29.2871
v  -99.4231 39.9126 -29.2871
v  -97.6632 30.3742 -29.2871
v  -97.5758 30.4912 -18.8313
v  -99.2943 40.0005 -18.8313
v  -96.8736 30.6082 -8.3754
v  -96.0508 30.9645 1.7839
v  -95.4617 31.3208 11.9433
v  -94.5910 31.9214 21.5096
v  -93.7344 32.5221 31.0760
v  -92.5996 33.2449 40.3459
v  -93.4585 42.0677 41.0042
v  -91.9366 42.6103 52.9078
v  -91.3239 33.9678 52.0300
v  -92.5429 49.8854 53.7857
# 289 vertices

vn -0.9621 0.2393 -0.1307
vn -0.9662 0.2202 -0.1343
vn -0.9764 0.1528 -0.1524
vn -0.9712 0.1925 -0.1408
vn -0.9728 0.1946 -0.1256
vn -0.9656 0.2321 -0.1169
vn -0.9820 0.1134 -0.1508
vn -0.9827 0.0925 -0.1602
vn -0.9805 0.1046 -0.1661
vn -0.9802 0.1071 -0.1667
vn -0.9787 0.1374 -0.1527
vn -0.9806 0.1433 -0.1337
vn -0.9779 0.1642 -0.1293
vn -0.9724 0.2029 -0.1149
vn -0.9654 0.2356 -0.1123
vn -0.9720 0.2126 -0.0997
vn -0.9695 0.2305 -0.0830
vn -0.9683 0.2338 -0.0876
vn -0.9720 0.2196 -0.0840
vn -0.9754 0.1988 -0.0958
vn -0.9770 0.1842 -0.1078
vn -0.9764 0.1787 -0.1209
vn -0.9762 0.1611 -0.1449
vn -0.9769 0.1425 -0.1589
vn -0.9776 0.1236 -0.1706
vn -0.9791 0.1048 -0.1742
vn -0.9809 0.0983 -0.1677
vn -0.9820 0.0799 -0.1709
vn -0.9797 0.0838 -0.1823
vn -0.9775 0.1042 -0.1836
vn -0.9779 0.1202 -0.1711
vn -0.9807 0.1341 -0.1422
vn -0.9783 0.1585 -0.1337
vn -0.9785 0.1703 -0.1162
vn -0.9751 0.1948 -0.1064
vn -0.9740 0.2049 -0.0961
vn -0.9733 0.2113 -0.0901
vn -0.9703 0.2256 -0.0869
vn -0.9685 0.2346 -0.0840
vn -0.9733 0.2260 -0.0407
vn -0.9736 0.2239 -0.0434
vn -0.9754 0.2158 -0.0458
vn -0.9763 0.2110 -0.0488
vn -0.9814 0.1849 -0.0517
vn -0.9781 0.1810 -0.1024
vn -0.9826 0.1518 -0.1072
vn -0.9818 0.1438 -0.1239
vn -0.9852 0.1113 -0.1307
vn -0.9833 0.1016 -0.1513
vn -0.9794 0.0902 -0.1806
vn -0.9774 0.0795 -0.1956
vn -0.9796 0.0690 -0.1888
vn -0.9785 0.0539 -0.1989
vn -0.9806 0.0572 -0.1876
vn -0.9853 0.0651 -0.1581
vn -0.9877 0.0754 -0.1369
vn -0.9903 0.0794 -0.1143
vn -0.9866 0.1189 -0.1119
vn -0.9911 0.1212 -0.0560
vn -0.9862 0.1564 -0.0542
vn -0.9874 0.1582 0.0000
vn -0.9821 0.1883 0.0000
vn -0.9770 0.2134 0.0000
vn -0.9755 0.2200 0.0000
vn -0.9744 0.2247 0.0001
vn -0.9757 0.2154 0.0398
vn -0.9765 0.2110 0.0438
vn -0.9817 0.1844 0.0477
vn -0.9864 0.1564 0.0512
vn -0.9912 0.1206 0.0540
vn -0.9924 0.1231 0.0000
vn -0.9966 0.0819 0.0000
vn -0.9950 0.0813 -0.0572
vn -0.9980 0.0266 -0.0576
vn -0.9929 0.0264 -0.1164
vn -0.9898 0.0261 -0.1397
vn -0.9861 0.0248 -0.1645
vn -0.9818 0.0241 -0.1884
vn -0.9870 -0.0179 -0.1598
vn -0.9900 -0.0257 -0.1384
vn -0.9930 -0.0297 -0.1146
vn -0.9979 -0.0313 -0.0574
vn -0.9995 -0.0318 0.0000
vn -0.9996 0.0266 0.0000
vn -0.9980 0.0263 0.0572
vn -0.9951 0.0813 0.0561
vn -0.9912 0.0760 0.1081
vn -0.9879 0.1163 0.1025
vn -0.9839 0.1500 0.0970
vn -0.9796 0.1786 0.0918
vn -0.9758 0.2023 0.0829
vn -0.9805 0.1655 0.1061
vn -0.9829 0.1421 0.1167
vn -0.9865 0.1063 0.1245
vn -0.9891 0.0664 0.1313
vn -0.9908 0.0228 0.1330
vn -0.9933 0.0249 0.1133
vn -0.9933 -0.0300 0.1120
vn -0.9979 -0.0313 0.0574
vn -0.9951 -0.0809 0.0562
vn -0.9966 -0.0828 0.0000
vn -0.9951 -0.0809 -0.0562
vn -0.9905 -0.0788 -0.1123
vn -0.9886 -0.0712 -0.1326
vn -0.9864 -0.1240 -0.1076
vn -0.9902 -0.1285 -0.0545
vn -0.9915 -0.1303 0.0000
vn -0.9902 -0.1285 0.0545
vn -0.9866 -0.1243 0.1061
vn -0.9908 -0.0788 0.1102
vn -0.9892 -0.0729 0.1269
vn -0.9910 -0.0272 0.1312
vn -0.9870 -0.0186 0.1599
vn -0.9857 0.0253 0.1665
vn -0.9847 0.0618 0.1630
vn -0.9828 0.0968 0.1574
vn -0.9815 0.1259 0.1441
vn -0.9788 0.0813 0.1882
vn -0.9795 0.0538 0.1943
vn -0.9804 0.0265 0.1953
vn -0.9809 -0.0069 0.1943
vn -0.9817 -0.0486 0.1842
vn -0.9862 -0.0656 0.1522
vn -0.9842 -0.1063 0.1419
vn -0.9857 -0.1175 0.1211
vn -0.9815 -0.1540 0.1138
vn -0.9813 -0.1633 0.1018
vn -0.9846 -0.1672 0.0519
vn -0.9853 -0.1707 0.0000
vn -0.9846 -0.1672 -0.0519
vn -0.9786 -0.2056 0.0000
vn -0.9779 -0.2031 0.0489
vn -0.9757 -0.1973 0.0958
vn -0.9765 -0.1879 0.1054
vn -0.9774 -0.1740 0.1201
vn -0.9808 -0.1435 0.1320
vn -0.9791 -0.1267 0.1591
vn -0.9810 -0.0903 0.1719
vn -0.9781 -0.0735 0.1948
vn -0.9778 -0.0350 0.2065
vn -0.9778 -0.0037 0.2095
vn -0.9770 0.0255 0.2115
vn -0.9763 0.0532 0.2098
vn -0.9786 0.0255 0.2043
vn -0.9788 0.0004 0.2049
vn -0.9788 -0.0285 0.2029
vn -0.9783 -0.0576 0.1990
vn -0.9783 -0.0879 0.1878
vn -0.9772 -0.1083 0.1826
vn -0.9771 -0.1348 0.1645
vn -0.9770 -0.1567 0.1448
vn -0.9780 -0.1639 0.1288
vn -0.9770 -0.1839 0.1075
vn -0.9756 -0.1979 0.0953
vn -0.9735 -0.2102 0.0900
vn -0.9756 -0.2147 0.0458
vn -0.9774 -0.1944 0.0834
vn -0.9791 -0.1848 0.0843
vn -0.9808 -0.1709 0.0940
vn -0.9815 -0.1549 0.1123
vn -0.9820 -0.1371 0.1301
vn -0.9787 -0.1436 0.1470
vn -0.9803 -0.1201 0.1568
vn -0.9786 -0.1101 0.1737
vn -0.9820 -0.0938 0.1638
vn -0.9817 -0.0697 0.1770
vn -0.9820 -0.0530 0.1811
vn -0.9826 -0.0259 0.1841
vn -0.9832 -0.0012 0.1826
vn -0.9833 0.0209 0.1810
vn -0.9833 0.0447 0.1762
vn -0.9781 0.0500 0.2020
vn -0.9779 0.0686 0.1976
vn -0.9832 0.0611 0.1719
vn -0.9825 0.0794 0.1684
vn -0.9778 0.0834 0.1924
vn -0.9750 0.0948 0.2009
vn -0.9751 0.0760 0.2084
vn -0.9781 0.1063 0.1791
vn -0.9775 0.1304 0.1658
vn -0.9752 0.1102 0.1921
vn -0.9775 0.0985 0.1864
vn -0.9822 0.0893 0.1655
vn -0.9814 0.1051 0.1606
vn -0.9775 0.1110 0.1793
vn -0.9757 0.1287 0.1774
vn -0.9770 0.1506 0.1507
vn -0.9785 0.1700 0.1169
vn -0.9802 0.1483 0.1312
vn -0.9776 0.1885 0.0935
vn -0.9777 0.1938 0.0809
vn -0.9788 0.1773 0.1023
vn -0.9785 0.1564 0.1345
vn -0.9774 0.1350 0.1630
vn -0.9785 0.1166 0.1701
vn -0.9823 0.1035 0.1561
vn -0.9777 0.1436 0.1535
vn -0.9730 0.1674 0.1588
vn -0.9701 0.1901 0.1511
vn -0.9723 0.2004 0.1206
vn -0.9738 0.2064 0.0950
vn -0.9751 0.2113 0.0678
vn -0.9728 0.2218 0.0676
vn -0.9750 0.2092 0.0743
vn -0.9738 0.2245 0.0366
vn -0.9735 0.2261 0.0331
vn -0.9711 0.2309 0.0611
vn -0.9725 0.2230 0.0669
vn -0.9727 0.2197 0.0741
vn -0.9656 0.2334 0.1150
vn -0.9638 0.2343 0.1271
vn -0.9613 0.2276 0.1553
vn -0.9653 0.2117 0.1528
vn -0.9744 0.2248 -0.0002
vn -0.9862 -0.0612 -0.1538
vn -0.9843 -0.1029 -0.1435
vn -0.9853 -0.1159 -0.1252
vn -0.9815 -0.1521 -0.1163
vn -0.9812 -0.1633 -0.1028
vn -0.9757 -0.1970 -0.0962
vn -0.9779 -0.2031 -0.0489
vn -0.9756 -0.2147 -0.0458
vn -0.9735 -0.2102 -0.0900
vn -0.9757 -0.1974 -0.0955
vn -0.9767 -0.1866 -0.1061
vn -0.9779 -0.1713 -0.1203
vn -0.9813 -0.1389 -0.1332
vn -0.9799 -0.1228 -0.1571
vn -0.9817 -0.0883 -0.1687
vn -0.9827 -0.0485 -0.1790
vn -0.9823 -0.0107 -0.1872
vn -0.9814 -0.0022 -0.1919
vn -0.9820 -0.0359 -0.1853
vn -0.9819 -0.0734 -0.1748
vn -0.9806 -0.1068 -0.1642
vn -0.9798 -0.1339 -0.1488
vn -0.9775 -0.1538 -0.1441
vn -0.9781 -0.1637 -0.1286
vn -0.9772 -0.1830 -0.1075
vn -0.9807 -0.1712 -0.0944
vn -0.9791 -0.1848 -0.0843
vn -0.9774 -0.1944 -0.0834
vn -0.9787 -0.2007 -0.0425
vn -0.9832 -0.1777 -0.0408
vn -0.9818 -0.1737 -0.0767
vn -0.9834 -0.1634 -0.0795
vn -0.9850 -0.1524 -0.0814
vn -0.9846 -0.1398 -0.1052
vn -0.9813 -0.1563 -0.1123
vn -0.9835 -0.1374 -0.1173
vn -0.9807 -0.1432 -0.1331
vn -0.9828 -0.1168 -0.1434
vn -0.9806 -0.1095 -0.1628
vn -0.9802 -0.0856 -0.1783
vn -0.9802 -0.0574 -0.1897
vn -0.9806 -0.0283 -0.1939
vn -0.9787 -0.0536 -0.1981
vn -0.9789 -0.0645 -0.1937
vn -0.9813 -0.0871 -0.1718
vn -0.9855 -0.0807 -0.1493
vn -0.9870 -0.0961 -0.1288
vn -0.9855 -0.1160 -0.1236
vn -0.9876 -0.1047 -0.1168
vn -0.9874 -0.1227 -0.1002
vn -0.9910 -0.0798 -0.1074
vn -0.9805 0.0136 -0.1962
vn -0.9808 0.0036 -0.1952
vn -0.9791 -0.0257 -0.2016
vn -0.9800 0.0342 -0.1958
vn -0.9827 0.0216 -0.1838
vn -0.9828 0.0447 -0.1791
vn -0.9793 0.0255 -0.2009
vn -0.9797 0.0500 -0.1940
vn -0.9828 0.0608 -0.1745
vn -0.9757 -0.2189 0.0000
vn -0.9792 -0.2028 0.0000
vn -0.9834 -0.1814 0.0000
vn -0.9832 -0.1777 0.0408
vn -0.9787 -0.2007 0.0425
vn -0.9818 -0.1737 0.0767
vn -0.9834 -0.1634 0.0795
vn -0.9851 -0.1524 0.0802
vn -0.9848 -0.1383 0.1050
vn -0.9861 -0.1231 0.1120
vn -0.9856 -0.1063 0.1317
vn -0.9834 -0.1171 0.1389
vn -0.9860 -0.1013 0.1326
vn -0.9902 -0.0817 0.1132
vn -0.9847 -0.0914 0.1484
# 289 vertex normals

vt 0.1230 0.9777 0.9777
vt 0.0588 0.9702 0.9702
vt 0.0145 0.9113 0.9113
vt 0.0785 0.9172 0.9172
vt 0.1464 0.9232 0.9232
vt 0.1816 0.9833 0.9833
vt 0.0757 0.8596 0.8596
vt 0.0109 0.8556 0.8556
vt 0.0137 0.7990 0.7990
vt 0.0793 0.8015 0.8015
vt 0.1432 0.8040 0.8040
vt 0.1447 0.8635 0.8635
vt 0.2028 0.8668 0.8668
vt 0.2039 0.9280 0.9280
vt 0.2329 0.9892 0.9892
vt 0.2612 0.9328 0.9328
vt 0.2842 0.9920 0.9920
vt 0.3379 0.9952 0.9952
vt 0.3210 0.9354 0.9354
vt 0.3208 0.8717 0.8717
vt 0.2610 0.8700 0.8700
vt 0.2605 0.8080 0.8080
vt 0.2018 0.8059 0.8059
vt 0.2009 0.7451 0.7451
vt 0.1416 0.7444 0.7444
vt 0.0771 0.7434 0.7434
vt 0.0050 0.7424 0.7424
vt 0.0031 0.6843 0.6843
vt 0.0757 0.6848 0.6848
vt 0.1406 0.6853 0.6853
vt 0.2003 0.6855 0.6855
vt 0.2598 0.6860 0.6860
vt 0.2600 0.7461 0.7461
vt 0.3206 0.7466 0.7466
vt 0.3206 0.8091 0.8091
vt 0.3809 0.8101 0.8101
vt 0.3809 0.8734 0.8734
vt 0.3809 0.9379 0.9379
vt 0.3916 0.9983 0.9983
vt 0.4465 0.9991 0.9991
vt 0.4417 0.9386 0.9386
vt 0.4417 0.8738 0.8738
vt 0.4417 0.8103 0.8103
vt 0.4417 0.7471 0.7471
vt 0.3809 0.7468 0.7468
vt 0.3809 0.6865 0.6865
vt 0.3203 0.6863 0.6863
vt 0.3201 0.6260 0.6260
vt 0.2598 0.6260 0.6260
vt 0.1997 0.6260 0.6260
vt 0.1398 0.6260 0.6260
vt 0.0743 0.6260 0.6260
vt 0.1394 0.5669 0.5669
vt 0.1996 0.5669 0.5669
vt 0.2595 0.5669 0.5669
vt 0.3201 0.5669 0.5669
vt 0.3809 0.5669 0.5669
vt 0.3809 0.6260 0.6260
vt 0.4417 0.6260 0.6260
vt 0.4417 0.6865 0.6865
vt 0.5024 0.6865 0.6865
vt 0.5024 0.7471 0.7471
vt 0.5024 0.8107 0.8107
vt 0.5024 0.8743 0.8743
vt 0.5024 0.9393 0.9393
vt 0.5630 0.8738 0.8738
vt 0.5630 0.8103 0.8103
vt 0.5630 0.7471 0.7471
vt 0.5630 0.6865 0.6865
vt 0.5630 0.6260 0.6260
vt 0.5024 0.6260 0.6260
vt 0.5024 0.5669 0.5669
vt 0.4417 0.5669 0.5669
vt 0.4417 0.5078 0.5078
vt 0.3809 0.5078 0.5078
vt 0.3201 0.5078 0.5078
vt 0.2595 0.5078 0.5078
vt 0.1993 0.5078 0.5078
vt 0.2595 0.4487 0.4487
vt 0.3201 0.4487 0.4487
vt 0.3809 0.4487 0.4487
vt 0.4417 0.4487 0.4487
vt 0.5024 0.4487 0.4487
vt 0.5024 0.5078 0.5078
vt 0.5630 0.5078 0.5078
vt 0.5630 0.5669 0.5669
vt 0.6240 0.5669 0.5669
vt 0.6240 0.6260 0.6260
vt 0.6240 0.6865 0.6865
vt 0.6240 0.7468 0.7468
vt 0.6240 0.8101 0.8101
vt 0.6846 0.7466 0.7466
vt 0.6846 0.6863 0.6863
vt 0.6846 0.6260 0.6260
vt 0.6846 0.5669 0.5669
vt 0.6846 0.5078 0.5078
vt 0.6240 0.5078 0.5078
vt 0.6240 0.4487 0.4487
vt 0.5630 0.4487 0.4487
vt 0.5630 0.3896 0.3896
vt 0.5024 0.3896 0.3896
vt 0.4417 0.3896 0.3896
vt 0.3809 0.3896 0.3896
vt 0.3201 0.3896 0.3896
vt 0.3809 0.3291 0.3291
vt 0.4417 0.3291 0.3291
vt 0.5024 0.3291 0.3291
vt 0.5630 0.3291 0.3291
vt 0.6240 0.3291 0.3291
vt 0.6240 0.3896 0.3896
vt 0.6846 0.3896 0.3896
vt 0.6846 0.4487 0.4487
vt 0.7451 0.4487 0.4487
vt 0.7451 0.5078 0.5078
vt 0.7451 0.5669 0.5669
vt 0.7451 0.6260 0.6260
vt 0.7446 0.6860 0.6860
vt 0.8052 0.6260 0.6260
vt 0.8052 0.5669 0.5669
vt 0.8057 0.5078 0.5078
vt 0.8052 0.4487 0.4487
vt 0.8052 0.3896 0.3896
vt 0.7451 0.3896 0.3896
vt 0.7446 0.3296 0.3296
vt 0.6846 0.3291 0.3291
vt 0.6841 0.2690 0.2690
vt 0.6240 0.2686 0.2686
vt 0.5630 0.2686 0.2686
vt 0.5024 0.2686 0.2686
vt 0.4417 0.2686 0.2686
vt 0.5024 0.2051 0.2051
vt 0.5630 0.2051 0.2051
vt 0.6240 0.2056 0.2056
vt 0.6841 0.2065 0.2065
vt 0.7441 0.2070 0.2070
vt 0.7446 0.2695 0.2695
vt 0.8037 0.2700 0.2700
vt 0.8042 0.3301 0.3301
vt 0.8638 0.3301 0.3301
vt 0.8652 0.3896 0.3896
vt 0.8652 0.4487 0.4487
vt 0.8657 0.5078 0.5078
vt 0.8652 0.5669 0.5669
vt 0.9258 0.5078 0.5078
vt 0.9253 0.4487 0.4487
vt 0.9248 0.3896 0.3896
vt 0.9229 0.3306 0.3306
vt 0.9214 0.2715 0.2715
vt 0.8628 0.2705 0.2705
vt 0.8608 0.2104 0.2104
vt 0.8022 0.2090 0.2090
vt 0.8013 0.1475 0.1475
vt 0.7437 0.1450 0.1450
vt 0.6836 0.1436 0.1436
vt 0.6240 0.1421 0.1421
vt 0.5630 0.1416 0.1416
vt 0.6240 0.0776 0.0776
vt 0.6836 0.0796 0.0796
vt 0.7427 0.0820 0.0820
vt 0.7993 0.0854 0.0854
vt 0.8560 0.0889 0.0889
vt 0.8589 0.1499 0.1499
vt 0.9150 0.1528 0.1528
vt 0.9185 0.2119 0.2119
vt 0.9897 0.2139 0.2139
vt 0.9941 0.2720 0.2720
vt 0.9961 0.3311 0.3311
vt 0.9985 0.3896 0.3896
vt 0.9990 0.4487 0.4487
vt 1.0000 0.5078 0.5078
vt 0.9990 0.5669 0.5669
vt 0.9253 0.5669 0.5669
vt 0.9248 0.6260 0.6260
vt 0.9985 0.6260 0.6260
vt 0.9966 0.6843 0.6843
vt 0.9233 0.6848 0.6848
vt 0.8643 0.6853 0.6853
vt 0.8652 0.6260 0.6260
vt 0.8047 0.6855 0.6855
vt 0.8042 0.7451 0.7451
vt 0.8633 0.7444 0.7444
vt 0.9219 0.7434 0.7434
vt 0.9946 0.7424 0.7424
vt 0.9917 0.7990 0.7990
vt 0.9199 0.8015 0.8015
vt 0.8618 0.8040 0.8040
vt 0.8027 0.8059 0.8059
vt 0.7441 0.8080 0.8080
vt 0.7446 0.7461 0.7461
vt 0.6841 0.8091 0.8091
vt 0.6841 0.8717 0.8717
vt 0.7437 0.8700 0.8700
vt 0.8022 0.8668 0.8668
vt 0.8604 0.8635 0.8635
vt 0.9175 0.8596 0.8596
vt 0.9888 0.8556 0.8556
vt 0.9854 0.9113 0.9113
vt 0.9150 0.9172 0.9172
vt 0.8584 0.9232 0.9232
vt 0.8008 0.9280 0.9280
vt 0.7437 0.9328 0.9328
vt 0.6836 0.9354 0.9354
vt 0.6240 0.9379 0.9379
vt 0.6240 0.8734 0.8734
vt 0.5630 0.9386 0.9386
vt 0.5562 0.9991 0.9991
vt 0.6108 0.9983 0.9983
vt 0.6646 0.9972 0.9972
vt 0.7183 0.9941 0.9941
vt 0.7695 0.9907 0.9907
vt 0.8208 0.9853 0.9853
vt 0.8818 0.9798 0.9798
vt 0.9463 0.9723 0.9723
vt 0.5015 1.0000 1.0000
vt 0.2598 0.3896 0.3896
vt 0.2600 0.3296 0.3296
vt 0.3203 0.3291 0.3291
vt 0.3206 0.2690 0.2690
vt 0.3809 0.2686 0.2686
vt 0.3809 0.2056 0.2056
vt 0.4417 0.2051 0.2051
vt 0.4417 0.1416 0.1416
vt 0.3809 0.1421 0.1421
vt 0.3210 0.1436 0.1436
vt 0.3208 0.2065 0.2065
vt 0.2607 0.2070 0.2070
vt 0.2603 0.2695 0.2695
vt 0.2012 0.2700 0.2700
vt 0.2004 0.3301 0.3301
vt 0.1997 0.3896 0.3896
vt 0.1996 0.4487 0.4487
vt 0.1394 0.4487 0.4487
vt 0.1398 0.3896 0.3896
vt 0.1409 0.3301 0.3301
vt 0.1421 0.2705 0.2705
vt 0.1440 0.2104 0.2104
vt 0.2024 0.2090 0.2090
vt 0.2037 0.1475 0.1475
vt 0.2612 0.1450 0.1450
vt 0.2620 0.0820 0.0820
vt 0.3213 0.0796 0.0796
vt 0.3809 0.0776 0.0776
vt 0.4417 0.0771 0.0771
vt 0.4417 0.0010 0.0010
vt 0.3809 0.0020 0.0020
vt 0.3218 0.0049 0.0049
vt 0.2625 0.0078 0.0078
vt 0.2083 0.0127 0.0127
vt 0.2053 0.0854 0.0854
vt 0.1487 0.0889 0.0889
vt 0.1461 0.1499 0.1499
vt 0.0781 0.1528 0.1528
vt 0.0750 0.2119 0.2119
vt 0.0719 0.2715 0.2715
vt 0.0702 0.3306 0.3306
vt 0.0685 0.3896 0.3896
vt 0.0035 0.3311 0.3311
vt 0.0057 0.2720 0.2720
vt 0.0069 0.2139 0.2139
vt 0.0081 0.1558 0.1558
vt 0.0097 0.0977 0.0977
vt 0.0820 0.0933 0.0933
vt 0.0858 0.0229 0.0229
vt 0.1512 0.0176 0.0176
vt 0.0142 0.0288 0.0288
vt 0.0681 0.4487 0.4487
vt 0.0006 0.4487 0.4487
vt 0.0013 0.3896 0.3896
vt 0.0734 0.5078 0.5078
vt 0.0000 0.5078 0.5078
vt 0.0006 0.5669 0.5669
vt 0.1392 0.5078 0.5078
vt 0.0739 0.5669 0.5669
vt 0.0013 0.6260 0.6260
vt 0.5024 0.1411 0.1411
vt 0.5024 0.0762 0.0762
vt 0.5024 0.0000 0.0000
vt 0.5630 0.0010 0.0010
vt 0.5630 0.0771 0.0771
vt 0.6240 0.0020 0.0020
vt 0.6831 0.0049 0.0049
vt 0.7422 0.0078 0.0078
vt 0.7979 0.0127 0.0127
vt 0.8535 0.0176 0.0176
vt 0.9077 0.0229 0.0229
vt 0.9111 0.0933 0.0933
vt 0.9805 0.0977 0.0977
vt 0.9756 0.0288 0.0288
vt 0.9858 0.1558 0.1558
# 289 texture coords

o SM_HiRezTV_Screen
g SM_HiRezTV_Screen
usemtl material_0
s 1
f 1/1/1 2/2/2 3/3/3 
f 1/1/1 3/3/3 4/4/4 
f 1/1/1 4/4/4 5/5/5 
f 1/1/1 5/5/5 6/6/6 
f 5/5/5 4/4/4 7/7/7 
f 7/7/7 4/4/4 3/3/3 
f 7/7/7 3/3/3 8/8/8 
f 7/7/7 8/8/8 9/9/9 
f 7/7/7 9/9/9 10/10/10 
f 7/7/7 10/10/10 11/11/11 
f 7/7/7 11/11/11 12/12/12 
f 7/7/7 12/12/12 5/5/5 
f 12/12/12 11/11/11 13/13/13 
f 5/5/5 12/12/12 13/13/13 
f 5/5/5 13/13/13 14/14/14 
f 5/5/5 14/14/14 15/15/15 
f 5/5/5 15/15/15 6/6/6 
f 15/15/15 14/14/14 16/16/16 
f 16/16/16 14/14/14 13/13/13 
f 15/15/15 16/16/16 17/17/17 
f 17/17/17 16/16/16 18/18/18 
f 16/16/16 19/19/19 18/18/18 
f 19/19/19 16/16/16 20/20/20 
f 16/16/16 21/21/21 20/20/20 
f 21/21/21 16/16/16 13/13/13 
f 21/21/21 13/13/13 22/22/22 
f 21/21/21 22/22/22 20/20/20 
f 13/13/13 23/23/23 22/22/22 
f 23/23/23 13/13/13 11/11/11 
f 23/23/23 11/11/11 24/24/24 
f 23/23/23 24/24/24 22/22/22 
f 11/11/11 25/25/25 24/24/24 
f 25/25/25 11/11/11 26/26/26 
f 11/11/11 10/10/10 26/26/26 
f 26/26/26 10/10/10 9/9/9 
f 26/26/26 9/9/9 27/27/27 
f 26/26/26 27/27/27 28/28/28 
f 26/26/26 28/28/28 29/29/29 
f 26/26/26 29/29/29 30/30/30 
f 26/26/26 30/30/30 25/25/25 
f 25/25/25 30/30/30 24/24/24 
f 30/30/30 31/31/31 24/24/24 
f 24/24/24 31/31/31 32/32/32 
f 24/24/24 32/32/32 33/33/33 
f 24/24/24 33/33/33 22/22/22 
f 33/33/33 32/32/32 34/34/34 
f 22/22/22 33/33/33 34/34/34 
f 22/22/22 34/34/34 35/35/35 
f 22/22/22 35/35/35 20/20/20 
f 35/35/35 34/34/34 36/36/36 
f 20/20/20 35/35/35 36/36/36 
f 20/20/20 36/36/36 37/37/37 
f 20/20/20 37/37/37 38/38/38 
f 20/20/20 38/38/38 19/19/19 
f 19/19/19 38/38/38 18/18/18 
f 38/38/38 39/39/39 18/18/18 
f 39/39/39 38/38/38 40/40/40 
f 38/38/38 41/41/41 40/40/40 
f 41/41/41 38/38/38 42/42/42 
f 38/38/38 37/37/37 42/42/42 
f 42/42/42 37/37/37 36/36/36 
f 42/42/42 36/36/36 43/43/43 
f 43/43/43 36/36/36 44/44/44 
f 36/36/36 45/45/45 44/44/44 
f 45/45/45 36/36/36 34/34/34 
f 45/45/45 34/34/34 46/46/46 
f 45/45/45 46/46/46 44/44/44 
f 34/34/34 47/47/47 46/46/46 
f 47/47/47 34/34/34 32/32/32 
f 47/47/47 32/32/32 48/48/48 
f 47/47/47 48/48/48 46/46/46 
f 32/32/32 49/49/49 48/48/48 
f 49/49/49 32/32/32 50/50/50 
f 32/32/32 31/31/31 50/50/50 
f 50/50/50 31/31/31 30/30/30 
f 50/50/50 30/30/30 51/51/51 
f 51/51/51 30/30/30 52/52/52 
f 30/30/30 29/29/29 52/52/52 
f 51/51/51 52/52/52 53/53/53 
f 51/51/51 53/53/53 50/50/50 
f 53/53/53 54/54/54 50/50/50 
f 50/50/50 54/54/54 55/55/55 
f 50/50/50 55/55/55 49/49/49 
f 49/49/49 55/55/55 48/48/48 
f 55/55/55 56/56/56 48/48/48 
f 48/48/48 56/56/56 57/57/57 
f 48/48/48 57/57/57 58/58/58 
f 48/48/48 58/58/58 46/46/46 
f 58/58/58 57/57/57 59/59/59 
f 46/46/46 58/58/58 59/59/59 
f 46/46/46 59/59/59 60/60/60 
f 46/46/46 60/60/60 44/44/44 
f 60/60/60 59/59/59 61/61/61 
f 44/44/44 60/60/60 61/61/61 
f 44/44/44 61/61/61 62/62/62 
f 44/44/44 62/62/62 63/63/63 
f 44/44/44 63/63/63 43/43/43 
f 43/43/43 63/63/63 42/42/42 
f 63/63/63 64/64/64 42/42/42 
f 42/42/42 64/64/64 65/65/65 
f 42/42/42 65/65/65 41/41/41 
f 65/65/65 64/64/64 66/66/66 
f 66/66/66 64/64/64 63/63/63 
f 66/66/66 63/63/63 67/67/67 
f 67/67/67 63/63/63 68/68/68 
f 63/63/63 62/62/62 68/68/68 
f 68/68/68 62/62/62 61/61/61 
f 68/68/68 61/61/61 69/69/69 
f 69/69/69 61/61/61 70/70/70 
f 61/61/61 71/71/71 70/70/70 
f 71/71/71 61/61/61 59/59/59 
f 70/70/70 71/71/71 72/72/72 
f 59/59/59 72/72/72 71/71/71 
f 72/72/72 59/59/59 73/73/73 
f 73/73/73 59/59/59 57/57/57 
f 72/72/72 73/73/73 74/74/74 
f 57/57/57 74/74/74 73/73/73 
f 74/74/74 57/57/57 75/75/75 
f 75/75/75 57/57/57 76/76/76 
f 57/57/57 56/56/56 76/76/76 
f 76/76/76 56/56/56 55/55/55 
f 76/76/76 55/55/55 77/77/77 
f 77/77/77 55/55/55 78/78/78 
f 55/55/55 54/54/54 78/78/78 
f 77/77/77 78/78/78 79/79/79 
f 77/77/77 79/79/79 76/76/76 
f 79/79/79 80/80/80 76/76/76 
f 76/76/76 80/80/80 81/81/81 
f 76/76/76 81/81/81 75/75/75 
f 75/75/75 81/81/81 74/74/74 
f 81/81/81 82/82/82 74/74/74 
f 74/74/74 82/82/82 83/83/83 
f 74/74/74 83/83/83 84/84/84 
f 74/74/74 84/84/84 72/72/72 
f 72/72/72 84/84/84 85/85/85 
f 85/85/85 84/84/84 83/83/83 
f 72/72/72 85/85/85 86/86/86 
f 72/72/72 86/86/86 70/70/70 
f 70/70/70 86/86/86 87/87/87 
f 87/87/87 86/86/86 85/85/85 
f 70/70/70 87/87/87 88/88/88 
f 70/70/70 88/88/88 89/89/89 
f 70/70/70 89/89/89 69/69/69 
f 69/69/69 89/89/89 68/68/68 
f 89/89/89 90/90/90 68/68/68 
f 68/68/68 90/90/90 91/91/91 
f 68/68/68 91/91/91 67/67/67 
f 91/91/91 90/90/90 92/92/92 
f 92/92/92 90/90/90 89/89/89 
f 92/92/92 89/89/89 93/93/93 
f 93/93/93 89/89/89 94/94/94 
f 89/89/89 88/88/88 94/94/94 
f 94/94/94 88/88/88 87/87/87 
f 94/94/94 87/87/87 95/95/95 
f 95/95/95 87/87/87 96/96/96 
f 87/87/87 97/97/97 96/96/96 
f 97/97/97 87/87/87 85/85/85 
f 97/97/97 85/85/85 98/98/98 
f 97/97/97 98/98/98 96/96/96 
f 85/85/85 99/99/99 98/98/98 
f 99/99/99 85/85/85 83/83/83 
f 99/99/99 83/83/83 100/100/100 
f 99/99/99 100/100/100 98/98/98 
f 83/83/83 101/101/101 100/100/100 
f 101/101/101 83/83/83 102/102/102 
f 83/83/83 82/82/82 102/102/102 
f 102/102/102 82/82/82 81/81/81 
f 102/102/102 81/81/81 103/103/103 
f 103/103/103 81/81/81 104/104/104 
f 81/81/81 80/80/80 104/104/104 
f 103/103/103 104/104/104 105/105/105 
f 103/103/103 105/105/105 102/102/102 
f 105/105/105 106/106/106 102/102/102 
f 102/102/102 106/106/106 107/107/107 
f 102/102/102 107/107/107 101/101/101 
f 101/101/101 107/107/107 100/100/100 
f 107/107/107 108/108/108 100/100/100 
f 100/100/100 108/108/108 109/109/109 
f 100/100/100 109/109/109 110/110/110 
f 100/100/100 110/110/110 98/98/98 
f 110/110/110 109/109/109 111/111/111 
f 98/98/98 110/110/110 111/111/111 
f 98/98/98 111/111/111 112/112/112 
f 98/98/98 112/112/112 96/96/96 
f 112/112/112 111/111/111 113/113/113 
f 96/96/96 112/112/112 113/113/113 
f 96/96/96 113/113/113 114/114/114 
f 96/96/96 114/114/114 115/115/115 
f 96/96/96 115/115/115 95/95/95 
f 95/95/95 115/115/115 94/94/94 
f 115/115/115 116/116/116 94/94/94 
f 94/94/94 116/116/116 117/117/117 
f 94/94/94 117/117/117 93/93/93 
f 117/117/117 116/116/116 118/118/118 
f 118/118/118 116/116/116 115/115/115 
f 118/118/118 115/115/115 119/119/119 
f 119/119/119 115/115/115 120/120/120 
f 115/115/115 114/114/114 120/120/120 
f 120/120/120 114/114/114 113/113/113 
f 120/120/120 113/113/113 121/121/121 
f 121/121/121 113/113/113 122/122/122 
f 113/113/113 123/123/123 122/122/122 
f 123/123/123 113/113/113 111/111/111 
f 122/122/122 123/123/123 124/124/124 
f 111/111/111 124/124/124 123/123/123 
f 124/124/124 111/111/111 125/125/125 
f 125/125/125 111/111/111 109/109/109 
f 124/124/124 125/125/125 126/126/126 
f 109/109/109 126/126/126 125/125/125 
f 126/126/126 109/109/109 127/127/127 
f 127/127/127 109/109/109 128/128/128 
f 109/109/109 108/108/108 128/128/128 
f 128/128/128 108/108/108 107/107/107 
f 128/128/128 107/107/107 129/129/129 
f 129/129/129 107/107/107 130/130/130 
f 107/107/107 106/106/106 130/130/130 
f 129/129/129 130/130/130 131/131/131 
f 129/129/129 131/131/131 128/128/128 
f 131/131/131 132/132/132 128/128/128 
f 128/128/128 132/132/132 133/133/133 
f 128/128/128 133/133/133 127/127/127 
f 127/127/127 133/133/133 126/126/126 
f 133/133/133 134/134/134 126/126/126 
f 126/126/126 134/134/134 135/135/135 
f 126/126/126 135/135/135 136/136/136 
f 126/126/126 136/136/136 124/124/124 
f 124/124/124 136/136/136 137/137/137 
f 137/137/137 136/136/136 135/135/135 
f 124/124/124 137/137/137 138/138/138 
f 124/124/124 138/138/138 122/122/122 
f 138/138/138 137/137/137 139/139/139 
f 122/122/122 138/138/138 139/139/139 
f 122/122/122 139/139/139 140/140/140 
f 122/122/122 140/140/140 141/141/141 
f 122/122/122 141/141/141 121/121/121 
f 121/121/121 141/141/141 120/120/120 
f 141/141/141 142/142/142 120/120/120 
f 120/120/120 142/142/142 143/143/143 
f 120/120/120 143/143/143 119/119/119 
f 143/143/143 142/142/142 144/144/144 
f 144/144/144 142/142/142 141/141/141 
f 144/144/144 141/141/141 145/145/145 
f 145/145/145 141/141/141 146/146/146 
f 141/141/141 140/140/140 146/146/146 
f 146/146/146 140/140/140 139/139/139 
f 146/146/146 139/139/139 147/147/147 
f 147/147/147 139/139/139 148/148/148 
f 139/139/139 149/149/149 148/148/148 
f 149/149/149 139/139/139 137/137/137 
f 148/148/148 149/149/149 150/150/150 
f 137/137/137 150/150/150 149/149/149 
f 150/150/150 137/137/137 151/151/151 
f 151/151/151 137/137/137 135/135/135 
f 150/150/150 151/151/151 152/152/152 
f 135/135/135 152/152/152 151/151/151 
f 152/152/152 135/135/135 153/153/153 
f 153/153/153 135/135/135 154/154/154 
f 135/135/135 134/134/134 154/154/154 
f 154/154/154 134/134/134 133/133/133 
f 154/154/154 133/133/133 155/155/155 
f 155/155/155 133/133/133 156/156/156 
f 133/133/133 132/132/132 156/156/156 
f 155/155/155 156/156/156 157/157/157 
f 155/155/155 157/157/157 154/154/154 
f 157/157/157 158/158/158 154/154/154 
f 154/154/154 158/158/158 159/159/159 
f 154/154/154 159/159/159 153/153/153 
f 153/153/153 159/159/159 152/152/152 
f 159/159/159 160/160/160 152/152/152 
f 152/152/152 160/160/160 161/161/161 
f 152/152/152 161/161/161 162/162/162 
f 152/152/152 162/162/162 150/150/150 
f 162/162/162 161/161/161 163/163/163 
f 150/150/150 162/162/162 163/163/163 
f 150/150/150 163/163/163 164/164/164 
f 150/150/150 164/164/164 148/148/148 
f 148/148/148 164/164/164 165/165/165 
f 165/165/165 164/164/164 163/163/163 
f 148/148/148 165/165/165 166/166/166 
f 148/148/148 166/166/166 167/167/167 
f 148/148/148 167/167/167 147/147/147 
f 147/147/147 167/167/167 146/146/146 
f 167/167/167 168/168/168 146/146/146 
f 146/146/146 168/168/168 169/169/169 
f 146/146/146 169/169/169 145/145/145 
f 145/145/145 169/169/169 144/144/144 
f 169/169/169 170/170/170 144/144/144 
f 144/144/144 170/170/170 171/171/171 
f 144/144/144 171/171/171 172/172/172 
f 144/144/144 172/172/172 143/143/143 
f 143/143/143 172/172/172 173/173/173 
f 173/173/173 172/172/172 171/171/171 
f 173/173/173 171/171/171 174/174/174 
f 173/173/173 174/174/174 175/175/175 
f 173/173/173 175/175/175 176/176/176 
f 173/173/173 176/176/176 177/177/177 
f 173/173/173 177/177/177 178/178/178 
f 173/173/173 178/178/178 143/143/143 
f 178/178/178 177/177/177 118/118/118 
f 143/143/143 178/178/178 118/118/118 
f 143/143/143 118/118/118 119/119/119 
f 118/118/118 177/177/177 179/179/179 
f 118/118/118 179/179/179 117/117/117 
f 117/117/117 179/179/179 180/180/180 
f 180/180/180 179/179/179 177/177/177 
f 180/180/180 177/177/177 181/181/181 
f 181/181/181 177/177/177 182/182/182 
f 177/177/177 176/176/176 182/182/182 
f 182/182/182 176/176/176 175/175/175 
f 182/182/182 175/175/175 183/183/183 
f 182/182/182 183/183/183 184/184/184 
f 182/182/182 184/184/184 185/185/185 
f 182/182/182 185/185/185 186/186/186 
f 182/182/182 186/186/186 181/181/181 
f 181/181/181 186/186/186 180/180/180 
f 186/186/186 187/187/187 180/180/180 
f 180/180/180 187/187/187 188/188/188 
f 180/180/180 188/188/188 189/189/189 
f 180/180/180 189/189/189 117/117/117 
f 117/117/117 189/189/189 92/92/92 
f 92/92/92 189/189/189 188/188/188 
f 117/117/117 92/92/92 93/93/93 
f 188/188/188 190/190/190 92/92/92 
f 92/92/92 190/190/190 91/91/91 
f 190/190/190 188/188/188 191/191/191 
f 91/91/91 190/190/190 191/191/191 
f 188/188/188 192/192/192 191/191/191 
f 192/192/192 188/188/188 193/193/193 
f 188/188/188 187/187/187 193/193/193 
f 193/193/193 187/187/187 186/186/186 
f 193/193/193 186/186/186 194/194/194 
f 194/194/194 186/186/186 195/195/195 
f 186/186/186 185/185/185 195/195/195 
f 195/195/195 185/185/185 184/184/184 
f 195/195/195 184/184/184 196/196/196 
f 195/195/195 196/196/196 197/197/197 
f 195/195/195 197/197/197 198/198/198 
f 195/195/195 198/198/198 199/199/199 
f 195/195/195 199/199/199 194/194/194 
f 194/194/194 199/199/199 193/193/193 
f 199/199/199 200/200/200 193/193/193 
f 193/193/193 200/200/200 201/201/201 
f 193/193/193 201/201/201 192/192/192 
f 192/192/192 201/201/201 191/191/191 
f 201/201/201 202/202/202 191/191/191 
f 191/191/191 202/202/202 203/203/203 
f 191/191/191 203/203/203 204/204/204 
f 191/191/191 204/204/204 91/91/91 
f 91/91/91 204/204/204 66/66/66 
f 66/66/66 204/204/204 203/203/203 
f 91/91/91 66/66/66 67/67/67 
f 203/203/203 205/205/205 66/66/66 
f 66/66/66 205/205/205 65/65/65 
f 65/65/65 205/205/205 206/206/206 
f 206/206/206 205/205/205 203/203/203 
f 206/206/206 203/203/203 207/207/207 
f 207/207/207 203/203/203 208/208/208 
f 203/203/203 202/202/202 208/208/208 
f 208/208/208 202/202/202 201/201/201 
f 208/208/208 201/201/201 209/209/209 
f 209/209/209 201/201/201 210/210/210 
f 201/201/201 200/200/200 210/210/210 
f 210/210/210 200/200/200 199/199/199 
f 210/210/210 199/199/199 211/211/211 
f 211/211/211 199/199/199 212/212/212 
f 199/199/199 198/198/198 212/212/212 
f 212/212/212 198/198/198 197/197/197 
f 212/212/212 197/197/197 213/213/213 
f 206/206/206 214/214/214 65/65/65 
f 65/65/65 214/214/214 40/40/40 
f 65/65/65 40/40/40 41/41/41 
f 104/104/104 80/80/80 79/79/79 
f 104/104/104 79/79/79 215/215/215 
f 104/104/104 215/215/215 216/216/216 
f 104/104/104 216/216/216 217/217/217 
f 104/104/104 217/217/217 105/105/105 
f 105/105/105 217/217/217 218/218/218 
f 218/218/218 217/217/217 216/216/216 
f 105/105/105 218/218/218 219/219/219 
f 105/105/105 219/219/219 130/130/130 
f 105/105/105 130/130/130 106/106/106 
f 130/130/130 219/219/219 220/220/220 
f 220/220/220 219/219/219 218/218/218 
f 130/130/130 220/220/220 221/221/221 
f 130/130/130 221/221/221 131/131/131 
f 221/221/221 220/220/220 222/222/222 
f 131/131/131 221/221/221 222/222/222 
f 220/220/220 223/223/223 222/222/222 
f 223/223/223 220/220/220 224/224/224 
f 220/220/220 225/225/225 224/224/224 
f 225/225/225 220/220/220 218/218/218 
f 225/225/225 218/218/218 226/226/226 
f 225/225/225 226/226/226 224/224/224 
f 218/218/218 227/227/227 226/226/226 
f 227/227/227 218/218/218 216/216/216 
f 226/226/226 227/227/227 228/228/228 
f 216/216/216 228/228/228 227/227/227 
f 228/228/228 216/216/216 229/229/229 
f 229/229/229 216/216/216 230/230/230 
f 216/216/216 215/215/215 230/230/230 
f 230/230/230 215/215/215 79/79/79 
f 230/230/230 79/79/79 231/231/231 
f 231/231/231 79/79/79 78/78/78 
f 230/230/230 231/231/231 232/232/232 
f 78/78/78 232/232/232 231/231/231 
f 230/230/230 232/232/232 233/233/233 
f 230/230/230 233/233/233 234/234/234 
f 230/230/230 234/234/234 229/229/229 
f 229/229/229 234/234/234 228/228/228 
f 234/234/234 235/235/235 228/228/228 
f 228/228/228 235/235/235 236/236/236 
f 228/228/228 236/236/236 237/237/237 
f 228/228/228 237/237/237 226/226/226 
f 226/226/226 237/237/237 238/238/238 
f 238/238/238 237/237/237 236/236/236 
f 226/226/226 238/238/238 239/239/239 
f 226/226/226 239/239/239 224/224/224 
f 239/239/239 238/238/238 240/240/240 
f 224/224/224 239/239/239 240/240/240 
f 224/224/224 240/240/240 241/241/241 
f 224/224/224 241/241/241 242/242/242 
f 224/224/224 242/242/242 223/223/223 
f 223/223/223 242/242/242 222/222/222 
f 242/242/242 243/243/243 222/222/222 
f 243/243/243 242/242/242 244/244/244 
f 242/242/242 245/245/245 244/244/244 
f 245/245/245 242/242/242 246/246/246 
f 242/242/242 241/241/241 246/246/246 
f 246/246/246 241/241/241 240/240/240 
f 246/246/246 240/240/240 247/247/247 
f 247/247/247 240/240/240 248/248/248 
f 240/240/240 249/249/249 248/248/248 
f 249/249/249 240/240/240 238/238/238 
f 249/249/249 238/238/238 250/250/250 
f 249/249/249 250/250/250 248/248/248 
f 238/238/238 251/251/251 250/250/250 
f 251/251/251 238/238/238 236/236/236 
f 250/250/250 251/251/251 252/252/252 
f 236/236/236 252/252/252 251/251/251 
f 252/252/252 236/236/236 253/253/253 
f 253/253/253 236/236/236 254/254/254 
f 236/236/236 235/235/235 254/254/254 
f 254/254/254 235/235/235 234/234/234 
f 254/254/254 234/234/234 255/255/255 
f 255/255/255 234/234/234 256/256/256 
f 234/234/234 233/233/233 256/256/256 
f 255/255/255 256/256/256 257/257/257 
f 255/255/255 257/257/257 254/254/254 
f 257/257/257 258/258/258 254/254/254 
f 254/254/254 258/258/258 259/259/259 
f 254/254/254 259/259/259 253/253/253 
f 253/253/253 259/259/259 252/252/252 
f 259/259/259 260/260/260 252/252/252 
f 252/252/252 260/260/260 261/261/261 
f 252/252/252 261/261/261 262/262/262 
f 252/252/252 262/262/262 250/250/250 
f 262/262/262 261/261/261 263/263/263 
f 250/250/250 262/262/262 263/263/263 
f 250/250/250 263/263/263 264/264/264 
f 250/250/250 264/264/264 248/248/248 
f 263/263/263 261/261/261 265/265/265 
f 256/256/256 233/233/233 232/232/232 
f 256/256/256 232/232/232 266/266/266 
f 256/256/256 266/266/266 267/267/267 
f 256/256/256 267/267/267 268/268/268 
f 256/256/256 268/268/268 257/257/257 
f 267/267/267 266/266/266 269/269/269 
f 267/267/267 269/269/269 270/270/270 
f 269/269/269 266/266/266 232/232/232 
f 270/270/270 269/269/269 271/271/271 
f 232/232/232 272/272/272 269/269/269 
f 272/272/272 232/232/232 78/78/78 
f 272/272/272 78/78/78 53/53/53 
f 272/272/272 53/53/53 269/269/269 
f 53/53/53 273/273/273 269/269/269 
f 269/269/269 273/273/273 271/271/271 
f 273/273/273 53/53/53 52/52/52 
f 271/271/271 273/273/273 52/52/52 
f 271/271/271 52/52/52 274/274/274 
f 274/274/274 52/52/52 28/28/28 
f 52/52/52 29/29/29 28/28/28 
f 78/78/78 54/54/54 53/53/53 
f 156/156/156 132/132/132 131/131/131 
f 156/156/156 131/131/131 275/275/275 
f 275/275/275 131/131/131 222/222/222 
f 156/156/156 275/275/275 276/276/276 
f 222/222/222 276/276/276 275/275/275 
f 276/276/276 222/222/222 243/243/243 
f 276/276/276 243/243/243 244/244/244 
f 276/276/276 244/244/244 277/277/277 
f 276/276/276 277/277/277 278/278/278 
f 276/276/276 278/278/278 279/279/279 
f 276/276/276 279/279/279 156/156/156 
f 156/156/156 279/279/279 157/157/157 
f 157/157/157 279/279/279 278/278/278 
f 157/157/157 278/278/278 280/280/280 
f 157/157/157 280/280/280 281/281/281 
f 157/157/157 281/281/281 158/158/158 
f 158/158/158 281/281/281 159/159/159 
f 281/281/281 282/282/282 159/159/159 
f 159/159/159 282/282/282 283/283/283 
f 159/159/159 283/283/283 160/160/160 
f 160/160/160 283/283/283 161/161/161 
f 283/283/283 284/284/284 161/161/161 
f 161/161/161 284/284/284 285/285/285 
f 161/161/161 285/285/285 286/286/286 
f 161/161/161 286/286/286 163/163/163 
f 286/286/286 285/285/285 287/287/287 
f 163/163/163 286/286/286 287/287/287 
f 285/285/285 288/288/288 287/287/287 
f 287/287/287 289/289/289 163/163/163 
f 163/163/163 289/289/289 165/165/165 
# 0 polygons - 512 triangles

