# 3ds Max Wavefront OBJ Exporter v0.97b - (c)2007 guruware
# File Created: 04.04.2021 15:26:40

mtllib SM_Chair_Metal_Guest.mtl

#
# object SM_Chair_Metal_Guest
#

v  3.5149 82.0879 -50.2963
v  5.1648 82.4613 -50.2641
v  5.4617 81.1968 -51.7156
v  3.7852 80.8200 -51.6805
v  2.1915 80.1659 -49.5192
v  2.5973 79.4849 -50.1838
v  3.8537 77.9194 -52.1886
v  5.6115 78.3017 -52.2002
v  6.6421 78.6058 -50.6340
v  6.5905 80.4762 -50.3014
v  7.4700 78.7771 -47.9120
v  6.3022 81.1537 -49.4461
v  6.2796 81.6899 -48.1570
v  5.1009 83.3126 -48.1704
v  3.4245 82.9377 -48.1818
v  3.3301 83.6212 -41.0129
v  5.2691 83.9995 -41.0129
v  6.6804 82.3912 -41.0129
v  7.9322 79.0645 -41.0129
v  7.5668 70.8112 -47.8588
v  6.9806 70.7911 -50.3155
v  5.8736 70.7386 -51.8339
v  4.0034 70.6733 -51.8339
v  2.6511 77.6113 -50.6098
v  2.8223 70.6208 -50.3155
v  4.4579 62.1462 -51.3484
v  6.1266 62.3887 -51.3484
v  7.0850 62.7317 -49.9560
v  7.5346 63.3157 -47.8193
v  8.0827 70.8112 -41.0129
v  8.0130 79.0645 -27.8301
v  6.6867 82.3917 -27.8301
v  5.2662 84.0000 -27.8301
v  3.3274 83.6217 -27.8301
v  2.2861 81.0555 -41.0129
v  2.2053 80.7434 -48.1867
v  2.0985 77.8450 -41.0129
v  2.1228 77.5584 -47.9051
v  2.3726 70.6008 -47.8588
v  2.6772 70.6008 -41.0129
v  2.7227 61.4606 -41.0129
v  2.6745 70.6008 -27.8301
v  2.0959 77.8450 -27.8301
v  2.2834 81.4053 -27.8301
v  2.2861 81.0555 -14.6473
v  3.3301 83.6212 -14.6473
v  5.2692 83.9995 -14.6473
v  6.6804 82.3912 -14.6473
v  6.2796 81.6899 -7.5032
v  5.1009 83.3126 -7.4898
v  3.4245 82.9377 -7.4783
v  2.2053 80.7434 -7.4734
v  2.0985 77.8450 -14.6473
v  2.6772 70.6008 -14.6473
v  2.1228 77.5584 -7.7551
v  2.3726 70.6008 -7.8013
v  2.7227 61.4606 -14.6473
v  2.7200 61.2115 -27.8301
v  3.2355 60.5639 -27.8301
v  3.2381 60.8130 -41.0129
v  2.8164 62.1413 -47.4843
v  3.3075 61.0397 -48.0531
v  3.2904 61.4877 -49.4232
v  3.2661 61.9885 -50.4073
v  3.2381 60.8130 -14.6473
v  2.8164 62.1413 -8.1759
v  3.3075 61.0397 -7.6070
v  3.2904 61.4877 -6.2369
v  3.2661 61.9885 -5.2529
v  2.8223 70.6208 -5.3446
v  2.6511 77.6113 -5.0504
v  2.5973 79.4849 -5.4764
v  2.1915 80.1659 -6.1410
v  3.5149 82.0879 -5.3638
v  5.1648 82.4613 -5.3961
v  5.4617 81.1968 -3.9446
v  3.7852 80.8200 -3.9797
v  6.3022 81.1537 -6.2140
v  6.5905 80.4762 -5.3588
v  7.4700 78.7771 -7.7482
v  7.9322 79.0645 -14.6473
v  7.5668 70.8112 -7.8013
v  6.6421 78.6058 -5.0262
v  5.6115 78.3017 -3.4600
v  6.9806 70.7911 -5.3446
v  7.5346 63.3157 -7.8409
v  8.0827 70.8112 -14.6473
v  8.7346 70.8112 -27.8301
v  7.6747 62.6362 -14.6473
v  7.6721 62.3871 -27.8301
v  7.6747 62.6362 -41.0129
v  7.1264 61.8866 -48.0678
v  7.2463 61.7297 -41.0129
v  7.2437 61.4806 -27.8301
v  7.2463 61.7297 -14.6473
v  7.1264 61.8866 -7.5924
v  7.1093 62.1694 -6.1250
v  7.0850 62.7317 -5.7042
v  5.8736 70.7386 -3.8263
v  6.1266 62.3887 -4.3118
v  6.1660 61.0563 -5.5766
v  6.1936 61.0294 -7.5924
v  6.2564 60.8766 -14.6473
v  4.5143 60.5931 -7.5924
v  6.2538 60.6275 -27.8301
v  6.2564 60.8766 -41.0129
v  6.1936 61.0294 -48.0678
v  6.1660 61.0563 -50.0836
v  7.1093 62.1694 -49.5352
v  4.4969 60.8136 -50.2122
v  4.5143 60.5931 -48.0678
v  4.5022 60.4529 -14.6473
v  4.4996 60.2038 -27.8301
v  4.5022 60.4529 -41.0129
v  3.8537 77.9194 -3.4716
v  4.0034 70.6733 -3.8263
v  4.4579 62.1462 -4.3118
v  4.4969 60.8136 -5.4480
v  44.4613 58.4454 -54.8139
v  44.0809 58.4450 -55.2010
v  44.4547 58.8711 -55.4006
v  45.0856 58.9612 -54.8823
v  44.9010 60.5290 -55.8177
v  45.4460 59.0223 -53.0109
v  44.8260 58.6594 -53.0109
v  44.4613 58.4454 -51.2078
v  45.0856 58.9612 -51.1395
v  45.7711 60.6530 -53.0109
v  45.4713 60.5970 -55.3998
v  44.8999 61.7090 -55.3314
v  44.6008 61.6413 -55.5370
v  45.2813 61.7631 -53.0109
v  45.4713 60.5970 -50.6220
v  44.8999 61.7090 -50.6904
v  44.9010 60.5290 -50.2040
v  44.4547 58.8711 -50.6212
v  44.0810 58.4450 -50.8208
v  44.3705 61.9385 -53.0109
v  44.1464 61.8142 -55.1603
v  24.7751 62.0241 -52.5715
v  44.1464 61.8142 -50.8615
v  44.6008 61.6413 -50.4848
v  44.0304 61.6437 -50.3199
v  24.7593 61.7499 -50.5453
v  24.7633 61.9034 -50.9178
v  2.2474 61.3306 -52.1989
v  24.7633 61.9034 -54.2253
v  24.7593 61.7499 -54.5978
v  44.0304 61.6437 -55.7018
v  43.8553 60.4737 -56.0000
v  24.7631 60.7647 -54.9239
v  2.2503 60.3893 -54.0887
v  2.2497 61.1696 -53.8033
v  2.2487 61.2989 -53.5330
v  2.2487 61.2988 -50.8649
v  2.2497 61.1696 -50.5946
v  2.2503 60.3893 -50.3092
v  24.7631 60.7647 -50.2192
v  43.8553 60.4737 -50.0218
v  43.6043 58.9034 -50.2314
v  24.7628 59.3662 -50.5331
v  2.2495 59.2817 -50.6734
v  2.2491 58.9160 -50.9497
v  24.7641 58.9044 -50.7358
v  24.7630 58.5928 -51.3110
v  43.4585 58.4445 -50.4324
v  43.2186 58.0939 -51.2367
v  43.2483 58.0888 -53.0097
v  24.7755 58.5807 -52.5715
v  2.2475 58.5976 -52.1989
v  2.2484 58.7649 -51.5426
v  2.2495 59.2817 -53.7245
v  2.2491 58.9160 -53.4518
v  2.2481 58.6792 -52.8123
v  24.7628 59.3662 -54.6099
v  43.6043 58.9034 -55.7904
v  24.7641 58.9044 -54.4073
v  24.7630 58.5928 -53.8321
v  43.4585 58.4445 -55.5893
v  43.2186 58.0939 -54.7850
v  2.1862 81.0458 -7.2995
v  0.1260 81.0154 -7.2995
v  0.1260 81.0154 -5.2295
v  2.1862 81.0458 -5.2295
v  4.6030 37.5982 -5.2295
v  4.6030 37.5982 -7.2995
v  2.5428 37.5875 -5.2295
v  2.5428 37.5875 -7.2995
v  2.1862 81.0458 -48.3607
v  2.1862 81.0458 -50.4307
v  0.1260 81.0154 -50.4307
v  0.1260 81.0154 -48.3607
v  2.5428 37.5875 -48.3607
v  4.6030 37.5982 -48.3607
v  4.6030 37.5982 -50.4307
v  2.5428 37.5875 -50.4307
v  43.8278 0.5789 -51.6742
v  43.8277 0.5617 -49.1066
v  41.2335 34.7205 -47.4845
v  41.2335 34.7205 -50.6897
v  46.0282 0.5922 -51.6652
v  43.9807 34.7205 -50.6784
v  45.9710 0.5863 -49.0311
v  43.9807 34.7205 -47.4732
v  41.2334 34.7205 -8.1757
v  43.8277 0.5618 -6.5536
v  43.8278 0.5789 -3.9859
v  41.2334 34.7205 -4.9704
v  46.0282 0.5923 -3.9950
v  43.9807 34.7205 -4.9817
v  45.9710 0.5863 -6.6291
v  43.9807 34.7205 -8.1870
v  4.9554 34.7205 -50.8919
v  4.9520 34.7205 -47.6839
v  2.1413 0.7349 -49.0844
v  2.1444 0.7486 -51.7876
v  2.2130 34.7205 -50.8973
v  0.0043 0.7290 -51.7252
v  2.2097 34.7205 -47.6893
v  0.0000 0.7137 -49.1553
v  42.2325 23.3104 -48.4127
v  3.7996 23.3101 -48.4181
v  3.7996 23.3146 -50.7820
v  42.2363 23.3146 -50.7820
v  42.1283 24.8560 -50.7021
v  3.7996 24.8560 -50.7021
v  3.7996 24.8524 -48.3785
v  42.1283 24.8521 -48.3725
v  4.9520 34.7205 -4.7683
v  2.1444 0.7486 -3.8726
v  2.1414 0.7349 -6.5758
v  4.9520 34.7205 -7.9763
v  0.0000 0.7137 -6.5048
v  2.2097 34.7205 -7.9708
v  0.0043 0.7290 -3.9350
v  2.2130 34.7205 -4.7629
v  42.2363 23.3196 -4.9177
v  3.7996 23.3187 -4.9200
v  3.7996 23.3196 -7.2540
v  42.2363 23.3196 -7.2540
v  42.1283 24.8590 -7.2379
v  3.7996 24.8590 -7.2379
v  3.7996 24.8583 -4.9083
v  42.1283 24.8590 -4.9083
v  2.1121 1.0031 -50.6929
v  2.1121 1.0031 -50.0329
v  2.1121 0.0000 -50.0329
v  2.1121 0.0000 -50.6929
v  1.7234 1.0031 -51.2269
v  1.7234 0.0000 -51.2269
v  1.0946 1.0031 -51.4308
v  1.0946 0.0000 -51.4308
v  0.4658 1.0031 -51.2269
v  0.4658 0.0000 -51.2269
v  0.0771 1.0031 -50.6929
v  0.0771 0.0000 -50.6929
v  0.0771 1.0031 -50.0329
v  0.0771 0.0000 -50.0329
v  0.4658 1.0031 -49.4990
v  0.4658 0.0000 -49.4990
v  1.0946 1.0031 -49.2951
v  1.0946 0.0000 -49.2951
v  1.7234 1.0031 -49.4990
v  1.7234 0.0000 -49.4990
v  45.9030 1.0031 -50.6929
v  45.9030 1.0031 -50.0329
v  45.9030 0.0000 -50.0329
v  45.9030 0.0000 -50.6929
v  45.5143 1.0031 -51.2269
v  45.5143 0.0000 -51.2269
v  44.8855 1.0031 -51.4308
v  44.8855 0.0000 -51.4308
v  44.2567 1.0031 -51.2269
v  44.2567 0.0000 -51.2269
v  43.8681 1.0031 -50.6929
v  43.8680 0.0000 -50.6929
v  43.8681 1.0031 -50.0329
v  43.8680 0.0000 -50.0329
v  44.2567 1.0031 -49.4990
v  44.2567 0.0000 -49.4990
v  44.8855 1.0031 -49.2951
v  44.8855 0.0000 -49.2951
v  45.5143 1.0031 -49.4990
v  45.5143 0.0000 -49.4990
v  2.1121 1.0031 -5.4279
v  2.1121 1.0031 -4.7679
v  2.1121 0.0000 -4.7679
v  2.1121 0.0000 -5.4279
v  1.7234 1.0031 -5.9618
v  1.7234 0.0000 -5.9618
v  1.0946 1.0031 -6.1658
v  1.0946 0.0000 -6.1658
v  0.4658 1.0031 -5.9618
v  0.4658 0.0000 -5.9618
v  0.0771 1.0031 -5.4279
v  0.0771 0.0000 -5.4279
v  0.0771 1.0031 -4.7679
v  0.0771 0.0000 -4.7679
v  0.4658 1.0031 -4.2340
v  0.4658 0.0000 -4.2340
v  1.0946 1.0031 -4.0300
v  1.0946 0.0000 -4.0300
v  1.7234 1.0031 -4.2340
v  1.7234 0.0000 -4.2340
v  44.2572 1.0031 -4.4885
v  43.8686 1.0031 -5.0224
v  43.8685 0.0000 -5.0224
v  44.2572 0.0000 -4.4885
v  44.8860 1.0031 -4.2846
v  44.8860 0.0000 -4.2846
v  45.5148 1.0031 -4.4885
v  45.5148 0.0000 -4.4885
v  45.9035 1.0031 -5.0224
v  45.9035 0.0000 -5.0224
v  45.9035 1.0031 -5.6824
v  45.9035 0.0000 -5.6824
v  45.5148 1.0031 -6.2164
v  45.5148 0.0000 -6.2164
v  44.8860 1.0031 -6.4203
v  44.8860 0.0000 -6.4203
v  44.2572 1.0031 -6.2164
v  44.2572 0.0000 -6.2164
v  43.8686 1.0031 -5.6824
v  43.8685 0.0000 -5.6824
v  44.4602 58.4464 -4.7922
v  44.0798 58.4460 -5.1792
v  44.4536 58.8721 -5.3788
v  45.0845 58.9622 -4.8605
v  44.8998 60.5300 -5.7960
v  45.4448 59.0234 -2.9891
v  44.8248 58.6605 -2.9891
v  44.4602 58.4464 -1.1861
v  45.0845 58.9622 -1.1177
v  45.7700 60.6541 -2.9891
v  45.4701 60.5980 -5.3780
v  44.8988 61.7100 -5.3096
v  44.5997 61.6423 -5.5152
v  45.2802 61.7642 -2.9891
v  45.4701 60.5980 -0.6002
v  44.8988 61.7100 -0.6686
v  44.8998 60.5300 -0.1823
v  44.4536 58.8722 -0.5994
v  44.0798 58.4460 -0.7990
v  44.3693 61.9395 -2.9891
v  44.1452 61.8152 -5.1385
v  24.7739 62.0252 -3.3074
v  44.1452 61.8152 -0.8398
v  44.5997 61.6423 -0.4630
v  44.0292 61.6447 -0.2982
v  24.7581 61.7509 -1.2811
v  24.7621 61.9044 -1.6537
v  2.2462 61.3316 -3.5664
v  24.7621 61.9044 -4.9611
v  24.7581 61.7509 -5.3337
v  44.0292 61.6447 -5.6801
v  43.8541 60.4747 -5.9783
v  24.7620 60.7658 -5.6598
v  2.2491 60.3904 -5.4562
v  2.2486 61.1706 -5.1708
v  2.2475 61.2999 -4.9004
v  2.2475 61.2999 -2.2324
v  2.2486 61.1706 -1.9620
v  2.2491 60.3904 -1.6767
v  24.7620 60.7658 -0.9550
v  43.8542 60.4747 -0.0000
v  43.6031 58.9045 -0.2096
v  24.7616 59.3672 -1.2690
v  2.2483 59.2828 -2.0409
v  2.2480 58.9171 -2.3172
v  24.7629 58.9055 -1.4716
v  43.4573 58.4456 -0.4107
v  43.2175 58.0949 -1.2150
v  24.7618 58.5938 -2.0468
v  2.2472 58.7659 -2.9101
v  2.2464 58.5986 -3.5664
v  24.7743 58.5818 -3.3074
v  43.2471 58.0898 -2.9880
v  2.2483 59.2828 -5.0919
v  2.2480 58.9171 -4.8193
v  2.2470 58.6803 -4.1798
v  24.7616 59.3672 -5.3458
v  24.7629 58.9055 -5.1432
v  43.6031 58.9045 -5.7686
v  43.4573 58.4456 -5.5676
v  43.2175 58.0949 -4.7633
v  24.7618 58.5938 -4.5680
v  28.3449 34.7102 -51.0116
v  26.0330 34.7102 -51.0116
v  26.3652 34.7102 -52.6299
v  28.6726 34.7102 -52.7827
v  31.4911 60.1037 -54.2268
v  31.1562 60.3826 -52.0122
v  26.6513 37.8081 -51.0233
v  33.9401 60.0897 -54.4507
v  33.6338 60.3534 -52.1182
v  28.9703 37.8081 -51.0334
v  26.3652 34.7102 -2.9615
v  26.0330 34.7102 -4.5798
v  28.3449 34.7102 -4.5798
v  28.6726 34.7102 -2.8087
v  31.4911 60.1037 -1.3646
v  31.1562 60.3826 -3.5792
v  26.6513 37.8081 -4.5681
v  33.9401 60.0897 -1.1407
v  33.6338 60.3534 -3.4733
v  28.9703 37.8081 -4.5580
v  40.7010 37.8007 -47.4837
v  5.7439 37.8007 -47.4836
v  5.7439 34.7205 -47.4836
v  40.7010 34.7205 -47.4837
v  1.9892 34.7205 -51.0101
v  44.2884 34.7205 -51.0116
v  44.2884 37.8081 -51.0116
v  1.9892 37.8007 -51.0351
v  44.2884 34.7205 -4.5807
v  40.7010 34.7205 -8.1087
v  40.7010 37.8007 -8.1087
v  44.2884 37.8081 -4.5807
v  1.9892 37.8007 -4.5571
v  5.7439 37.8007 -8.1086
v  1.9892 34.7205 -4.5822
v  5.7439 34.7205 -8.1086
v  13.0405 37.5571 -27.8301
v  3.6774 37.9930 -27.8301
v  4.3267 37.8203 -41.9459
v  4.3267 37.8203 -13.7143
v  13.0405 37.5571 -42.7728
v  4.9975 37.8203 -47.1615
v  12.5597 37.5571 -49.3801
v  28.6274 37.5571 -42.4343
v  28.6274 37.5571 -27.8301
v  13.0405 37.5571 -12.8874
v  5.2556 37.8203 -7.6791
v  12.5597 37.5571 -6.2801
v  28.6274 37.5571 -13.2258
v  36.2549 37.5571 -27.8301
v  36.3480 37.5571 -42.7746
v  27.6406 37.8081 -51.0334
v  35.7376 37.5571 -50.7820
v  45.5129 37.4329 -42.0713
v  45.8305 37.2766 -27.8301
v  36.3480 37.5571 -12.8856
v  27.4113 37.8211 -5.5470
v  35.7376 37.5571 -4.8782
v  45.5129 37.4329 -13.5889
v  44.2082 37.7899 -5.0151
v  47.1805 39.6285 -14.1475
v  46.7243 40.0704 -5.3757
v  47.6844 42.9053 -14.2351
v  47.4748 39.4722 -27.8301
v  47.1805 39.6285 -41.5127
v  44.2082 37.8632 -50.6450
v  46.7243 40.0704 -50.2845
v  47.6844 42.9053 -41.4251
v  48.0000 42.9101 -27.8301
v  44.3715 45.8003 -13.4248
v  47.3020 43.3417 -5.4968
v  43.8481 45.3210 -5.5850
v  36.0244 46.9104 -12.9899
v  36.2549 47.5229 -27.8301
v  44.6150 45.9337 -27.8301
v  44.3715 45.8003 -42.2354
v  47.3020 43.3417 -50.1634
v  43.8481 45.3210 -50.0752
v  36.0244 47.1735 -42.6703
v  28.6274 47.6636 -27.8301
v  28.6257 47.3059 -12.9653
v  35.6832 46.1178 -5.6424
v  28.6310 46.1802 -6.3333
v  12.7457 46.5153 -12.9916
v  13.0405 46.7361 -27.8301
v  28.6257 47.3059 -42.6602
v  35.6832 46.1178 -49.7233
v  28.6310 46.1802 -49.5012
v  12.7457 46.5153 -42.6685
v  12.3249 45.4110 -49.3880
v  3.9432 45.3113 -42.0588
v  3.8413 45.3827 -27.8301
v  3.9432 45.3113 -13.6013
v  12.3249 45.4110 -6.2722
v  12.2110 43.4421 -4.4106
v  27.8171 43.6521 -4.3692
v  30.1768 43.6035 -4.3177
v  35.5864 43.6388 -4.0165
v  35.4484 40.1681 -4.1506
v  43.4781 43.4463 -4.1567
v  43.2129 40.1871 -4.2990
v  45.1062 43.4343 -4.1892
v  46.3869 43.4434 -4.5759
v  44.8176 40.1967 -4.1940
v  45.9515 40.1842 -4.4879
v  29.4535 40.0988 -4.4800
v  27.1609 40.1515 -4.5201
v  12.4066 40.1681 -4.5423
v  6.9426 40.1669 -4.5768
v  5.9642 40.1669 -4.6858
v  4.4598 40.1723 -5.2295
v  6.7606 43.4474 -4.4149
v  5.6742 43.4474 -4.5296
v  4.2769 43.4602 -5.2295
v  4.8734 44.7588 -6.9476
v  2.6981 43.4564 -13.9637
v  4.2769 43.4602 -7.2995
v  2.8279 40.1790 -13.9515
v  4.4598 40.1723 -7.2995
v  2.5833 40.1790 -27.8301
v  2.4467 43.4506 -27.8301
v  2.6981 43.4564 -41.6965
v  2.8279 40.1790 -41.7087
v  4.4606 40.1577 -48.3607
v  4.2787 43.4284 -48.3607
v  4.8734 44.7588 -48.7125
v  6.7606 43.4474 -51.2452
v  12.2110 43.4421 -51.2496
v  6.9425 40.1669 -51.0834
v  5.9642 40.1669 -50.9743
v  5.6742 43.4474 -51.1306
v  4.4606 40.1577 -50.4307
v  4.2787 43.4284 -50.4307
v  12.4066 40.1681 -51.1179
v  27.1735 40.4249 -51.1380
v  27.8063 43.5959 -51.2769
v  30.1660 43.5884 -51.3115
v  29.5109 40.4215 -51.1592
v  35.4484 40.1681 -51.5095
v  35.5863 43.6388 -51.4327
v  43.4781 43.4463 -51.5035
v  43.2129 40.1871 -51.3612
v  44.8176 40.1967 -51.4662
v  45.1062 43.4343 -51.4710
v  46.3869 43.4434 -51.0842
v  45.9515 40.1842 -51.1722
# 532 vertices

vn -0.5418 0.6863 -0.4853
vn 0.1823 0.8224 -0.5389
vn 0.3798 0.4909 -0.7841
vn -0.4664 0.3671 -0.8048
vn -0.9217 0.2139 -0.3235
vn -0.8976 -0.0102 -0.4407
vn -0.4439 0.0435 -0.8950
vn 0.4448 0.0789 -0.8921
vn 0.8965 0.0640 -0.4385
vn 0.8882 0.3256 -0.3242
vn 0.9739 0.1645 -0.1565
vn 0.8546 0.4972 -0.1498
vn 0.8602 0.4908 -0.1385
vn 0.3309 0.9176 -0.2204
vn -0.5816 0.7897 -0.1951
vn -0.6300 0.7756 -0.0392
vn 0.3248 0.9442 -0.0543
vn 0.8539 0.5181 -0.0487
vn 0.9812 0.1885 -0.0405
vn 0.9876 0.0082 -0.1566
vn 0.9096 0.0040 -0.4155
vn 0.4551 -0.0341 -0.8898
vn -0.4400 -0.0634 -0.8958
vn -0.9131 0.0101 -0.4076
vn -0.9079 -0.0517 -0.4159
vn -0.2569 -0.3570 -0.8981
vn 0.4531 -0.3187 -0.8325
vn 0.9089 -0.1236 -0.3982
vn 0.9876 -0.1169 -0.1048
vn 0.9988 -0.0037 -0.0495
vn 0.9761 0.2175 0.0000
vn 0.8519 0.5237 -0.0000
vn 0.3214 0.9469 -0.0000
vn -0.6172 0.7868 0.0000
vn -0.9733 0.2294 -0.0092
vn -0.9533 0.2931 -0.0724
vn -0.9999 -0.0122 0.0009
vn -0.9962 -0.0240 -0.0842
vn -0.9966 -0.0370 -0.0741
vn -0.9992 -0.0368 0.0166
vn -0.9382 -0.3453 -0.0224
vn -0.9991 -0.0423 0.0000
vn -0.9999 -0.0135 0.0000
vn -0.9689 0.2474 0.0000
vn -0.9733 0.2294 0.0092
vn -0.6300 0.7756 0.0392
vn 0.3248 0.9442 0.0543
vn 0.8539 0.5181 0.0487
vn 0.8602 0.4908 0.1385
vn 0.3309 0.9176 0.2204
vn -0.5816 0.7897 0.1951
vn -0.9533 0.2931 0.0724
vn -0.9999 -0.0122 -0.0009
vn -0.9992 -0.0368 -0.0166
vn -0.9962 -0.0240 0.0842
vn -0.9966 -0.0370 0.0741
vn -0.9382 -0.3453 0.0224
vn -0.9420 -0.3356 0.0000
vn -0.5547 -0.8320 0.0000
vn -0.5607 -0.8273 -0.0352
vn -0.9738 -0.2162 -0.0707
vn -0.5800 -0.8027 -0.1386
vn -0.7801 -0.5959 -0.1907
vn -0.8510 -0.2934 -0.4357
vn -0.5607 -0.8273 0.0352
vn -0.9738 -0.2162 0.0707
vn -0.5800 -0.8027 0.1386
vn -0.7801 -0.5959 0.1907
vn -0.8510 -0.2933 0.4357
vn -0.9079 -0.0517 0.4159
vn -0.9131 0.0101 0.4076
vn -0.8720 0.0220 0.4890
vn -0.9458 0.1379 0.2940
vn -0.5423 0.6874 0.4831
vn 0.3233 0.8278 0.4584
vn 0.2295 0.5795 0.7820
vn -0.4645 0.3612 0.8085
vn 0.8546 0.4973 0.1498
vn 0.8882 0.3256 0.3242
vn 0.9739 0.1645 0.1565
vn 0.9812 0.1885 0.0405
vn 0.9876 0.0082 0.1566
vn 0.8965 0.0640 0.4385
vn 0.4448 0.0790 0.8921
vn 0.9096 0.0040 0.4156
vn 0.9876 -0.1169 0.1048
vn 0.9988 -0.0037 0.0495
vn 1.0000 -0.0058 0.0000
vn 0.9683 -0.2487 0.0238
vn 0.9596 -0.2814 0.0000
vn 0.9683 -0.2487 -0.0238
vn 0.8534 -0.5188 -0.0514
vn 0.7965 -0.6043 -0.0178
vn 0.7946 -0.6072 0.0000
vn 0.7965 -0.6043 0.0178
vn 0.8534 -0.5188 0.0514
vn 0.8957 -0.3671 0.2508
vn 0.9089 -0.1236 0.3982
vn 0.4551 -0.0341 0.8898
vn 0.4531 -0.3187 0.8325
vn 0.4974 -0.7836 0.3723
vn 0.3840 -0.9222 0.0451
vn 0.4575 -0.8890 0.0191
vn -0.0741 -0.9933 0.0882
vn 0.4554 -0.8903 0.0000
vn 0.4575 -0.8890 -0.0191
vn 0.3840 -0.9222 -0.0451
vn 0.4974 -0.7836 -0.3723
vn 0.8957 -0.3671 -0.2508
vn -0.1795 -0.8820 -0.4358
vn -0.0741 -0.9933 -0.0882
vn -0.0226 -0.9995 0.0226
vn -0.0202 -0.9998 0.0000
vn -0.0226 -0.9995 -0.0226
vn -0.4439 0.0435 0.8950
vn -0.4400 -0.0634 0.8958
vn -0.2569 -0.3570 0.8981
vn -0.1795 -0.8820 0.4358
vn 0.4297 -0.8814 -0.1961
vn 0.4127 -0.7616 -0.4996
vn 0.4595 -0.4823 -0.7458
vn 0.7666 -0.5255 -0.3689
vn 0.3945 -0.0161 -0.9188
vn 0.8438 -0.5367 -0.0000
vn 0.3793 -0.9253 -0.0000
vn 0.4298 -0.8814 0.1961
vn 0.7666 -0.5255 0.3689
vn 0.9954 0.0953 0.0000
vn 0.8600 0.0453 -0.5083
vn 0.5148 0.7436 -0.4268
vn 0.2465 0.6456 -0.7228
vn 0.6399 0.7684 0.0000
vn 0.8600 0.0453 0.5083
vn 0.5148 0.7436 0.4267
vn 0.3945 -0.0161 0.9188
vn 0.4595 -0.4823 0.7458
vn 0.4127 -0.7616 0.4996
vn 0.0959 0.9954 -0.0004
vn 0.0511 0.9814 -0.1851
vn -0.0139 0.9999 0.0002
vn 0.0549 0.9814 0.1840
vn 0.2466 0.6456 0.7228
vn 0.1111 0.6528 0.7493
vn -0.0110 0.6847 0.7287
vn -0.0118 0.9734 0.2287
vn -0.7257 0.6880 0.0002
vn -0.0206 0.9734 -0.2280
vn -0.0395 0.6852 -0.7273
vn 0.0950 0.6518 -0.7524
vn 0.0860 0.0233 -0.9960
vn -0.0490 0.0506 -0.9975
vn -0.7202 0.0088 -0.6937
vn -0.7225 0.4652 -0.5115
vn -0.6778 0.7153 -0.1699
vn -0.6725 0.7194 0.1737
vn -0.7124 0.4691 0.5220
vn -0.7079 0.0088 0.7063
vn -0.0095 0.0506 0.9987
vn 0.1087 0.0202 0.9939
vn 0.2049 -0.3197 0.9251
vn -0.0131 -0.3108 0.9504
vn -0.7068 -0.3270 0.6274
vn -0.7092 -0.5860 0.3921
vn -0.0180 -0.6761 0.7366
vn -0.0160 -0.9680 0.2506
vn 0.1666 -0.7012 0.6932
vn 0.1104 -0.9777 0.1787
vn 0.1614 -0.9869 0.0000
vn -0.0149 -0.9999 -0.0005
vn -0.4581 -0.8876 0.0484
vn -0.7104 -0.6818 0.1747
vn -0.7176 -0.3208 -0.6182
vn -0.7153 -0.5610 -0.4167
vn -0.7106 -0.6833 -0.1677
vn -0.0508 -0.3104 -0.9492
vn 0.1837 -0.3163 -0.9307
vn -0.0484 -0.6766 -0.7347
vn -0.0279 -0.9680 -0.2496
vn 0.1491 -0.6970 -0.7014
vn 0.1045 -0.9775 -0.1834
vn 0.5604 0.6012 -0.5697
vn -0.5239 0.6890 -0.5007
vn -0.5984 0.5577 0.5752
vn 0.5556 0.5962 0.5795
vn 0.7174 0.0399 0.6955
vn 0.7060 0.0393 -0.7071
vn -0.6948 -0.0387 0.7182
vn -0.6948 -0.0387 -0.7182
vn -0.6836 -0.0309 -0.7292
vn -0.7157 -0.0856 0.6931
vn -0.7053 -0.0870 0.7036
vn -0.7279 -0.0356 -0.6847
vn 0.7202 0.0632 -0.6909
vn 0.7004 0.0615 -0.7111
vn 0.7078 0.0104 0.7064
vn 0.6813 0.0050 0.7320
vn 0.0091 -0.9999 -0.0041
vn 0.0061 -1.0000 -0.0067
vn 0.0085 -1.0000 -0.0046
vn 0.0115 -0.9999 -0.0020
vn -0.7053 -0.0870 -0.7036
vn -0.7157 -0.0857 -0.6931
vn -0.6836 -0.0309 0.7292
vn -0.7279 -0.0356 0.6847
vn 0.7202 0.0632 0.6909
vn 0.7004 0.0615 0.7111
vn 0.7078 0.0104 -0.7064
vn 0.6813 0.0050 -0.7320
vn 0.0085 -1.0000 0.0041
vn 0.0117 -0.9999 0.0067
vn 0.0092 -0.9999 0.0046
vn 0.0061 -1.0000 0.0021
vn 0.7309 -0.0425 -0.6812
vn 0.7019 -0.0885 0.7067
vn 0.6916 -0.0868 0.7171
vn 0.6697 -0.0376 -0.7417
vn -0.6954 0.0640 -0.7157
vn -0.7270 0.0639 -0.6837
vn -0.6832 0.0129 0.7301
vn -0.7420 0.0209 0.6701
vn 0.0096 -0.9999 -0.0054
vn 0.0090 -0.9999 -0.0059
vn 0.0095 -0.9999 -0.0055
vn 0.0101 -0.9999 -0.0051
vn -0.0001 -0.7169 0.6972
vn -0.0001 -0.7168 0.6973
vn 0.0000 -0.6879 -0.7258
vn 0.0000 -0.7047 -0.7095
vn 0.0000 0.7114 -0.7028
vn 0.0000 0.7257 -0.6880
vn -0.0001 0.6975 0.7166
vn -0.0001 0.6816 0.7317
vn 0.7062 -0.0398 0.7069
vn 0.6957 -0.0403 0.7172
vn 0.6784 -0.0861 -0.7296
vn 0.7119 -0.0889 -0.6966
vn -0.7420 0.0209 -0.6701
vn -0.6833 0.0129 -0.7301
vn -0.7270 0.0639 0.6837
vn -0.6954 0.0640 0.7157
vn 0.0095 -0.9999 0.0054
vn 0.0101 -0.9999 0.0059
vn 0.0096 -0.9999 0.0055
vn 0.0090 -0.9999 0.0051
vn -0.0000 -0.7093 0.7049
vn -0.0000 -0.7099 0.7043
vn 0.0000 -0.7033 -0.7109
vn 0.0000 -0.7196 -0.6944
vn -0.0000 0.6955 -0.7186
vn 0.0000 0.7109 -0.7033
vn -0.0000 0.7043 0.7099
vn -0.0000 0.6892 0.7246
vn 0.9509 0.0000 -0.3094
vn 0.9509 0.0000 0.3095
vn 0.5872 0.0000 -0.8095
vn 0.0000 0.0000 -1.0000
vn -0.5872 0.0000 -0.8095
vn -0.9509 0.0000 -0.3094
vn -0.9509 0.0000 0.3095
vn -0.5872 0.0000 0.8095
vn -0.0000 0.0000 1.0000
vn 0.5872 0.0000 0.8095
vn -0.5872 0.0000 -0.8094
vn -0.9509 0.0001 -0.3094
vn -0.9509 0.0001 0.3094
vn -0.9509 0.0001 0.3095
vn 0.0000 0.0000 1.0000
vn 0.9509 0.0000 -0.3095
vn 0.5872 0.0000 -0.8094
vn -0.0000 0.0000 -1.0000
vn -0.9509 0.0000 -0.3095
vn -0.5872 0.0000 0.8094
vn 0.5872 0.0000 0.8094
vn 0.4127 -0.7616 -0.4997
vn 0.8438 -0.5367 0.0000
vn 0.4297 -0.8814 0.1961
vn 0.9954 0.0953 -0.0000
vn 0.5148 0.7436 -0.4267
vn 0.2466 0.6456 -0.7228
vn 0.6399 0.7685 -0.0000
vn 0.8600 0.0453 0.5084
vn 0.5148 0.7436 0.4268
vn 0.4127 -0.7616 0.4997
vn 0.0958 0.9954 0.0003
vn 0.0544 0.9814 -0.1841
vn -0.0139 0.9999 -0.0001
vn 0.0516 0.9814 0.1849
vn 0.2465 0.6456 0.7228
vn 0.0972 0.6520 0.7520
vn -0.0354 0.6852 0.7275
vn -0.0194 0.9734 0.2281
vn -0.7257 0.6880 -0.0001
vn -0.0130 0.9734 -0.2287
vn -0.0151 0.6848 -0.7286
vn 0.1089 0.6527 -0.7497
vn 0.1056 0.0206 -0.9942
vn -0.0152 0.0506 -0.9986
vn -0.7104 0.0089 -0.7037
vn -0.7152 0.4679 -0.5191
vn -0.6758 0.7165 -0.1730
vn -0.6749 0.7179 0.1707
vn -0.7194 0.4665 0.5146
vn -0.7177 0.0087 0.6963
vn -0.0433 0.0506 0.9978
vn 0.0891 0.0229 0.9958
vn 0.1866 -0.3168 0.9300
vn -0.0454 -0.3105 0.9495
vn -0.7156 -0.3238 0.6190
vn -0.7146 -0.5833 0.3863
vn -0.0432 -0.6762 0.7355
vn 0.1515 -0.6975 0.7004
vn 0.1053 -0.9775 0.1828
vn -0.0245 -0.9680 0.2496
vn -0.7129 -0.6794 0.1741
vn -0.4592 -0.8870 0.0482
vn 0.1614 -0.9869 -0.0000
vn -0.7089 -0.3241 -0.6265
vn -0.7094 -0.5641 -0.4225
vn -0.7082 -0.6853 -0.1697
vn -0.0185 -0.3107 -0.9503
vn -0.0232 -0.6765 -0.7361
vn 0.2020 -0.3193 -0.9259
vn 0.1642 -0.7006 -0.6944
vn 0.1096 -0.9777 -0.1794
vn -0.0193 -0.9679 -0.2506
vn 0.6244 -0.7725 0.1155
vn -0.7560 -0.6359 -0.1552
vn -0.5914 -0.5537 -0.5863
vn 0.5484 -0.6358 -0.5431
vn -0.6419 0.0802 -0.7626
vn -0.7335 0.1744 0.6569
vn -0.7497 0.1816 0.6364
vn 0.7682 -0.1994 -0.6084
vn 0.6890 -0.1091 0.7165
vn 0.7847 -0.1335 0.6053
vn -0.5914 -0.5537 0.5863
vn -0.7560 -0.6359 0.1552
vn 0.6244 -0.7725 -0.1155
vn 0.5484 -0.6358 0.5431
vn -0.6419 0.0802 0.7626
vn -0.7336 0.1744 -0.6569
vn -0.7497 0.1816 -0.6364
vn 0.7682 -0.1994 0.6084
vn 0.6890 -0.1091 -0.7165
vn 0.7847 -0.1335 -0.6053
vn -0.4089 0.8159 0.4087
vn 0.4082 0.8165 0.4082
vn 0.3043 -0.9045 0.2988
vn -0.3023 -0.9045 0.3008
vn -0.5728 -0.5793 -0.5799
vn 0.5773 -0.5773 -0.5774
vn 0.5771 0.5778 -0.5772
vn -0.5729 0.5750 -0.5840
vn 0.5775 -0.5774 0.5772
vn -0.3023 -0.9045 -0.3008
vn -0.4089 0.8159 -0.4087
vn 0.5773 0.5778 0.5770
vn -0.5731 0.5751 0.5838
vn 0.4082 0.8165 -0.4082
vn -0.5730 -0.5794 0.5797
vn 0.3043 -0.9045 -0.2988
vn -0.0204 -0.9998 0.0000
vn -0.5400 -0.8416 0.0000
vn -0.5108 -0.8571 -0.0669
vn -0.5080 -0.8586 0.0685
vn -0.0154 -0.9999 0.0000
vn -0.4534 -0.8429 -0.2896
vn -0.0841 -0.8734 -0.4797
vn 0.0019 -0.9999 -0.0127
vn 0.0000 -1.0000 -0.0000
vn -0.0156 -0.9999 0.0001
vn -0.4395 -0.8406 0.3166
vn -0.0605 -0.8782 0.4744
vn 0.0021 -0.9999 0.0151
vn -0.0146 -0.9999 0.0000
vn -0.0121 -0.9999 -0.0047
vn -0.0412 -0.7223 -0.6903
vn 0.0059 -0.7930 -0.6093
vn 0.4628 -0.8840 -0.0661
vn 0.4409 -0.8976 0.0000
vn -0.0125 -0.9999 0.0050
vn -0.0242 -0.8263 0.5627
vn -0.0266 -0.7947 0.6064
vn 0.4624 -0.8844 0.0634
vn 0.2769 -0.7578 0.5909
vn 0.9173 -0.3940 0.0573
vn 0.8301 -0.4105 0.3773
vn 0.9422 0.3341 0.0261
vn 0.9220 -0.3872 -0.0000
vn 0.9171 -0.3945 -0.0582
vn 0.2908 -0.6580 -0.6946
vn 0.8272 -0.4165 -0.3771
vn 0.9422 0.3341 -0.0261
vn 0.9416 0.3368 -0.0000
vn 0.4070 0.9128 0.0343
vn 0.8514 0.3637 0.3780
vn 0.2288 0.8690 0.4387
vn 0.0864 0.9939 0.0684
vn 0.0972 0.9953 0.0059
vn 0.4442 0.8959 0.0000
vn 0.4183 0.9077 -0.0315
vn 0.8514 0.3637 -0.3780
vn 0.2262 0.8661 -0.4457
vn 0.0817 0.9936 -0.0785
vn -0.0179 0.9998 0.0031
vn -0.0067 0.9962 0.0872
vn 0.0293 0.8481 0.5290
vn -0.0320 0.8636 0.5031
vn -0.0938 0.9918 0.0864
vn -0.0978 0.9952 -0.0000
vn -0.0188 0.9957 -0.0903
vn 0.0267 0.8499 -0.5262
vn -0.0199 0.8496 -0.5270
vn -0.0941 0.9918 -0.0861
vn -0.0648 0.8913 -0.4488
vn -0.5381 0.8384 -0.0864
vn -0.5199 0.8542 -0.0000
vn -0.5381 0.8384 0.0864
vn -0.0622 0.8909 0.4498
vn -0.0088 0.3461 0.9382
vn -0.0110 0.3094 0.9509
vn -0.0458 0.2910 0.9556
vn -0.0115 0.2718 0.9623
vn -0.0265 -0.1610 0.9866
vn 0.0234 0.2950 0.9552
vn -0.0091 -0.1607 0.9870
vn 0.1572 0.3210 0.9340
vn 0.5147 0.3982 0.7593
vn 0.0989 -0.1731 0.9799
vn 0.5019 -0.2689 0.8221
vn -0.0382 -0.2221 0.9743
vn -0.0198 -0.2321 0.9725
vn -0.0365 -0.3339 0.9419
vn -0.0452 -0.4570 0.8883
vn -0.1926 -0.4399 0.8771
vn -0.7902 -0.3442 0.5070
vn -0.0798 0.4423 0.8933
vn -0.2302 0.4471 0.8643
vn -0.8196 0.3316 0.4672
vn -0.5082 0.8193 0.2653
vn -0.9609 0.2552 0.1075
vn -0.9767 0.1734 0.1265
vn -0.9507 -0.2851 0.1218
vn -0.9730 -0.2089 0.0980
vn -0.9684 -0.2495 0.0000
vn -0.9586 0.2848 -0.0000
vn -0.9609 0.2552 -0.1076
vn -0.9508 -0.2850 -0.1216
vn -0.9818 -0.1687 -0.0877
vn -0.9776 0.1681 -0.1270
vn -0.5121 0.8164 -0.2671
vn -0.0797 0.4423 -0.8933
vn -0.0103 0.3449 -0.9386
vn -0.0443 -0.5041 -0.8625
vn -0.1856 -0.4874 -0.8532
vn -0.2327 0.4481 -0.8632
vn -0.7906 -0.3647 -0.4919
vn -0.8237 0.3231 -0.4660
vn -0.0476 -0.3462 -0.9370
vn -0.0307 -0.0638 -0.9975
vn -0.0085 0.2782 -0.9605
vn -0.0270 0.2818 -0.9591
vn -0.0384 -0.0284 -0.9989
vn -0.0032 -0.1199 -0.9928
vn -0.0096 0.3125 -0.9499
vn 0.0155 0.2989 -0.9541
vn -0.0082 -0.1643 -0.9864
vn 0.0990 -0.1779 -0.9790
vn 0.1573 0.3210 -0.9339
vn 0.5147 0.3982 -0.7593
vn 0.5010 -0.2747 -0.8207
# 471 vertex normals

vt 0.9575 0.2471 0.2471
vt 0.9429 0.2510 0.2510
vt 0.9375 0.2339 0.2339
vt 0.9531 0.2314 0.2314
vt 0.9766 0.2393 0.2393
vt 0.9731 0.2305 0.2305
vt 0.9575 0.2061 0.2061
vt 0.9424 0.2065 0.2065
vt 0.9272 0.2075 0.2075
vt 0.9238 0.2241 0.2241
vt 0.9238 0.2485 0.2485
vt 0.9033 0.2061 0.2061
vt 0.9175 0.2300 0.2300
vt 0.9063 0.2334 0.2334
vt 0.9058 0.2524 0.2524
vt 0.9072 0.2759 0.2759
vt 0.9263 0.2690 0.2690
vt 0.8433 0.2808 0.2808
vt 0.8428 0.2563 0.2563
vt 0.8428 0.2373 0.2373
vt 0.8423 0.2065 0.2065
vt 0.9053 0.1353 0.1353
vt 0.9272 0.1372 0.1372
vt 0.9438 0.1387 0.1387
vt 0.9604 0.1411 0.1411
vt 0.9756 0.2129 0.2129
vt 0.9780 0.1465 0.1465
vt 0.9541 0.0654 0.0654
vt 0.9390 0.0615 0.0615
vt 0.9248 0.0654 0.0654
vt 0.9058 0.0688 0.0688
vt 0.8438 0.1333 0.1333
vt 0.7256 0.2041 0.2041
vt 0.7256 0.2344 0.2344
vt 0.7261 0.2549 0.2549
vt 0.7256 0.2798 0.2798
vt 0.8457 0.3066 0.3066
vt 0.9141 0.3018 0.3018
vt 0.9272 0.2998 0.2998
vt 0.8462 0.3320 0.3320
vt 0.9092 0.3320 0.3320
vt 0.9253 0.3086 0.3086
vt 0.9316 0.3149 0.3149
vt 0.9346 0.3320 0.3320
vt 0.9302 0.3950 0.3950
vt 0.9072 0.3955 0.3955
vt 0.8457 0.3960 0.3960
vt 0.8442 0.4785 0.4785
vt 0.7251 0.3970 0.3970
vt 0.7256 0.3330 0.3330
vt 0.7256 0.3032 0.3032
vt 0.6050 0.3042 0.3042
vt 0.6079 0.2778 0.2778
vt 0.6089 0.2539 0.2539
vt 0.6089 0.2349 0.2349
vt 0.5454 0.2305 0.2305
vt 0.5459 0.2495 0.2495
vt 0.5439 0.2729 0.2729
vt 0.5366 0.2988 0.2988
vt 0.6050 0.3301 0.3301
vt 0.6050 0.3940 0.3940
vt 0.5415 0.3291 0.3291
vt 0.5435 0.3926 0.3926
vt 0.6055 0.4766 0.4766
vt 0.7251 0.4819 0.4819
vt 0.7251 0.4902 0.4902
vt 0.8452 0.4868 0.4868
vt 0.9028 0.4717 0.4717
vt 0.9087 0.4819 0.4819
vt 0.9209 0.4775 0.4775
vt 0.9292 0.4727 0.4727
vt 0.6055 0.4844 0.4844
vt 0.5474 0.4688 0.4688
vt 0.5420 0.4790 0.4790
vt 0.5298 0.4746 0.4746
vt 0.5210 0.4697 0.4697
vt 0.5205 0.3921 0.3921
vt 0.5161 0.3291 0.3291
vt 0.5190 0.3120 0.3120
vt 0.5254 0.3057 0.3057
vt 0.5259 0.2705 0.2705
vt 0.5234 0.2959 0.2959
vt 0.5278 0.2456 0.2456
vt 0.5103 0.2456 0.2456
vt 0.5098 0.2705 0.2705
vt 0.5142 0.2949 0.2949
vt 0.5342 0.2271 0.2271
vt 0.5278 0.2207 0.2207
vt 0.5479 0.2031 0.2031
vt 0.6089 0.2046 0.2046
vt 0.5464 0.1328 0.1328
vt 0.5244 0.2046 0.2046
vt 0.5142 0.2310 0.2310
vt 0.5093 0.2036 0.2036
vt 0.5244 0.1343 0.1343
vt 0.5459 0.0664 0.0664
vt 0.6079 0.1313 0.1313
vt 0.7256 0.1309 0.1309
vt 0.6069 0.0576 0.0576
vt 0.7261 0.0547 0.0547
vt 0.8447 0.0601 0.0601
vt 0.9087 0.0566 0.0566
vt 0.8447 0.0513 0.0513
vt 0.7256 0.0449 0.0449
vt 0.6069 0.0488 0.0488
vt 0.5435 0.0532 0.0532
vt 0.5308 0.0571 0.0571
vt 0.5269 0.0625 0.0625
vt 0.5073 0.1357 0.1357
vt 0.5127 0.0586 0.0586
vt 0.5234 0.0459 0.0459
vt 0.5415 0.0425 0.0425
vt 0.6064 0.0366 0.0366
vt 0.5425 0.0308 0.0308
vt 0.7256 0.0327 0.0327
vt 0.8447 0.0400 0.0400
vt 0.9097 0.0454 0.0454
vt 0.9277 0.0488 0.0488
vt 0.9214 0.0601 0.0601
vt 0.9438 0.0459 0.0459
vt 0.9580 0.0518 0.0518
vt 0.9521 0.0332 0.0332
vt 0.9668 0.0391 0.0391
vt 0.9717 0.0576 0.0576
vt 0.9673 0.0669 0.0669
vt 0.6060 0.0239 0.0239
vt 0.5420 0.0190 0.0190
vt 0.6050 0.0112 0.0112
vt 0.7256 0.0195 0.0195
vt 0.8447 0.0278 0.0278
vt 0.9087 0.0342 0.0342
vt 0.9092 0.0225 0.0225
vt 0.8457 0.0161 0.0161
vt 0.7256 0.0073 0.0073
vt 0.9766 0.0454 0.0454
vt 0.4988 0.2290 0.2290
vt 0.4944 0.2031 0.2031
vt 0.4783 0.2271 0.2271
vt 0.4758 0.2095 0.2095
vt 0.4910 0.1382 0.1382
vt 0.4976 0.0620 0.0620
vt 0.4736 0.1436 0.1436
vt 0.4844 0.0640 0.0640
vt 0.4939 0.0488 0.0488
vt 0.5078 0.0430 0.0430
vt 0.4998 0.0264 0.0264
vt 0.4851 0.0361 0.0361
vt 0.4800 0.0547 0.0547
vt 0.4751 0.0425 0.0425
vt 0.5181 0.5576 0.5576
vt 0.5166 0.5527 0.5527
vt 0.5220 0.5518 0.5518
vt 0.5244 0.5581 0.5581
vt 0.5386 0.5483 0.5483
vt 0.5259 0.5750 0.5750
vt 0.5195 0.5750 0.5750
vt 0.5181 0.5925 0.5925
vt 0.5249 0.5918 0.5918
vt 0.5396 0.5747 0.5747
vt 0.5386 0.5540 0.5540
vt 0.5488 0.5537 0.5537
vt 0.5503 0.5510 0.5510
vt 0.5488 0.5747 0.5747
vt 0.5391 0.5955 0.5955
vt 0.5488 0.5952 0.5952
vt 0.5386 0.6013 0.6013
vt 0.5225 0.5981 0.5981
vt 0.5171 0.5974 0.5974
vt 0.5547 0.5745 0.5745
vt 0.5552 0.5549 0.5549
vt 0.7280 0.5740 0.5740
vt 0.5547 0.5940 0.5940
vt 0.5498 0.5979 0.5979
vt 0.5552 0.5984 0.5984
vt 0.7271 0.5952 0.5952
vt 0.7275 0.5903 0.5903
vt 0.9287 0.5745 0.5745
vt 0.7280 0.5579 0.5579
vt 0.7280 0.5530 0.5530
vt 0.5557 0.5505 0.5505
vt 0.5571 0.5396 0.5396
vt 0.5479 0.5398 0.5398
vt 0.7280 0.5427 0.5427
vt 0.9292 0.5439 0.5439
vt 0.9287 0.5544 0.5544
vt 0.9292 0.5591 0.5591
vt 0.9282 0.5903 0.5903
vt 0.9282 0.5964 0.5964
vt 0.9282 0.6079 0.6079
vt 0.7271 0.6060 0.6060
vt 0.5566 0.6096 0.6096
vt 0.5474 0.6091 0.6091
vt 0.5508 0.6252 0.6252
vt 0.5591 0.6245 0.6245
vt 0.7271 0.6199 0.6199
vt 0.9282 0.6201 0.6201
vt 0.9282 0.6250 0.6250
vt 0.7275 0.6250 0.6250
vt 0.7275 0.6318 0.6318
vt 0.5601 0.6287 0.6287
vt 0.5542 0.6311 0.6311
vt 0.5625 0.6360 0.6360
vt 0.5508 0.6353 0.6353
vt 0.5479 0.6519 0.6519
vt 0.5630 0.6516 0.6516
vt 0.7280 0.6436 0.6436
vt 0.9292 0.6379 0.6379
vt 0.9287 0.6316 0.6316
vt 0.9307 0.5547 0.5547
vt 0.9390 0.5510 0.5510
vt 0.9517 0.5549 0.5549
vt 0.9561 0.5579 0.5579
vt 0.9590 0.5654 0.5654
vt 0.9604 0.5730 0.5730
vt 0.9590 0.5813 0.5813
vt 0.9570 0.5886 0.5886
vt 0.9531 0.5923 0.5923
vt 0.9395 0.5969 0.5969
vt 0.9302 0.5938 0.5938
vt 0.9292 0.5303 0.5303
vt 0.7280 0.5298 0.5298
vt 0.9292 0.5251 0.5251
vt 0.5596 0.5249 0.5249
vt 0.7280 0.5244 0.5244
vt 0.9292 0.5193 0.5193
vt 0.7280 0.5176 0.5176
vt 0.5610 0.5205 0.5205
vt 0.5552 0.5181 0.5181
vt 0.5518 0.5237 0.5237
vt 0.5630 0.5129 0.5129
vt 0.7280 0.5059 0.5059
vt 0.9292 0.5137 0.5137
vt 0.5630 0.4976 0.4976
vt 0.5479 0.4976 0.4976
vt 0.5518 0.5139 0.5139
vt 0.9033 0.6843 0.6843
vt 0.9033 0.7026 0.7026
vt 0.8853 0.7026 0.7026
vt 0.8853 0.6846 0.6846
vt 0.5000 0.6841 0.6841
vt 0.8848 0.6663 0.6663
vt 0.5005 0.6658 0.6658
vt 0.5010 0.7024 0.7024
vt 0.5005 0.7207 0.7207
vt 0.8853 0.7209 0.7209
vt 0.5000 0.7388 0.7388
vt 0.8843 0.7393 0.7393
vt 0.6348 0.8468 0.8468
vt 0.6348 0.8694 0.8694
vt 0.3228 0.8694 0.8694
vt 0.3228 0.8468 0.8468
vt 0.6348 0.8223 0.8223
vt 0.3228 0.8223 0.8223
vt 0.6348 0.7974 0.7974
vt 0.3228 0.7974 0.7974
vt 0.6348 0.7727 0.7727
vt 0.3228 0.7727 0.7727
vt 0.6528 0.8468 0.8468
vt 0.6528 0.8223 0.8223
vt 0.6348 0.7972 0.7972
vt 0.3228 0.7972 0.7972
vt 0.3110 0.8606 0.8606
vt 0.0079 0.8606 0.8606
vt 0.0079 0.8422 0.8422
vt 0.3110 0.8420 0.8420
vt 0.3110 0.8298 0.8298
vt 0.0079 0.8300 0.8300
vt 0.0079 0.8115 0.8115
vt 0.3110 0.8114 0.8114
vt 0.3110 0.7993 0.7993
vt 0.0079 0.7993 0.7993
vt 0.9565 0.7217 0.7217
vt 0.9565 0.7295 0.7295
vt 0.9766 0.7292 0.7292
vt 0.9766 0.7214 0.7214
vt 0.9565 0.7136 0.7136
vt 0.9766 0.7134 0.7134
vt 0.9565 0.7053 0.7053
vt 0.9766 0.7051 0.7051
vt 0.9565 0.6970 0.6970
vt 0.9766 0.6968 0.6968
vt 0.9565 0.6887 0.6887
vt 0.9761 0.6887 0.6887
vt 0.9561 0.6809 0.6809
vt 0.9761 0.6807 0.6807
vt 0.9561 0.6733 0.6733
vt 0.9761 0.6731 0.6731
vt 0.9561 0.6658 0.6658
vt 0.9761 0.6655 0.6655
vt 0.9561 0.6582 0.6582
vt 0.9761 0.6582 0.6582
vt 0.9561 0.6506 0.6506
vt 0.9761 0.6506 0.6506
vt 0.6528 0.8136 0.8136
vt 0.6479 0.7815 0.7815
vt 0.6685 0.7816 0.7816
vt 0.6738 0.8132 0.8132
vt 0.9834 0.7854 0.7854
vt 0.9839 0.7576 0.7576
vt 0.7041 0.7576 0.7576
vt 0.6743 0.7576 0.7576
vt 0.9897 0.8153 0.8153
vt 0.9902 0.8445 0.8445
vt 0.7104 0.8411 0.8411
vt 0.6699 0.8361 0.8361
vt 0.7056 0.8739 0.8739
vt 0.9839 0.8739 0.8739
vt 0.6943 0.8853 0.8853
vt 0.9653 0.8854 0.8854
vt 0.9653 0.9073 0.9073
vt 0.6943 0.9072 0.9072
vt 0.9946 0.9324 0.9324
vt 0.6665 0.9323 0.9323
vt 0.6665 0.9543 0.9543
vt 0.9946 0.9541 0.9541
vt 0.3376 0.9324 0.9324
vt 0.6416 0.9069 0.9069
vt 0.3628 0.9069 0.9069
vt 0.6416 0.8851 0.8851
vt 0.3628 0.8851 0.8851
vt 0.6943 0.9794 0.9794
vt 0.9653 0.9795 0.9795
vt 0.3376 0.9542 0.9542
vt 0.3628 0.9797 0.9797
vt 0.6416 0.9797 0.9797
vt 0.0083 0.9543 0.9543
vt 0.3123 0.9795 0.9795
vt 0.0353 0.9796 0.9796
vt 0.0083 0.9326 0.9326
vt 0.3118 0.9070 0.9070
vt 0.0349 0.9070 0.9070
vt 0.3118 0.8849 0.8849
vt 0.0348 0.8849 0.8849
vt 0.2573 0.0767 0.0767
vt 0.2585 0.0078 0.0078
vt 0.3638 0.0142 0.0142
vt 0.1532 0.0112 0.0112
vt 0.3689 0.0781 0.0781
vt 0.4026 0.0195 0.0195
vt 0.4182 0.0752 0.0752
vt 0.3645 0.1914 0.1914
vt 0.2554 0.1904 0.1904
vt 0.1456 0.0747 0.0747
vt 0.1080 0.0171 0.0171
vt 0.0962 0.0708 0.0708
vt 0.1460 0.1890 0.1890
vt 0.2546 0.2456 0.2456
vt 0.3662 0.2476 0.2476
vt 0.4290 0.1851 0.1851
vt 0.4260 0.2441 0.2441
vt 0.3596 0.3140 0.3140
vt 0.2539 0.3149 0.3149
vt 0.1426 0.2456 0.2456
vt 0.0884 0.1802 0.1802
vt 0.0824 0.2422 0.2422
vt 0.1483 0.3125 0.3125
vt 0.0843 0.3062 0.3062
vt 0.1521 0.3364 0.3364
vt 0.0867 0.3379 0.3379
vt 0.1526 0.3638 0.3638
vt 0.2539 0.3374 0.3374
vt 0.3557 0.3369 0.3369
vt 0.4236 0.3066 0.3066
vt 0.4211 0.3369 0.3369
vt 0.3555 0.3638 0.3638
vt 0.2539 0.3643 0.3643
vt 0.1454 0.4033 0.4033
vt 0.0873 0.3662 0.3662
vt 0.0903 0.4028 0.4028
vt 0.1429 0.4653 0.4653
vt 0.2544 0.4629 0.4629
vt 0.2542 0.4019 0.4019
vt 0.3628 0.4019 0.4019
vt 0.4207 0.3647 0.3647
vt 0.4197 0.4043 0.4043
vt 0.3657 0.4648 0.4648
vt 0.2539 0.5190 0.5190
vt 0.1423 0.5198 0.5198
vt 0.0887 0.4683 0.4683
vt 0.0922 0.5210 0.5210
vt 0.1415 0.6377 0.6377
vt 0.2537 0.6331 0.6331
vt 0.3650 0.5188 0.5188
vt 0.4187 0.4678 0.4678
vt 0.4170 0.5193 0.5193
vt 0.3652 0.6355 0.6355
vt 0.4163 0.6394 0.6394
vt 0.3611 0.6995 0.6995
vt 0.2539 0.6992 0.6992
vt 0.1470 0.7017 0.7017
vt 0.0886 0.6436 0.6436
vt 0.0644 0.6440 0.6440
vt 0.0652 0.5273 0.5273
vt 0.0646 0.5093 0.5093
vt 0.0644 0.4692 0.4692
vt 0.0397 0.4702 0.4702
vt 0.0659 0.4097 0.4097
vt 0.0401 0.4126 0.4126
vt 0.0656 0.3984 0.3984
vt 0.0659 0.3882 0.3882
vt 0.0658 0.3784 0.3784
vt 0.0394 0.4004 0.4004
vt 0.0390 0.3906 0.3906
vt 0.0381 0.3813 0.3813
vt 0.0172 0.4023 0.4023
vt 0.0183 0.4678 0.4678
vt 0.0163 0.5298 0.5298
vt 0.0390 0.5151 0.5151
vt 0.0401 0.5325 0.5325
vt 0.0125 0.6394 0.6394
vt 0.0387 0.6423 0.6423
vt 0.0067 0.6943 0.6943
vt 0.0391 0.6836 0.6836
vt 0.0395 0.6907 0.6907
vt 0.0383 0.7026 0.7026
vt 0.0654 0.6868 0.6868
vt 0.0637 0.6943 0.6943
vt 0.0638 0.7053 0.7053
vt 0.0947 0.7036 0.7036
vt 0.1500 0.7202 0.7202
vt 0.0987 0.7197 0.7197
vt 0.0833 0.7200 0.7200
vt 0.1498 0.7429 0.7429
vt 0.0987 0.7449 0.7449
vt 0.0831 0.7444 0.7444
vt 0.1011 0.7622 0.7622
vt 0.1472 0.7622 0.7622
vt 0.2537 0.7622 0.7622
vt 0.2537 0.7429 0.7429
vt 0.2542 0.7192 0.7192
vt 0.3582 0.7197 0.7197
vt 0.3577 0.7422 0.7422
vt 0.3599 0.7622 0.7622
vt 0.4084 0.7449 0.7449
vt 0.4094 0.7197 0.7197
vt 0.4143 0.6995 0.6995
vt 0.4363 0.6819 0.6819
vt 0.4385 0.6416 0.6416
vt 0.4612 0.6819 0.6819
vt 0.4607 0.6885 0.6885
vt 0.4368 0.6887 0.6887
vt 0.4607 0.6997 0.6997
vt 0.4358 0.6997 0.6997
vt 0.4253 0.7212 0.7212
vt 0.4238 0.7456 0.7456
vt 0.3992 0.7622 0.7622
vt 0.4927 0.7009 0.7009
vt 0.4639 0.6414 0.6414
vt 0.4878 0.6406 0.6406
vt 0.4658 0.5317 0.5317
vt 0.4421 0.5261 0.5261
vt 0.4426 0.5085 0.5085
vt 0.4661 0.5142 0.5142
vt 0.4856 0.5281 0.5281
vt 0.4680 0.4702 0.4702
vt 0.4424 0.4688 0.4688
vt 0.4434 0.4102 0.4102
vt 0.4680 0.4126 0.4126
vt 0.4880 0.4683 0.4683
vt 0.4900 0.4014 0.4014
vt 0.4702 0.3979 0.3979
vt 0.4431 0.3979 0.3979
vt 0.4434 0.3872 0.3872
vt 0.4421 0.3779 0.3779
vt 0.4709 0.3882 0.3882
vt 0.4946 0.3950 0.3950
vt 0.4709 0.3789 0.3789
# 467 texture coords

o SM_Chair_Metal_Guest
g SM_Chair_Metal_Guest
usemtl MI_Chair_Metal_Guest_Green
s 1
f 1/1/1 2/2/2 3/3/3 
f 1/1/1 3/3/3 4/4/4 
f 1/1/1 4/4/4 5/5/5 
f 4/4/4 6/6/6 5/5/5 
f 6/6/6 4/4/4 7/7/7 
f 7/7/7 4/4/4 8/8/8 
f 4/4/4 3/3/3 8/8/8 
f 8/8/8 3/3/3 9/9/9 
f 3/3/3 10/10/10 9/9/9 
f 10/10/10 3/3/3 2/11/2 
f 9/9/9 10/10/10 11/12/11 
f 2/11/2 12/13/12 10/10/10 
f 11/12/11 10/10/10 12/13/12 
f 11/12/11 12/13/12 13/14/13 
f 13/14/13 12/13/12 14/15/14 
f 12/13/12 2/11/2 14/15/14 
f 14/15/14 2/11/2 15/16/15 
f 2/11/2 1/17/1 15/16/15 
f 14/15/14 15/16/15 16/18/16 
f 14/15/14 16/18/16 17/19/17 
f 14/15/14 17/19/17 13/14/13 
f 17/19/17 18/20/18 13/14/13 
f 13/14/13 18/20/18 11/12/11 
f 18/20/18 19/21/19 11/12/11 
f 11/12/11 19/21/19 20/22/20 
f 11/12/11 20/22/20 9/9/9 
f 20/22/20 21/23/21 9/9/9 
f 9/9/9 21/23/21 8/8/8 
f 21/23/21 22/24/22 8/8/8 
f 8/8/8 22/24/22 7/7/7 
f 22/24/22 23/25/23 7/7/7 
f 7/7/7 23/25/23 24/26/24 
f 7/7/7 24/26/24 6/6/6 
f 23/25/23 25/27/25 24/26/24 
f 25/27/25 23/25/23 26/28/26 
f 26/28/26 23/25/23 27/29/27 
f 23/25/23 22/24/22 27/29/27 
f 27/29/27 22/24/22 28/30/28 
f 22/24/22 21/23/21 28/30/28 
f 28/30/28 21/23/21 29/31/29 
f 21/23/21 20/22/20 29/31/29 
f 29/31/29 20/22/20 30/32/30 
f 30/32/30 20/22/20 19/21/19 
f 30/32/30 19/21/19 31/33/31 
f 31/33/31 19/21/19 18/20/18 
f 31/33/31 18/20/18 32/34/32 
f 32/34/32 18/20/18 17/19/17 
f 32/34/32 17/19/17 33/35/33 
f 33/35/33 17/19/17 16/18/16 
f 33/35/33 16/18/16 34/36/34 
f 34/36/34 16/18/16 35/37/35 
f 35/37/35 16/18/16 15/16/15 
f 35/37/35 15/16/15 36/38/36 
f 36/38/36 15/16/15 1/17/1 
f 36/38/36 1/17/1 5/39/5 
f 36/38/36 37/40/37 35/37/35 
f 37/40/37 36/38/36 38/41/38 
f 38/41/38 36/38/36 5/42/5 
f 38/41/38 5/42/5 6/43/6 
f 38/41/38 6/43/6 24/44/24 
f 38/41/38 24/44/24 25/45/25 
f 38/41/38 25/45/25 39/46/39 
f 38/41/38 39/46/39 40/47/40 
f 38/41/38 40/47/40 37/40/37 
f 40/47/40 39/46/39 41/48/41 
f 37/40/37 40/47/40 42/49/42 
f 41/48/41 42/49/42 40/47/40 
f 37/40/37 42/49/42 43/50/43 
f 37/40/37 43/50/43 44/51/44 
f 37/40/37 44/51/44 35/37/35 
f 35/37/35 44/51/44 34/36/34 
f 34/36/34 44/51/44 45/52/45 
f 34/36/34 45/52/45 46/53/46 
f 34/36/34 46/53/46 33/35/33 
f 46/53/46 47/54/47 33/35/33 
f 33/35/33 47/54/47 32/34/32 
f 47/54/47 48/55/48 32/34/32 
f 32/34/32 48/55/48 31/33/31 
f 48/55/48 47/54/47 49/56/49 
f 47/54/47 50/57/50 49/56/49 
f 50/57/50 47/54/47 46/53/46 
f 50/57/50 46/53/46 51/58/51 
f 51/58/51 46/53/46 45/52/45 
f 51/58/51 45/52/45 52/59/52 
f 52/59/52 45/52/45 53/60/53 
f 53/60/53 45/52/45 44/51/44 
f 53/60/53 44/51/44 43/50/43 
f 53/60/53 43/50/43 42/49/42 
f 53/60/53 42/49/42 54/61/54 
f 53/60/53 54/61/54 55/62/55 
f 53/60/53 55/62/55 52/59/52 
f 54/61/54 56/63/56 55/62/55 
f 56/63/56 54/61/54 57/64/57 
f 57/64/57 54/61/54 42/49/42 
f 57/64/57 42/49/42 58/65/58 
f 58/65/58 42/49/42 41/48/41 
f 57/64/57 58/65/58 59/66/59 
f 41/48/41 59/66/59 58/65/58 
f 59/66/59 41/48/41 60/67/60 
f 60/67/60 41/48/41 61/68/61 
f 61/68/61 41/48/41 39/46/39 
f 60/67/60 61/68/61 62/69/62 
f 62/69/62 61/68/61 63/70/63 
f 63/70/63 61/68/61 64/71/64 
f 64/71/64 61/68/61 39/46/39 
f 64/71/64 39/46/39 25/45/25 
f 59/66/59 65/72/65 57/64/57 
f 57/64/57 65/72/65 66/73/66 
f 57/64/57 66/73/66 56/63/56 
f 65/72/65 67/74/67 66/73/66 
f 67/74/67 68/75/68 66/73/66 
f 68/75/68 69/76/69 66/73/66 
f 66/73/66 69/76/69 56/63/56 
f 69/76/69 70/77/70 56/63/56 
f 56/63/56 70/77/70 55/62/55 
f 70/77/70 71/78/71 55/62/55 
f 71/78/71 72/79/72 55/62/55 
f 72/79/72 73/80/73 55/62/55 
f 73/80/73 52/59/52 55/62/55 
f 52/59/52 74/81/74 51/58/51 
f 74/81/74 52/59/52 73/82/73 
f 51/58/51 74/81/74 75/83/75 
f 51/58/51 75/83/75 50/57/50 
f 75/83/75 74/81/74 76/84/76 
f 74/81/74 77/85/77 76/84/76 
f 77/85/77 74/81/74 73/82/73 
f 77/85/77 73/82/73 72/86/72 
f 50/57/50 75/83/75 78/87/78 
f 50/57/50 78/87/78 49/56/49 
f 78/87/78 75/83/75 79/88/79 
f 49/56/49 78/87/78 80/89/80 
f 79/88/79 80/89/80 78/87/78 
f 49/56/49 80/89/80 48/55/48 
f 80/89/80 81/90/81 48/55/48 
f 48/55/48 81/90/81 31/33/31 
f 81/90/81 80/89/80 82/91/82 
f 82/91/82 80/89/80 83/92/83 
f 80/89/80 79/88/79 83/92/83 
f 83/92/83 79/88/79 76/93/76 
f 76/93/76 79/88/79 75/83/75 
f 83/92/83 76/93/76 84/94/84 
f 83/92/83 84/94/84 85/95/85 
f 83/92/83 85/95/85 82/91/82 
f 82/91/82 85/95/85 86/96/86 
f 82/91/82 86/96/86 87/97/87 
f 82/91/82 87/97/87 81/90/81 
f 81/90/81 87/97/87 31/33/31 
f 87/97/87 88/98/88 31/33/31 
f 31/33/31 88/98/88 30/32/30 
f 88/98/88 87/97/87 89/99/89 
f 89/99/89 87/97/87 86/96/86 
f 88/98/88 89/99/89 90/100/90 
f 88/98/88 90/100/90 91/101/91 
f 88/98/88 91/101/91 30/32/30 
f 30/32/30 91/101/91 29/31/29 
f 29/31/29 91/101/91 92/102/92 
f 91/101/91 93/103/93 92/102/92 
f 93/103/93 91/101/91 90/100/90 
f 93/103/93 90/100/90 94/104/94 
f 94/104/94 90/100/90 95/105/95 
f 90/100/90 89/99/89 95/105/95 
f 95/105/95 89/99/89 96/106/96 
f 89/99/89 86/96/86 96/106/96 
f 86/96/86 97/107/97 96/106/96 
f 97/107/97 86/96/86 98/108/98 
f 98/108/98 86/96/86 85/95/85 
f 98/108/98 85/95/85 99/109/99 
f 99/109/99 85/95/85 84/94/84 
f 98/108/98 99/109/99 100/110/100 
f 98/108/98 100/110/100 97/107/97 
f 100/110/100 101/111/101 97/107/97 
f 97/107/97 101/111/101 96/106/96 
f 101/111/101 102/112/102 96/106/96 
f 96/106/96 102/112/102 95/105/95 
f 102/112/102 103/113/103 95/105/95 
f 95/105/95 103/113/103 94/104/94 
f 103/113/103 102/112/102 104/114/104 
f 94/104/94 103/113/103 105/115/105 
f 94/104/94 105/115/105 106/116/106 
f 94/104/94 106/116/106 93/103/93 
f 93/103/93 106/116/106 107/117/107 
f 93/103/93 107/117/107 92/102/92 
f 92/102/92 107/117/107 108/118/108 
f 92/102/92 108/118/108 109/119/109 
f 92/102/92 109/119/109 29/31/29 
f 29/31/29 109/119/109 28/30/28 
f 28/30/28 109/119/109 27/29/27 
f 109/119/109 108/118/108 27/29/27 
f 27/29/27 108/120/108 26/28/26 
f 108/120/108 110/121/110 26/28/26 
f 110/121/110 108/120/108 107/122/107 
f 110/121/110 107/122/107 111/123/111 
f 110/121/110 111/123/111 63/124/63 
f 110/121/110 63/124/63 64/125/64 
f 110/121/110 64/125/64 26/28/26 
f 26/28/26 64/125/64 25/27/25 
f 104/114/104 112/126/112 103/113/103 
f 103/113/103 112/126/112 105/115/105 
f 112/126/112 104/114/104 67/127/67 
f 112/126/112 67/127/67 65/128/65 
f 112/126/112 65/128/65 113/129/113 
f 112/126/112 113/129/113 105/115/105 
f 105/115/105 113/129/113 114/130/114 
f 105/115/105 114/130/114 106/116/106 
f 106/116/106 114/130/114 111/131/111 
f 106/116/106 111/131/111 107/117/107 
f 111/131/111 114/130/114 62/132/62 
f 114/130/114 60/133/60 62/132/62 
f 60/133/60 114/130/114 113/129/113 
f 60/133/60 113/129/113 59/134/59 
f 59/134/59 113/129/113 65/128/65 
f 111/123/111 62/135/62 63/124/63 
f 84/94/84 76/93/76 77/136/77 
f 84/94/84 77/136/77 115/137/115 
f 84/94/84 115/137/115 99/109/99 
f 115/137/115 77/136/77 72/138/72 
f 115/137/115 72/138/72 71/139/71 
f 115/137/115 71/139/71 116/140/116 
f 115/137/115 116/140/116 99/109/99 
f 99/109/99 116/140/116 100/110/100 
f 116/140/116 117/141/117 100/110/100 
f 117/141/117 116/140/116 70/142/70 
f 70/142/70 116/140/116 71/139/71 
f 117/141/117 70/142/70 69/143/69 
f 117/141/117 69/143/69 118/144/118 
f 117/141/117 118/144/118 101/145/101 
f 117/141/117 101/145/101 100/110/100 
f 101/145/101 118/144/118 102/146/102 
f 118/144/118 104/147/104 102/146/102 
f 104/147/104 118/144/118 68/148/68 
f 68/148/68 118/144/118 69/143/69 
f 104/147/104 68/148/68 67/149/67 
f 119/150/119 120/151/120 121/152/121 
f 119/150/119 121/152/121 122/153/122 
f 122/153/122 121/152/121 123/154/123 
f 119/150/119 122/153/122 124/155/124 
f 119/150/119 124/155/124 125/156/125 
f 125/156/125 124/155/124 126/157/126 
f 124/155/124 127/158/127 126/157/126 
f 127/158/127 124/155/124 128/159/128 
f 128/159/128 124/155/124 122/153/122 
f 128/159/128 122/153/122 129/160/129 
f 129/160/129 122/153/122 123/154/123 
f 129/160/129 123/154/123 130/161/130 
f 123/154/123 131/162/131 130/161/130 
f 129/160/129 130/161/130 132/163/132 
f 129/160/129 132/163/132 128/159/128 
f 128/159/128 132/163/132 133/164/133 
f 128/159/128 133/164/133 127/158/127 
f 132/163/132 134/165/134 133/164/133 
f 127/158/127 133/164/133 135/166/135 
f 134/165/134 135/166/135 133/164/133 
f 127/158/127 135/166/135 136/167/136 
f 127/158/127 136/167/136 126/157/126 
f 136/167/136 137/168/137 126/157/126 
f 138/169/138 132/163/132 130/161/130 
f 132/163/132 138/169/138 134/165/134 
f 130/161/130 139/170/139 138/169/138 
f 139/170/139 130/161/130 131/162/131 
f 138/169/138 139/170/139 140/171/140 
f 138/169/138 140/171/140 141/172/141 
f 138/169/138 141/172/141 134/165/134 
f 134/165/134 141/172/141 142/173/142 
f 134/165/134 142/173/142 135/166/135 
f 142/173/142 141/172/141 143/174/143 
f 143/174/143 141/172/141 144/175/144 
f 141/172/141 145/176/145 144/175/144 
f 145/176/145 141/172/141 140/171/140 
f 145/176/145 140/171/140 146/177/146 
f 146/177/146 140/171/140 147/178/147 
f 147/178/147 140/171/140 139/170/139 
f 147/178/147 139/170/139 148/179/148 
f 139/170/139 149/180/149 148/179/148 
f 149/180/149 139/170/139 131/162/131 
f 149/180/149 131/162/131 150/181/150 
f 131/162/131 123/182/123 150/181/150 
f 149/180/149 150/181/150 151/183/151 
f 149/180/149 151/183/151 148/179/148 
f 148/179/148 151/183/151 152/184/152 
f 148/179/148 152/184/152 153/185/153 
f 148/179/148 153/185/153 147/178/147 
f 153/185/153 154/186/154 147/178/147 
f 147/178/147 154/186/154 146/177/146 
f 146/177/146 154/186/154 155/187/155 
f 146/177/146 155/187/155 145/176/145 
f 145/176/145 155/187/155 156/188/156 
f 145/176/145 156/188/156 144/175/144 
f 144/175/144 156/188/156 157/189/157 
f 144/175/144 157/189/157 158/190/158 
f 144/175/144 158/190/158 143/174/143 
f 158/190/158 159/191/159 143/174/143 
f 143/174/143 159/191/159 142/173/142 
f 159/191/159 135/192/135 142/173/142 
f 135/192/135 159/191/159 136/193/136 
f 159/191/159 160/194/160 136/193/136 
f 160/194/160 159/191/159 161/195/161 
f 159/191/159 158/190/158 161/195/161 
f 161/195/161 158/190/158 162/196/162 
f 158/190/158 157/189/157 162/196/162 
f 161/195/161 162/196/162 163/197/163 
f 161/195/161 163/197/163 164/198/164 
f 161/195/161 164/198/164 160/194/160 
f 164/198/164 163/197/163 165/199/165 
f 160/194/160 164/198/164 166/200/166 
f 165/199/165 166/200/166 164/198/164 
f 160/194/160 166/200/166 137/201/137 
f 160/194/160 137/201/137 136/193/136 
f 137/201/137 166/200/166 167/202/167 
f 167/202/167 166/200/166 165/199/165 
f 137/201/137 167/202/167 126/203/126 
f 126/203/126 167/202/167 125/204/125 
f 167/202/167 168/205/168 125/204/125 
f 168/205/168 167/202/167 169/206/169 
f 167/202/167 165/199/165 169/206/169 
f 169/206/169 165/199/165 170/207/170 
f 165/199/165 171/208/171 170/207/170 
f 171/208/171 165/199/165 163/197/163 
f 154/186/154 153/209/153 155/187/155 
f 155/187/155 153/209/153 152/210/152 
f 155/187/155 152/210/152 172/211/172 
f 155/187/155 172/211/172 173/212/173 
f 155/187/155 173/212/173 174/213/174 
f 155/187/155 174/213/174 170/214/170 
f 155/187/155 170/214/170 171/215/171 
f 155/187/155 171/215/171 163/216/163 
f 155/187/155 163/216/163 162/217/162 
f 155/187/155 162/217/162 157/218/157 
f 155/187/155 157/218/157 156/219/156 
f 172/220/172 152/184/152 151/183/151 
f 172/220/172 151/183/151 175/221/175 
f 172/220/172 175/221/175 173/222/173 
f 175/221/175 151/183/151 150/181/150 
f 175/221/175 150/181/150 176/223/176 
f 175/221/175 176/223/176 177/224/177 
f 175/221/175 177/224/177 173/222/173 
f 173/222/173 177/224/177 174/225/174 
f 177/224/177 178/226/178 174/225/174 
f 178/226/178 177/224/177 179/227/179 
f 179/227/179 177/224/177 176/223/176 
f 179/227/179 176/223/176 120/228/120 
f 176/223/176 121/229/121 120/228/120 
f 121/229/121 176/223/176 150/181/150 
f 121/229/121 150/181/150 123/182/123 
f 180/230/180 179/227/179 120/228/120 
f 179/227/179 180/230/180 178/226/178 
f 178/226/178 180/230/180 169/231/169 
f 178/226/178 169/231/169 174/225/174 
f 169/231/169 170/232/170 174/225/174 
f 169/231/169 180/230/180 168/233/168 
f 168/233/168 180/230/180 125/234/125 
f 180/230/180 119/235/119 125/234/125 
f 119/235/119 180/230/180 120/228/120 
f 181/236/181 182/237/182 183/238/183 
f 181/236/181 183/238/183 184/239/184 
f 184/239/184 183/238/183 185/240/185 
f 184/239/184 185/240/185 181/241/181 
f 185/240/185 186/242/186 181/241/181 
f 185/240/185 183/238/183 187/243/187 
f 187/243/187 183/238/183 188/244/188 
f 183/238/183 182/245/182 188/244/188 
f 188/244/188 182/245/182 186/246/186 
f 182/245/182 181/247/181 186/246/186 
f 189/239/184 190/236/181 191/237/182 
f 189/239/184 191/237/182 192/238/183 
f 189/239/184 192/238/183 193/243/187 
f 189/239/184 193/243/187 194/240/185 
f 189/239/184 194/240/185 190/241/181 
f 194/240/185 195/242/186 190/241/181 
f 196/244/188 193/243/187 192/238/183 
f 196/244/188 192/238/183 191/245/182 
f 196/244/188 191/245/182 190/247/181 
f 196/244/188 190/247/181 195/246/186 
f 197/248/189 198/249/190 199/250/191 
f 197/248/189 199/250/191 200/251/192 
f 197/248/189 200/251/192 201/252/193 
f 200/251/192 202/253/194 201/252/193 
f 201/252/193 202/253/194 203/254/195 
f 202/253/194 204/255/196 203/254/195 
f 203/254/195 204/255/196 198/256/190 
f 204/255/196 199/257/191 198/256/190 
f 198/258/197 197/248/198 201/252/199 
f 198/258/197 201/252/199 203/259/200 
f 205/257/201 206/256/202 207/260/203 
f 205/257/201 207/260/203 208/261/204 
f 208/261/204 207/260/203 209/252/205 
f 208/261/204 209/252/205 210/253/206 
f 210/253/206 209/252/205 211/248/207 
f 210/253/206 211/248/207 212/251/208 
f 212/251/208 211/248/207 206/249/202 
f 212/251/208 206/249/202 205/250/201 
f 207/259/209 206/258/210 211/248/211 
f 207/259/209 211/248/211 209/252/212 
f 213/255/213 214/257/214 215/256/215 
f 213/255/213 215/256/215 216/254/216 
f 213/255/213 216/254/216 217/253/217 
f 216/254/216 218/252/218 217/253/217 
f 217/253/217 218/252/218 219/251/219 
f 218/252/218 220/248/220 219/251/219 
f 219/251/219 220/248/220 214/250/214 
f 220/248/220 215/249/215 214/250/214 
f 220/248/221 218/252/222 216/259/223 
f 220/248/221 216/259/223 215/258/224 
f 221/262/225 222/263/226 223/264/227 
f 221/262/225 223/264/227 224/265/228 
f 224/265/228 223/264/227 225/266/229 
f 223/264/227 226/267/230 225/266/229 
f 225/266/229 226/267/230 227/268/231 
f 225/266/229 227/268/231 228/269/232 
f 228/269/232 227/268/231 221/270/225 
f 227/268/231 222/271/226 221/270/225 
f 229/257/233 230/256/234 231/254/235 
f 229/257/233 231/254/235 232/255/236 
f 232/255/236 231/254/235 233/252/237 
f 232/255/236 233/252/237 234/253/238 
f 234/253/238 233/252/237 235/248/239 
f 234/253/238 235/248/239 236/251/240 
f 236/251/240 235/248/239 230/249/234 
f 236/251/240 230/249/234 229/250/233 
f 235/248/241 233/252/242 231/259/243 
f 235/248/241 231/259/243 230/258/244 
f 237/262/245 238/263/246 239/264/247 
f 237/262/245 239/264/247 240/265/248 
f 240/265/248 239/264/247 241/266/249 
f 239/264/247 242/267/250 241/266/249 
f 241/266/249 242/267/250 243/268/251 
f 241/266/249 243/268/251 244/269/252 
f 244/269/252 243/268/251 237/270/245 
f 243/268/251 238/271/246 237/270/245 
f 245/272/253 246/273/254 247/274/254 
f 245/272/253 247/274/254 248/275/253 
f 245/272/253 248/275/253 249/276/255 
f 248/275/253 250/277/255 249/276/255 
f 249/276/255 250/277/255 251/278/256 
f 250/277/255 252/279/256 251/278/256 
f 251/278/256 252/279/256 253/280/257 
f 252/279/256 254/281/257 253/280/257 
f 253/280/257 254/281/257 255/282/258 
f 254/281/257 256/283/258 255/282/258 
f 255/282/258 256/283/258 257/284/259 
f 256/283/258 258/285/259 257/284/259 
f 257/284/259 258/285/259 259/286/260 
f 258/285/259 260/287/260 259/286/260 
f 259/286/260 260/287/260 261/288/261 
f 260/287/260 262/289/261 261/288/261 
f 261/288/261 262/289/261 263/290/262 
f 262/289/261 264/291/262 263/290/262 
f 263/290/262 264/291/262 246/292/254 
f 264/291/262 247/293/254 246/292/254 
f 265/272/253 266/273/254 267/274/254 
f 265/272/253 267/274/254 268/275/253 
f 265/272/253 268/275/253 269/276/255 
f 268/275/253 270/277/255 269/276/255 
f 269/276/255 270/277/255 271/278/256 
f 270/277/255 272/279/256 271/278/256 
f 271/278/256 272/279/256 273/280/263 
f 272/279/256 274/281/263 273/280/263 
f 273/280/263 274/281/263 275/282/264 
f 274/281/263 276/283/264 275/282/264 
f 275/282/264 276/283/264 277/284/265 
f 276/283/264 278/285/266 277/284/265 
f 277/284/265 278/285/266 279/286/260 
f 278/285/266 280/287/260 279/286/260 
f 279/286/260 280/287/260 281/288/267 
f 280/287/260 282/289/267 281/288/267 
f 281/288/267 282/289/267 283/290/262 
f 282/289/267 284/291/262 283/290/262 
f 283/290/262 284/291/262 266/292/254 
f 284/291/262 267/293/254 266/292/254 
f 285/272/268 286/273/254 287/274/254 
f 285/272/268 287/274/254 288/275/268 
f 285/272/268 288/275/268 289/276/269 
f 288/275/268 290/277/269 289/276/269 
f 289/276/269 290/277/269 291/278/270 
f 290/277/269 292/279/270 291/278/270 
f 291/278/270 292/279/270 293/280/263 
f 292/279/270 294/281/263 293/280/263 
f 293/280/263 294/281/263 295/282/271 
f 294/281/263 296/283/271 295/282/271 
f 295/282/271 296/283/271 297/284/259 
f 296/283/271 298/285/259 297/284/259 
f 297/284/259 298/285/259 299/286/272 
f 298/285/259 300/287/272 299/286/272 
f 299/286/272 300/287/272 301/288/261 
f 300/287/272 302/289/261 301/288/261 
f 301/288/261 302/289/261 303/290/273 
f 302/289/261 304/291/273 303/290/273 
f 303/290/273 304/291/273 286/292/254 
f 304/291/273 287/293/254 286/292/254 
f 305/272/260 306/273/265 307/274/266 
f 305/272/260 307/274/266 308/275/260 
f 305/272/260 308/275/260 309/276/267 
f 308/275/260 310/277/267 309/276/267 
f 309/276/267 310/277/267 311/278/262 
f 310/277/267 312/279/262 311/278/262 
f 311/278/262 312/279/262 313/280/254 
f 312/279/262 314/281/254 313/280/254 
f 313/280/254 314/281/254 315/282/253 
f 314/281/254 316/283/253 315/282/253 
f 315/282/253 316/283/253 317/284/255 
f 316/283/253 318/285/255 317/284/255 
f 317/284/255 318/285/255 319/286/256 
f 318/285/255 320/287/256 319/286/256 
f 319/286/256 320/287/256 321/288/263 
f 320/287/256 322/289/263 321/288/263 
f 321/288/263 322/289/263 323/290/264 
f 322/289/263 324/291/264 323/290/264 
f 323/290/264 324/291/264 306/292/265 
f 324/291/264 307/293/266 306/292/265 
f 325/150/119 326/151/274 327/152/121 
f 325/150/119 327/152/121 328/153/122 
f 328/153/122 327/152/121 329/154/123 
f 325/150/119 328/153/122 330/155/275 
f 325/150/119 330/155/275 331/156/125 
f 331/156/125 330/155/275 332/157/276 
f 330/155/275 333/158/127 332/157/276 
f 333/158/127 330/155/275 334/159/277 
f 334/159/277 330/155/275 328/153/122 
f 334/159/277 328/153/122 335/160/129 
f 335/160/129 328/153/122 329/154/123 
f 335/160/129 329/154/123 336/161/278 
f 329/154/123 337/162/279 336/161/278 
f 335/160/129 336/161/278 338/163/280 
f 335/160/129 338/163/280 334/159/277 
f 334/159/277 338/163/280 339/164/281 
f 334/159/277 339/164/281 333/158/127 
f 338/163/280 340/165/282 339/164/281 
f 333/158/127 339/164/281 341/166/135 
f 340/165/282 341/166/135 339/164/281 
f 333/158/127 341/166/135 342/167/136 
f 333/158/127 342/167/136 332/157/276 
f 342/167/136 343/168/283 332/157/276 
f 344/169/284 338/163/280 336/161/278 
f 338/163/280 344/169/284 340/165/282 
f 336/161/278 345/170/285 344/169/284 
f 345/170/285 336/161/278 337/162/279 
f 344/169/284 345/170/285 346/171/286 
f 344/169/284 346/171/286 347/172/287 
f 344/169/284 347/172/287 340/165/282 
f 340/165/282 347/172/287 348/173/288 
f 340/165/282 348/173/288 341/166/135 
f 348/173/288 347/172/287 349/174/289 
f 349/174/289 347/172/287 350/175/290 
f 347/172/287 351/176/291 350/175/290 
f 351/176/291 347/172/287 346/171/286 
f 351/176/291 346/171/286 352/177/292 
f 352/177/292 346/171/286 353/178/293 
f 353/178/293 346/171/286 345/170/285 
f 353/178/293 345/170/285 354/179/294 
f 345/170/285 355/180/295 354/179/294 
f 355/180/295 345/170/285 337/162/279 
f 355/180/295 337/162/279 356/181/296 
f 337/162/279 329/182/123 356/181/296 
f 355/180/295 356/181/296 357/183/297 
f 355/180/295 357/183/297 354/179/294 
f 354/179/294 357/183/297 358/184/298 
f 354/179/294 358/184/298 359/185/299 
f 354/179/294 359/185/299 353/178/293 
f 359/185/299 360/186/300 353/178/293 
f 353/178/293 360/186/300 352/177/292 
f 352/177/292 360/186/300 361/187/301 
f 352/177/292 361/187/301 351/176/291 
f 351/176/291 361/187/301 362/188/302 
f 351/176/291 362/188/302 350/175/290 
f 350/175/290 362/188/302 363/189/303 
f 350/175/290 363/189/303 364/190/304 
f 350/175/290 364/190/304 349/174/289 
f 364/190/304 365/191/305 349/174/289 
f 349/174/289 365/191/305 348/173/288 
f 365/191/305 341/192/135 348/173/288 
f 341/192/135 365/191/305 342/193/136 
f 365/191/305 366/194/306 342/193/136 
f 366/194/306 365/191/305 367/195/307 
f 365/191/305 364/190/304 367/195/307 
f 367/195/307 364/190/304 368/196/308 
f 364/190/304 363/189/303 368/196/308 
f 367/195/307 368/196/308 369/197/309 
f 367/195/307 369/197/309 370/198/310 
f 367/195/307 370/198/310 366/194/306 
f 370/198/310 371/200/311 366/194/306 
f 366/194/306 371/200/311 343/201/283 
f 366/194/306 343/201/283 342/193/136 
f 343/201/283 371/200/311 372/202/312 
f 372/202/312 371/200/311 373/199/313 
f 371/200/311 370/198/310 373/199/313 
f 373/199/313 370/198/310 369/197/309 
f 373/199/313 369/197/309 374/208/314 
f 373/199/313 374/208/314 375/207/315 
f 373/199/313 375/207/315 376/206/169 
f 373/199/313 376/206/169 372/202/312 
f 376/206/169 377/205/316 372/202/312 
f 372/202/312 377/205/316 331/204/125 
f 372/202/312 331/204/125 332/203/276 
f 372/202/312 332/203/276 343/201/283 
f 360/186/300 359/209/299 361/187/301 
f 361/187/301 359/209/299 358/210/298 
f 361/187/301 358/210/298 378/211/317 
f 361/187/301 378/211/317 379/212/318 
f 361/187/301 379/212/318 380/213/319 
f 361/187/301 380/213/319 375/214/315 
f 361/187/301 375/214/315 374/215/314 
f 361/187/301 374/215/314 369/216/309 
f 361/187/301 369/216/309 368/217/308 
f 361/187/301 368/217/308 363/218/303 
f 361/187/301 363/218/303 362/219/302 
f 378/220/317 358/184/298 357/183/297 
f 378/220/317 357/183/297 381/221/320 
f 378/220/317 381/221/320 379/222/318 
f 381/221/320 357/183/297 356/181/296 
f 379/222/318 381/221/320 382/224/321 
f 356/181/296 383/223/322 381/221/320 
f 382/224/321 381/221/320 383/223/322 
f 356/181/296 327/229/121 383/223/322 
f 327/229/121 356/181/296 329/182/123 
f 383/223/322 327/229/121 326/228/274 
f 383/223/322 326/228/274 384/227/323 
f 383/223/322 384/227/323 382/224/321 
f 384/227/323 326/228/274 385/230/324 
f 382/224/321 384/227/323 386/226/325 
f 385/230/324 386/226/325 384/227/323 
f 382/224/321 386/226/325 380/225/319 
f 382/224/321 380/225/319 379/222/318 
f 380/225/319 386/226/325 376/231/169 
f 376/231/169 386/226/325 385/230/324 
f 380/225/319 376/231/169 375/232/315 
f 385/230/324 377/233/316 376/231/169 
f 377/233/316 385/230/324 331/234/125 
f 385/230/324 325/235/119 331/234/125 
f 325/235/119 385/230/324 326/228/274 
f 387/294/326 388/295/327 389/296/328 
f 387/294/326 389/296/328 390/297/329 
f 390/297/329 389/296/328 391/298/330 
f 391/298/330 389/296/328 392/299/331 
f 389/296/328 393/300/332 392/299/331 
f 393/300/332 389/296/328 388/301/327 
f 391/298/330 394/302/333 390/297/329 
f 390/297/329 394/302/333 395/303/334 
f 390/297/329 395/303/334 396/304/335 
f 390/297/329 396/304/335 387/305/326 
f 396/304/335 395/303/334 393/306/332 
f 395/303/334 392/307/331 393/306/332 
f 397/296/336 398/295/337 399/294/338 
f 397/296/336 399/294/338 400/297/339 
f 397/296/336 400/297/339 401/298/340 
f 397/296/336 401/298/340 402/299/341 
f 397/296/336 402/299/341 403/300/342 
f 397/296/336 403/300/342 398/301/337 
f 400/297/339 404/302/343 401/298/340 
f 404/302/343 400/297/339 405/303/344 
f 400/297/339 406/304/345 405/303/344 
f 406/304/345 400/297/339 399/305/338 
f 405/303/344 406/304/345 403/306/342 
f 405/303/344 403/306/342 402/307/341 
f 407/308/346 408/309/347 409/310/348 
f 407/308/346 409/310/348 410/311/349 
f 410/311/349 409/310/348 411/312/350 
f 410/311/349 411/312/350 412/313/351 
f 412/313/351 411/312/350 413/314/352 
f 411/312/350 414/315/353 413/314/352 
f 412/313/351 413/314/352 415/316/354 
f 412/313/351 415/316/354 410/317/349 
f 415/316/354 416/318/355 410/317/349 
f 410/317/349 416/318/355 407/319/346 
f 416/318/355 417/320/356 407/319/346 
f 407/321/346 413/314/352 414/315/353 
f 407/321/346 414/315/353 408/322/347 
f 413/314/352 418/323/357 415/316/354 
f 418/323/357 413/314/352 417/324/356 
f 413/314/352 407/325/346 417/324/356 
f 418/323/357 419/326/358 415/316/354 
f 419/326/358 418/323/357 417/327/356 
f 419/326/358 417/327/356 420/328/359 
f 419/326/358 421/329/360 415/316/354 
f 415/316/354 421/329/360 416/330/355 
f 421/329/360 422/331/361 416/330/355 
f 416/330/355 422/331/361 417/332/356 
f 422/331/361 420/333/359 417/332/356 
f 420/327/359 408/328/347 414/326/353 
f 420/327/359 414/326/353 419/323/358 
f 419/323/358 414/326/353 421/316/360 
f 414/326/353 411/329/350 421/316/360 
f 421/316/360 411/329/350 409/331/348 
f 421/316/360 409/331/348 422/330/361 
f 422/330/361 409/331/348 408/333/347 
f 422/330/361 408/333/347 420/332/359 
f 423/334/362 424/335/363 425/336/364 
f 424/335/363 423/334/362 426/337/365 
f 425/336/364 427/338/366 423/334/362 
f 427/338/366 425/336/364 428/339/367 
f 427/338/366 428/339/367 429/340/368 
f 427/338/366 429/340/368 430/341/369 
f 427/338/366 430/341/369 431/342/370 
f 427/338/366 431/342/370 423/334/362 
f 423/334/362 431/342/370 432/343/371 
f 423/334/362 432/343/371 426/337/365 
f 426/337/365 432/343/371 433/344/372 
f 432/343/371 434/345/373 433/344/372 
f 434/345/373 432/343/371 435/346/374 
f 435/346/374 432/343/371 431/342/370 
f 435/346/374 431/342/370 436/347/375 
f 436/347/375 431/342/370 430/341/369 
f 436/347/375 430/341/369 437/348/376 
f 437/348/376 430/341/369 438/349/377 
f 438/349/377 430/341/369 429/340/368 
f 437/348/376 438/349/377 439/350/378 
f 437/348/376 439/350/378 440/351/379 
f 437/348/376 440/351/379 441/352/380 
f 437/348/376 441/352/380 436/347/375 
f 436/347/375 441/352/380 442/353/381 
f 436/347/375 442/353/381 435/346/374 
f 435/346/374 442/353/381 443/354/382 
f 435/346/374 443/354/382 434/345/373 
f 442/353/381 444/355/383 443/354/382 
f 444/355/383 442/353/381 445/356/384 
f 445/356/384 442/353/381 441/352/380 
f 444/355/383 445/356/384 446/357/385 
f 445/356/384 441/352/380 447/358/386 
f 446/357/385 445/356/384 447/358/386 
f 446/357/385 447/358/386 448/359/387 
f 448/359/387 447/358/386 449/360/388 
f 449/360/388 447/358/386 450/361/389 
f 450/361/389 447/358/386 441/352/380 
f 450/361/389 441/352/380 451/362/390 
f 441/352/380 440/351/379 451/362/390 
f 451/362/390 440/351/379 452/363/391 
f 452/363/391 440/351/379 439/350/378 
f 451/362/390 452/363/391 453/364/392 
f 451/362/390 453/364/392 454/365/393 
f 451/362/390 454/365/393 450/361/389 
f 454/365/393 455/366/394 450/361/389 
f 450/361/389 455/366/394 449/360/388 
f 449/360/388 455/366/394 456/367/395 
f 449/360/388 456/367/395 457/368/396 
f 449/360/388 457/368/396 448/359/387 
f 456/367/395 458/369/397 457/368/396 
f 458/369/397 456/367/395 459/370/398 
f 459/370/398 456/367/395 460/371/399 
f 456/367/395 461/372/400 460/371/399 
f 461/372/400 456/367/395 455/366/394 
f 460/371/399 461/372/400 462/373/401 
f 455/366/394 462/373/401 461/372/400 
f 462/373/401 455/366/394 454/365/393 
f 462/373/401 454/365/393 463/374/402 
f 463/374/402 454/365/393 453/364/392 
f 462/373/401 463/374/402 464/375/403 
f 462/373/401 464/375/403 465/376/404 
f 462/373/401 465/376/404 460/371/399 
f 460/371/399 465/376/404 466/377/405 
f 460/371/399 466/377/405 459/370/398 
f 466/377/405 467/378/406 459/370/398 
f 459/370/398 467/378/406 468/379/407 
f 459/370/398 468/379/407 458/369/397 
f 467/378/406 469/380/408 468/379/407 
f 469/380/408 467/378/406 470/381/409 
f 470/381/409 467/378/406 471/382/410 
f 467/378/406 466/377/405 471/382/410 
f 471/382/410 466/377/405 472/383/411 
f 472/383/411 466/377/405 465/376/404 
f 472/383/411 465/376/404 473/384/412 
f 473/384/412 465/376/404 464/375/403 
f 472/383/411 473/384/412 474/385/413 
f 472/383/411 474/385/413 475/386/414 
f 472/383/411 475/386/414 471/382/410 
f 474/385/413 476/387/415 475/386/414 
f 471/382/410 475/386/414 477/388/416 
f 476/387/415 477/388/416 475/386/414 
f 471/382/410 477/388/416 478/389/417 
f 471/382/410 478/389/417 479/390/418 
f 471/382/410 479/390/418 470/381/409 
f 470/381/409 479/390/418 480/391/419 
f 470/381/409 480/391/419 469/380/408 
f 469/380/408 480/391/419 481/392/420 
f 469/380/408 481/392/420 482/393/421 
f 469/380/408 482/393/421 483/394/422 
f 469/380/408 483/394/422 468/379/407 
f 483/394/422 484/395/423 468/379/407 
f 468/379/407 484/395/423 458/369/397 
f 484/395/423 483/394/422 485/396/424 
f 458/369/397 484/395/423 486/397/425 
f 485/396/424 486/397/425 484/395/423 
f 486/397/425 485/396/424 487/398/426 
f 486/397/425 487/398/426 488/399/427 
f 486/397/425 488/399/427 458/369/397 
f 488/399/427 489/400/428 458/369/397 
f 489/400/428 457/401/396 458/369/397 
f 489/400/428 488/399/427 490/402/429 
f 490/402/429 488/399/427 487/398/426 
f 489/400/428 490/402/429 491/403/430 
f 489/400/428 491/403/430 457/401/396 
f 491/403/430 448/404/387 457/401/396 
f 448/404/387 491/403/430 446/405/385 
f 446/405/385 491/403/430 490/402/429 
f 446/405/385 490/402/429 487/398/426 
f 446/405/385 487/398/426 444/406/383 
f 487/398/426 485/396/424 444/406/383 
f 444/406/383 485/396/424 443/407/382 
f 485/396/424 492/408/431 443/407/382 
f 492/408/431 485/396/424 483/394/422 
f 492/408/431 483/394/422 482/393/421 
f 492/408/431 482/393/421 493/409/432 
f 493/409/432 482/393/421 481/392/420 
f 492/408/431 493/409/432 443/407/382 
f 443/407/382 493/409/432 434/410/373 
f 493/409/432 494/411/433 434/410/373 
f 494/411/433 493/409/432 481/392/420 
f 434/410/373 494/411/433 433/412/372 
f 494/411/433 495/413/434 433/412/372 
f 495/413/434 494/411/433 481/392/420 
f 433/412/372 495/413/434 496/414/435 
f 433/412/372 496/414/435 497/415/436 
f 496/414/435 495/413/434 498/416/437 
f 497/415/436 496/414/435 499/417/438 
f 498/416/437 499/417/438 496/414/435 
f 497/415/436 499/417/438 500/418/439 
f 500/418/439 499/417/438 501/419/440 
f 499/417/438 498/416/437 501/419/440 
f 501/419/440 498/416/437 480/391/419 
f 498/416/437 481/392/420 480/391/419 
f 481/392/420 498/416/437 495/413/434 
f 480/391/419 479/390/418 501/419/440 
f 501/419/440 479/390/418 502/420/441 
f 501/419/440 502/420/441 503/421/442 
f 501/419/440 503/421/442 500/422/439 
f 503/421/442 502/420/441 504/423/443 
f 503/421/442 504/423/443 505/424/444 
f 503/421/442 505/424/444 500/422/439 
f 505/424/444 497/425/436 500/422/439 
f 497/425/436 505/424/444 433/426/372 
f 433/426/372 505/424/444 426/427/365 
f 505/424/444 504/423/443 426/427/365 
f 426/427/365 504/423/443 424/428/363 
f 504/423/443 506/429/445 424/428/363 
f 506/429/445 504/423/443 502/420/441 
f 506/429/445 502/420/441 507/430/446 
f 507/430/446 502/420/441 479/390/418 
f 507/430/446 479/390/418 478/389/417 
f 507/430/446 478/389/417 477/388/416 
f 507/430/446 477/388/416 508/431/447 
f 507/430/446 508/431/447 506/429/445 
f 508/431/447 509/432/448 506/429/445 
f 506/429/445 509/432/448 424/428/363 
f 509/432/448 425/433/364 424/428/363 
f 425/433/364 509/432/448 510/434/449 
f 510/434/449 509/432/448 511/435/450 
f 509/432/448 508/431/447 511/435/450 
f 511/435/450 508/431/447 512/436/451 
f 508/431/447 477/388/416 512/436/451 
f 512/436/451 477/388/416 476/387/415 
f 512/436/451 476/387/415 513/437/452 
f 476/387/415 514/438/453 513/437/452 
f 514/438/453 476/387/415 474/385/413 
f 513/437/452 514/438/453 515/439/454 
f 513/437/452 515/439/454 516/440/455 
f 513/437/452 516/440/455 517/441/456 
f 513/437/452 517/441/456 512/436/451 
f 517/441/456 516/440/455 518/442/457 
f 512/436/451 517/441/456 519/443/458 
f 518/442/457 519/443/458 517/441/456 
f 512/436/451 519/444/458 511/435/450 
f 511/435/450 519/444/458 510/434/449 
f 519/444/458 518/445/457 510/434/449 
f 510/434/449 518/445/457 428/446/367 
f 510/434/449 428/446/367 425/433/364 
f 428/447/367 516/440/455 515/439/454 
f 516/440/455 428/447/367 518/442/457 
f 428/447/367 515/439/454 520/448/459 
f 520/448/459 515/439/454 514/438/453 
f 428/447/367 520/448/459 429/449/368 
f 429/449/368 520/448/459 521/450/460 
f 521/450/460 520/448/459 514/438/453 
f 521/450/460 514/438/453 522/451/461 
f 522/451/461 514/438/453 474/385/413 
f 522/451/461 474/385/413 523/452/462 
f 523/452/462 474/385/413 473/384/412 
f 522/451/461 523/452/462 524/453/463 
f 522/451/461 524/453/463 521/450/460 
f 521/450/460 524/453/463 438/454/377 
f 521/450/460 438/454/377 429/449/368 
f 438/454/377 524/453/463 525/455/464 
f 525/455/464 524/453/463 523/452/462 
f 525/455/464 523/452/462 526/456/465 
f 526/456/465 523/452/462 473/384/412 
f 526/456/465 473/384/412 464/375/403 
f 526/456/465 464/375/403 527/457/466 
f 526/456/465 527/457/466 525/455/464 
f 527/457/466 528/458/467 525/455/464 
f 525/455/464 528/458/467 439/459/378 
f 525/455/464 439/459/378 438/454/377 
f 528/458/467 452/460/391 439/459/378 
f 452/460/391 528/458/467 529/461/468 
f 529/461/468 528/458/467 530/462/469 
f 528/458/467 527/457/466 530/462/469 
f 527/457/466 464/375/403 530/462/469 
f 530/462/469 464/375/403 531/463/470 
f 530/462/469 531/463/470 529/461/468 
f 531/463/470 464/375/403 463/464/402 
f 531/463/470 463/464/402 532/465/471 
f 531/463/470 532/465/471 529/461/468 
f 529/461/468 532/465/471 452/466/391 
f 452/466/391 532/465/471 453/467/392 
f 453/467/392 532/465/471 463/464/402 
# 0 polygons - 900 triangles

