# 3ds Max Wavefront OBJ Exporter v0.97b - (c)2007 guruware
# File Created: 25.06.2022 23:09:22

mtllib SM_Stand_02.mtl

#
# object SM_Stand_02
#

v  -65.5862 67.5546 -12.1844
v  -65.5862 13.0835 12.1843
v  -65.5862 67.5546 12.1843
v  -65.5862 13.0835 -12.1844
v  -63.8883 67.5546 16.2834
v  -58.4882 13.0835 21.6834
v  -58.4882 67.5546 21.6835
v  -63.8883 13.0835 16.2833
v  -56.9214 70.0868 23.6980
v  -56.9214 10.5512 23.6978
v  -56.0473 70.0868 21.5878
v  -56.0473 10.5512 21.5876
v  -56.0473 70.0868 -21.5878
v  -56.0473 10.5512 -21.5878
v  -56.9214 70.0868 -23.6980
v  -56.9214 10.5512 -23.6980
v  -58.4882 67.5546 -21.6836
v  -63.8883 13.0835 -16.2836
v  -63.8883 67.5546 -16.2834
v  -58.4882 13.0835 -21.6836
v  -65.9027 70.0868 14.7167
v  -65.9027 70.0868 -14.7166
v  -65.9027 69.0317 -13.6615
v  -65.9027 69.0317 13.6616
v  -65.9027 10.5512 -14.7168
v  -65.9027 11.6063 -13.6617
v  -65.9027 10.5512 14.7167
v  -57.6675 11.6063 22.9521
v  -65.1566 11.6063 15.4630
v  -57.6674 69.0317 22.9521
v  -65.1566 69.0317 15.4630
v  -65.1566 11.6063 -15.4630
v  -57.6675 11.6063 -22.9521
v  -65.1566 69.0317 -15.4630
v  -57.6674 69.0317 -22.9521
v  -65.9027 11.6063 13.6615
v  -64.8476 11.6063 13.6615
v  -64.8476 11.6063 -13.6617
v  -64.8476 69.0317 13.6616
v  -64.8476 69.0317 -13.6615
v  -56.9214 11.6063 22.2057
v  -64.4105 11.6063 14.7167
v  -56.9214 69.0317 22.2057
v  -64.4105 69.0317 14.7167
v  -56.9214 11.6063 -22.2058
v  -64.4105 11.6063 -14.7168
v  -64.4105 69.0317 -14.7166
v  -56.9214 69.0317 -22.2057
v  -63.8883 12.3449 15.2388
v  -57.4437 12.3449 21.6835
v  -57.4437 68.2931 21.6835
v  -63.8883 68.2931 15.2390
v  -57.4437 12.3449 -21.6835
v  -63.8883 12.3449 -15.2390
v  -63.8883 68.2931 -15.2390
v  -57.4437 68.2931 -21.6835
v  -64.8476 12.3449 -12.9230
v  -64.8476 12.3449 12.9230
v  -64.8476 68.2931 12.9230
v  -64.8476 68.2931 -12.9229
v  -23.6673 49.6213 19.2702
v  56.0459 47.5111 19.2702
v  56.0472 49.6213 19.2702
v  -23.6687 47.5111 19.2702
v  -23.6673 49.6213 -18.9198
v  56.0472 49.6213 -18.9198
v  56.0459 47.5111 -18.9198
v  -23.6687 47.5111 -18.9198
v  -68.2668 78.1041 13.2943
v  -68.2668 78.1041 -13.2948
v  -68.2668 72.6175 -13.2948
v  -68.2668 72.6175 13.2943
v  -59.5989 78.1041 24.3633
v  -66.5689 78.1041 17.3933
v  -66.5689 72.6175 17.3933
v  -59.5989 72.6175 24.3633
v  55.4986 78.1041 26.0612
v  -55.4999 78.1041 26.0612
v  -55.4999 72.6175 26.0612
v  55.4986 72.6175 26.0612
v  59.5977 78.1041 24.3633
v  66.5676 72.6175 17.3933
v  66.5676 78.1041 17.3933
v  59.5977 72.6175 24.3633
v  68.2655 78.1041 13.2943
v  68.2655 72.6175 -13.2948
v  68.2655 78.1041 -13.2948
v  68.2655 72.6175 13.2943
v  66.5676 78.1041 -17.3938
v  59.5977 72.6175 -24.3638
v  59.5977 78.1041 -24.3638
v  66.5676 72.6175 -17.3938
v  -55.4999 78.1041 -26.0616
v  55.4986 78.1041 -26.0616
v  55.4986 72.6175 -26.0616
v  -55.4999 72.6175 -26.0616
v  -66.5689 78.1041 -17.3938
v  -59.5989 78.1041 -24.3638
v  -59.5989 72.6175 -24.3638
v  -66.5689 72.6175 -17.3938
v  -68.5833 70.0852 -15.8270
v  -68.5833 70.0852 15.8266
v  -68.5833 71.1403 14.7715
v  -68.5833 71.1403 -14.7719
v  -68.5832 80.6364 15.8266
v  -68.5833 79.5812 14.7715
v  -68.5833 79.5812 -14.7719
v  -68.5832 80.6364 -15.8270
v  -58.0321 70.0852 26.3777
v  -67.8368 71.1403 16.5730
v  -58.7780 71.1403 25.6315
v  -58.0319 80.6364 26.3778
v  -58.7780 79.5812 25.6315
v  -67.8368 79.5812 16.5730
v  58.0308 70.0852 26.3777
v  56.9753 71.1403 26.3777
v  -56.9766 71.1403 26.3777
v  58.0311 80.6364 26.3778
v  56.9753 79.5812 26.3777
v  -56.9766 79.5812 26.3777
v  68.5820 70.0852 15.8266
v  67.8362 71.1403 16.5726
v  58.7767 71.1403 25.6318
v  68.5822 80.6364 15.8266
v  67.8362 79.5812 16.5726
v  58.7767 79.5812 25.6318
v  68.5820 70.0852 -15.8270
v  68.5820 71.1403 14.7715
v  68.5820 71.1403 -14.7719
v  68.5822 80.6364 -15.8270
v  68.5820 79.5813 -14.7719
v  68.5820 79.5813 14.7715
v  58.0308 70.0852 -26.3781
v  58.7767 71.1403 -25.6322
v  67.8362 71.1403 -16.5732
v  58.0311 80.6364 -26.3781
v  58.7767 79.5812 -25.6322
v  67.8362 79.5812 -16.5732
v  -58.0321 70.0852 -26.3781
v  -56.9766 71.1403 -26.3781
v  56.9753 71.1403 -26.3781
v  -58.0319 80.6364 -26.3781
v  -56.9766 79.5812 -26.3781
v  56.9753 79.5812 -26.3781
v  -67.8375 71.1403 -16.5732
v  -58.7780 71.1403 -25.6322
v  -67.8375 79.5812 -16.5732
v  -58.7780 79.5812 -25.6322
v  -67.5282 71.1403 14.7715
v  -67.5282 71.1403 -14.7719
v  -67.5282 79.5812 14.7715
v  -67.5282 79.5812 -14.7719
v  -58.0321 71.1403 24.8856
v  -67.0912 71.1403 15.8266
v  -58.0321 79.5812 24.8856
v  -67.0912 79.5812 15.8266
v  56.9757 71.1403 25.3226
v  -56.9770 71.1403 25.3226
v  56.9757 79.5812 25.3226
v  -56.9770 79.5812 25.3226
v  58.0308 71.1403 24.8856
v  67.0899 71.1403 15.8266
v  67.0899 79.5812 15.8266
v  58.0308 79.5812 24.8856
v  67.5269 71.1403 -14.7719
v  67.5269 71.1403 14.7715
v  67.5269 79.5812 -14.7719
v  67.5269 79.5812 14.7715
v  58.0308 71.1403 -24.8860
v  67.0899 71.1403 -15.8270
v  58.0308 79.5812 -24.8860
v  67.0899 79.5812 -15.8270
v  -56.9770 71.1403 -25.3230
v  56.9757 71.1403 -25.3230
v  -56.9770 79.5812 -25.3230
v  56.9757 79.5812 -25.3230
v  -58.0321 71.1403 -24.8860
v  -67.0912 71.1403 -15.8270
v  -67.0912 79.5812 -15.8270
v  -58.0321 79.5812 -24.8860
v  -58.5544 71.8789 24.3633
v  -66.5689 71.8789 16.3488
v  -58.5544 78.8427 24.3633
v  -66.5689 78.8427 16.3488
v  58.5531 71.8789 24.3633
v  66.5676 71.8789 16.3488
v  66.5676 78.8427 16.3488
v  58.5531 78.8427 24.3633
v  66.5676 71.8789 -16.3492
v  58.5531 71.8789 -24.3638
v  58.5531 78.8427 -24.3638
v  66.5676 78.8427 -16.3492
v  -66.5689 71.8789 -16.3492
v  -58.5544 71.8789 -24.3638
v  -66.5689 78.8427 -16.3492
v  -58.5544 78.8427 -24.3638
v  -67.5282 71.8789 14.0329
v  -67.5282 71.8789 -14.0333
v  -67.5282 78.8427 14.0329
v  -67.5282 78.8427 -14.0333
v  -56.2384 71.8789 25.3226
v  56.2371 71.8789 25.3226
v  56.2371 78.8427 25.3226
v  -56.2384 78.8427 25.3226
v  67.5269 71.8789 14.0329
v  67.5269 71.8789 -14.0333
v  67.5269 78.8427 -14.0333
v  67.5269 78.8427 14.0329
v  56.2371 71.8789 -25.3230
v  -56.2384 71.8789 -25.3230
v  -56.2384 78.8427 -25.3230
v  56.2371 78.8427 -25.3230
v  -69.8286 81.2592 -16.3428
v  -69.8286 80.6363 16.3427
v  -69.8286 81.2592 16.3428
v  -69.8286 80.6363 -16.3429
v  -71.6974 83.7510 -17.1169
v  -71.6975 83.1281 17.1169
v  -71.6975 83.7510 17.1169
v  -71.6974 83.1281 -17.1169
v  -58.5476 81.2592 -27.6239
v  -58.5476 80.6363 -27.6239
v  -59.3217 83.7510 -29.4928
v  -59.3217 83.1281 -29.4928
v  58.5476 80.6363 -27.6238
v  58.5476 81.2592 -27.6238
v  59.3217 83.7510 -29.4926
v  59.3217 83.1281 -29.4926
v  69.8286 81.2592 -16.3427
v  69.8286 80.6363 -16.3428
v  71.6975 83.7510 -17.1169
v  71.6975 83.1281 -17.1169
v  69.8286 81.2592 16.3428
v  69.8286 80.6363 16.3428
v  71.6974 83.7510 17.1170
v  71.6974 83.1281 17.1170
v  58.5476 81.2592 27.6239
v  58.5476 80.6363 27.6239
v  59.3216 83.1281 29.4928
v  59.3216 83.7510 29.4928
v  -58.5476 80.6363 27.6239
v  -58.5476 81.2592 27.6239
v  -59.3217 83.1281 29.4926
v  -59.3217 83.7510 29.4926
v  -25.7765 39.2639 -18.9196
v  -56.0611 39.2639 19.2702
v  -56.0611 39.2639 -18.9196
v  -25.7765 39.2639 19.2702
v  -56.0611 41.3741 19.2702
v  -25.7765 41.3741 -18.9196
v  -56.0611 41.3741 -18.9196
v  -25.7765 41.3741 19.2702
v  58.4883 67.5546 21.6835
v  58.4883 13.0835 21.6834
v  63.8883 67.5546 16.2834
v  63.8883 13.0835 16.2833
v  65.5862 67.5546 12.1843
v  65.5862 13.0835 12.1843
v  65.5862 67.5546 -12.1844
v  65.5862 13.0835 -12.1844
v  63.8883 67.5546 -16.2834
v  63.8883 13.0835 -16.2836
v  58.4883 67.5546 -21.6836
v  58.4883 13.0835 -21.6836
v  56.9214 70.0868 -23.6980
v  56.0473 10.5512 -21.5878
v  56.0473 70.0868 -21.5878
v  56.9214 10.5512 -23.6980
v  56.0473 10.5512 21.5876
v  56.0473 70.0868 21.5878
v  56.9214 10.5512 23.6978
v  56.9214 70.0868 23.6980
v  65.9027 10.5512 14.7167
v  65.1566 11.6063 15.4630
v  57.6674 11.6063 22.9521
v  65.9027 70.0868 14.7167
v  65.1566 69.0317 15.4630
v  57.6674 69.0317 22.9521
v  65.9027 70.0868 -14.7166
v  65.9027 69.0317 13.6616
v  65.9027 69.0317 -13.6615
v  65.9027 10.5512 -14.7168
v  57.6674 11.6063 -22.9521
v  65.1566 11.6063 -15.4630
v  57.6674 69.0317 -22.9521
v  65.1566 69.0317 -15.4630
v  56.9214 11.6063 22.2057
v  64.4105 11.6063 14.7167
v  64.4105 69.0317 14.7167
v  56.9214 69.0317 22.2057
v  64.8476 11.6063 -13.6617
v  64.8476 11.6063 13.6615
v  65.9027 11.6063 13.6615
v  65.9027 11.6063 -13.6617
v  64.8476 69.0317 -13.6615
v  64.8476 69.0317 13.6616
v  56.9214 11.6063 -22.2058
v  64.4105 11.6063 -14.7168
v  56.9214 69.0317 -22.2057
v  64.4105 69.0317 -14.7166
v  63.8883 12.3449 15.2388
v  57.4436 12.3449 21.6835
v  63.8883 68.2931 15.2390
v  57.4436 68.2931 21.6835
v  57.4436 12.3449 -21.6835
v  63.8883 12.3449 -15.2390
v  57.4436 68.2931 -21.6835
v  63.8883 68.2931 -15.2390
v  64.8476 12.3449 12.9230
v  64.8476 12.3449 -12.9230
v  64.8476 68.2931 -12.9229
v  64.8476 68.2931 12.9230
v  -25.7768 70.0868 -21.9790
v  -25.7768 10.5512 21.1964
v  -25.7768 70.0868 21.1964
v  -25.7768 10.5512 -21.9791
v  -23.6658 10.5512 21.1964
v  -23.6658 70.0868 21.1964
v  -23.6658 70.0868 -21.9790
v  -23.6658 10.5512 -21.9791
v  -68.2661 8.0189 13.2944
v  -68.2661 8.0189 -13.2945
v  -68.2661 2.5323 -13.2945
v  -68.2661 2.5323 13.2944
v  -59.5983 8.0189 24.3634
v  -66.5683 8.0189 17.3934
v  -66.5683 2.5323 17.3934
v  -59.5983 2.5323 24.3634
v  55.4992 8.0189 26.0614
v  -55.4992 8.0189 26.0614
v  -55.4992 2.5323 26.0614
v  55.4992 2.5323 26.0614
v  59.5984 8.0189 24.3634
v  66.5684 2.5323 17.3934
v  66.5684 8.0189 17.3934
v  59.5984 2.5323 24.3634
v  68.2661 8.0189 -13.2945
v  68.2661 8.0189 13.2944
v  68.2661 2.5323 13.2944
v  68.2661 2.5323 -13.2945
v  59.5984 8.0189 -24.3636
v  66.5684 8.0189 -17.3937
v  66.5684 2.5323 -17.3937
v  59.5984 2.5323 -24.3636
v  -55.4992 8.0189 -26.0614
v  55.4992 8.0189 -26.0614
v  55.4992 2.5323 -26.0614
v  -55.4992 2.5323 -26.0614
v  -59.5983 8.0189 -24.3636
v  -66.5683 2.5323 -17.3937
v  -66.5683 8.0189 -17.3937
v  -59.5983 2.5323 -24.3636
v  -58.0315 0.0000 26.3779
v  -67.8362 1.0551 16.5732
v  -68.5827 0.0000 15.8268
v  -58.7773 1.0551 25.6318
v  -58.0315 10.5512 26.3779
v  -58.7773 9.4961 25.6318
v  -67.8362 9.4961 16.5732
v  -68.5827 10.5512 15.8267
v  68.5827 0.0000 15.8268
v  58.7773 1.0551 25.6320
v  58.0315 0.0000 26.3779
v  67.8368 1.0551 16.5728
v  68.5827 10.5512 15.8267
v  67.8368 9.4961 16.5728
v  58.0315 10.5512 26.3779
v  58.7773 9.4961 25.6320
v  58.0315 0.0000 -26.3781
v  67.8368 1.0551 -16.5730
v  68.5827 0.0000 -15.8268
v  58.7773 1.0551 -25.6320
v  58.0315 10.5512 -26.3781
v  58.7773 9.4961 -25.6320
v  68.5827 10.5512 -15.8268
v  67.8368 9.4961 -16.5730
v  -58.0315 0.0000 -26.3781
v  -56.9759 1.0551 -26.3781
v  56.9759 1.0551 -26.3781
v  -58.0315 10.5512 -26.3781
v  -56.9759 9.4961 -26.3781
v  56.9759 9.4961 -26.3781
v  -68.5827 0.0000 -15.8268
v  -67.8368 1.0551 -16.5730
v  -58.7773 1.0551 -25.6320
v  -68.5827 10.5512 -15.8268
v  -67.8368 9.4961 -16.5730
v  -58.7773 9.4961 -25.6320
v  -68.5827 1.0551 -14.7717
v  -68.5827 1.0551 14.7715
v  -67.5276 1.0551 14.7715
v  -67.5276 1.0551 -14.7717
v  -67.5276 9.4961 14.7715
v  -68.5827 9.4961 14.7715
v  -67.5276 9.4961 -14.7717
v  -68.5827 9.4961 -14.7717
v  -58.0315 1.0551 24.8858
v  -67.0905 1.0551 15.8268
v  -58.0315 9.4961 24.8858
v  -67.0905 9.4961 15.8268
v  56.9764 1.0551 25.3228
v  -56.9764 1.0551 25.3228
v  -56.9759 1.0551 26.3779
v  56.9759 1.0551 26.3779
v  56.9759 9.4961 26.3779
v  56.9764 9.4961 25.3228
v  -56.9764 9.4961 25.3228
v  -56.9759 9.4961 26.3779
v  58.0315 1.0551 24.8858
v  67.0905 1.0551 15.8268
v  67.0905 9.4961 15.8268
v  58.0315 9.4961 24.8858
v  67.5275 1.0551 -14.7717
v  67.5275 1.0551 14.7715
v  68.5827 1.0551 14.7715
v  68.5827 1.0551 -14.7717
v  67.5275 9.4961 -14.7717
v  68.5827 9.4961 -14.7717
v  68.5827 9.4961 14.7715
v  67.5275 9.4961 14.7715
v  58.0315 1.0551 -24.8858
v  67.0905 1.0551 -15.8268
v  58.0315 9.4961 -24.8858
v  67.0905 9.4961 -15.8268
v  -56.9764 1.0551 -25.3228
v  56.9764 1.0551 -25.3230
v  -56.9764 9.4961 -25.3228
v  56.9764 9.4961 -25.3230
v  -58.0315 1.0551 -24.8858
v  -67.0905 1.0551 -15.8268
v  -67.0905 9.4961 -15.8268
v  -58.0315 9.4961 -24.8858
v  66.5683 1.7937 16.3490
v  58.5538 1.7937 24.3634
v  66.5683 8.7575 16.3490
v  58.5538 8.7575 24.3634
v  67.5275 8.7575 -14.0331
v  67.5275 1.7937 -14.0331
v  67.5275 8.7575 14.0331
v  66.5683 1.7937 -16.3490
v  58.5537 1.7937 -24.3636
v  58.5537 8.7575 -24.3635
v  66.5683 8.7575 -16.3490
v  -56.2378 1.7937 -25.3228
v  56.2378 1.7937 -25.3230
v  -56.2378 8.7575 -25.3228
v  56.2378 8.7575 -25.3228
v  -67.5276 1.7937 -14.0331
v  -67.5276 1.7937 14.0331
v  -67.5276 8.7575 14.0331
v  -67.5276 8.7575 -14.0331
v  -58.5538 1.7937 24.3634
v  -66.5683 1.7937 16.3490
v  -58.5538 8.7575 24.3634
v  -66.5683 8.7575 16.3490
v  -56.2378 1.7937 25.3228
v  56.2378 1.7937 25.3228
v  56.2378 8.7575 25.3228
v  -56.2378 8.7575 25.3228
v  67.5275 1.7937 14.0331
v  -58.5538 1.7937 -24.3635
v  -66.5683 1.7937 -16.3490
v  -66.5683 8.7575 -16.3490
v  -58.5538 8.7575 -24.3635
v  -71.4754 83.1281 17.0249
v  -71.4754 83.1281 -17.0250
v  -70.9589 82.9882 16.8110
v  -70.9589 82.9882 -16.8111
v  -70.4515 81.7594 -16.6010
v  -70.4516 81.7594 16.6008
v  -70.2934 81.4173 -16.5354
v  -70.2934 81.4173 16.5354
v  -69.9513 81.2592 16.3936
v  -69.9513 81.2592 -16.3938
v  71.4754 83.1281 -17.0249
v  71.4754 83.1281 17.0251
v  70.9589 82.9882 -16.8109
v  70.9588 82.9882 16.8111
v  70.4515 81.7594 16.6010
v  70.4516 81.7594 -16.6008
v  70.2934 81.4173 -16.5354
v  70.2934 81.4173 16.5354
v  69.9513 81.2592 16.3938
v  69.9513 81.2592 -16.3936
v  59.2297 83.1281 29.2708
v  59.0157 82.9882 28.7542
v  58.8056 81.7594 28.2469
v  58.7401 81.4173 28.0888
v  58.5984 81.2592 27.7467
v  -58.5984 81.2592 -27.7466
v  58.5984 81.2592 -27.7466
v  -58.7401 81.4173 -28.0887
v  58.7401 81.4173 -28.0887
v  58.8056 81.7594 -28.2467
v  -58.8056 81.7594 -28.2468
v  -59.0157 82.9882 -28.7542
v  59.0158 82.9882 -28.7540
v  -59.2297 83.1281 -29.2708
v  59.2298 83.1281 -29.2706
v  -59.4706 83.7510 -29.8524
v  59.4707 83.7510 -29.8523
v  -59.5648 83.8815 -30.0797
v  59.5648 83.8815 -30.0797
v  -59.5797 84.0625 -30.1158
v  59.5798 84.0625 -30.1156
v  59.5648 84.2435 -30.0797
v  -59.5648 84.2435 -30.0797
v  59.4707 84.3740 -29.8523
v  -59.4706 84.3740 -29.8524
v  72.0571 83.7510 -17.2659
v  72.2844 83.8815 -17.3600
v  72.3204 84.0625 -17.3750
v  72.2844 84.2435 -17.3600
v  72.0571 84.3740 -17.2659
v  72.0571 84.3740 17.2659
v  72.2844 84.2435 17.3602
v  72.3204 84.0625 17.3750
v  72.2844 83.8815 17.3602
v  72.0571 83.7510 17.2659
v  -58.5984 81.2592 27.7466
v  -58.7402 81.4173 28.0887
v  -58.8056 81.7594 28.2467
v  -59.0158 82.9882 28.7541
v  -59.2298 83.1281 29.2707
v  59.4706 83.7510 29.8524
v  -59.4707 83.7510 29.8524
v  59.5648 83.8815 30.0798
v  -59.5649 83.8815 30.0797
v  -59.5798 84.0625 30.1156
v  59.5797 84.0625 30.1158
v  -59.5649 84.2435 30.0797
v  59.5648 84.2435 30.0798
v  -59.4707 84.3740 29.8524
v  59.4706 84.3740 29.8524
v  -72.0572 83.7510 17.2659
v  -72.2845 83.8815 17.3600
v  -72.3204 84.0625 17.3750
v  -72.2845 84.2435 17.3600
v  -72.0572 84.3740 17.2658
v  -72.0571 84.3740 -17.2660
v  -72.0571 83.7510 -17.2659
v  -72.2844 83.8815 -17.3602
v  -72.3204 84.0625 -17.3750
v  -72.2844 84.2435 -17.3602
# 544 vertices

vn -1.0000 0.0000 -0.0000
vn -0.7071 -0.0000 0.7071
vn 0.9239 -0.0000 0.3827
vn 1.0000 0.0000 -0.0000
vn 0.9239 0.0000 -0.3827
vn -0.7071 0.0000 -0.7071
vn -0.7072 -0.0001 0.7071
vn -0.7070 -0.0001 0.7072
vn -0.7071 0.0001 0.7072
vn -0.7072 0.0001 0.7071
vn -0.7071 -0.0001 -0.7072
vn -0.7072 -0.0001 -0.7071
vn -0.7072 0.0001 -0.7071
vn -0.7071 0.0001 -0.7071
vn 0.0000 1.0000 -0.0000
vn 0.0000 0.0000 -1.0000
vn 0.0000 -1.0000 -0.0000
vn 0.0000 -0.0000 1.0000
vn -0.7073 0.0000 -0.7069
vn -0.7072 0.0000 -0.7070
vn 0.7072 0.0000 0.7070
vn 0.7072 0.0000 -0.7070
vn -0.7073 0.0000 0.7069
vn -0.7072 -0.0000 0.7070
vn -0.7071 0.0000 0.7071
vn -0.7071 -0.0000 -0.7071
vn -0.7071 -0.7071 -0.0000
vn -0.7071 0.7072 -0.0000
vn -0.7071 0.0000 -0.7072
vn -0.5000 -0.7071 0.5000
vn -0.0000 -0.0000 1.0000
vn -0.5000 0.7071 0.5000
vn -0.5000 0.7072 0.5000
vn -0.5000 -0.7071 -0.5000
vn -0.5000 0.7072 -0.5000
vn -0.5000 0.7071 -0.5000
vn 0.0000 0.0000 1.0000
vn 1.0000 -0.0006 -0.0000
vn -1.0000 0.0007 -0.0000
vn 0.7071 0.0000 0.7071
vn 0.7071 0.0000 -0.7071
vn -1.0000 0.0000 0.0000
vn -1.0000 0.0001 0.0000
vn -1.0000 0.0001 -0.0001
vn -1.0000 0.0001 -0.0000
vn -0.7072 0.0001 0.7070
vn -0.7071 -0.0001 0.7071
vn 0.7072 -0.0001 0.7070
vn 0.7072 -0.0002 0.7070
vn 1.0000 -0.0000 0.0000
vn 1.0000 -0.0000 -0.0000
vn 1.0000 -0.0001 0.0001
vn 1.0000 -0.0001 -0.0001
vn 0.7072 -0.0001 -0.7070
vn 0.7072 -0.0001 -0.7071
vn 0.7071 -0.0001 -0.7071
vn 0.7072 0.0001 -0.7071
vn -0.0000 0.0000 -1.0000
vn -0.7072 -0.0001 -0.7070
vn -0.7072 0.0002 -0.7070
vn -0.7071 0.0001 -0.7072
vn -0.7072 0.0000 -0.7071
vn 0.7075 0.0000 0.7067
vn -1.0000 0.0000 -0.0004
vn 1.0000 0.0000 -0.0004
vn -0.7070 0.0000 0.7072
vn 0.7073 0.0000 -0.7070
vn 0.0001 -1.0000 -0.0000
vn 0.7073 0.0000 0.7070
vn -0.7070 0.0000 -0.7072
vn 1.0000 0.0000 0.0004
vn -1.0000 0.0000 0.0004
vn 0.7070 0.0000 -0.7072
vn -0.7073 0.0000 0.7070
vn -0.7071 0.0001 0.7071
vn 0.7071 -0.0000 0.7071
vn 0.7071 -0.0000 -0.7071
vn -0.7071 -0.0001 -0.7071
vn -0.7071 0.7071 -0.0000
vn 0.0000 -0.7071 0.7071
vn 0.7072 0.0000 0.7071
vn 0.0000 0.7071 0.7071
vn -0.7072 0.0000 0.7071
vn 0.5000 -0.7071 0.5000
vn 0.5000 0.7071 0.5000
vn 0.7071 -0.7071 -0.0000
vn 0.7071 0.7071 -0.0000
vn 0.5000 -0.7071 -0.5000
vn 0.5000 0.7071 -0.5000
vn 0.0000 -0.7071 -0.7071
vn 0.0000 0.7071 -0.7071
vn 0.7072 0.0000 -0.7071
vn -0.0000 -1.0000 0.0000
vn 0.0000 -1.0000 0.0000
vn 1.0000 0.0000 0.0000
vn -0.0000 -1.0000 -0.0000
vn -0.0000 0.0000 1.0000
vn -0.9239 0.0000 -0.3827
vn -0.9239 -0.0000 0.3827
vn 0.7071 -0.0001 0.7072
vn 0.7072 -0.0001 0.7071
vn 0.7072 0.0001 0.7071
vn 0.7071 0.0001 0.7072
vn 0.7071 0.0001 -0.7071
vn 0.7071 0.0001 -0.7072
vn -0.7072 0.0000 0.7070
vn 0.7073 0.0000 -0.7069
vn 0.7073 -0.0000 0.7069
vn 0.7073 -0.0000 0.7070
vn 0.7071 0.0001 0.7071
vn 0.4999 0.7072 0.4999
vn 0.5000 0.7072 0.5000
vn 0.4999 0.7072 -0.4999
vn 0.5000 0.7072 -0.5000
vn -0.7072 -0.0001 0.7070
vn 0.7071 -0.0001 0.7071
vn 0.7072 0.0001 -0.7070
vn -0.0000 -0.0000 -1.0000
vn 0.0000 -0.0000 -1.0000
vn -0.7072 0.0001 -0.7070
vn 0.7074 0.0000 0.7068
vn -1.0000 0.0000 -0.0005
vn 1.0000 0.0000 -0.0005
vn 0.7073 0.0000 0.7069
vn 1.0000 0.0000 0.0005
vn -1.0000 0.0000 0.0005
vn 0.7071 0.0000 -0.7072
vn -0.0001 -0.0001 -1.0000
vn -0.7072 -0.7071 -0.0000
vn -0.7072 0.7071 -0.0000
vn -0.0001 0.0000 -1.0000
vn 0.4999 0.7072 -0.5000
vn -0.0000 -0.7071 -0.7072
vn -0.0000 -0.7071 -0.7071
vn 0.0000 -0.7071 -0.7072
vn -0.0995 -0.9950 -0.0000
vn -0.6000 -0.8000 -0.0000
vn -0.9171 -0.3987 -0.0000
vn -0.9171 -0.3988 -0.0000
vn -0.7523 -0.6589 -0.0000
vn -0.7522 -0.6590 -0.0000
vn -0.2664 -0.9639 -0.0000
vn 0.0995 -0.9950 -0.0000
vn 0.0995 -0.9950 0.0000
vn 0.6000 -0.8000 0.0000
vn 0.9171 -0.3986 0.0000
vn 0.9171 -0.3987 0.0000
vn 0.7522 -0.6590 0.0000
vn 0.7523 -0.6588 -0.0000
vn 0.2664 -0.9639 -0.0000
vn 0.0703 -0.9950 0.0703
vn 0.4242 -0.8000 0.4242
vn 0.6485 -0.3986 0.6485
vn 0.5319 -0.6588 0.5319
vn 0.1883 -0.9639 0.1883
vn 0.1884 -0.9639 0.1884
vn 0.0000 -0.9639 -0.2663
vn 0.0000 -0.9639 -0.2664
vn 0.0000 -0.6588 -0.7523
vn 0.0000 -0.3986 -0.9171
vn 0.0000 -0.8000 -0.6000
vn 0.0000 -0.9950 -0.0995
vn 0.0000 -0.9479 -0.3184
vn 0.0000 -0.9480 -0.3184
vn 0.0000 -0.5277 -0.8494
vn 0.0000 -0.5276 -0.8495
vn 0.0000 0.5276 -0.8495
vn 0.0000 0.5277 -0.8494
vn 0.0000 0.8672 -0.4979
vn 0.1884 -0.9639 -0.1884
vn 0.1883 -0.9639 -0.1883
vn 0.5319 -0.6588 -0.5319
vn 0.5319 -0.6589 -0.5319
vn 0.6485 -0.3987 -0.6485
vn 0.4243 -0.8000 -0.4243
vn 0.4242 -0.8000 -0.4242
vn 0.0703 -0.9950 -0.0703
vn 0.2252 -0.9479 -0.2252
vn 0.2251 -0.9480 -0.2251
vn 0.6006 -0.5278 -0.6006
vn 0.6007 -0.5277 -0.6007
vn 0.6006 0.5278 -0.6006
vn 0.6007 0.5277 -0.6007
vn 0.3521 0.8672 -0.3521
vn 0.4979 0.8672 -0.0000
vn 0.8495 0.5276 -0.0000
vn 0.8495 -0.5276 -0.0000
vn 0.3184 -0.9479 -0.0000
vn 0.3185 -0.9479 -0.0000
vn -0.0000 -0.9639 0.2663
vn -0.0000 -0.9639 0.2664
vn -0.0000 -0.6588 0.7523
vn -0.0000 -0.3986 0.9171
vn -0.0000 -0.8000 0.6000
vn -0.0000 -0.9950 0.0995
vn -0.0000 -0.9479 0.3184
vn -0.0000 -0.9479 0.3185
vn -0.0000 -0.5276 0.8495
vn -0.0000 0.5276 0.8495
vn -0.0000 0.5277 0.8495
vn -0.0000 0.8672 0.4979
vn -0.1883 -0.9639 0.1883
vn -0.5320 -0.6588 0.5320
vn -0.5319 -0.6589 0.5319
vn -0.6485 -0.3987 0.6485
vn -0.6485 -0.3986 0.6485
vn -0.4243 -0.8000 0.4243
vn -0.4242 -0.8000 0.4242
vn -0.0703 -0.9950 0.0703
vn -0.2251 -0.9480 0.2251
vn -0.6006 -0.5277 0.6006
vn -0.6007 -0.5276 0.6007
vn -0.6006 0.5277 0.6006
vn -0.6007 0.5276 0.6007
vn -0.3520 0.8673 0.3520
vn -0.3521 0.8672 0.3521
vn 0.0000 1.0000 0.0000
vn -0.0000 1.0000 -0.0000
vn -0.3185 -0.9479 -0.0000
vn -0.8496 -0.5274 -0.0000
vn -0.8494 -0.5277 -0.0000
vn -1.0000 -0.0000 -0.0000
vn -0.8496 0.5274 -0.0000
vn -0.8494 0.5277 -0.0000
vn -0.4979 0.8672 -0.0000
vn -0.1883 -0.9639 -0.1883
vn -0.1884 -0.9639 -0.1884
vn -0.5319 -0.6589 -0.5319
vn -0.6485 -0.3987 -0.6485
vn -0.4242 -0.8000 -0.4242
vn -0.0703 -0.9950 -0.0703
vn -0.2251 -0.9480 -0.2251
vn -0.6006 -0.5277 -0.6006
vn -0.6006 0.5277 -0.6006
vn -0.3520 0.8673 -0.3520
vn 0.2251 -0.9480 0.2251
vn 0.6007 -0.5276 0.6007
vn 0.6006 -0.5277 0.6006
vn 0.6007 0.5276 0.6007
vn 0.6007 0.5277 0.6007
vn 0.3520 0.8673 0.3520
vn -0.0000 1.0000 0.0000
# 242 vertex normals

vt 0.2169 0.4365 0.4365
vt 0.3894 0.5139 0.5139
vt 0.2168 0.5134 0.5134
vt 0.3899 0.4365 0.4365
vt 0.5347 0.3140 0.3140
vt 0.7070 0.3374 0.3374
vt 0.5347 0.3374 0.3374
vt 0.7075 0.3140 0.3140
vt 0.2085 0.5349 0.5349
vt 0.3982 0.5349 0.5349
vt 0.2085 0.5422 0.5422
vt 0.3982 0.5422 0.5422
vt 0.2085 0.6804 0.6804
vt 0.3982 0.6804 0.6804
vt 0.2085 0.6875 0.6875
vt 0.3982 0.6875 0.6875
vt 0.2168 0.1641 0.1641
vt 0.3894 0.1875 0.1875
vt 0.2168 0.1875 0.1875
vt 0.3894 0.1641 0.1641
vt 0.2085 0.3022 0.3022
vt 0.2085 0.2095 0.2095
vt 0.2118 0.2124 0.2124
vt 0.2118 0.2988 0.2988
vt 0.3977 0.2095 0.2095
vt 0.3943 0.2119 0.2119
vt 0.3977 0.3745 0.3745
vt 0.3975 0.4150 0.4150
vt 0.3943 0.4116 0.4116
vt 0.3943 0.3779 0.3779
vt 0.2085 0.4150 0.4150
vt 0.2118 0.4116 0.4116
vt 0.2119 0.3779 0.3779
vt 0.2085 0.3745 0.3745
vt 0.9907 0.6794 0.6794
vt 0.9907 0.7197 0.7197
vt 0.9878 0.7163 0.7163
vt 0.9878 0.6826 0.6826
vt 0.8018 0.7197 0.7197
vt 0.8052 0.7168 0.7168
vt 0.8018 0.6794 0.6794
vt 0.8052 0.6831 0.6831
vt 0.3982 0.4321 0.4321
vt 0.3977 0.5188 0.5188
vt 0.3943 0.5190 0.5190
vt 0.3948 0.4316 0.4316
vt 0.2118 0.5183 0.5183
vt 0.3943 0.5222 0.5222
vt 0.2118 0.5217 0.5217
vt 0.2122 0.4316 0.4316
vt 0.2085 0.5183 0.5183
vt 0.2086 0.4316 0.4316
vt 0.2122 0.4282 0.4282
vt 0.3948 0.4287 0.4287
vt 0.7158 0.3091 0.3091
vt 0.7129 0.3428 0.3428
vt 0.7129 0.3091 0.3091
vt 0.7158 0.3428 0.3428
vt 0.5303 0.3457 0.3457
vt 0.7119 0.3457 0.3457
vt 0.5298 0.3428 0.3428
vt 0.5264 0.3091 0.3091
vt 0.5264 0.3428 0.3428
vt 0.5298 0.3091 0.3091
vt 0.5303 0.3057 0.3057
vt 0.7119 0.3057 0.3057
vt 0.3943 0.1592 0.1592
vt 0.3982 0.1929 0.1929
vt 0.3943 0.1929 0.1929
vt 0.3982 0.1592 0.1592
vt 0.2118 0.1929 0.1929
vt 0.3943 0.1958 0.1958
vt 0.2119 0.1958 0.1958
vt 0.2118 0.1592 0.1592
vt 0.2085 0.1929 0.1929
vt 0.2085 0.1592 0.1592
vt 0.3943 0.1558 0.1558
vt 0.2119 0.1558 0.1558
vt 0.7100 0.3105 0.3105
vt 0.7100 0.3398 0.3398
vt 0.5317 0.3398 0.3398
vt 0.5317 0.3105 0.3105
vt 0.3921 0.1611 0.1611
vt 0.3921 0.1904 0.1904
vt 0.2141 0.1904 0.1904
vt 0.2141 0.1611 0.1611
vt 0.3926 0.4346 0.4346
vt 0.3921 0.5166 0.5166
vt 0.2140 0.5161 0.5161
vt 0.2144 0.4341 0.4341
vt 0.9824 0.5559 0.5559
vt 0.7280 0.5625 0.5625
vt 0.7280 0.5559 0.5559
vt 0.9824 0.5625 0.5625
vt 0.9824 0.4341 0.4341
vt 0.7280 0.4341 0.4341
vt 0.7280 0.4272 0.4272
vt 0.9824 0.4272 0.4272
vt 0.9824 0.3057 0.3057
vt 0.7280 0.3057 0.3057
vt 0.7217 0.5559 0.5559
vt 0.7217 0.4341 0.4341
vt 0.9893 0.4341 0.4341
vt 0.9893 0.5559 0.5559
vt 0.4705 0.1274 0.1274
vt 0.4705 0.0439 0.0439
vt 0.4878 0.0439 0.0439
vt 0.4878 0.1274 0.1274
vt 0.5825 0.2534 0.2534
vt 0.5825 0.2231 0.2231
vt 0.6001 0.2231 0.2231
vt 0.6001 0.2534 0.2534
vt 0.3665 0.0898 0.0898
vt 0.0139 0.0898 0.0898
vt 0.0139 0.0732 0.0732
vt 0.3665 0.0732 0.0732
vt 0.5156 0.1563 0.1563
vt 0.5327 0.1865 0.1865
vt 0.5156 0.1865 0.1865
vt 0.5327 0.1563 0.1563
vt 0.4656 0.4736 0.4736
vt 0.4822 0.5581 0.5581
vt 0.4651 0.5581 0.5581
vt 0.4827 0.4736 0.4736
vt 0.5156 0.8401 0.8401
vt 0.5327 0.8711 0.8711
vt 0.5156 0.8711 0.8711
vt 0.5327 0.8401 0.8401
vt 0.9810 0.8037 0.8037
vt 0.6279 0.8037 0.8037
vt 0.6279 0.7866 0.7866
vt 0.9810 0.7865 0.7865
vt 0.2140 0.3555 0.3555
vt 0.2140 0.3242 0.3242
vt 0.2312 0.3242 0.3242
vt 0.2311 0.3555 0.3555
vt 0.5410 0.0356 0.0356
vt 0.5410 0.1357 0.1357
vt 0.5381 0.1323 0.1323
vt 0.5381 0.0391 0.0391
vt 0.5073 0.1357 0.1357
vt 0.5107 0.1323 0.1323
vt 0.5107 0.0391 0.0391
vt 0.5073 0.0356 0.0356
vt 0.6001 0.5664 0.5664
vt 0.5967 0.5222 0.5222
vt 0.6001 0.5190 0.5190
vt 0.5967 0.5632 0.5632
vt 0.5659 0.5664 0.5664
vt 0.5693 0.5632 0.5632
vt 0.5693 0.5222 0.5222
vt 0.5669 0.5190 0.5190
vt 0.6196 0.2148 0.2148
vt 0.9893 0.2148 0.2148
vt 0.9854 0.2178 0.2178
vt 0.6230 0.2183 0.2183
vt 0.9893 0.2480 0.2480
vt 0.9854 0.2441 0.2441
vt 0.6196 0.2480 0.2480
vt 0.6230 0.2441 0.2441
vt 0.2847 0.3159 0.3159
vt 0.2847 0.3638 0.3638
vt 0.2815 0.3604 0.3604
vt 0.2815 0.3193 0.3193
vt 0.2510 0.3638 0.3638
vt 0.2544 0.3604 0.3604
vt 0.2544 0.3193 0.3193
vt 0.2510 0.3159 0.3159
vt 0.4451 0.5664 0.5664
vt 0.4419 0.4692 0.4692
vt 0.4451 0.4653 0.4653
vt 0.4419 0.5627 0.5627
vt 0.4114 0.5659 0.5659
vt 0.4148 0.5627 0.5627
vt 0.4114 0.4653 0.4653
vt 0.4148 0.4692 0.4692
vt 0.6904 0.3887 0.3887
vt 0.6904 0.4355 0.4355
vt 0.6875 0.4321 0.4321
vt 0.6875 0.3911 0.3911
vt 0.6572 0.4355 0.4355
vt 0.6606 0.4321 0.4321
vt 0.6602 0.3911 0.3911
vt 0.6572 0.3887 0.3887
vt 0.6196 0.7329 0.7329
vt 0.9893 0.7329 0.7329
vt 0.9854 0.7363 0.7363
vt 0.6230 0.7363 0.7363
vt 0.9893 0.7662 0.7662
vt 0.9854 0.7628 0.7628
vt 0.6196 0.7665 0.7665
vt 0.6230 0.7632 0.7632
vt 0.3301 0.3159 0.3159
vt 0.3301 0.3638 0.3638
vt 0.3267 0.3604 0.3604
vt 0.3267 0.3193 0.3193
vt 0.2964 0.3638 0.3638
vt 0.2998 0.3604 0.3604
vt 0.2998 0.3193 0.3193
vt 0.2964 0.3159 0.3159
vt 0.4961 0.0391 0.0391
vt 0.4961 0.1323 0.1323
vt 0.4927 0.1323 0.1323
vt 0.4927 0.0391 0.0391
vt 0.4656 0.1323 0.1323
vt 0.4927 0.1357 0.1357
vt 0.4656 0.1357 0.1357
vt 0.4656 0.0391 0.0391
vt 0.4622 0.1323 0.1323
vt 0.4622 0.0391 0.0391
vt 0.4656 0.0356 0.0356
vt 0.4927 0.0356 0.0356
vt 0.6084 0.2183 0.2183
vt 0.6050 0.2583 0.2583
vt 0.6050 0.2183 0.2183
vt 0.6084 0.2583 0.2583
vt 0.5776 0.2617 0.2617
vt 0.6050 0.2617 0.2617
vt 0.5776 0.2583 0.2583
vt 0.5742 0.2183 0.2183
vt 0.5742 0.2583 0.2583
vt 0.5776 0.2183 0.2183
vt 0.6050 0.2148 0.2148
vt 0.5776 0.2148 0.2148
vt 0.3711 0.0684 0.0684
vt 0.0089 0.0684 0.0684
vt 0.0091 0.0649 0.0649
vt 0.3711 0.0649 0.0649
vt 0.3750 0.0947 0.0947
vt 0.3750 0.0684 0.0684
vt 0.3711 0.0947 0.0947
vt 0.0089 0.0947 0.0947
vt 0.3711 0.0981 0.0981
vt 0.0091 0.0981 0.0981
vt 0.0053 0.0947 0.0947
vt 0.0053 0.0684 0.0684
vt 0.5410 0.1914 0.1914
vt 0.5381 0.1514 0.1514
vt 0.5410 0.1514 0.1514
vt 0.5381 0.1914 0.1914
vt 0.5107 0.1914 0.1914
vt 0.5381 0.1948 0.1948
vt 0.5107 0.1948 0.1948
vt 0.5073 0.1914 0.1914
vt 0.5107 0.1514 0.1514
vt 0.5073 0.1514 0.1514
vt 0.5107 0.1479 0.1479
vt 0.5381 0.1479 0.1479
vt 0.4871 0.5627 0.5627
vt 0.4873 0.4692 0.4692
vt 0.4910 0.4692 0.4692
vt 0.4905 0.5627 0.5627
vt 0.4602 0.5627 0.5627
vt 0.4871 0.5664 0.5664
vt 0.4602 0.5664 0.5664
vt 0.4573 0.4692 0.4692
vt 0.4568 0.5627 0.5627
vt 0.4607 0.4692 0.4692
vt 0.4873 0.4653 0.4653
vt 0.4607 0.4653 0.4653
vt 0.5381 0.8759 0.8759
vt 0.5381 0.8351 0.8351
vt 0.5410 0.8352 0.8352
vt 0.5410 0.8757 0.8757
vt 0.5107 0.8759 0.8759
vt 0.5381 0.8792 0.8792
vt 0.5107 0.8792 0.8792
vt 0.5073 0.8352 0.8352
vt 0.5107 0.8351 0.8351
vt 0.5073 0.8757 0.8757
vt 0.5107 0.8318 0.8318
vt 0.5381 0.8318 0.8318
vt 0.9858 0.7816 0.7816
vt 0.6235 0.7783 0.7783
vt 0.9858 0.7782 0.7782
vt 0.6230 0.7816 0.7816
vt 0.9858 0.8086 0.8086
vt 0.9893 0.7816 0.7816
vt 0.9893 0.8083 0.8083
vt 0.6230 0.8086 0.8086
vt 0.9858 0.8119 0.8119
vt 0.6235 0.8120 0.8120
vt 0.6196 0.7816 0.7816
vt 0.6196 0.8086 0.8086
vt 0.2361 0.3193 0.3193
vt 0.2394 0.3604 0.3604
vt 0.2361 0.3604 0.3604
vt 0.2395 0.3193 0.3193
vt 0.2091 0.3604 0.3604
vt 0.2361 0.3638 0.3638
vt 0.2091 0.3638 0.3638
vt 0.2091 0.3193 0.3193
vt 0.2057 0.3604 0.3604
vt 0.2058 0.3193 0.3193
vt 0.2361 0.3159 0.3159
vt 0.2094 0.3159 0.3159
vt 0.6021 0.2563 0.2563
vt 0.6021 0.2197 0.2197
vt 0.5801 0.2563 0.2563
vt 0.5806 0.2197 0.2197
vt 0.5352 0.1528 0.1528
vt 0.5352 0.1899 0.1899
vt 0.5132 0.1899 0.1899
vt 0.5137 0.1528 0.1528
vt 0.5352 0.8374 0.8374
vt 0.5352 0.8735 0.8735
vt 0.5132 0.8735 0.8735
vt 0.5132 0.8374 0.8374
vt 0.2339 0.3579 0.3579
vt 0.2339 0.3218 0.3218
vt 0.2113 0.3579 0.3579
vt 0.2114 0.3218 0.3218
vt 0.4905 0.1309 0.1309
vt 0.4905 0.0405 0.0405
vt 0.4678 0.1309 0.1309
vt 0.4678 0.0405 0.0405
vt 0.0112 0.0698 0.0698
vt 0.3689 0.0703 0.0703
vt 0.3689 0.0928 0.0928
vt 0.0112 0.0928 0.0928
vt 0.4854 0.4717 0.4717
vt 0.4849 0.5605 0.5605
vt 0.4624 0.5605 0.5605
vt 0.4629 0.4717 0.4717
vt 0.6260 0.7838 0.7838
vt 0.9839 0.7838 0.7838
vt 0.9839 0.8063 0.8063
vt 0.6260 0.8064 0.8064
vt 0.7480 0.0181 0.0181
vt 0.6426 0.0195 0.0195
vt 0.6426 0.0181 0.0181
vt 0.7480 0.0195 0.0195
vt 0.7480 0.0059 0.0059
vt 0.6426 0.0078 0.0078
vt 0.6426 0.0059 0.0059
vt 0.7480 0.0078 0.0078
vt 0.8008 0.0181 0.0181
vt 0.8008 0.0195 0.0195
vt 0.8008 0.0059 0.0059
vt 0.8008 0.0078 0.0078
vt 0.0053 0.0356 0.0356
vt 0.3794 0.0396 0.0396
vt 0.0053 0.0396 0.0396
vt 0.3794 0.0356 0.0356
vt 0.0053 0.0415 0.0415
vt 0.3794 0.0415 0.0415
vt 0.0053 0.0532 0.0532
vt 0.3794 0.0518 0.0518
vt 0.3794 0.0532 0.0532
vt 0.0053 0.0518 0.0518
vt 0.0578 0.0181 0.0181
vt 0.0053 0.0195 0.0195
vt 0.0053 0.0181 0.0181
vt 0.0578 0.0195 0.0195
vt 0.0578 0.0059 0.0059
vt 0.0053 0.0078 0.0078
vt 0.0053 0.0059 0.0059
vt 0.0578 0.0078 0.0078
vt 0.1635 0.0181 0.0181
vt 0.1635 0.0195 0.0195
vt 0.1635 0.0059 0.0059
vt 0.1635 0.0078 0.0078
vt 0.2158 0.0181 0.0181
vt 0.2158 0.0195 0.0195
vt 0.2158 0.0078 0.0078
vt 0.2158 0.0059 0.0059
vt 0.5898 0.0234 0.0234
vt 0.2158 0.0234 0.0234
vt 0.5898 0.0195 0.0195
vt 0.5898 0.0181 0.0181
vt 0.5898 0.0078 0.0078
vt 0.5898 0.0059 0.0059
vt 0.6113 0.5847 0.5847
vt 0.7085 0.4634 0.4634
vt 0.7085 0.5847 0.5847
vt 0.6113 0.4634 0.4634
vt 0.7085 0.7131 0.7131
vt 0.6113 0.5913 0.5913
vt 0.7085 0.5913 0.5913
vt 0.6113 0.7131 0.7131
vt 0.7085 0.7202 0.7202
vt 0.6113 0.7202 0.7202
vt 0.0147 0.6062 0.6062
vt 0.1846 0.6062 0.6062
vt 0.1846 0.6157 0.6157
vt 0.0147 0.6157 0.6157
vt 0.1846 0.6250 0.6250
vt 0.0147 0.6250 0.6250
vt 0.0137 0.3301 0.3301
vt 0.1864 0.3301 0.3301
vt 0.0137 0.3535 0.3535
vt 0.1864 0.3535 0.3535
vt 0.4197 0.6931 0.6931
vt 0.5928 0.6931 0.6931
vt 0.4197 0.7700 0.7700
vt 0.5928 0.7700 0.7700
vt 0.8101 0.5835 0.5835
vt 0.9834 0.5835 0.5835
vt 0.8101 0.6074 0.6074
vt 0.9834 0.6074 0.6074
vt 0.0053 0.1558 0.1558
vt 0.1952 0.1631 0.1631
vt 0.0053 0.1631 0.1631
vt 0.1952 0.1558 0.1558
vt 0.1952 0.3008 0.3008
vt 0.0053 0.3008 0.3008
vt 0.1952 0.3076 0.3076
vt 0.0053 0.3076 0.3076
vt 0.6011 0.6311 0.6311
vt 0.6006 0.6716 0.6716
vt 0.5977 0.6682 0.6682
vt 0.5977 0.6345 0.6345
vt 0.4114 0.6716 0.6716
vt 0.4148 0.6682 0.6682
vt 0.4119 0.6311 0.6311
vt 0.4148 0.6345 0.6345
vt 0.5186 0.4521 0.4521
vt 0.5186 0.3589 0.3589
vt 0.5220 0.3618 0.3618
vt 0.5220 0.4487 0.4487
vt 0.6011 0.5776 0.5776
vt 0.6006 0.6184 0.6184
vt 0.5977 0.6147 0.6147
vt 0.5977 0.5813 0.5813
vt 0.4114 0.6184 0.6184
vt 0.4148 0.6147 0.6147
vt 0.4119 0.5776 0.5776
vt 0.4148 0.5813 0.5813
vt 0.1948 0.3589 0.3589
vt 0.1914 0.3247 0.3247
vt 0.1948 0.3247 0.3247
vt 0.1914 0.3589 0.3589
vt 0.0089 0.3618 0.3618
vt 0.1913 0.3618 0.3618
vt 0.0088 0.3589 0.3589
vt 0.0053 0.3589 0.3589
vt 0.0088 0.3247 0.3247
vt 0.0054 0.3247 0.3247
vt 0.1913 0.3218 0.3218
vt 0.0089 0.3218 0.3218
vt 0.5977 0.7749 0.7749
vt 0.5977 0.6882 0.6882
vt 0.6011 0.6882 0.6882
vt 0.6011 0.7749 0.7749
vt 0.4148 0.7749 0.7749
vt 0.5977 0.7783 0.7783
vt 0.4148 0.7783 0.7783
vt 0.4148 0.6882 0.6882
vt 0.4114 0.7749 0.7749
vt 0.4114 0.6882 0.6882
vt 0.4148 0.6848 0.6848
vt 0.5977 0.6848 0.6848
vt 0.9883 0.6123 0.6123
vt 0.9883 0.5786 0.5786
vt 0.9917 0.5786 0.5786
vt 0.9917 0.6123 0.6123
vt 0.8057 0.6157 0.6157
vt 0.9878 0.6157 0.6157
vt 0.8052 0.6123 0.6123
vt 0.8018 0.5786 0.5786
vt 0.8052 0.5786 0.5786
vt 0.8018 0.6123 0.6123
vt 0.9878 0.5754 0.5754
vt 0.8057 0.5752 0.5752
vt 0.1891 0.3564 0.3564
vt 0.1891 0.3271 0.3271
vt 0.0111 0.3564 0.3564
vt 0.0111 0.3271 0.3271
vt 0.9854 0.6101 0.6101
vt 0.9854 0.5808 0.5808
vt 0.8071 0.6101 0.6101
vt 0.8071 0.5808 0.5808
vt 0.5947 0.6904 0.6904
vt 0.5947 0.7727 0.7727
vt 0.4170 0.7727 0.7727
vt 0.4170 0.6904 0.6904
vt 0.0053 0.5498 0.5498
vt 0.1952 0.6877 0.6877
vt 0.0053 0.6877 0.6877
vt 0.1952 0.5498 0.5498
vt 0.0053 0.3984 0.3984
vt 0.1952 0.4058 0.4058
vt 0.0053 0.4058 0.4058
vt 0.1952 0.3984 0.3984
vt 0.0053 0.5432 0.5432
vt 0.1952 0.5432 0.5432
vt 0.0149 0.6455 0.6455
vt 0.1895 0.6455 0.6455
vt 0.1895 0.6541 0.6541
vt 0.0149 0.6541 0.6541
vt 0.1895 0.4219 0.4219
vt 0.0149 0.4219 0.4219
vt 0.0149 0.4131 0.4131
vt 0.1895 0.4131 0.4131
vt 0.7642 0.7131 0.7131
vt 0.7642 0.6289 0.6289
vt 0.7813 0.6289 0.6289
vt 0.7813 0.7131 0.7131
vt 0.3501 0.3525 0.3525
vt 0.3501 0.3218 0.3218
vt 0.3672 0.3218 0.3218
vt 0.3672 0.3525 0.3525
vt 0.3665 0.7716 0.7716
vt 0.0139 0.7716 0.7716
vt 0.0139 0.7544 0.7544
vt 0.3665 0.7545 0.7545
vt 0.5293 0.5273 0.5273
vt 0.5464 0.5581 0.5581
vt 0.5293 0.5581 0.5581
vt 0.5464 0.5273 0.5273
vt 0.5156 0.9829 0.9829
vt 0.5156 0.8987 0.8987
vt 0.5327 0.8987 0.8987
vt 0.5327 0.9829 0.9829
vt 0.3235 0.2646 0.2646
vt 0.3235 0.2329 0.2329
vt 0.3406 0.2339 0.2339
vt 0.3406 0.2646 0.2646
vt 0.9810 0.2856 0.2856
vt 0.6279 0.2856 0.2856
vt 0.6279 0.2686 0.2686
vt 0.9810 0.2686 0.2686
vt 0.2781 0.2329 0.2329
vt 0.2952 0.2646 0.2646
vt 0.2781 0.2646 0.2646
vt 0.2952 0.2329 0.2329
vt 0.2581 0.2729 0.2729
vt 0.2544 0.2280 0.2280
vt 0.2581 0.2256 0.2256
vt 0.2544 0.2690 0.2690
vt 0.2245 0.2729 0.2729
vt 0.2278 0.2690 0.2690
vt 0.2278 0.2280 0.2280
vt 0.2245 0.2246 0.2246
vt 0.5625 0.2534 0.2534
vt 0.5596 0.2100 0.2100
vt 0.5625 0.2065 0.2065
vt 0.5596 0.2500 0.2500
vt 0.5293 0.2534 0.2534
vt 0.5322 0.2500 0.2500
vt 0.5293 0.2065 0.2065
vt 0.5322 0.2100 0.2100
vt 0.4961 0.1948 0.1948
vt 0.4927 0.1514 0.1514
vt 0.4961 0.1479 0.1479
vt 0.4927 0.1914 0.1914
vt 0.4622 0.1948 0.1948
vt 0.4656 0.1914 0.1914
vt 0.4622 0.1479 0.1479
vt 0.4656 0.1514 0.1514
vt 0.0055 0.1104 0.1104
vt 0.3743 0.1104 0.1104
vt 0.3711 0.1138 0.1138
vt 0.0089 0.1138 0.1138
vt 0.3743 0.1440 0.1440
vt 0.3706 0.1401 0.1401
vt 0.0053 0.1440 0.1440
vt 0.0087 0.1401 0.1401
vt 0.4424 0.4067 0.4067
vt 0.4424 0.4541 0.4541
vt 0.4390 0.4512 0.4512
vt 0.4390 0.4106 0.4106
vt 0.4087 0.4541 0.4541
vt 0.4124 0.4512 0.4512
vt 0.4087 0.4067 0.4067
vt 0.4124 0.4106 0.4106
vt 0.7896 0.6240 0.6240
vt 0.7896 0.7180 0.7180
vt 0.7861 0.7180 0.7180
vt 0.7861 0.6240 0.6240
vt 0.7598 0.7180 0.7180
vt 0.7861 0.7214 0.7214
vt 0.7598 0.7214 0.7214
vt 0.7598 0.6240 0.6240
vt 0.7559 0.7180 0.7180
vt 0.7559 0.6240 0.6240
vt 0.7598 0.6206 0.6206
vt 0.7861 0.6206 0.6206
vt 0.3755 0.3164 0.3164
vt 0.3721 0.3574 0.3574
vt 0.3726 0.3164 0.3164
vt 0.3755 0.3574 0.3574
vt 0.3455 0.3608 0.3608
vt 0.3721 0.3608 0.3608
vt 0.3455 0.3574 0.3574
vt 0.3418 0.3164 0.3164
vt 0.3418 0.3574 0.3574
vt 0.3455 0.3164 0.3164
vt 0.3721 0.3135 0.3135
vt 0.3455 0.3135 0.3135
vt 0.3711 0.7495 0.7495
vt 0.0089 0.7495 0.7495
vt 0.0091 0.7463 0.7463
vt 0.3711 0.7463 0.7463
vt 0.3750 0.7765 0.7765
vt 0.3750 0.7495 0.7495
vt 0.3711 0.7765 0.7765
vt 0.0089 0.7765 0.7765
vt 0.3711 0.7798 0.7798
vt 0.0091 0.7798 0.7798
vt 0.0053 0.7762 0.7762
vt 0.0053 0.7495 0.7495
vt 0.5547 0.5632 0.5632
vt 0.5513 0.5222 0.5222
vt 0.5547 0.5222 0.5222
vt 0.5513 0.5632 0.5632
vt 0.5239 0.5632 0.5632
vt 0.5513 0.5664 0.5664
vt 0.5239 0.5664 0.5664
vt 0.5210 0.5632 0.5632
vt 0.5239 0.5222 0.5222
vt 0.5210 0.5222 0.5222
vt 0.5239 0.5190 0.5190
vt 0.5513 0.5190 0.5190
vt 0.5381 0.9879 0.9879
vt 0.5381 0.8939 0.8939
vt 0.5410 0.8939 0.8939
vt 0.5410 0.9878 0.9878
vt 0.5107 0.9878 0.9878
vt 0.5381 0.9913 0.9913
vt 0.5107 0.9913 0.9913
vt 0.5073 0.8939 0.8939
vt 0.5073 0.9878 0.9878
vt 0.5107 0.8939 0.8939
vt 0.5381 0.8904 0.8904
vt 0.5107 0.8904 0.8904
vt 0.3455 0.2690 0.2690
vt 0.3455 0.2280 0.2280
vt 0.3489 0.2285 0.2285
vt 0.3489 0.2690 0.2690
vt 0.3186 0.2690 0.2690
vt 0.3455 0.2729 0.2729
vt 0.3186 0.2729 0.2729
vt 0.3152 0.2280 0.2280
vt 0.3186 0.2280 0.2280
vt 0.3152 0.2690 0.2690
vt 0.3186 0.2246 0.2246
vt 0.3455 0.2256 0.2256
vt 0.9858 0.2637 0.2637
vt 0.6235 0.2603 0.2603
vt 0.9858 0.2603 0.2603
vt 0.6230 0.2637 0.2637
vt 0.9858 0.2900 0.2900
vt 0.9893 0.2637 0.2637
vt 0.9893 0.2900 0.2900
vt 0.6230 0.2900 0.2900
vt 0.9858 0.2939 0.2939
vt 0.6235 0.2939 0.2939
vt 0.6196 0.2900 0.2900
vt 0.6196 0.2637 0.2637
vt 0.3003 0.2280 0.2280
vt 0.3035 0.2690 0.2690
vt 0.3003 0.2690 0.2690
vt 0.3035 0.2285 0.2285
vt 0.2732 0.2690 0.2690
vt 0.3003 0.2729 0.2729
vt 0.2732 0.2729 0.2729
vt 0.2732 0.2280 0.2280
vt 0.2698 0.2690 0.2690
vt 0.2698 0.2285 0.2285
vt 0.3003 0.2246 0.2246
vt 0.2732 0.2256 0.2256
vt 0.5488 0.5610 0.5610
vt 0.5488 0.5244 0.5244
vt 0.5269 0.5610 0.5610
vt 0.5269 0.5244 0.5244
vt 0.5132 0.9856 0.9856
vt 0.5352 0.9856 0.9856
vt 0.5132 0.8961 0.8961
vt 0.3433 0.2310 0.2310
vt 0.3433 0.2666 0.2666
vt 0.3208 0.2666 0.2666
vt 0.3208 0.2310 0.2310
vt 0.9839 0.2651 0.2651
vt 0.6260 0.2651 0.2651
vt 0.9839 0.2881 0.2881
vt 0.6260 0.2881 0.2881
vt 0.7847 0.6262 0.6262
vt 0.7847 0.7158 0.7158
vt 0.7617 0.7158 0.7158
vt 0.7617 0.6262 0.6262
vt 0.3699 0.3555 0.3555
vt 0.3699 0.3188 0.3188
vt 0.3477 0.3555 0.3555
vt 0.3477 0.3188 0.3188
vt 0.0112 0.7517 0.7517
vt 0.3689 0.7517 0.7517
vt 0.3689 0.7743 0.7743
vt 0.0112 0.7740 0.7740
vt 0.5352 0.8961 0.8961
vt 0.2981 0.2310 0.2310
vt 0.2981 0.2666 0.2666
vt 0.2754 0.2666 0.2666
vt 0.2754 0.2310 0.2310
vt 0.6426 0.0083 0.0083
vt 0.7480 0.0083 0.0083
vt 0.6426 0.0107 0.0107
vt 0.7480 0.0107 0.0107
vt 0.7480 0.0146 0.0146
vt 0.6426 0.0146 0.0146
vt 0.7480 0.0156 0.0156
vt 0.6426 0.0156 0.0156
vt 0.6426 0.0176 0.0176
vt 0.7480 0.0176 0.0176
vt 0.0578 0.0083 0.0083
vt 0.1635 0.0083 0.0083
vt 0.0578 0.0107 0.0107
vt 0.1635 0.0107 0.0107
vt 0.1635 0.0146 0.0146
vt 0.0578 0.0146 0.0146
vt 0.0578 0.0156 0.0156
vt 0.1635 0.0156 0.0156
vt 0.1635 0.0176 0.0176
vt 0.0578 0.0176 0.0176
vt 0.2158 0.0083 0.0083
vt 0.2158 0.0107 0.0107
vt 0.2158 0.0146 0.0146
vt 0.2158 0.0156 0.0156
vt 0.2158 0.0176 0.0176
vt 0.3943 0.2988 0.2988
vt 0.3975 0.3022 0.3022
vt 0.9570 0.2036 0.2036
vt 0.9907 0.0688 0.0688
vt 0.9907 0.1699 0.1699
vt 0.9570 0.0356 0.0356
vt 0.5864 0.2036 0.2036
vt 0.5864 0.0356 0.0356
vt 0.5527 0.1699 0.1699
vt 0.5527 0.0688 0.0688
vt 0.7480 0.0234 0.0234
vt 0.8008 0.0234 0.0234
vt 0.6426 0.0234 0.0234
vt 0.3794 0.0435 0.0435
vt 0.0053 0.0435 0.0435
vt 0.0053 0.0444 0.0444
vt 0.3794 0.0444 0.0444
vt 0.3794 0.0483 0.0483
vt 0.0053 0.0483 0.0483
vt 0.3794 0.0508 0.0508
vt 0.0053 0.0508 0.0508
vt 0.0493 0.9883 0.9883
vt 0.4270 0.9894 0.9894
vt 0.0498 0.9895 0.9895
vt 0.4275 0.9882 0.9882
vt 0.0490 0.9875 0.9875
vt 0.4280 0.9874 0.9874
vt 0.0490 0.9869 0.9869
vt 0.4280 0.9868 0.9868
vt 0.4280 0.9862 0.9862
vt 0.0490 0.9863 0.9863
vt 0.4275 0.9854 0.9854
vt 0.0493 0.9855 0.9855
vt 0.0053 0.0176 0.0176
vt 0.0053 0.0156 0.0156
vt 0.0053 0.0146 0.0146
vt 0.0053 0.0107 0.0107
vt 0.0053 0.0083 0.0083
vt 0.4297 0.9873 0.9873
vt 0.4700 0.9485 0.9485
vt 0.4307 0.9879 0.9879
vt 0.4695 0.9474 0.9474
vt 0.4290 0.9870 0.9870
vt 0.4695 0.9465 0.9465
vt 0.4690 0.9461 0.9461
vt 0.4285 0.9866 0.9866
vt 0.4683 0.9457 0.9457
vt 0.4678 0.9453 0.9453
vt 0.4678 0.8354 0.8354
vt 0.4683 0.9456 0.9456
vt 0.4683 0.8352 0.8352
vt 0.4690 0.9456 0.9456
vt 0.4690 0.8352 0.8352
vt 0.4695 0.8352 0.8352
vt 0.4695 0.9456 0.9456
vt 0.4705 0.8354 0.8354
vt 0.4705 0.9453 0.9453
vt 0.4717 0.9448 0.9448
vt 0.4717 0.8359 0.8359
vt 0.1635 0.0234 0.0234
vt 0.0578 0.0234 0.0234
vt 0.0053 0.0234 0.0234
vt 0.5898 0.0176 0.0176
vt 0.5898 0.0156 0.0156
vt 0.5898 0.0146 0.0146
vt 0.5898 0.0107 0.0107
vt 0.5898 0.0083 0.0083
vt 0.4275 0.7926 0.7926
vt 0.0497 0.7915 0.7915
vt 0.4270 0.7915 0.7915
vt 0.0493 0.7927 0.7927
vt 0.4280 0.7936 0.7936
vt 0.0490 0.7936 0.7936
vt 0.0490 0.7942 0.7942
vt 0.4280 0.7942 0.7942
vt 0.0490 0.7948 0.7948
vt 0.4280 0.7948 0.7948
vt 0.0493 0.7955 0.7955
vt 0.4275 0.7954 0.7954
vt 0.0473 0.7937 0.7937
vt 0.0068 0.8325 0.8325
vt 0.0461 0.7932 0.7932
vt 0.0073 0.8336 0.8336
vt 0.0481 0.7939 0.7939
vt 0.0076 0.8345 0.8345
vt 0.0080 0.8348 0.8348
vt 0.0486 0.7943 0.7943
vt 0.0489 0.7949 0.7949
vt 0.0085 0.8352 0.8352
vt 0.0092 0.8357 0.8357
vt 0.0093 0.9455 0.9455
vt 0.4424 0.2480 0.2480
vt 0.4087 0.2480 0.2480
vt 0.4124 0.2446 0.2446
vt 0.4390 0.2446 0.2446
vt 0.4424 0.1479 0.1479
vt 0.4390 0.1514 0.1514
vt 0.4087 0.1479 0.1479
vt 0.4124 0.1514 0.1514
vt 0.3743 0.7009 0.7009
vt 0.3706 0.7307 0.7307
vt 0.3711 0.7041 0.7041
vt 0.3743 0.7341 0.7341
vt 0.0087 0.7312 0.7312
vt 0.0053 0.7346 0.7346
vt 0.5527 0.8574 0.8574
vt 0.5864 0.9919 0.9919
vt 0.5527 0.9583 0.9583
vt 0.5864 0.8236 0.8236
vt 0.9570 0.9919 0.9919
vt 0.9570 0.8236 0.8236
vt 0.9907 0.9583 0.9583
vt 0.9907 0.8574 0.8574
vt 0.5522 0.4043 0.4043
vt 0.5454 0.4014 0.4014
vt 0.5752 0.3730 0.3730
vt 0.6704 0.3755 0.3755
vt 0.6987 0.4053 0.4053
vt 0.6919 0.4077 0.4077
vt 0.6538 0.4395 0.4395
vt 0.5615 0.4165 0.4165
vt 0.5400 0.3813 0.3813
vt 0.5474 0.3804 0.3804
vt 0.6826 0.4141 0.4141
vt 0.6890 0.4185 0.4185
vt 0.0053 0.8362 0.8362
vt 0.0065 0.9455 0.9455
vt 0.0054 0.9450 0.9450
vt 0.0065 0.8357 0.8357
vt 0.0072 0.8353 0.8353
vt 0.0073 0.9458 0.9458
vt 0.0078 0.8353 0.8353
vt 0.0079 0.9458 0.9458
vt 0.0084 0.8353 0.8353
vt 0.0085 0.9458 0.9458
vt 0.8008 0.0176 0.0176
vt 0.8008 0.0156 0.0156
vt 0.8008 0.0146 0.0146
vt 0.8008 0.0107 0.0107
vt 0.8008 0.0083 0.0083
vt 0.0068 0.9486 0.9486
vt 0.0473 0.9875 0.9875
vt 0.0462 0.9879 0.9879
vt 0.0073 0.9474 0.9474
vt 0.0077 0.9467 0.9467
vt 0.0481 0.9871 0.9871
vt 0.0486 0.9867 0.9867
vt 0.0080 0.9462 0.9462
vt 0.4307 0.7931 0.7931
vt 0.4700 0.8324 0.8324
vt 0.4297 0.7936 0.7936
vt 0.4695 0.8335 0.8335
vt 0.4695 0.8342 0.8342
vt 0.4290 0.7938 0.7938
vt 0.4285 0.7943 0.7943
vt 0.4690 0.8347 0.8347
vt 0.7046 0.4487 0.4487
vt 0.7075 0.4521 0.4521
vt 0.7075 0.3589 0.3589
vt 0.7046 0.3618 0.3618
vt 0.6851 0.3960 0.3960
vt 0.6924 0.3994 0.3994
vt 0.6582 0.4297 0.4297
vt 0.5522 0.4224 0.4224
vt 0.5225 0.3882 0.3882
vt 0.5303 0.3853 0.3853
vt 0.6626 0.4160 0.4160
vt 0.5566 0.4136 0.4136
vt 0.5249 0.3804 0.3804
vt 0.5327 0.3774 0.3774
vt 0.6880 0.3813 0.3813
vt 0.6953 0.3843 0.3843
vt 0.0055 0.7009 0.7009
vt 0.0089 0.7041 0.7041
vt 0.4236 0.1357 0.1357
vt 0.4202 0.0391 0.0391
vt 0.4236 0.0356 0.0356
vt 0.3899 0.0356 0.0356
vt 0.4207 0.1323 0.1323
vt 0.3936 0.0391 0.0391
vt 0.3904 0.1357 0.1357
vt 0.3938 0.1323 0.1323
# 901 texture coords

o SM_Stand_02
g SM_Stand_02
usemtl M_Stand_02
s 1
f 1/1/1 2/2/1 3/3/1 
f 2/2/1 1/1/1 4/4/1 
f 5/5/2 6/6/2 7/7/2 
f 6/6/2 5/5/2 8/8/2 
f 9/9/3 10/10/3 11/11/3 
f 11/11/3 10/10/3 12/12/3 
f 13/13/4 11/11/4 12/12/4 
f 13/13/4 12/12/4 14/14/4 
f 13/13/5 14/14/5 15/15/5 
f 15/15/5 14/14/5 16/16/5 
f 17/17/6 18/18/6 19/19/6 
f 18/18/6 17/17/6 20/20/6 
f 21/21/1 22/22/1 23/23/1 
f 21/21/1 23/23/1 24/24/1 
f 22/22/1 25/25/1 26/26/1 
f 22/22/1 26/26/1 23/23/1 
f 27/27/7 10/28/8 28/29/8 
f 27/27/7 28/29/8 29/30/7 
f 10/28/8 9/31/9 30/32/9 
f 10/28/8 30/32/9 28/29/8 
f 31/33/10 9/31/9 21/34/10 
f 9/31/9 31/33/10 30/32/9 
f 21/34/10 27/27/7 29/30/7 
f 21/34/10 29/30/7 31/33/10 
f 16/35/11 25/36/12 32/37/12 
f 16/35/11 32/37/12 33/38/11 
f 25/36/12 22/39/13 34/40/13 
f 25/36/12 34/40/13 32/37/12 
f 22/39/13 15/41/14 35/42/14 
f 22/39/13 35/42/14 34/40/13 
f 15/41/14 16/35/11 33/38/11 
f 15/41/14 33/38/11 35/42/14 
f 26/43/15 36/44/15 37/45/15 
f 26/43/15 37/45/15 38/46/15 
f 39/47/16 36/48/16 24/49/16 
f 36/48/16 39/47/16 37/45/16 
f 40/50/17 39/47/17 24/51/17 
f 40/50/17 24/51/17 23/52/17 
f 38/46/18 40/50/18 23/53/18 
f 23/53/18 26/54/18 38/46/18 
f 29/55/15 41/56/15 42/57/15 
f 41/56/15 29/55/15 28/58/15 
f 30/59/19 41/56/20 28/60/20 
f 41/56/20 30/59/19 43/61/19 
f 31/62/17 43/61/17 30/63/17 
f 43/61/17 31/62/17 44/64/17 
f 42/57/21 44/64/21 31/65/21 
f 31/65/21 29/66/21 42/57/21 
f 45/67/15 32/68/15 46/69/15 
f 32/68/15 45/67/15 33/70/15 
f 47/71/22 32/72/22 34/73/22 
f 32/72/22 47/71/22 46/69/22 
f 48/74/17 47/71/17 34/75/17 
f 34/75/17 35/76/17 48/74/17 
f 48/74/23 33/77/24 45/67/24 
f 33/77/24 48/74/23 35/78/23 
f 41/56/25 49/79/25 42/57/25 
f 49/79/25 41/56/25 50/80/2 
f 41/56/25 43/61/25 51/81/25 
f 41/56/25 51/81/25 50/80/2 
f 44/64/25 51/81/25 43/61/25 
f 51/81/25 44/64/25 52/82/25 
f 42/57/25 52/82/25 44/64/25 
f 52/82/25 42/57/25 49/79/25 
f 46/69/26 53/83/26 45/67/6 
f 53/83/26 46/69/26 54/84/26 
f 47/71/14 54/84/26 46/69/26 
f 54/84/26 47/71/14 55/85/14 
f 48/74/6 55/85/14 47/71/14 
f 55/85/14 48/74/6 56/86/6 
f 45/67/6 56/86/6 48/74/6 
f 56/86/6 45/67/6 53/83/26 
f 57/87/27 58/88/27 2/2/27 
f 57/87/27 2/2/27 4/4/27 
f 58/88/25 59/89/25 3/3/25 
f 58/88/25 3/3/25 2/2/25 
f 1/1/28 59/89/28 60/90/28 
f 59/89/28 1/1/28 3/3/28 
f 60/90/29 57/87/6 4/4/6 
f 60/90/29 4/4/6 1/1/29 
f 49/79/30 50/80/30 6/6/30 
f 49/79/30 6/6/30 8/8/30 
f 7/7/18 50/80/31 51/81/18 
f 50/80/31 7/7/18 6/6/31 
f 5/5/32 7/7/33 51/81/33 
f 51/81/33 52/82/32 5/5/32 
f 8/8/1 5/5/1 52/82/1 
f 52/82/1 49/79/1 8/8/1 
f 53/83/34 54/84/34 18/18/34 
f 53/83/34 18/18/34 20/20/34 
f 19/19/1 54/84/1 55/85/1 
f 54/84/1 19/19/1 18/18/1 
f 17/17/35 55/85/36 56/86/35 
f 55/85/36 17/17/35 19/19/36 
f 17/17/16 53/83/16 20/20/16 
f 53/83/16 17/17/16 56/86/16 
f 61/91/37 62/92/37 63/93/37 
f 62/92/37 61/91/37 64/94/37 
f 65/95/16 66/96/16 67/97/16 
f 65/95/16 67/97/16 68/98/16 
f 65/95/15 63/93/15 66/96/15 
f 63/93/15 65/95/15 61/91/15 
f 67/97/17 64/99/17 68/98/17 
f 64/99/17 67/97/17 62/100/17 
f 62/101/38 66/96/38 63/93/38 
f 66/96/38 62/101/38 67/102/38 
f 68/103/39 64/104/39 65/95/39 
f 61/91/39 65/95/39 64/104/39 
f 69/105/1 70/106/1 71/107/1 
f 69/105/1 71/107/1 72/108/1 
f 73/109/25 74/110/25 75/111/25 
f 73/109/25 75/111/25 76/112/25 
f 77/113/37 78/114/37 79/115/37 
f 77/113/37 79/115/37 80/116/37 
f 81/117/40 82/118/40 83/119/40 
f 82/118/40 81/117/40 84/120/40 
f 85/121/4 86/122/4 87/123/4 
f 86/122/4 85/121/4 88/124/4 
f 89/125/41 90/126/41 91/127/41 
f 90/126/41 89/125/41 92/128/41 
f 93/129/16 94/130/16 95/131/16 
f 93/129/16 95/131/16 96/132/16 
f 97/133/6 98/134/6 99/135/6 
f 97/133/6 99/135/6 100/136/6 
f 101/137/42 102/138/42 103/139/1 
f 101/137/42 103/139/1 104/140/1 
f 102/138/42 105/141/43 106/142/43 
f 102/138/42 106/142/43 103/139/1 
f 107/143/44 105/141/43 108/144/45 
f 105/141/43 107/143/44 106/142/43 
f 108/144/45 101/137/42 104/140/1 
f 108/144/45 104/140/1 107/143/44 
f 109/145/46 110/146/25 102/147/25 
f 110/146/25 109/145/46 111/148/46 
f 112/149/47 111/148/46 109/145/46 
f 111/148/46 112/149/47 113/150/47 
f 114/151/2 112/149/47 105/152/2 
f 112/149/47 114/151/2 113/150/47 
f 105/152/2 102/147/25 110/146/25 
f 105/152/2 110/146/25 114/151/2 
f 109/153/18 115/154/31 116/155/37 
f 109/153/18 116/155/37 117/156/18 
f 115/154/31 118/157/31 119/158/31 
f 115/154/31 119/158/31 116/155/37 
f 118/157/31 112/159/18 120/160/18 
f 118/157/31 120/160/18 119/158/31 
f 112/159/18 109/153/18 117/156/18 
f 112/159/18 117/156/18 120/160/18 
f 115/161/40 121/162/48 122/163/48 
f 115/161/40 122/163/48 123/164/40 
f 121/162/48 124/165/40 125/166/40 
f 121/162/48 125/166/40 122/163/48 
f 126/167/48 124/165/40 118/168/49 
f 124/165/40 126/167/48 125/166/40 
f 118/168/49 115/161/40 123/164/40 
f 118/168/49 123/164/40 126/167/48 
f 127/169/50 128/170/51 121/171/51 
f 128/170/51 127/169/50 129/172/50 
f 130/173/52 129/172/50 127/169/50 
f 129/172/50 130/173/52 131/174/52 
f 130/173/52 124/175/53 132/176/53 
f 130/173/52 132/176/53 131/174/52 
f 124/175/53 121/171/51 128/170/51 
f 124/175/53 128/170/51 132/176/53 
f 127/177/54 133/178/41 134/179/41 
f 127/177/54 134/179/41 135/180/54 
f 133/178/41 136/181/55 137/182/56 
f 133/178/41 137/182/56 134/179/41 
f 138/183/57 136/181/55 130/184/57 
f 136/181/55 138/183/57 137/182/56 
f 127/177/54 138/183/57 130/184/57 
f 138/183/57 127/177/54 135/180/54 
f 133/185/16 139/186/58 140/187/16 
f 133/185/16 140/187/16 141/188/16 
f 139/186/58 142/189/58 143/190/58 
f 139/186/58 143/190/58 140/187/16 
f 142/189/58 136/191/16 144/192/16 
f 142/189/58 144/192/16 143/190/58 
f 136/191/16 133/185/16 141/188/16 
f 136/191/16 141/188/16 144/192/16 
f 139/193/6 101/194/59 145/195/59 
f 139/193/6 145/195/59 146/196/6 
f 101/194/59 108/197/60 147/198/60 
f 101/194/59 147/198/60 145/195/59 
f 148/199/61 108/197/60 142/200/61 
f 108/197/60 148/199/61 147/198/60 
f 139/193/6 148/199/61 142/200/61 
f 148/199/61 139/193/6 146/196/6 
f 104/201/15 103/202/15 149/203/15 
f 104/201/15 149/203/15 150/204/15 
f 151/205/16 103/206/16 106/207/16 
f 103/206/16 151/205/16 149/203/16 
f 152/208/17 151/205/17 106/209/17 
f 152/208/17 106/209/17 107/210/17 
f 150/204/37 152/208/37 107/211/37 
f 107/211/37 104/212/37 150/204/37 
f 110/213/15 153/214/15 154/215/15 
f 153/214/15 110/213/15 111/216/15 
f 113/217/62 153/214/62 111/218/62 
f 153/214/62 113/217/62 155/219/62 
f 114/220/17 155/219/17 113/221/17 
f 155/219/17 114/220/17 156/222/17 
f 156/222/63 110/223/63 154/215/63 
f 110/223/63 156/222/63 114/224/63 
f 157/225/15 158/226/15 117/227/15 
f 117/227/15 116/228/15 157/225/15 
f 119/229/64 157/225/64 116/230/64 
f 157/225/64 119/229/64 159/231/64 
f 160/232/17 159/231/17 119/233/17 
f 119/233/17 120/234/17 160/232/17 
f 158/226/65 160/232/65 120/235/65 
f 120/235/65 117/236/65 158/226/65 
f 122/237/15 161/238/15 123/239/15 
f 161/238/15 122/237/15 162/240/15 
f 163/241/66 122/242/66 125/243/66 
f 122/242/66 163/241/66 162/240/66 
f 125/244/17 164/245/17 163/241/17 
f 164/245/17 125/244/17 126/246/17 
f 161/238/67 164/245/67 126/247/67 
f 126/247/67 123/248/67 161/238/67 
f 165/249/15 166/250/15 128/251/15 
f 165/249/15 128/251/15 129/252/15 
f 167/253/37 129/254/37 131/255/37 
f 129/254/37 167/253/37 165/249/37 
f 132/256/68 167/253/68 131/257/68 
f 167/253/68 132/256/68 168/258/68 
f 168/258/16 128/259/16 166/250/16 
f 128/259/16 168/258/16 132/260/16 
f 169/261/15 170/262/15 135/263/15 
f 135/263/15 134/264/15 169/261/15 
f 171/265/69 134/266/69 137/267/69 
f 134/266/69 171/265/69 169/261/69 
f 171/265/17 138/268/17 172/269/17 
f 138/268/17 171/265/17 137/270/17 
f 170/262/70 172/269/70 138/271/70 
f 138/271/70 135/272/70 170/262/70 
f 173/273/15 141/274/15 140/275/15 
f 141/274/15 173/273/15 174/276/15 
f 175/277/71 140/278/71 143/279/71 
f 140/278/71 175/277/71 173/273/71 
f 176/280/17 143/281/17 144/282/17 
f 143/281/17 176/280/17 175/277/17 
f 176/280/72 141/283/72 174/276/72 
f 141/283/72 176/280/72 144/284/72 
f 177/285/15 145/286/15 178/287/15 
f 145/286/15 177/285/15 146/288/15 
f 179/289/73 145/290/73 147/291/73 
f 145/290/73 179/289/73 178/287/73 
f 180/292/17 179/289/17 147/293/17 
f 147/293/17 148/294/17 180/292/17 
f 180/292/74 146/295/74 177/285/74 
f 146/295/74 180/292/74 148/296/74 
f 154/215/25 153/214/25 181/297/25 
f 154/215/25 181/297/25 182/298/75 
f 153/214/25 155/219/2 183/299/2 
f 153/214/25 183/299/2 181/297/25 
f 155/219/2 156/222/2 184/300/2 
f 155/219/2 184/300/2 183/299/2 
f 154/215/25 184/300/2 156/222/2 
f 184/300/2 154/215/25 182/298/75 
f 162/240/40 185/301/40 161/238/40 
f 185/301/40 162/240/40 186/302/40 
f 162/240/40 163/241/76 187/303/76 
f 162/240/40 187/303/76 186/302/40 
f 164/245/76 187/303/76 163/241/76 
f 187/303/76 164/245/76 188/304/76 
f 161/238/40 188/304/76 164/245/76 
f 188/304/76 161/238/40 185/301/40 
f 169/261/41 189/305/41 170/262/41 
f 189/305/41 169/261/41 190/306/41 
f 169/261/41 171/265/77 191/307/77 
f 169/261/41 191/307/77 190/306/41 
f 172/269/77 191/307/77 171/265/77 
f 191/307/77 172/269/77 192/308/77 
f 170/262/41 192/308/77 172/269/77 
f 192/308/77 170/262/41 189/305/41 
f 177/285/6 178/287/6 193/309/6 
f 177/285/6 193/309/6 194/310/26 
f 178/287/6 179/289/26 195/311/78 
f 178/287/6 195/311/78 193/309/6 
f 179/289/26 180/292/26 196/312/26 
f 179/289/26 196/312/26 195/311/78 
f 177/285/6 196/312/26 180/292/26 
f 196/312/26 177/285/6 194/310/26 
f 197/313/27 71/107/27 198/314/27 
f 71/107/27 197/313/27 72/108/27 
f 199/315/25 72/108/25 197/313/25 
f 72/108/25 199/315/25 69/105/25 
f 199/315/79 200/316/79 70/106/79 
f 199/315/79 70/106/79 69/105/79 
f 200/316/6 198/314/6 71/107/6 
f 200/316/6 71/107/6 70/106/6 
f 181/297/30 75/111/30 182/298/30 
f 75/111/30 181/297/30 76/112/30 
f 183/299/37 76/112/37 181/297/37 
f 76/112/37 183/299/37 73/109/37 
f 74/110/32 73/109/32 183/299/32 
f 183/299/32 184/300/32 74/110/32 
f 75/111/1 74/110/1 184/300/1 
f 184/300/1 182/298/1 75/111/1 
f 201/317/80 202/318/80 80/116/80 
f 201/317/80 80/116/80 79/115/80 
f 203/319/81 80/116/81 202/318/81 
f 80/116/81 203/319/81 77/113/81 
f 203/319/82 204/320/82 78/114/82 
f 203/319/82 78/114/82 77/113/82 
f 204/320/83 201/317/83 79/115/83 
f 204/320/83 79/115/83 78/114/83 
f 82/118/84 84/120/84 185/301/84 
f 185/301/84 186/302/84 82/118/84 
f 187/303/4 82/118/4 186/302/4 
f 82/118/4 187/303/4 83/119/4 
f 188/304/85 83/119/85 187/303/85 
f 83/119/85 188/304/85 81/117/85 
f 84/120/37 81/117/37 188/304/37 
f 188/304/37 185/301/37 84/120/37 
f 205/321/86 206/322/86 86/122/86 
f 205/321/86 86/122/86 88/124/86 
f 207/323/41 86/122/41 206/322/41 
f 86/122/41 207/323/41 87/123/41 
f 207/323/87 208/324/87 85/121/87 
f 207/323/87 85/121/87 87/123/87 
f 208/324/40 205/321/40 88/124/40 
f 208/324/40 88/124/40 85/121/40 
f 90/126/88 189/305/88 190/306/88 
f 189/305/88 90/126/88 92/128/88 
f 191/307/16 90/126/16 190/306/16 
f 90/126/16 191/307/16 91/127/16 
f 191/307/89 192/308/89 89/125/89 
f 191/307/89 89/125/89 91/127/89 
f 92/128/4 89/125/4 192/308/4 
f 192/308/4 189/305/4 92/128/4 
f 209/325/90 210/326/90 96/132/90 
f 209/325/90 96/132/90 95/131/90 
f 211/327/62 96/132/62 210/326/62 
f 96/132/62 211/327/62 93/129/62 
f 211/327/91 212/328/91 94/130/91 
f 211/327/91 94/130/91 93/129/91 
f 212/328/92 209/325/92 95/131/92 
f 212/328/92 95/131/92 94/130/92 
f 193/309/34 99/135/34 194/310/34 
f 99/135/34 193/309/34 100/136/34 
f 195/311/1 100/136/1 193/309/1 
f 100/136/1 195/311/1 97/133/1 
f 196/312/36 97/133/36 195/311/36 
f 97/133/36 196/312/36 98/134/36 
f 99/135/16 98/134/16 196/312/16 
f 196/312/16 194/310/16 99/135/16 
f 213/329/1 214/330/1 215/331/1 
f 214/330/1 213/329/1 216/332/1 
f 217/333/1 218/334/1 219/335/1 
f 218/334/1 217/333/1 220/336/1 
f 221/337/6 216/332/6 213/329/6 
f 216/332/6 221/337/6 222/338/6 
f 223/339/6 220/336/6 217/333/6 
f 220/336/6 223/339/6 224/340/6 
f 136/341/93 222/342/94 225/343/93 
f 222/342/94 136/341/93 142/344/94 
f 226/345/16 222/342/16 221/346/16 
f 222/342/16 226/345/16 225/343/16 
f 227/347/16 224/348/16 223/349/16 
f 224/348/16 227/347/16 228/350/16 
f 229/351/41 225/352/41 226/353/41 
f 225/352/41 229/351/41 230/354/41 
f 231/355/41 228/356/41 227/357/41 
f 228/356/41 231/355/41 232/358/41 
f 233/359/4 230/354/4 229/351/4 
f 230/354/4 233/359/4 234/360/4 
f 235/361/95 232/358/95 231/355/95 
f 232/358/95 235/361/95 236/362/95 
f 237/363/40 234/360/40 233/359/40 
f 234/360/40 237/363/40 238/364/40 
f 235/361/40 239/365/40 236/362/40 
f 239/365/40 235/361/40 240/366/40 
f 238/364/96 112/367/17 118/368/96 
f 112/367/17 238/364/96 241/369/17 
f 242/370/37 238/364/37 237/363/37 
f 238/364/37 242/370/37 241/369/37 
f 240/366/97 243/371/97 239/365/97 
f 243/371/97 240/366/97 244/372/97 
f 215/331/2 241/369/2 242/370/25 
f 241/369/2 215/331/2 214/330/2 
f 219/335/25 243/371/25 244/372/25 
f 243/371/25 219/335/25 218/334/25 
f 245/373/17 246/374/17 247/375/17 
f 246/374/17 245/373/17 248/376/17 
f 249/377/15 250/378/15 251/379/15 
f 250/378/15 249/377/15 252/380/15 
f 246/381/37 248/382/37 249/377/37 
f 252/380/37 249/377/37 248/382/37 
f 251/379/16 245/373/16 247/375/16 
f 245/373/16 251/379/16 250/378/16 
f 249/383/1 251/384/1 247/385/1 
f 247/385/1 246/386/1 249/383/1 
f 250/387/4 252/388/4 248/386/4 
f 248/386/4 245/385/4 250/387/4 
f 253/389/76 254/390/76 255/391/76 
f 255/391/76 254/390/76 256/392/76 
f 257/393/4 258/394/4 259/395/4 
f 259/395/4 258/394/4 260/396/4 
f 261/397/41 262/398/41 263/399/41 
f 263/399/41 262/398/41 264/400/41 
f 265/401/98 266/402/98 267/403/98 
f 266/402/98 265/401/98 268/404/98 
f 267/403/1 269/405/1 270/406/1 
f 269/405/1 267/403/1 266/402/1 
f 270/406/99 271/407/99 272/408/99 
f 271/407/99 270/406/99 269/405/99 
f 271/409/100 273/410/101 274/411/101 
f 271/409/100 274/411/101 275/412/100 
f 273/410/101 276/413/102 277/414/102 
f 273/410/101 277/414/102 274/411/101 
f 276/413/102 272/415/103 278/416/103 
f 276/413/102 278/416/103 277/414/102 
f 271/409/100 278/416/103 272/415/103 
f 278/416/103 271/409/100 275/412/100 
f 279/417/4 276/418/4 280/419/4 
f 279/417/4 280/419/4 281/420/4 
f 282/421/55 268/422/77 283/423/77 
f 282/421/55 283/423/77 284/424/55 
f 265/425/104 283/423/77 268/422/77 
f 283/423/77 265/425/104 285/426/105 
f 265/425/104 279/427/57 286/428/57 
f 265/425/104 286/428/57 285/426/105 
f 282/421/55 286/428/57 279/427/57 
f 286/428/57 282/421/55 284/424/55 
f 274/429/15 287/430/15 275/431/15 
f 287/430/15 274/429/15 288/432/15 
f 277/433/106 288/432/106 274/434/106 
f 288/432/106 277/433/106 289/435/106 
f 277/436/17 290/437/17 289/435/17 
f 290/437/17 277/436/17 278/438/17 
f 290/437/107 275/439/67 287/430/67 
f 275/439/67 290/437/107 278/440/107 
f 291/441/15 292/442/15 293/443/15 
f 291/441/15 293/443/15 294/444/15 
f 295/445/18 294/446/18 281/447/18 
f 294/446/18 295/445/18 291/441/18 
f 296/448/17 281/449/17 280/450/17 
f 281/449/17 296/448/17 295/445/17 
f 292/442/16 296/448/16 280/451/16 
f 280/451/16 293/452/16 292/442/16 
f 297/453/15 298/454/15 284/455/15 
f 284/455/15 283/456/15 297/453/15 
f 285/457/108 297/453/109 283/458/69 
f 297/453/109 285/457/108 299/459/108 
f 299/459/17 286/460/17 300/461/17 
f 286/460/17 299/459/17 285/462/17 
f 300/461/20 284/463/20 298/454/20 
f 284/463/20 300/461/20 286/464/20 
f 287/430/110 288/432/40 301/465/40 
f 287/430/110 301/465/40 302/466/110 
f 288/432/40 289/435/40 303/467/40 
f 288/432/40 303/467/40 301/465/40 
f 304/468/76 289/435/40 290/437/76 
f 289/435/40 304/468/76 303/467/40 
f 287/430/110 304/468/76 290/437/76 
f 304/468/76 287/430/110 302/466/110 
f 298/454/77 297/453/104 305/469/41 
f 298/454/77 305/469/41 306/470/77 
f 297/453/104 299/459/77 307/471/77 
f 297/453/104 307/471/77 305/469/41 
f 299/459/77 300/461/41 308/472/41 
f 299/459/77 308/472/41 307/471/77 
f 300/461/41 298/454/77 306/470/77 
f 300/461/41 306/470/77 308/472/41 
f 254/390/84 301/465/84 256/392/84 
f 301/465/84 254/390/84 302/466/84 
f 255/391/4 301/465/4 303/467/4 
f 301/465/4 255/391/4 256/392/4 
f 304/468/111 255/391/112 303/467/85 
f 255/391/112 304/468/111 253/389/111 
f 254/390/18 253/389/31 304/468/31 
f 304/468/31 302/466/18 254/390/18 
f 309/473/86 310/474/86 260/396/86 
f 309/473/86 260/396/86 258/394/86 
f 310/474/41 311/475/41 259/395/41 
f 310/474/41 259/395/41 260/396/41 
f 311/475/87 312/476/87 257/393/87 
f 311/475/87 257/393/87 259/395/87 
f 312/476/81 309/473/81 258/394/81 
f 312/476/81 258/394/81 257/393/81 
f 305/469/88 262/398/88 306/470/88 
f 262/398/88 305/469/88 264/400/88 
f 263/399/58 305/469/58 307/471/58 
f 305/469/58 263/399/58 264/400/58 
f 307/471/113 308/472/89 261/397/114 
f 307/471/113 261/397/114 263/399/113 
f 261/397/4 306/470/4 262/398/4 
f 306/470/4 261/397/4 308/472/4 
f 313/477/1 314/478/1 315/479/1 
f 314/478/1 313/477/1 316/480/1 
f 315/481/37 317/482/37 318/483/37 
f 317/482/37 315/481/37 314/484/37 
f 316/480/16 313/477/16 319/485/16 
f 319/485/16 320/486/16 316/480/16 
f 319/485/4 318/483/4 317/482/4 
f 319/485/4 317/482/4 320/486/4 
f 318/487/15 319/488/15 313/489/15 
f 313/489/15 315/490/15 318/487/15 
f 320/491/17 317/492/17 314/493/17 
f 314/493/17 316/494/17 320/491/17 
f 321/495/1 322/496/1 323/497/1 
f 321/495/1 323/497/1 324/498/1 
f 325/499/25 326/500/25 327/501/25 
f 325/499/25 327/501/25 328/502/25 
f 329/503/37 330/504/37 331/505/37 
f 329/503/37 331/505/37 332/506/37 
f 333/507/40 334/508/40 335/509/40 
f 334/508/40 333/507/40 336/510/40 
f 337/511/4 338/512/4 339/513/4 
f 337/511/4 339/513/4 340/514/4 
f 341/515/41 342/516/41 343/517/41 
f 341/515/41 343/517/41 344/518/41 
f 345/519/16 346/520/16 347/521/16 
f 345/519/16 347/521/16 348/522/16 
f 349/523/6 350/524/6 351/525/6 
f 350/524/6 349/523/6 352/526/6 
f 353/527/46 354/528/25 355/529/25 
f 354/528/25 353/527/46 356/530/46 
f 353/527/46 357/531/115 358/532/115 
f 353/527/46 358/532/115 356/530/46 
f 359/533/2 357/531/115 360/534/2 
f 357/531/115 359/533/2 358/532/115 
f 360/534/2 355/529/25 354/528/25 
f 360/534/2 354/528/25 359/533/2 
f 361/535/101 362/536/40 363/537/40 
f 362/536/40 361/535/101 364/538/116 
f 361/535/101 365/539/102 366/540/102 
f 361/535/101 366/540/102 364/538/116 
f 367/541/76 366/540/102 365/539/102 
f 366/540/102 367/541/76 368/542/76 
f 363/537/40 368/542/76 367/541/76 
f 368/542/76 363/537/40 362/536/40 
f 369/543/104 370/544/54 371/545/54 
f 370/544/54 369/543/104 372/546/104 
f 373/547/55 372/546/104 369/543/104 
f 372/546/104 373/547/55 374/548/55 
f 375/549/117 374/548/55 373/547/55 
f 374/548/55 375/549/117 376/550/117 
f 371/545/54 376/550/117 375/549/117 
f 376/550/117 371/545/54 370/544/54 
f 369/551/118 377/552/119 378/553/119 
f 369/551/118 378/553/119 379/554/118 
f 380/555/119 378/553/119 377/552/119 
f 378/553/119 380/555/119 381/556/119 
f 380/555/119 373/557/118 382/558/118 
f 380/555/119 382/558/118 381/556/119 
f 373/557/118 369/551/118 379/554/118 
f 373/557/118 379/554/118 382/558/118 
f 377/559/14 383/560/59 384/561/59 
f 377/559/14 384/561/59 385/562/14 
f 383/560/59 386/563/120 387/564/120 
f 383/560/59 387/564/120 384/561/59 
f 386/563/120 380/565/12 388/566/12 
f 386/563/120 388/566/12 387/564/120 
f 380/565/12 377/559/14 385/562/14 
f 380/565/12 385/562/14 388/566/12 
f 389/567/15 390/568/15 391/569/15 
f 389/567/15 391/569/15 392/570/15 
f 393/571/16 390/572/16 394/573/16 
f 390/572/16 393/571/16 391/569/16 
f 395/574/17 393/571/17 394/575/17 
f 395/574/17 394/575/17 396/576/17 
f 392/570/37 395/574/37 396/577/37 
f 396/577/37 389/578/37 392/570/37 
f 354/579/15 397/580/15 398/581/15 
f 397/580/15 354/579/15 356/582/15 
f 358/583/20 397/580/20 356/584/20 
f 397/580/20 358/583/20 399/585/20 
f 359/586/17 399/585/17 358/587/17 
f 399/585/17 359/586/17 400/588/17 
f 400/588/121 354/589/121 398/581/121 
f 354/589/121 400/588/121 359/590/121 
f 401/591/15 402/592/15 403/593/15 
f 403/593/15 404/594/15 401/591/15 
f 405/595/122 401/591/122 404/596/122 
f 401/591/122 405/595/122 406/597/122 
f 407/598/17 406/597/17 405/599/17 
f 405/599/17 408/600/17 407/598/17 
f 402/592/123 407/598/123 408/601/123 
f 408/601/123 403/602/123 402/592/123 
f 364/603/15 409/604/15 362/605/15 
f 409/604/15 364/603/15 410/606/15 
f 411/607/66 364/608/66 366/609/66 
f 364/608/66 411/607/66 410/606/66 
f 366/610/17 412/611/17 411/607/17 
f 412/611/17 366/610/17 368/612/17 
f 409/604/107 412/611/107 368/613/107 
f 368/613/107 362/614/107 409/604/107 
f 413/615/15 414/616/15 415/617/15 
f 413/615/15 415/617/15 416/618/15 
f 417/619/37 416/620/37 418/621/37 
f 416/620/37 417/619/37 413/615/37 
f 419/622/17 417/619/17 418/623/17 
f 417/619/17 419/622/17 420/624/17 
f 420/624/16 415/625/16 414/616/16 
f 415/625/16 420/624/16 419/626/16 
f 421/627/15 422/628/15 370/629/15 
f 370/629/15 372/630/15 421/627/15 
f 423/631/124 372/632/124 374/633/124 
f 372/632/124 423/631/124 421/627/124 
f 423/631/17 376/634/17 424/635/17 
f 376/634/17 423/631/17 374/636/17 
f 422/628/29 424/635/29 376/637/29 
f 376/637/29 370/638/29 422/628/29 
f 425/639/15 379/640/15 378/641/15 
f 379/640/15 425/639/15 426/642/15 
f 427/643/125 378/644/125 381/645/125 
f 378/644/125 427/643/125 425/639/125 
f 428/646/17 381/647/17 382/648/17 
f 381/647/17 428/646/17 427/643/17 
f 426/642/126 428/646/126 382/649/126 
f 382/649/126 379/650/126 426/642/126 
f 429/651/15 384/652/15 430/653/15 
f 384/652/15 429/651/15 385/654/15 
f 431/655/127 384/656/127 387/657/127 
f 384/656/127 431/655/127 430/653/127 
f 432/658/17 431/655/17 387/659/17 
f 387/659/17 388/660/17 432/658/17 
f 432/658/23 385/661/23 429/651/23 
f 385/661/23 432/658/23 388/662/23 
f 409/604/40 410/606/76 433/663/76 
f 409/604/40 433/663/76 434/664/40 
f 410/606/76 411/607/40 435/665/40 
f 410/606/76 435/665/40 433/663/76 
f 412/611/76 435/665/40 411/607/40 
f 435/665/40 412/611/76 436/666/76 
f 412/611/76 409/604/40 434/664/40 
f 412/611/76 434/664/40 436/666/76 
f 413/615/4 417/619/4 437/667/4 
f 413/615/4 437/667/4 438/668/4 
f 417/619/4 420/624/4 439/669/4 
f 417/619/4 439/669/4 437/667/4 
f 421/627/41 440/670/77 422/628/77 
f 440/670/77 421/627/41 441/671/41 
f 423/631/56 441/671/41 421/627/41 
f 441/671/41 423/631/56 442/672/55 
f 424/635/41 442/672/55 423/631/56 
f 442/672/55 424/635/41 443/673/41 
f 422/628/77 443/673/41 424/635/41 
f 443/673/41 422/628/77 440/670/77 
f 426/642/58 425/639/58 444/674/58 
f 426/642/58 444/674/58 445/675/16 
f 425/639/58 427/643/118 446/676/16 
f 425/639/58 446/676/16 444/674/58 
f 427/643/118 428/646/128 447/677/128 
f 427/643/118 447/677/128 446/676/16 
f 426/642/58 447/677/128 428/646/128 
f 447/677/128 426/642/58 445/675/16 
f 448/678/129 449/679/129 324/498/129 
f 448/678/129 324/498/129 323/497/129 
f 450/680/83 324/498/83 449/679/83 
f 324/498/83 450/680/83 321/495/83 
f 450/680/130 451/681/130 322/496/130 
f 450/680/130 322/496/130 321/495/130 
f 451/681/62 448/678/62 323/497/62 
f 451/681/62 323/497/62 322/496/62 
f 452/682/30 327/501/30 453/683/30 
f 327/501/30 452/682/30 328/502/30 
f 454/684/97 328/502/97 452/682/97 
f 328/502/97 454/684/97 325/499/97 
f 325/499/32 455/685/32 326/500/32 
f 455/685/32 325/499/32 454/684/32 
f 327/501/1 326/500/1 455/685/1 
f 455/685/1 453/683/1 327/501/1 
f 456/686/80 457/687/80 332/506/80 
f 456/686/80 332/506/80 331/505/80 
f 458/688/40 332/506/40 457/687/40 
f 332/506/40 458/688/40 329/503/40 
f 458/688/82 459/689/82 330/504/82 
f 458/688/82 330/504/82 329/503/82 
f 459/689/25 456/686/25 331/505/25 
f 459/689/25 331/505/25 330/504/25 
f 334/508/84 336/510/84 434/664/84 
f 434/664/84 433/663/84 334/508/84 
f 435/665/4 334/508/4 433/663/4 
f 334/508/4 435/665/4 335/509/4 
f 435/665/85 436/666/85 333/507/85 
f 435/665/85 333/507/85 335/509/85 
f 336/510/37 333/507/37 436/666/37 
f 436/666/37 434/664/37 336/510/37 
f 460/690/86 438/668/86 340/514/86 
f 460/690/86 340/514/86 339/513/86 
f 437/667/41 340/514/41 438/668/41 
f 340/514/41 437/667/41 337/511/41 
f 437/667/87 439/669/87 338/512/87 
f 437/667/87 338/512/87 337/511/87 
f 439/669/40 460/690/40 339/513/40 
f 439/669/40 339/513/40 338/512/40 
f 441/671/88 343/517/88 440/670/88 
f 343/517/88 441/671/88 344/518/88 
f 442/672/131 344/518/58 441/671/58 
f 344/518/58 442/672/131 341/515/131 
f 442/672/132 443/673/89 342/516/89 
f 442/672/132 342/516/89 341/515/113 
f 343/517/95 342/516/95 443/673/95 
f 443/673/95 440/670/95 343/517/95 
f 445/675/133 444/674/134 348/522/134 
f 445/675/133 348/522/134 347/521/135 
f 446/676/6 348/522/6 444/674/6 
f 348/522/6 446/676/6 345/519/6 
f 446/676/91 447/677/91 346/520/91 
f 446/676/91 346/520/91 345/519/91 
f 447/677/41 445/675/41 347/521/41 
f 447/677/41 347/521/41 346/520/41 
f 461/691/34 462/692/34 350/524/34 
f 461/691/34 350/524/34 352/526/34 
f 463/693/1 350/524/1 462/692/1 
f 350/524/1 463/693/1 351/525/1 
f 464/694/36 351/525/36 463/693/36 
f 351/525/36 464/694/36 349/523/36 
f 352/526/16 349/523/16 464/694/16 
f 464/694/16 461/691/16 352/526/16 
f 218/334/17 220/336/17 465/695/136 
f 465/695/136 220/336/17 466/696/136 
f 465/695/136 466/696/136 467/697/137 
f 467/697/137 466/696/136 468/698/137 
f 469/699/138 467/697/137 468/698/137 
f 467/697/137 469/699/138 470/700/139 
f 470/700/139 469/699/138 471/701/140 
f 470/700/139 471/701/140 472/702/141 
f 471/701/140 473/703/142 472/702/141 
f 473/703/142 471/701/140 474/704/142 
f 473/703/142 474/704/142 215/331/17 
f 215/331/17 474/704/142 213/329/17 
f 232/358/17 236/362/17 475/705/143 
f 475/705/143 236/362/17 476/706/144 
f 475/705/143 476/706/144 477/707/145 
f 477/707/145 476/706/144 478/708/145 
f 479/709/146 477/707/145 478/708/145 
f 477/707/145 479/709/146 480/710/147 
f 479/709/146 481/711/148 480/710/147 
f 481/711/148 479/709/146 482/712/149 
f 483/713/150 481/711/148 482/712/149 
f 481/711/148 483/713/150 484/714/150 
f 484/714/150 483/713/150 229/351/17 
f 229/351/17 483/713/150 233/359/17 
f 236/362/17 239/365/17 476/706/151 
f 485/715/151 476/706/151 239/365/17 
f 476/706/151 485/715/151 478/708/152 
f 486/716/152 478/708/152 485/715/151 
f 478/708/152 486/716/152 479/709/153 
f 479/709/153 486/716/152 487/717/153 
f 479/709/153 487/717/153 482/712/154 
f 482/712/154 487/717/153 488/718/154 
f 488/718/154 483/713/155 482/712/154 
f 483/713/155 488/718/154 489/719/156 
f 237/363/17 483/713/155 489/719/156 
f 483/713/155 237/363/17 233/359/17 
f 25/25/1 36/720/1 26/26/1 
f 25/25/1 27/721/1 36/720/1 
f 27/721/1 24/24/1 36/720/1 
f 27/721/1 21/21/1 24/24/1 
f 57/87/1 37/45/1 58/88/1 
f 37/45/1 57/87/1 38/46/1 
f 60/90/1 38/46/1 57/87/1 
f 38/46/1 60/90/1 40/50/1 
f 59/89/1 40/50/1 60/90/1 
f 40/50/1 59/89/1 39/47/1 
f 58/88/1 39/47/1 59/89/1 
f 39/47/1 58/88/1 37/45/1 
f 139/722/17 102/723/17 101/724/17 
f 139/722/17 109/725/17 102/723/17 
f 133/726/17 109/725/17 139/722/17 
f 115/727/17 109/725/17 133/726/17 
f 127/728/17 115/727/17 133/726/17 
f 115/727/17 127/728/17 121/729/17 
f 108/730/94 222/338/94 142/731/94 
f 216/332/94 222/338/94 108/730/94 
f 105/732/17 216/332/94 108/730/94 
f 214/330/17 216/332/94 105/732/17 
f 105/732/17 241/369/17 214/330/17 
f 241/369/17 105/732/17 112/367/17 
f 490/346/157 226/345/17 221/346/17 
f 226/345/17 490/346/157 491/345/158 
f 492/733/159 491/345/158 490/346/157 
f 491/345/158 492/733/159 493/734/159 
f 492/733/159 494/735/160 493/734/159 
f 494/735/160 492/733/159 495/736/160 
f 496/737/161 494/735/160 495/736/160 
f 494/735/160 496/737/161 497/738/161 
f 498/739/162 497/738/161 496/737/161 
f 497/738/161 498/739/162 499/740/162 
f 224/348/17 499/740/162 498/739/162 
f 499/740/162 224/348/17 228/350/17 
f 500/741/163 227/742/17 223/743/17 
f 227/742/17 500/741/163 501/744/164 
f 502/745/165 501/744/164 500/741/163 
f 501/744/164 502/745/165 503/746/166 
f 504/747/16 503/746/166 502/745/165 
f 504/747/16 505/748/119 503/746/166 
f 504/747/16 506/749/167 505/748/119 
f 506/749/167 504/747/16 507/750/168 
f 506/749/167 507/750/168 508/751/169 
f 508/751/169 507/750/168 509/752/169 
f 491/753/170 229/351/17 226/353/17 
f 229/351/17 491/753/170 484/714/171 
f 484/714/171 491/753/170 493/754/172 
f 493/754/172 481/711/173 484/714/171 
f 493/754/172 480/710/174 481/711/173 
f 494/755/174 480/710/174 493/754/172 
f 494/755/174 477/707/175 480/710/174 
f 497/756/176 477/707/175 494/755/174 
f 499/757/177 477/707/175 497/756/176 
f 477/707/175 499/757/177 475/705/177 
f 499/757/177 232/358/17 475/705/177 
f 228/356/17 232/358/17 499/757/177 
f 501/758/178 231/759/17 227/760/17 
f 231/759/17 501/758/178 510/761/179 
f 503/762/180 510/761/179 501/758/178 
f 510/761/179 503/762/180 511/763/181 
f 503/762/180 512/764/41 511/763/181 
f 512/764/41 503/762/180 505/765/41 
f 506/749/182 512/764/41 505/765/41 
f 512/764/41 506/749/182 513/766/183 
f 513/766/183 506/749/182 514/767/184 
f 508/751/184 514/767/184 506/749/182 
f 515/768/185 513/769/186 514/767/185 
f 513/769/186 515/768/185 516/770/186 
f 516/770/186 512/771/4 513/769/186 
f 512/771/4 516/770/186 517/772/4 
f 512/771/4 517/772/4 518/773/187 
f 512/771/4 518/773/187 511/774/187 
f 519/775/188 511/774/187 518/773/187 
f 511/774/187 519/775/188 510/776/189 
f 510/776/189 519/775/188 231/777/17 
f 231/777/17 519/775/188 235/778/17 
f 118/368/96 124/779/96 238/364/96 
f 234/360/96 238/364/96 124/779/96 
f 130/780/93 234/360/96 124/779/96 
f 230/354/93 234/360/96 130/780/93 
f 130/780/93 225/352/93 230/354/93 
f 225/352/93 130/780/93 136/781/93 
f 489/719/190 242/370/17 237/363/17 
f 242/370/17 489/719/190 520/782/191 
f 488/718/192 520/782/191 489/719/190 
f 520/782/191 488/718/192 521/783/192 
f 488/718/192 522/784/193 521/783/192 
f 522/784/193 488/718/192 487/717/193 
f 486/716/194 522/784/193 487/717/193 
f 522/784/193 486/716/194 523/785/194 
f 485/715/195 523/785/194 486/716/194 
f 523/785/194 485/715/195 524/786/195 
f 485/715/195 243/371/17 524/786/195 
f 239/365/17 243/371/17 485/715/195 
f 525/787/196 244/788/17 240/789/17 
f 244/788/17 525/787/196 526/790/197 
f 527/791/198 526/790/197 525/787/196 
f 526/790/197 527/791/198 528/792/198 
f 527/791/198 529/793/31 528/792/198 
f 529/793/31 527/791/198 530/794/97 
f 530/794/97 531/795/199 529/793/31 
f 531/795/199 530/794/97 532/796/200 
f 531/795/199 532/796/200 533/797/201 
f 533/797/201 532/796/200 534/798/201 
f 520/782/202 215/331/17 242/370/17 
f 215/331/17 520/782/202 473/703/202 
f 521/783/203 473/703/202 520/782/202 
f 473/703/202 521/783/203 472/702/204 
f 521/783/203 470/700/205 472/702/204 
f 470/700/205 521/783/203 522/784/206 
f 522/784/206 467/697/207 470/700/205 
f 523/785/208 467/697/207 522/784/206 
f 524/786/209 467/697/207 523/785/208 
f 467/697/207 524/786/209 465/695/209 
f 465/695/209 524/786/209 218/334/17 
f 218/334/17 524/786/209 243/371/17 
f 526/799/210 219/800/17 244/801/17 
f 219/800/17 526/799/210 535/802/210 
f 528/803/211 535/802/210 526/799/210 
f 535/802/210 528/803/211 536/804/212 
f 528/803/211 537/805/25 536/804/212 
f 537/805/25 528/803/211 529/806/25 
f 531/807/213 537/805/25 529/806/25 
f 531/807/213 538/808/214 537/805/25 
f 531/807/213 539/809/215 538/808/214 
f 539/809/215 531/807/213 533/797/216 
f 508/751/15 515/768/15 514/767/15 
f 508/751/15 534/798/15 515/768/15 
f 509/752/15 534/798/15 508/751/15 
f 534/798/15 509/752/15 533/797/15 
f 509/752/15 539/809/15 533/797/15 
f 539/809/15 509/752/15 540/810/15 
f 292/442/4 310/474/4 309/473/4 
f 292/442/4 291/441/4 310/474/4 
f 291/441/4 311/475/4 310/474/4 
f 291/441/4 295/445/4 311/475/4 
f 295/445/4 312/476/4 311/475/4 
f 312/476/4 295/445/4 296/448/4 
f 292/442/4 312/476/4 296/448/4 
f 312/476/4 292/442/4 309/473/4 
f 355/811/1 360/812/1 394/813/1 
f 355/811/1 394/813/1 390/814/1 
f 383/815/1 355/811/1 390/814/1 
f 383/815/1 390/814/1 389/816/1 
f 386/817/1 383/815/1 389/816/1 
f 386/817/1 389/816/1 396/818/1 
f 360/812/1 386/817/1 396/818/1 
f 360/812/1 396/818/1 394/813/1 
f 363/819/37 405/820/37 404/821/37 
f 363/819/37 367/822/37 405/820/37 
f 367/822/37 408/823/37 405/820/37 
f 367/822/37 357/824/37 408/823/37 
f 392/570/1 449/679/1 448/678/1 
f 392/570/1 391/569/1 449/679/1 
f 391/569/1 450/680/1 449/679/1 
f 391/569/1 393/571/1 450/680/1 
f 401/591/37 458/688/37 457/687/37 
f 401/591/37 406/597/37 458/688/37 
f 406/597/37 459/689/37 458/688/37 
f 406/597/37 407/598/37 459/689/37 
f 402/592/37 459/689/37 407/598/37 
f 459/689/37 402/592/37 456/686/37 
f 402/592/37 457/687/37 456/686/37 
f 402/592/37 401/591/37 457/687/37 
f 360/825/15 380/826/15 386/827/15 
f 380/826/15 360/825/15 357/828/15 
f 373/829/15 380/826/15 357/828/15 
f 357/828/15 367/830/15 373/829/15 
f 367/830/15 375/831/15 373/829/15 
f 375/831/15 367/830/15 365/832/15 
f 13/833/217 15/834/217 22/835/217 
f 13/833/217 22/835/217 21/836/218 
f 13/833/217 21/836/218 9/837/15 
f 11/838/15 13/833/217 9/837/15 
f 27/839/17 25/840/17 16/841/17 
f 27/839/17 16/841/17 14/842/17 
f 27/839/17 14/842/17 12/843/17 
f 10/844/17 27/839/17 12/843/17 
f 219/845/17 541/846/219 217/847/17 
f 535/848/219 541/846/219 219/845/17 
f 536/849/220 541/846/219 535/848/219 
f 536/849/220 542/850/221 541/846/219 
f 537/851/222 542/850/221 536/849/220 
f 537/851/222 543/852/222 542/850/221 
f 538/853/223 543/852/222 537/851/222 
f 538/853/223 544/854/224 543/852/222 
f 544/854/224 538/853/223 540/810/225 
f 540/810/225 538/853/223 539/809/225 
f 474/704/226 221/337/17 213/329/17 
f 221/337/17 474/704/226 490/855/227 
f 474/704/226 492/856/228 490/855/227 
f 492/856/228 474/704/226 471/701/228 
f 471/701/228 495/857/229 492/856/228 
f 469/699/229 495/857/229 471/701/228 
f 469/699/229 496/858/230 495/857/229 
f 468/698/230 496/858/230 469/699/229 
f 468/698/230 498/859/231 496/858/230 
f 466/696/231 498/859/231 468/698/230 
f 220/336/17 498/859/231 466/696/231 
f 498/859/231 220/336/17 224/340/17 
f 217/860/17 500/861/232 223/862/17 
f 541/863/232 500/861/232 217/860/17 
f 542/864/233 500/861/232 541/863/232 
f 500/861/232 542/864/233 502/865/233 
f 542/864/233 504/866/26 502/865/233 
f 504/866/26 542/864/233 543/867/6 
f 544/854/234 504/866/26 543/867/6 
f 504/866/26 544/854/234 507/750/234 
f 507/750/234 544/854/234 509/752/235 
f 509/752/235 544/854/234 540/810/235 
f 240/868/17 235/869/17 525/870/236 
f 519/871/236 525/870/236 235/869/17 
f 518/872/237 525/870/236 519/871/236 
f 525/870/236 518/872/237 527/873/238 
f 518/872/237 530/874/40 527/873/238 
f 530/874/40 518/872/237 517/875/76 
f 516/770/239 530/874/40 517/875/76 
f 530/874/40 516/770/239 532/796/240 
f 532/796/240 516/770/239 534/798/241 
f 534/798/241 516/770/239 515/768/241 
f 294/876/4 279/417/4 281/420/4 
f 279/417/4 294/876/4 282/877/4 
f 273/878/4 282/877/4 294/876/4 
f 273/878/4 294/876/4 293/879/4 
f 280/419/4 273/878/4 293/879/4 
f 273/878/4 280/419/4 276/418/4 
f 270/880/218 272/881/218 276/882/218 
f 270/880/218 276/882/218 279/883/217 
f 270/880/218 279/883/217 265/884/242 
f 267/885/218 270/880/218 265/884/242 
f 282/886/17 273/887/17 271/888/17 
f 282/886/17 271/888/17 269/889/17 
f 282/886/17 269/889/17 266/890/17 
f 268/891/17 282/886/17 266/890/17 
f 353/892/37 363/819/37 404/821/37 
f 353/892/37 404/821/37 403/893/37 
f 408/823/37 353/892/37 403/893/37 
f 353/892/37 408/823/37 357/824/37 
f 393/571/1 451/681/1 450/680/1 
f 393/571/1 395/574/1 451/681/1 
f 392/570/1 451/681/1 395/574/1 
f 451/681/1 392/570/1 448/678/1 
f 414/616/4 413/615/4 438/668/4 
f 414/616/4 438/668/4 460/690/4 
f 439/669/4 414/616/4 460/690/4 
f 414/616/4 439/669/4 420/624/4 
f 150/204/1 197/313/1 198/314/1 
f 200/316/1 150/204/1 198/314/1 
f 150/204/1 149/203/1 197/313/1 
f 150/204/1 200/316/1 152/208/1 
f 149/203/1 199/315/1 197/313/1 
f 199/315/1 152/208/1 200/316/1 
f 149/203/1 151/205/1 199/315/1 
f 152/208/1 199/315/1 151/205/1 
f 158/226/37 202/318/37 201/317/37 
f 204/320/37 158/226/37 201/317/37 
f 158/226/37 157/225/37 202/318/37 
f 158/226/37 204/320/37 160/232/37 
f 157/225/37 203/319/37 202/318/37 
f 159/231/37 160/232/37 204/320/37 
f 157/225/37 159/231/37 203/319/37 
f 159/231/37 204/320/37 203/319/37 
f 166/250/4 206/322/4 205/321/4 
f 208/324/4 166/250/4 205/321/4 
f 166/250/4 165/249/4 206/322/4 
f 166/250/4 208/324/4 168/258/4 
f 165/249/4 207/323/4 206/322/4 
f 208/324/4 167/253/4 168/258/4 
f 165/249/4 167/253/4 207/323/4 
f 167/253/4 208/324/4 207/323/4 
f 174/276/16 210/326/16 209/325/16 
f 212/328/16 174/276/16 209/325/16 
f 174/276/16 173/273/16 210/326/16 
f 174/276/16 212/328/16 176/280/16 
f 173/273/16 211/327/16 210/326/16 
f 175/277/16 176/280/16 212/328/16 
f 173/273/16 175/277/16 211/327/16 
f 175/277/16 212/328/16 211/327/16 
f 371/894/4 415/895/4 361/896/4 
f 365/897/4 361/896/4 415/895/4 
f 415/895/4 371/894/4 416/898/4 
f 365/897/4 415/895/4 419/899/4 
f 375/900/4 416/898/4 371/894/4 
f 375/900/4 365/897/4 419/899/4 
f 416/898/4 375/900/4 418/901/4 
f 375/900/4 419/899/4 418/901/4 
f 398/581/25 397/580/25 452/682/25 
f 398/581/25 452/682/25 453/683/25 
f 397/580/25 454/684/25 452/682/25 
f 400/588/25 398/581/25 453/683/25 
f 397/580/25 399/585/25 454/684/25 
f 400/588/25 453/683/25 455/685/25 
f 399/585/25 455/685/25 454/684/25 
f 399/585/25 400/588/25 455/685/25 
f 429/651/6 430/653/6 462/692/6 
f 429/651/6 462/692/6 461/691/6 
f 430/653/6 463/693/6 462/692/6 
f 432/658/6 429/651/6 461/691/6 
f 430/653/6 431/655/6 463/693/6 
f 432/658/6 461/691/6 464/694/6 
f 431/655/6 464/694/6 463/693/6 
f 431/655/6 432/658/6 464/694/6 
# 0 polygons - 1054 triangles

