# 3ds Max Wavefront OBJ Exporter v0.97b - (c)2007 guruware
# File Created: 04.04.2018 17:00:52

mtllib VanityMirrorBroken.mtl

#
# object VanityMirrorBroken
#

v  54.7380 -72.1362 -2.7999
v  54.7380 -72.1362 2.4708
v  -54.7380 -72.1362 2.4708
v  -54.7380 -72.1362 -2.7999
v  -5.1525 51.6868 -2.7999
v  -30.7807 40.8836 -2.7999
v  -52.0590 51.6868 -2.7999
v  -54.7380 40.8836 -2.7999
v  -31.4323 -15.6263 -2.7999
v  -54.7380 -15.6263 -2.7999
v  -31.5755 -42.3651 -2.7999
v  40.2278 -42.8225 -2.7999
v  40.4850 -15.6263 -2.7999
v  54.7380 -15.6263 -2.7999
v  39.6235 29.2416 -2.7999
v  54.7380 40.8836 -2.7999
v  33.3919 40.8836 -2.7999
v  23.3465 47.9454 -2.7999
v  52.0590 51.6868 -2.7999
v  -44.2840 61.4324 -2.7999
v  44.2840 61.4324 -2.7999
v  -32.1742 69.1666 -2.7999
v  32.1742 69.1666 -2.7999
v  -16.9150 74.1323 -2.7999
v  16.9150 74.1323 -2.7999
v  0.0000 75.8433 -2.7999
v  -54.7380 40.8836 2.4708
v  -54.7380 -15.6263 2.4708
v  54.7380 40.8836 2.4708
v  54.7380 -15.6263 2.4708
v  -52.0590 51.6868 2.4708
v  -44.2840 61.4324 2.4708
v  -32.1742 69.1666 2.4708
v  -16.9150 74.1323 2.4708
v  0.0000 75.8433 2.4708
v  16.9150 74.1323 2.4708
v  32.1742 69.1666 2.4708
v  44.2840 61.4324 2.4708
v  52.0590 51.6868 2.4708
v  0.0000 75.8433 -0.8638
v  16.9150 74.1323 -0.8638
v  -16.9150 74.1323 -0.8638
v  32.1742 69.1666 -0.8638
v  -32.1742 69.1666 -0.8638
v  44.2840 61.4324 -0.8638
v  -44.2840 61.4324 -0.8638
v  52.0590 51.6868 -0.8638
v  -52.0590 51.6868 -0.8638
v  54.7380 40.8836 -0.8638
v  -54.7380 40.8836 -0.8638
v  54.7380 -15.6263 -0.8638
v  -54.7380 -15.6263 -0.8638
v  54.7380 -72.1362 -0.8638
v  -54.7380 -72.1362 -0.8638
# 54 vertices

vn 0.4082 -0.8165 -0.4082
vn 0.7071 -0.7071 -0.0000
vn -0.4472 -0.8944 -0.0000
vn -0.5774 -0.5774 -0.5774
vn 0.0000 0.0000 -1.0000
vn -0.9926 0.1212 -0.0000
vn -1.0000 0.0000 -0.0000
vn 0.9926 0.1212 -0.0000
vn 1.0000 0.0000 -0.0000
vn -0.8968 0.4424 -0.0000
vn -0.6690 0.7432 -0.0000
vn -0.4273 0.9041 -0.0000
vn -0.2062 0.9785 -0.0000
vn -0.0000 1.0000 -0.0000
vn 0.0000 1.0000 -0.0000
vn 0.2062 0.9785 -0.0000
vn 0.4273 0.9041 -0.0000
vn 0.6690 0.7432 -0.0000
vn 0.8968 0.4424 -0.0000
# 19 vertex normals

vt 0.9169 0.0345 0.0345
vt 0.9621 0.0345 0.0345
vt 0.9621 0.9738 0.9738
vt 0.9169 0.9738 0.9738
vt 0.4061 0.8306 0.8306
vt 0.5760 0.7590 0.7590
vt 0.7171 0.8306 0.8306
vt 0.7349 0.7590 0.7590
vt 0.5804 0.3844 0.3844
vt 0.7349 0.3844 0.3844
vt 0.5813 0.2071 0.2071
vt 0.7349 0.0098 0.0098
vt 0.1053 0.2041 0.2041
vt 0.0091 0.0098 0.0098
vt 0.1036 0.3844 0.3844
vt 0.0091 0.3844 0.3844
vt 0.1093 0.6818 0.6818
vt 0.0091 0.7590 0.7590
vt 0.1506 0.7590 0.7590
vt 0.2172 0.8058 0.8058
vt 0.0269 0.8306 0.8306
vt 0.6656 0.8952 0.8952
vt 0.0784 0.8952 0.8952
vt 0.5853 0.9465 0.9465
vt 0.1587 0.9465 0.9465
vt 0.4841 0.9794 0.9794
vt 0.2599 0.9794 0.9794
vt 0.3720 0.9907 0.9907
vt 0.8905 0.9835 0.9835
vt 0.8453 0.9835 0.9835
vt 0.8453 0.4986 0.4986
vt 0.8905 0.4986 0.4986
vt 0.8453 0.0137 0.0137
vt 0.8905 0.0137 0.0137
vt 0.7750 0.3063 0.3063
vt 0.7750 0.2108 0.2108
vt 0.8203 0.2108 0.2108
vt 0.8203 0.3063 0.3063
vt 0.7750 0.4133 0.4133
vt 0.8203 0.4133 0.4133
vt 0.7750 0.5365 0.5365
vt 0.8203 0.5365 0.5365
vt 0.7750 0.6742 0.6742
vt 0.8203 0.6742 0.6742
vt 0.7750 0.8201 0.8201
vt 0.8203 0.8201 0.8201
vt 0.7751 0.6742 0.6742
vt 0.7751 0.5365 0.5365
vt 0.7751 0.4132 0.4132
vt 0.8203 0.4132 0.4132
vt 0.7751 0.3062 0.3062
vt 0.8203 0.3062 0.3062
vt 0.7751 0.2107 0.2107
vt 0.8203 0.2107 0.2107
vt 0.3484 0.8164 0.8164
vt 0.2798 0.8094 0.8094
vt 0.4170 0.8094 0.8094
vt 0.2179 0.7893 0.7893
vt 0.4789 0.7893 0.7893
vt 0.1688 0.7579 0.7579
vt 0.5280 0.7579 0.7579
vt 0.1372 0.7184 0.7184
vt 0.5595 0.7184 0.7184
vt 0.1264 0.6746 0.6746
vt 0.5704 0.6746 0.6746
vt 0.1264 0.4454 0.4454
vt 0.5704 0.4454 0.4454
vt 0.1264 0.2162 0.2162
vt 0.5704 0.2162 0.2162
# 69 texture coords

g VanityMirrorBroken
usemtl VanityMirrorBroken
s 1
f 1/1/1 2/2/2 3/3/3 
s 2
f 1/1/1 3/3/3 4/4/4 
s 3
f 5/5/5 6/6/5 7/7/5 
s 4
f 8/8/5 7/7/5 6/6/5 
s 5
f 8/8/5 6/6/5 9/9/5 
s 6
f 8/8/5 9/9/5 10/10/5 
s 7
f 10/10/5 9/9/5 11/11/5 
s 8
f 10/10/5 11/11/5 4/12/4 
s 9
f 4/12/4 11/11/5 12/13/5 
s 10
f 4/12/4 12/13/5 1/14/1 
s 11
f 1/14/1 12/13/5 13/15/5 
s 12
f 1/14/1 13/15/5 14/16/5 
s 13
f 14/16/5 13/15/5 15/17/5 
s 14
f 14/16/5 15/17/5 16/18/5 
s 15
f 16/18/5 15/17/5 17/19/5 
s 16
f 16/18/5 17/19/5 18/20/5 
s 17
f 16/18/5 18/20/5 19/21/5 
s 18
f 5/5/5 19/21/5 18/20/5 
s 19
f 19/21/5 7/7/5 20/22/5 
s 20
f 19/21/5 20/22/5 21/23/5 
s 21
f 21/23/5 20/22/5 22/24/5 
s 22
f 21/23/5 22/24/5 23/25/5 
s 23
f 23/25/5 22/24/5 24/26/5 
s 24
f 23/25/5 24/26/5 25/27/5 
s 25
f 26/28/5 25/27/5 24/26/5 
s 26
f 27/29/6 8/30/6 10/31/7 
s 27
f 27/29/6 10/31/7 28/32/7 
s 28
f 4/33/4 28/32/7 10/31/7 
s 29
f 4/33/4 3/34/3 28/32/7 
s 30
f 16/30/8 29/29/8 30/32/9 
s 31
f 16/30/8 30/32/9 14/31/9 
s 32
f 2/34/2 14/31/9 30/32/9 
s 33
f 2/34/2 1/33/1 14/31/9 
s 34
f 7/35/10 8/36/6 27/37/6 
s 35
f 7/35/10 27/37/6 31/38/10 
s 36
f 20/39/11 7/35/10 31/38/10 
s 37
f 20/39/11 31/38/10 32/40/11 
s 38
f 22/41/12 20/39/11 32/40/11 
s 39
f 22/41/12 32/40/11 33/42/12 
s 40
f 24/43/13 22/41/12 33/42/12 
s 41
f 24/43/13 33/42/12 34/44/13 
s 42
f 26/45/14 24/43/13 34/44/13 
s 43
f 26/45/14 34/44/13 35/46/15 
s 44
f 25/47/16 26/45/14 35/46/15 
s 45
f 25/47/16 35/46/15 36/44/16 
s 46
f 23/48/17 25/47/16 36/44/16 
s 47
f 23/48/17 36/44/16 37/42/17 
s 48
f 21/49/18 23/48/17 37/42/17 
s 49
f 21/49/18 37/42/17 38/50/18 
s 50
f 19/51/19 21/49/18 38/50/18 
s 51
f 19/51/19 38/50/18 39/52/19 
s 52
f 16/53/8 19/51/19 39/52/19 
s 53
f 16/53/8 39/52/19 29/54/8 
usemtl VanityMirrorBackPanel
s 54
f 40/55/5 41/56/5 42/57/5 
s 55
f 43/58/5 42/57/5 41/56/5 
s 56
f 43/58/5 44/59/5 42/57/5 
s 57
f 45/60/5 44/59/5 43/58/5 
s 58
f 45/60/5 46/61/5 44/59/5 
s 59
f 47/62/5 46/61/5 45/60/5 
s 60
f 47/62/5 48/63/5 46/61/5 
s 61
f 49/64/5 48/63/5 47/62/5 
s 62
f 49/64/5 50/65/5 48/63/5 
s 63
f 50/65/5 49/64/5 51/66/5 
s 64
f 50/65/5 51/66/5 52/67/5 
s 65
f 53/68/5 52/67/5 51/66/5 
s 66
f 53/68/5 54/69/5 52/67/5 
# 66 faces

