# 3ds Max Wavefront OBJ Exporter v0.97b - (c)2007 guruware
# File Created: 04.04.2021 15:19:17

mtllib SM_INT_DeskMetal.mtl

#
# object SM_INT_DeskMetal
#

v  1.1246 92.6458 -188.1318
v  1.7501 92.6458 -189.7085
v  3.0392 92.6458 -190.7655
v  4.4498 92.6458 -191.0793
v  4.7503 92.9639 -191.7041
v  2.8484 92.9778 -191.3895
v  91.2172 92.9639 -191.7031
v  91.5177 92.6458 -191.0783
v  92.9283 92.6458 -190.7646
v  93.1191 92.9778 -191.3886
v  94.8429 92.6458 -188.1308
v  94.2175 92.6458 -189.7075
v  94.8429 92.6458 -3.5292
v  1.1246 92.6458 -3.5301
v  2.7683 94.9088 -191.6513
v  2.8483 95.7209 -191.3895
v  4.7506 95.7347 -191.7041
v  4.8832 94.9088 -191.9804
v  91.2170 95.7347 -191.7031
v  4.8832 93.7899 -191.9804
v  2.7683 93.7899 -191.6513
v  91.0843 94.9088 -191.9794
v  93.1992 94.9088 -191.6504
v  93.1192 95.7209 -191.3885
v  91.0843 93.7899 -191.9794
v  93.1992 93.7899 -191.6504
v  1.0790 95.7196 -190.0679
v  1.7489 96.0098 -189.7074
v  3.0388 96.0098 -190.7654
v  0.3179 95.7178 -188.1313
v  1.1246 96.0098 -188.1302
v  0.3180 95.7178 -3.5306
v  4.4505 96.0098 -191.0793
v  91.5170 96.0098 -191.0783
v  92.9288 96.0098 -190.7644
v  94.2186 96.0098 -189.7064
v  94.8429 96.0098 -188.1292
v  1.1246 96.0098 -3.5317
v  1.7489 96.0098 -2.2656
v  1.0790 95.7196 -1.9051
v  4.4506 96.0098 -0.8824
v  94.8429 96.0098 -3.5308
v  95.6496 95.7178 -3.5296
v  95.6496 95.7178 -188.1303
v  94.8885 95.7196 -190.0669
v  3.0388 96.0098 -1.1963
v  2.8483 95.7209 -0.5722
v  4.7506 95.7347 -0.2576
v  91.5170 96.0098 -0.8814
v  94.2187 96.0098 -2.2646
v  94.8886 95.7196 -1.9041
v  92.9288 96.0098 -1.1953
v  93.1193 95.7209 -0.5712
v  91.2170 95.7347 -0.2566
v  0.7994 94.9088 -190.2184
v  0.7994 93.7899 -190.2184
v  1.0794 92.9790 -190.0682
v  0.3179 92.9809 -188.1318
v  0.3180 92.9809 -3.5301
v  1.0794 92.9790 -1.9048
v  1.7501 92.6458 -2.2645
v  2.8484 92.9778 -0.5721
v  3.0393 92.6458 -1.1961
v  -0.0162 93.7899 -188.1318
v  -0.0162 94.9088 -188.1318
v  -0.0162 93.7899 -3.5301
v  0.7994 93.7899 -1.7546
v  -0.0162 94.9088 -3.5301
v  0.7994 94.9088 -1.7546
v  2.7684 93.7899 -0.3103
v  2.7684 94.9088 -0.3103
v  95.1682 94.9088 -190.2174
v  95.1682 93.7899 -190.2174
v  94.8882 92.9790 -190.0672
v  95.6496 92.9809 -188.1308
v  95.6496 92.9809 -3.5292
v  94.8882 92.9790 -1.9038
v  94.2175 92.6458 -2.2636
v  93.1191 92.9778 -0.5712
v  92.9283 92.6458 -1.1952
v  95.9837 93.7899 -188.1308
v  95.9837 94.9088 -188.1308
v  95.9837 93.7899 -3.5292
v  95.1682 93.7899 -1.7536
v  95.9837 94.9088 -3.5292
v  95.1682 94.9088 -1.7536
v  93.1992 93.7899 -0.3094
v  93.1992 94.9088 -0.3094
v  4.8832 94.9088 0.0187
v  4.8832 93.7899 0.0187
v  91.0843 94.9088 0.0197
v  91.0843 93.7899 0.0197
v  91.2172 92.9639 -0.2566
v  4.7503 92.9639 -0.2576
v  4.4498 92.6458 -0.8824
v  91.5178 92.6458 -0.8814
v  92.7976 75.2930 -159.4747
v  92.7976 74.6928 -159.4747
v  94.9459 74.6928 -159.4747
v  94.9459 75.2930 -159.4747
v  95.4270 74.3926 -159.5350
v  95.3332 74.3926 -159.8057
v  95.0503 74.3926 -159.9478
v  92.7976 74.3926 -159.9478
v  95.9836 74.6928 -159.6296
v  95.6751 74.6928 -160.0692
v  95.1650 74.6928 -160.3616
v  92.7976 74.6928 -160.3616
v  95.4270 74.3926 -148.3050
v  95.9836 74.6928 -148.2395
v  95.3332 74.3926 -148.0820
v  95.6882 74.6928 -147.8079
v  95.0503 74.3926 -147.9212
v  95.1650 74.6928 -147.5116
v  92.7976 74.6928 -147.5116
v  92.7976 74.3926 -147.9212
v  95.9836 75.2930 -159.6296
v  95.6751 75.2930 -160.0692
v  95.1650 75.2930 -160.3616
v  92.7976 75.2930 -160.3616
v  95.0503 75.5932 -159.9478
v  95.3332 75.5932 -159.8057
v  95.4270 75.5932 -159.5350
v  95.9836 75.2930 -148.2395
v  95.4270 75.5932 -148.3050
v  95.6882 75.2930 -147.8079
v  95.3332 75.5932 -148.0820
v  95.1650 75.2930 -147.5116
v  95.0503 75.5932 -147.9212
v  92.7976 75.5932 -147.9212
v  92.7976 75.2930 -147.5116
v  92.7976 75.5932 -159.9478
v  94.9459 75.2930 -148.3537
v  94.9459 74.6928 -148.3537
v  92.7976 74.6928 -148.3537
v  92.7976 75.2930 -148.3537
v  92.7976 29.0258 -159.4747
v  92.7976 28.4255 -159.4747
v  94.9459 28.4255 -159.4747
v  94.9459 29.0258 -159.4747
v  95.4270 28.1254 -159.5350
v  95.3332 28.1254 -159.8057
v  95.0503 28.1254 -159.9478
v  92.7976 28.1254 -159.9478
v  95.9836 28.4255 -159.6296
v  95.6751 28.4255 -160.0692
v  95.1650 28.4255 -160.3616
v  92.7976 28.4255 -160.3616
v  95.4270 28.1254 -148.3050
v  95.9836 28.4255 -148.2395
v  95.3332 28.1254 -148.0820
v  95.6882 28.4255 -147.8079
v  95.0503 28.1254 -147.9212
v  95.1651 28.4255 -147.5116
v  92.7976 28.4255 -147.5116
v  92.7976 28.1254 -147.9212
v  95.9836 29.0258 -159.6296
v  95.6751 29.0258 -160.0692
v  95.1650 29.0258 -160.3616
v  92.7976 29.0258 -160.3616
v  95.0503 29.3259 -159.9478
v  95.3332 29.3259 -159.8057
v  95.4270 29.3259 -159.5350
v  95.9836 29.0258 -148.2395
v  95.4270 29.3259 -148.3050
v  95.6882 29.0258 -147.8079
v  95.3332 29.3259 -148.0820
v  95.1651 29.0258 -147.5116
v  95.0503 29.3259 -147.9212
v  92.7976 29.3259 -147.9212
v  92.7976 29.0258 -147.5116
v  92.7976 29.3259 -159.9478
v  94.9459 29.0258 -148.3537
v  94.9459 28.4255 -148.3537
v  92.7976 28.4255 -148.3537
v  92.7976 29.0258 -148.3537
v  92.2728 91.3258 -132.9031
v  92.2728 91.3258 -174.9579
v  92.2728 92.6458 -174.9579
v  92.2728 92.6458 -132.9031
v  89.7205 13.2602 -130.6507
v  91.8978 13.2602 -131.0161
v  91.8978 40.2506 -131.0161
v  89.7206 40.2506 -130.6507
v  6.0811 13.2602 -130.6507
v  91.8978 63.3663 -131.0161
v  6.0811 92.6458 -130.6507
v  89.7205 63.3663 -130.6507
v  91.8978 87.1249 -131.0161
v  89.7205 87.1249 -130.6507
v  89.7205 92.6458 -130.6507
v  91.8978 92.6458 -131.0161
v  92.7976 13.2602 -132.4461
v  92.7976 40.2506 -132.4461
v  92.7976 63.3663 -132.4461
v  92.7976 87.1249 -132.4461
v  92.7976 92.6458 -132.4461
v  92.2728 13.2602 -132.9031
v  92.2728 17.2523 -132.9031
v  92.2729 40.3732 -132.8309
v  92.2729 63.4342 -132.8309
v  92.2728 86.3727 -132.9031
v  92.2728 87.3295 -132.9031
v  89.7205 13.2602 -177.2103
v  92.2728 13.2602 -174.9579
v  92.7976 13.2602 -175.4149
v  91.8978 13.2602 -176.8449
v  6.0811 13.2602 -177.2103
v  3.5288 13.2602 -130.6507
v  3.5288 13.2602 -61.3101
v  6.0811 13.2602 -61.3101
v  3.5289 13.2602 -16.7627
v  6.0811 13.2602 -14.7504
v  89.7206 13.2602 -14.7504
v  89.7206 13.2602 -61.3101
v  4.8050 13.2602 -15.0200
v  3.8708 13.2602 -15.7565
v  3.5288 13.2602 -175.1980
v  3.8708 13.2602 -176.2042
v  4.8050 13.2602 -176.9407
v  92.2729 13.2602 -17.0028
v  92.7976 13.2602 -16.5458
v  91.8978 13.2602 -15.1159
v  92.2728 13.2602 -59.0577
v  92.7976 13.2602 -59.5146
v  91.8978 13.2602 -60.9446
v  92.7976 63.9385 -174.4362
v  92.7976 85.9305 -174.4362
v  92.7976 85.9305 -133.4249
v  92.7976 63.9385 -133.4249
v  92.7976 17.7229 -174.4362
v  92.7976 39.6760 -174.4362
v  92.7976 39.6760 -133.4249
v  92.7976 17.7229 -133.4249
v  92.2728 17.2523 -174.9579
v  92.2728 63.4342 -174.8857
v  92.2728 86.3727 -174.9579
v  92.2728 40.3732 -174.8857
v  92.2728 87.3295 -174.9579
v  93.0794 87.3295 -133.0550
v  93.0794 91.3258 -133.0550
v  93.8894 91.0016 -133.3079
v  93.8894 87.6537 -133.3079
v  93.0794 87.3295 -174.8060
v  93.8894 87.6537 -174.5532
v  93.0794 91.3258 -174.8060
v  93.8894 91.0016 -174.5532
v  91.8978 40.2506 -176.8449
v  89.7205 40.2506 -177.2103
v  91.8978 63.3663 -176.8449
v  6.0811 92.6458 -177.2103
v  89.7205 63.3663 -177.2103
v  91.8978 87.1249 -176.8449
v  89.7205 87.1249 -177.2103
v  91.8978 92.6458 -176.8449
v  89.7205 92.6458 -177.2103
v  4.8050 92.6458 -176.9407
v  3.8708 92.6458 -176.2042
v  92.7976 40.2506 -175.4149
v  92.7976 63.3663 -175.4149
v  92.7976 87.1249 -175.4149
v  92.7976 92.6458 -175.4149
v  3.5288 92.6458 -175.1980
v  3.5288 92.6458 -16.7627
v  3.8708 92.6458 -15.7565
v  92.2729 91.3258 -17.0028
v  92.2728 91.3258 -59.0577
v  92.2728 92.6458 -59.0577
v  92.2729 92.6458 -17.0028
v  91.8978 40.2506 -15.1159
v  89.7206 40.2506 -14.7504
v  91.8978 63.3663 -15.1159
v  6.0811 92.6458 -14.7504
v  89.7206 63.3663 -14.7504
v  91.8978 87.1249 -15.1159
v  89.7206 87.1249 -14.7504
v  91.8978 92.6458 -15.1159
v  89.7206 92.6458 -14.7504
v  4.8050 92.6458 -15.0200
v  92.7976 40.2506 -16.5458
v  92.7976 63.3663 -16.5458
v  92.7976 87.1249 -16.5458
v  92.7976 92.6458 -16.5458
v  92.2729 17.1977 -17.0028
v  92.2729 40.2001 -17.0028
v  92.2729 63.3663 -17.0028
v  92.2729 86.3727 -17.0028
v  92.2729 87.3295 -17.0028
v  92.2728 17.1977 -59.0577
v  92.7976 40.8652 -58.5359
v  92.7976 62.7257 -58.5359
v  92.7976 62.7257 -17.5246
v  92.7976 40.8652 -17.5246
v  92.2728 40.2001 -59.0577
v  92.2728 63.3663 -59.0577
v  92.2728 86.3727 -59.0577
v  92.2728 87.3295 -59.0577
v  93.0794 87.3295 -17.1547
v  93.0794 91.3258 -17.1547
v  93.8894 91.0016 -17.4076
v  93.8894 87.6537 -17.4076
v  93.0794 87.3295 -58.9057
v  93.8894 87.6537 -58.6529
v  93.0794 91.3258 -58.9057
v  93.8894 91.0016 -58.6529
v  91.8978 40.2506 -60.9446
v  89.7206 40.2506 -61.3101
v  91.8978 63.3663 -60.9446
v  6.0811 92.6458 -61.3101
v  89.7206 63.3663 -61.3101
v  91.8978 87.1249 -60.9446
v  89.7206 87.1249 -61.3101
v  89.7206 92.6458 -61.3101
v  91.8978 92.6458 -60.9446
v  92.7976 40.2506 -59.5146
v  92.7976 63.3663 -59.5146
v  92.7976 87.1249 -59.5146
v  92.7976 92.6458 -59.5146
v  92.7976 52.0723 -43.5744
v  92.7976 51.4720 -43.5744
v  94.9459 51.4720 -43.5744
v  94.9459 52.0723 -43.5744
v  95.4270 51.1719 -43.6347
v  95.3332 51.1719 -43.9055
v  95.0503 51.1719 -44.0475
v  92.7976 51.1719 -44.0475
v  95.9836 51.4720 -43.7293
v  95.6751 51.4720 -44.1689
v  95.1651 51.4720 -44.4613
v  92.7976 51.4720 -44.4613
v  95.4270 51.1719 -32.4047
v  95.9836 51.4720 -32.3392
v  95.3332 51.1719 -32.1818
v  95.6882 51.4720 -31.9076
v  95.0503 51.1719 -32.0210
v  95.1651 51.4720 -31.6113
v  92.7976 51.4720 -31.6113
v  92.7976 51.1719 -32.0210
v  95.9836 52.0723 -43.7293
v  95.6751 52.0723 -44.1689
v  95.1651 52.0723 -44.4613
v  92.7976 52.0723 -44.4613
v  95.0503 52.3724 -44.0475
v  95.3332 52.3724 -43.9055
v  95.4270 52.3724 -43.6347
v  95.9836 52.0723 -32.3392
v  95.4270 52.3724 -32.4047
v  95.6882 52.0723 -31.9076
v  95.3332 52.3724 -32.1818
v  95.1651 52.0723 -31.6113
v  95.0503 52.3724 -32.0210
v  92.7976 52.3724 -32.0210
v  92.7976 52.0723 -31.6113
v  92.7976 52.3724 -44.0475
v  94.9459 52.0723 -32.4534
v  94.9459 51.4720 -32.4535
v  92.7976 51.4720 -32.4535
v  92.7976 52.0723 -32.4534
v  91.2534 91.4780 -61.4441
v  90.6088 91.4780 -61.4441
v  90.6088 82.4601 -61.4441
v  91.2534 82.4601 -61.4441
v  91.2533 91.4780 -129.9624
v  90.6088 91.4780 -129.9624
v  90.6088 86.6150 -128.8373
v  90.6088 86.6150 -62.5692
v  90.6088 85.2668 -62.5692
v  19.8215 86.6150 -62.5691
v  19.8215 85.2668 -62.5691
v  19.8215 86.6150 -128.8373
v  90.6088 85.2668 -128.8373
v  90.6088 82.4601 -129.9624
v  91.2534 82.4601 -129.9624
v  19.8215 85.2668 -128.8373
v  91.8978 90.8317 -61.9522
v  91.8978 83.1064 -61.9522
v  91.8978 83.1064 -129.4543
v  91.8978 90.8317 -129.4543
v  93.1464 89.0803 -95.0836
v  93.1464 89.0803 -96.1689
v  92.4315 89.1516 -96.2074
v  92.4316 89.1516 -95.0451
v  93.1464 88.0758 -94.5410
v  92.4316 88.0758 -94.4640
v  93.1464 87.0713 -95.0836
v  92.4316 87.0000 -95.0451
v  93.1464 87.0713 -96.1689
v  92.4315 87.0000 -96.2074
v  93.1464 88.0758 -96.7115
v  92.4315 88.0758 -96.7885
v  91.8978 88.8019 -96.0185
v  91.8978 88.8019 -95.2340
v  91.8978 88.0758 -94.8417
v  91.8978 87.3496 -95.2340
v  91.8978 87.3496 -96.0185
v  91.8978 88.0758 -96.4108
v  8.2403 13.2602 -32.4861
v  8.2403 0.0097 -33.4799
v  87.5614 0.0097 -33.4799
v  87.5614 13.2602 -32.4861
v  89.5452 13.2602 -34.6467
v  89.5452 0.0097 -35.1465
v  89.5452 0.0097 -41.1080
v  89.5452 13.2602 -41.6078
v  87.5614 13.2602 -43.7684
v  87.5614 0.0097 -42.7746
v  8.2403 0.0097 -42.7745
v  8.2403 13.2602 -43.7684
v  6.2565 13.2602 -41.6078
v  6.2565 0.0097 -41.1080
v  6.2565 0.0097 -35.1465
v  6.2565 13.2602 -34.6467
v  8.2403 13.2602 -148.5124
v  8.2403 0.0097 -149.5062
v  87.5614 0.0097 -149.5063
v  87.5614 13.2602 -148.5125
v  89.5452 13.2602 -150.6730
v  89.5452 0.0097 -151.1728
v  89.5452 0.0097 -157.1343
v  89.5452 13.2602 -157.6341
v  87.5614 13.2602 -159.7947
v  87.5614 0.0097 -158.8009
v  8.2403 0.0097 -158.8009
v  8.2403 13.2602 -159.7947
v  6.2565 13.2602 -157.6341
v  6.2565 0.0097 -157.1343
v  6.2565 0.0097 -151.1728
v  6.2565 13.2602 -150.6730
v  20.0754 63.3663 -17.0028
v  20.0754 86.3727 -17.0028
v  20.0754 63.3663 -59.0577
v  20.0754 86.3727 -59.0577
v  20.0754 17.1431 -17.0028
v  20.0754 40.1495 -17.0028
v  20.0754 17.1431 -59.0577
v  20.0754 40.1495 -59.0577
v  20.0754 40.4957 -132.7586
v  20.0754 63.5021 -132.7586
v  20.0754 40.4957 -174.8135
v  20.0754 63.5021 -174.8135
v  93.5937 88.6530 -95.3144
v  93.5937 88.6530 -95.9380
v  93.5937 88.0758 -96.2499
v  93.7718 88.0758 -95.6262
v  93.5937 88.0758 -95.0026
v  93.5937 87.4986 -95.3144
v  93.5937 87.4986 -95.9380
# 447 vertices

vn -0.1948 -0.9800 -0.0417
vn -0.2199 -0.9604 -0.1713
vn -0.1724 -0.9444 -0.2801
vn -0.0392 -0.9638 -0.2637
vn -0.0338 -0.8862 -0.4621
vn -0.1876 -0.8927 -0.4097
vn 0.0338 -0.8862 -0.4621
vn 0.0392 -0.9638 -0.2637
vn 0.1724 -0.9444 -0.2801
vn 0.1876 -0.8927 -0.4097
vn 0.1948 -0.9800 -0.0417
vn 0.2199 -0.9604 -0.1712
vn 0.1287 -0.9911 0.0336
vn -0.1287 -0.9911 0.0336
vn -0.3791 0.1558 -0.9121
vn -0.3682 0.3214 -0.8725
vn -0.0830 0.3076 -0.9479
vn -0.0722 0.1543 -0.9854
vn 0.0830 0.3076 -0.9479
vn -0.0739 -0.1555 -0.9851
vn -0.3791 -0.1592 -0.9116
vn 0.0722 0.1543 -0.9854
vn 0.3791 0.1558 -0.9121
vn 0.3681 0.3215 -0.8724
vn 0.0739 -0.1555 -0.9851
vn 0.3791 -0.1592 -0.9116
vn 0.3694 -0.3147 -0.8744
vn 0.0880 -0.3032 -0.9488
vn -0.0880 -0.3032 -0.9488
vn -0.3694 -0.3146 -0.8744
vn -0.2963 0.9316 -0.2103
vn -0.1889 0.9663 -0.1750
vn -0.1451 0.9584 -0.2456
vn -0.1711 0.9111 -0.3751
vn -0.3393 0.9389 -0.0581
vn -0.1923 0.9805 -0.0417
vn -0.3375 0.9388 0.0682
vn -0.0286 0.9732 -0.2282
vn -0.0264 0.9102 -0.4134
vn 0.0286 0.9732 -0.2282
vn 0.0264 0.9102 -0.4134
vn 0.1711 0.9111 -0.3751
vn 0.1451 0.9584 -0.2456
vn 0.1890 0.9663 -0.1750
vn 0.1923 0.9805 -0.0417
vn -0.1962 0.9791 0.0538
vn -0.1847 0.9667 0.1772
vn -0.2914 0.9312 0.2191
vn -0.0286 0.9732 0.2282
vn 0.1962 0.9791 0.0538
vn 0.3375 0.9389 0.0682
vn 0.3393 0.9389 -0.0581
vn 0.2963 0.9316 -0.2103
vn -0.1459 0.9584 0.2453
vn -0.1719 0.9110 0.3748
vn -0.0264 0.9102 0.4134
vn 0.0286 0.9732 0.2282
vn 0.1847 0.9667 0.1772
vn 0.2914 0.9312 0.2191
vn 0.1459 0.9584 0.2453
vn 0.1719 0.9110 0.3748
vn 0.0264 0.9102 0.4134
vn -0.5846 0.1570 -0.7960
vn -0.5641 0.3346 -0.7549
vn -0.5809 -0.1598 -0.7982
vn -0.5582 -0.3266 -0.7628
vn -0.3270 -0.9143 -0.2389
vn -0.3828 -0.9215 -0.0652
vn -0.3826 -0.9209 0.0753
vn -0.3219 -0.9126 0.2522
vn -0.2149 -0.9598 0.1805
vn -0.1886 -0.8927 0.4092
vn -0.1737 -0.9442 0.2798
vn -0.9157 -0.1814 -0.3586
vn -0.8674 -0.3626 -0.3408
vn -0.9090 -0.3759 -0.1800
vn -0.9659 -0.1877 -0.1784
vn -0.9029 -0.3752 0.2098
vn -0.9658 0.1879 -0.1786
vn -0.9159 0.1817 -0.3580
vn -0.9608 -0.1863 0.2053
vn -0.7650 -0.1768 0.6193
vn -0.7159 -0.3545 0.6014
vn -0.9604 0.1871 0.2062
vn -0.9091 0.3755 -0.1805
vn -0.8682 0.3616 -0.3397
vn -0.9031 0.3732 0.2125
vn -0.7204 0.3568 0.5947
vn -0.7670 0.1762 0.6170
vn -0.3809 -0.1592 0.9108
vn -0.3713 -0.3145 0.8736
vn -0.3809 0.1557 0.9114
vn -0.3698 0.3215 0.8717
vn 0.5641 0.3347 -0.7548
vn 0.5846 0.1570 -0.7960
vn 0.5809 -0.1598 -0.7981
vn 0.5582 -0.3266 -0.7627
vn 0.3270 -0.9143 -0.2389
vn 0.3828 -0.9215 -0.0652
vn 0.3825 -0.9209 0.0753
vn 0.3219 -0.9126 0.2522
vn 0.2149 -0.9598 0.1805
vn 0.1886 -0.8927 0.4092
vn 0.1737 -0.9442 0.2798
vn 0.9090 -0.3759 -0.1800
vn 0.8674 -0.3626 -0.3407
vn 0.9157 -0.1814 -0.3585
vn 0.9659 -0.1877 -0.1784
vn 0.9029 -0.3751 0.2098
vn 0.9658 0.1879 -0.1786
vn 0.9159 0.1818 -0.3580
vn 0.9608 -0.1863 0.2052
vn 0.7650 -0.1768 0.6193
vn 0.7159 -0.3545 0.6014
vn 0.9605 0.1871 0.2062
vn 0.9091 0.3755 -0.1805
vn 0.8682 0.3616 -0.3397
vn 0.9031 0.3731 0.2125
vn 0.7204 0.3568 0.5947
vn 0.7670 0.1762 0.6170
vn 0.3808 -0.1592 0.9108
vn 0.3713 -0.3146 0.8736
vn 0.3809 0.1557 0.9114
vn 0.3698 0.3214 0.8718
vn -0.0830 0.3076 0.9479
vn -0.0722 0.1543 0.9854
vn 0.0830 0.3076 0.9479
vn -0.0739 -0.1555 0.9851
vn 0.0722 0.1543 0.9854
vn 0.0739 -0.1555 0.9851
vn 0.0880 -0.3032 0.9488
vn -0.0880 -0.3032 0.9488
vn -0.0338 -0.8862 0.4621
vn -0.0392 -0.9638 0.2637
vn 0.0338 -0.8862 0.4621
vn 0.0392 -0.9638 0.2637
vn 0.0000 0.0000 1.0000
vn -0.5194 -0.8500 0.0879
vn -0.3173 -0.8967 0.3086
vn -0.3825 -0.8615 0.3338
vn -0.1218 -0.8500 0.5125
vn 0.0000 -0.8444 0.5358
vn 0.4738 -0.8718 -0.1246
vn 0.4630 -0.8829 -0.0779
vn 0.3705 -0.8382 -0.4002
vn 0.3892 -0.8206 -0.4185
vn 0.1433 -0.8146 -0.5620
vn 0.1481 -0.8196 -0.5535
vn 0.0000 -0.8094 -0.5872
vn 0.4639 -0.8808 0.0948
vn 0.4717 -0.8730 0.1240
vn 0.3746 -0.8427 0.3866
vn 0.3866 -0.8279 0.4064
vn 0.1467 -0.8171 0.5575
vn 0.1479 -0.8170 0.5574
vn 0.0000 -0.8066 0.5911
vn 0.8186 0.0000 -0.5744
vn 0.6741 0.0000 -0.7387
vn 0.2573 0.0000 -0.9663
vn 0.0000 0.0000 -1.0000
vn 0.1450 0.8158 -0.5598
vn 0.1314 0.8194 -0.5580
vn 0.4261 0.8256 -0.3700
vn 0.3907 0.8363 -0.3847
vn 0.4861 0.8653 -0.1224
vn 0.4527 0.8816 -0.1338
vn 0.4588 0.8790 0.1298
vn 0.4815 0.8670 0.1283
vn 0.3831 0.8396 0.3851
vn 0.4111 0.8300 0.3771
vn 0.1480 0.8171 0.5572
vn 0.1470 0.8170 0.5576
vn 0.0000 0.8066 0.5911
vn 0.0000 0.8094 -0.5872
vn -0.3173 0.8967 0.3086
vn -0.5194 0.8500 0.0879
vn -0.3825 0.8615 0.3338
vn -0.1218 0.8500 0.5125
vn 0.0000 0.8444 0.5358
vn -1.0000 0.0000 -0.0000
vn -0.3211 -0.8851 -0.3369
vn -0.5186 -0.8484 -0.1062
vn -0.4076 -0.8432 -0.3506
vn -0.1435 -0.8289 -0.5407
vn 0.0000 -0.8215 -0.5702
vn 1.0000 0.0000 -0.0000
vn 0.6765 0.0000 0.7365
vn 0.8252 0.0000 0.5648
vn 0.2548 0.0000 0.9670
vn -0.5186 0.8484 -0.1062
vn -0.3211 0.8851 -0.3369
vn -0.4076 0.8432 -0.3506
vn -0.1435 0.8289 -0.5407
vn 0.0000 0.8215 -0.5702
vn -0.5193 -0.8501 0.0879
vn -0.3172 -0.8968 0.3085
vn -0.3824 -0.8616 0.3337
vn -0.1218 -0.8501 0.5124
vn 0.0000 -0.8444 0.5357
vn 0.4737 -0.8718 -0.1245
vn 0.4629 -0.8830 -0.0779
vn 0.3704 -0.8382 -0.4002
vn 0.3891 -0.8207 -0.4184
vn 0.1433 -0.8147 -0.5619
vn 0.1480 -0.8197 -0.5534
vn 0.0000 -0.8095 -0.5871
vn 0.4638 -0.8809 0.0948
vn 0.4716 -0.8731 0.1239
vn 0.3745 -0.8428 0.3865
vn 0.3865 -0.8280 0.4062
vn 0.1466 -0.8172 0.5574
vn 0.1479 -0.8171 0.5572
vn 0.0000 -0.8067 0.5910
vn 0.1450 0.8159 -0.5597
vn 0.1314 0.8195 -0.5579
vn 0.4260 0.8256 -0.3699
vn 0.3906 0.8363 -0.3846
vn 0.4860 0.8654 -0.1223
vn 0.4526 0.8816 -0.1337
vn 0.4587 0.8791 0.1297
vn 0.4814 0.8671 0.1283
vn 0.3830 0.8397 0.3850
vn 0.4110 0.8301 0.3770
vn 0.1480 0.8172 0.5570
vn 0.1470 0.8171 0.5575
vn 0.0000 0.8067 0.5910
vn 0.0000 0.8095 -0.5871
vn -0.3172 0.8968 0.3085
vn -0.5193 0.8501 0.0879
vn -0.3824 0.8616 0.3337
vn -0.1218 0.8501 0.5124
vn 0.0000 0.8444 0.5356
vn -0.3210 -0.8852 -0.3368
vn -0.5185 -0.8485 -0.1062
vn -0.4075 -0.8433 -0.3505
vn -0.1435 -0.8290 -0.5406
vn 0.0000 -0.8216 -0.5701
vn 0.6765 0.0000 0.7364
vn -0.5185 0.8485 -0.1062
vn -0.3210 0.8852 -0.3368
vn -0.4075 0.8433 -0.3505
vn -0.1435 0.8290 -0.5406
vn 0.0000 0.8216 -0.5701
vn 0.0830 -0.0000 0.9965
vn 0.1655 0.0000 0.9862
vn 0.1655 -0.0000 0.9862
vn 0.0830 0.0000 0.9965
vn 0.8464 0.0000 0.5326
vn 0.6567 0.0002 -0.7542
vn 0.6567 0.0000 -0.7541
vn 0.6662 0.0022 -0.7458
vn 0.3110 0.0000 -0.9504
vn 0.5914 0.0000 -0.8064
vn 0.3110 -0.0000 -0.9504
vn 0.6566 -0.0005 -0.7542
vn 0.6582 -0.0018 -0.7529
vn 0.0000 -1.0000 -0.0000
vn 0.7479 0.0021 0.6638
vn 0.7051 0.0000 0.7091
vn 0.7066 0.0001 0.7076
vn 0.7486 0.0021 0.6630
vn 0.6929 -0.7211 -0.0000
vn 0.6930 -0.7210 -0.0000
vn 0.6444 0.7647 -0.0000
vn 0.7068 -0.0022 0.7074
vn 0.7495 0.0000 0.6620
vn 0.7479 -0.0001 0.6639
vn 0.7061 -0.0022 0.7081
vn 0.6676 -0.7445 -0.0000
vn 0.7990 0.6014 -0.0000
vn 0.7990 0.6013 -0.0000
vn 0.1851 0.0000 0.9827
vn 0.2345 0.0000 0.9721
vn 0.2980 0.0000 0.9546
vn 0.1601 -0.9871 -0.0000
vn 0.3716 -0.9284 -0.0000
vn 0.1601 0.9871 -0.0000
vn 0.0000 1.0000 -0.0000
vn 0.1600 0.9871 -0.0000
vn 0.3716 0.9284 -0.0000
vn 0.1655 0.0000 -0.9862
vn 0.0830 0.0000 -0.9965
vn -0.1039 0.0000 -0.9946
vn -0.4240 0.0000 -0.9056
vn -0.6191 0.0000 -0.7853
vn 0.8464 0.0000 -0.5326
vn 0.6567 -0.0002 0.7541
vn 0.6469 -0.0023 0.7626
vn 0.6567 0.0000 0.7541
vn 0.3848 -0.0000 0.9230
vn 0.7101 0.0000 0.7041
vn 0.3847 0.0000 0.9230
vn 0.6568 0.0005 0.7541
vn 0.6552 0.0018 0.7554
vn -0.9468 0.0000 -0.3218
vn -0.9866 0.0000 -0.1631
vn -0.9866 -0.0000 0.1631
vn -1.0000 -0.0000 0.0000
vn -0.9866 -0.0000 0.1630
vn -0.9468 -0.0000 0.3218
vn -0.9468 0.0000 0.3217
vn 0.6527 -0.0024 -0.7577
vn 0.6518 -0.0024 -0.7584
vn 0.7035 -0.0001 -0.7107
vn 0.7050 0.0000 -0.7092
vn 0.7033 0.0022 -0.7109
vn 0.7040 0.0022 -0.7102
vn 0.6528 0.0001 -0.7575
vn 0.6505 0.0000 -0.7595
vn 0.2345 0.0000 -0.9721
vn 0.1851 0.0000 -0.9827
vn 0.2979 0.0000 -0.9546
vn 0.0831 0.0000 0.9965
vn 0.1656 0.0000 0.9862
vn -0.1039 0.0000 0.9946
vn -0.4240 0.0000 0.9056
vn -0.6191 0.0000 0.7853
vn 0.6568 0.0000 -0.7541
vn 0.7068 0.7074 -0.0000
vn 0.7850 -0.6194 -0.0000
vn 0.7851 -0.6194 -0.0000
vn 0.7736 0.6337 -0.0000
vn 0.1656 0.0000 -0.9862
vn 0.0831 0.0000 -0.9965
vn 0.6566 0.0000 0.7542
vn 0.7051 0.0000 -0.7091
vn 0.1852 0.0000 -0.9827
vn -0.5193 -0.8501 0.0878
vn -0.1217 -0.8501 0.5124
vn 0.0000 -0.8444 0.5356
vn 0.3704 -0.8382 -0.4003
vn 0.1481 -0.8197 -0.5534
vn 0.4638 -0.8809 0.0949
vn 0.1466 -0.8173 0.5573
vn 0.1479 -0.8172 0.5571
vn 0.0000 -0.8067 0.5909
vn 0.6741 0.0000 -0.7386
vn 0.2574 0.0000 -0.9663
vn 0.1313 0.8195 -0.5579
vn 0.3907 0.8363 -0.3846
vn 0.4860 0.8653 -0.1223
vn 0.3829 0.8397 0.3850
vn 0.4109 0.8301 0.3769
vn 0.1479 0.8173 0.5570
vn 0.1469 0.8172 0.5574
vn 0.0000 0.8067 0.5909
vn -0.5193 0.8501 0.0878
vn -0.1217 0.8501 0.5124
vn 0.0000 0.0002 -1.0000
vn -0.3210 0.8852 -0.3369
vn -0.4076 0.8432 -0.3505
vn -0.1435 0.8289 -0.5406
vn 0.7082 -0.7061 -0.0000
vn 0.6192 0.0000 0.7853
vn 0.7081 0.7061 -0.0000
vn 0.6191 0.0000 -0.7853
vn 0.6192 0.0000 -0.7853
vn 0.0993 0.9951 -0.0000
vn 0.0992 0.9951 -0.0000
vn 0.0944 0.4731 0.8759
vn 0.0944 -0.4731 0.8759
vn 0.0992 -0.9951 -0.0000
vn 0.0993 -0.9951 -0.0000
vn 0.0943 -0.4731 -0.8759
vn 0.0944 -0.4731 -0.8759
vn 0.0944 0.4731 -0.8759
vn 0.0943 0.4731 -0.8759
vn -0.5480 0.8365 0.0000
vn -0.5480 0.8365 -0.0000
vn -0.5480 0.8364 0.0000
vn -0.5286 0.4035 0.7469
vn -0.5285 0.4035 0.7469
vn -0.5286 0.4034 0.7469
vn -0.5285 -0.4035 0.7469
vn -0.5286 -0.4035 0.7469
vn -0.5479 -0.8365 0.0000
vn -0.5480 -0.8365 -0.0000
vn -0.5286 -0.4034 -0.7469
vn -0.5286 -0.4035 -0.7469
vn -0.5286 0.4034 -0.7469
vn -0.5287 0.4035 -0.7468
vn -0.5286 0.4035 -0.7468
vn -0.3947 -0.0568 0.9171
vn -0.3416 -0.0703 0.9372
vn 0.3556 -0.0566 0.9329
vn 0.3945 -0.0687 0.9163
vn 0.9256 -0.0264 0.3776
vn 0.9102 -0.0156 0.4139
vn 0.9136 -0.0285 -0.4056
vn 0.9288 -0.0140 -0.3704
vn 0.3877 -0.0572 -0.9200
vn 0.3468 -0.0701 -0.9353
vn -0.3556 -0.0566 -0.9329
vn -0.3945 -0.0687 -0.9163
vn -0.9256 -0.0264 -0.3776
vn -0.9102 -0.0156 -0.4139
vn -0.9136 -0.0285 0.4056
vn -0.9288 -0.0140 0.3704
vn -0.0008 1.0000 0.0000
vn -0.0008 1.0000 -0.0000
vn 0.0007 -1.0000 -0.0000
vn -0.0010 0.0000 -1.0000
vn 0.0017 1.0000 -0.0000
vn -0.0009 -1.0000 0.0000
vn -0.0009 -1.0000 -0.0000
vn 0.0010 0.0000 1.0000
vn 0.8412 0.4613 0.2822
vn 0.8412 0.4613 -0.2822
vn 0.7354 0.5846 -0.3427
vn 0.7353 0.5847 0.3427
vn 0.7182 0.0000 -0.6959
vn 0.8333 0.0000 -0.5529
vn 1.0000 -0.0000 0.0000
vn 0.8332 -0.0000 0.5529
vn 0.7181 -0.0000 0.6959
vn 0.8412 -0.4613 0.2822
vn 0.8412 -0.4613 -0.2821
vn 0.7354 -0.5846 -0.3427
vn 0.7353 -0.5847 0.3427
# 419 vertex normals

vt 0.5229 0.9798 0.9798
vt 0.5190 0.9782 0.9782
vt 0.5161 0.9750 0.9750
vt 0.5156 0.9714 0.9714
vt 0.5137 0.9707 0.9707
vt 0.5142 0.9754 0.9754
vt 0.5137 0.7538 0.7538
vt 0.5156 0.7529 0.7529
vt 0.5161 0.7495 0.7495
vt 0.5142 0.7490 0.7490
vt 0.5229 0.7446 0.7446
vt 0.5190 0.7463 0.7463
vt 0.9863 0.7446 0.7446
vt 0.9863 0.9798 0.9798
vt 0.5093 0.9757 0.9757
vt 0.5068 0.9754 0.9754
vt 0.5073 0.9706 0.9706
vt 0.5093 0.9703 0.9703
vt 0.5073 0.7538 0.7538
vt 0.5117 0.9703 0.9703
vt 0.5117 0.9757 0.9757
vt 0.5093 0.7540 0.7540
vt 0.5093 0.7488 0.7488
vt 0.5068 0.7490 0.7490
vt 0.5117 0.7540 0.7540
vt 0.5117 0.7488 0.7488
vt 0.5044 0.9809 0.9809
vt 0.5049 0.9790 0.9790
vt 0.5093 0.9791 0.9791
vt 0.5098 0.9809 0.9809
vt 0.4990 0.9817 0.9817
vt 0.5029 0.9783 0.9783
vt 0.4990 0.9798 0.9798
vt 0.0361 0.9817 0.9817
vt 0.5049 0.9749 0.9749
vt 0.5059 0.9714 0.9714
vt 0.5059 0.7531 0.7531
vt 0.5049 0.7495 0.7495
vt 0.5029 0.7463 0.7463
vt 0.4990 0.7446 0.7446
vt 0.0361 0.9798 0.9798
vt 0.0329 0.9783 0.9783
vt 0.0314 0.9809 0.9809
vt 0.0299 0.9714 0.9714
vt 0.0361 0.7446 0.7446
vt 0.0361 0.7429 0.7429
vt 0.4990 0.7429 0.7429
vt 0.5044 0.7434 0.7434
vt 0.5098 0.7437 0.7437
vt 0.5093 0.7454 0.7454
vt 0.5049 0.7456 0.7456
vt 0.0306 0.9749 0.9749
vt 0.0289 0.9754 0.9754
vt 0.0285 0.9706 0.9706
vt 0.0299 0.7531 0.7531
vt 0.0329 0.7461 0.7461
vt 0.0313 0.7434 0.7434
vt 0.0306 0.7495 0.7495
vt 0.0289 0.7490 0.7490
vt 0.0285 0.7538 0.7538
vt 0.0258 0.9809 0.9809
vt 0.0264 0.9791 0.9791
vt 0.0306 0.9790 0.9790
vt 0.0306 0.7456 0.7456
vt 0.0264 0.7454 0.7454
vt 0.0258 0.7434 0.7434
vt 0.5044 0.9832 0.9832
vt 0.5103 0.9832 0.9832
vt 0.5103 0.9863 0.9863
vt 0.5044 0.9863 0.9863
vt 0.5044 0.9886 0.9886
vt 0.5098 0.9886 0.9886
vt 0.5093 0.9904 0.9904
vt 0.5049 0.9906 0.9906
vt 0.4993 0.9903 0.9903
vt 0.4990 0.9882 0.9882
vt 0.5034 0.9910 0.9910
vt 0.0358 0.9903 0.9903
vt 0.0360 0.9882 0.9882
vt 0.0313 0.9886 0.9886
vt 0.0323 0.9910 0.9910
vt 0.0306 0.9906 0.9906
vt 0.0258 0.9886 0.9886
vt 0.0264 0.9904 0.9904
vt 0.5039 0.9888 0.9888
vt 0.4990 0.9862 0.9862
vt 0.4990 0.9836 0.9836
vt 0.0361 0.9862 0.9862
vt 0.0315 0.9863 0.9863
vt 0.0361 0.9836 0.9836
vt 0.5039 0.9805 0.9805
vt 0.0315 0.9832 0.9832
vt 0.0255 0.9863 0.9863
vt 0.0255 0.9832 0.9832
vt 0.5044 0.7412 0.7412
vt 0.5103 0.7412 0.7412
vt 0.5103 0.7383 0.7383
vt 0.5044 0.7380 0.7380
vt 0.5044 0.7358 0.7358
vt 0.5098 0.7358 0.7358
vt 0.5049 0.7339 0.7339
vt 0.5093 0.7341 0.7341
vt 0.4990 0.7363 0.7363
vt 0.4993 0.7341 0.7341
vt 0.5034 0.7336 0.7336
vt 0.0358 0.7341 0.7341
vt 0.0360 0.7363 0.7363
vt 0.0313 0.7358 0.7358
vt 0.0323 0.7334 0.7334
vt 0.0258 0.7358 0.7358
vt 0.0306 0.7339 0.7339
vt 0.0264 0.7341 0.7341
vt 0.5039 0.7356 0.7356
vt 0.4990 0.7383 0.7383
vt 0.4990 0.7410 0.7410
vt 0.0361 0.7383 0.7383
vt 0.0315 0.7380 0.7380
vt 0.0361 0.7410 0.7410
vt 0.5039 0.7441 0.7441
vt 0.0315 0.7412 0.7412
vt 0.0255 0.7383 0.7383
vt 0.0255 0.7412 0.7412
vt 0.0266 0.9757 0.9757
vt 0.0264 0.9703 0.9703
vt 0.0238 0.9703 0.9703
vt 0.0236 0.9757 0.9757
vt 0.0264 0.7540 0.7540
vt 0.0266 0.7488 0.7488
vt 0.0238 0.7540 0.7540
vt 0.0236 0.7488 0.7488
vt 0.0213 0.7490 0.7490
vt 0.0217 0.7538 0.7538
vt 0.0217 0.9707 0.9707
vt 0.0213 0.9754 0.9754
vt 0.0194 0.9750 0.9750
vt 0.0201 0.9714 0.9714
vt 0.0135 0.9798 0.9798
vt 0.0166 0.9782 0.9782
vt 0.0201 0.7529 0.7529
vt 0.0135 0.7446 0.7446
vt 0.0166 0.7463 0.7463
vt 0.0194 0.7495 0.7495
vt 0.8857 0.3086 0.3086
vt 0.8926 0.3086 0.3086
vt 0.8926 0.3335 0.3335
vt 0.8857 0.3335 0.3335
vt 0.8975 0.3447 0.3447
vt 0.8921 0.3408 0.3408
vt 0.8989 0.3418 0.3418
vt 0.8984 0.3379 0.3379
vt 0.8989 0.3086 0.3086
vt 0.8989 0.3345 0.3345
vt 0.9048 0.3486 0.3486
vt 0.9048 0.3428 0.3428
vt 0.9048 0.3359 0.3359
vt 0.9048 0.3086 0.3086
vt 0.8994 0.4692 0.4692
vt 0.8994 0.3501 0.3501
vt 0.9048 0.4688 0.4688
vt 0.8989 0.4761 0.4761
vt 0.8979 0.4731 0.4731
vt 0.9048 0.4751 0.4751
vt 0.8984 0.4800 0.4800
vt 0.9048 0.4819 0.4819
vt 0.9053 0.5056 0.5056
vt 0.9004 0.4829 0.4829
vt 0.9004 0.5056 0.5056
vt 0.9116 0.3486 0.3486
vt 0.9116 0.3428 0.3428
vt 0.9116 0.3359 0.3359
vt 0.9116 0.3086 0.3086
vt 0.9180 0.3379 0.3379
vt 0.9175 0.3418 0.3418
vt 0.9189 0.3447 0.3447
vt 0.9170 0.3501 0.3501
vt 0.9116 0.4688 0.4688
vt 0.9170 0.4692 0.4692
vt 0.9185 0.4731 0.4731
vt 0.9116 0.4751 0.4751
vt 0.9175 0.4761 0.4761
vt 0.9116 0.4819 0.4819
vt 0.9180 0.4800 0.4800
vt 0.9160 0.4829 0.4829
vt 0.9160 0.5056 0.5056
vt 0.9111 0.5056 0.5056
vt 0.9170 0.3345 0.3345
vt 0.9180 0.3091 0.3091
vt 0.9243 0.3408 0.3408
vt 0.9243 0.3091 0.3091
vt 0.9243 0.3335 0.3335
vt 0.9229 0.4692 0.4692
vt 0.9229 0.3506 0.3506
vt 0.9282 0.3506 0.3506
vt 0.9282 0.4658 0.4658
vt 0.8896 0.4844 0.4844
vt 0.8955 0.4844 0.4844
vt 0.8955 0.5056 0.5056
vt 0.8896 0.5056 0.5056
vt 0.8936 0.4692 0.4692
vt 0.8936 0.3506 0.3506
vt 0.8926 0.4775 0.4775
vt 0.9238 0.4771 0.4771
vt 0.9214 0.4844 0.4844
vt 0.9214 0.5056 0.5056
vt 0.8804 0.0859 0.0859
vt 0.8872 0.0859 0.0859
vt 0.8872 0.1104 0.1104
vt 0.8799 0.1104 0.1104
vt 0.8921 0.1221 0.1221
vt 0.8862 0.1182 0.1182
vt 0.8936 0.1187 0.1187
vt 0.8926 0.1152 0.1152
vt 0.8936 0.0859 0.0859
vt 0.8936 0.1118 0.1118
vt 0.8989 0.1260 0.1260
vt 0.8989 0.1196 0.1196
vt 0.8989 0.1128 0.1128
vt 0.8989 0.0859 0.0859
vt 0.8936 0.2466 0.2466
vt 0.8936 0.1270 0.1270
vt 0.8989 0.2461 0.2461
vt 0.8931 0.2529 0.2529
vt 0.8921 0.2505 0.2505
vt 0.8989 0.2520 0.2520
vt 0.8926 0.2568 0.2568
vt 0.8989 0.2593 0.2593
vt 0.8994 0.2827 0.2827
vt 0.8950 0.2603 0.2603
vt 0.8950 0.2827 0.2827
vt 0.9058 0.1260 0.1260
vt 0.9058 0.1196 0.1196
vt 0.9063 0.1128 0.1128
vt 0.9063 0.0859 0.0859
vt 0.9126 0.1152 0.1152
vt 0.9116 0.1187 0.1187
vt 0.9131 0.1221 0.1221
vt 0.9111 0.1270 0.1270
vt 0.9058 0.2461 0.2461
vt 0.9111 0.2466 0.2466
vt 0.9126 0.2505 0.2505
vt 0.9058 0.2520 0.2520
vt 0.9116 0.2529 0.2529
vt 0.9058 0.2593 0.2593
vt 0.9126 0.2568 0.2568
vt 0.9102 0.2603 0.2603
vt 0.9102 0.2827 0.2827
vt 0.9053 0.2827 0.2827
vt 0.9116 0.1118 0.1118
vt 0.9121 0.0859 0.0859
vt 0.9185 0.1182 0.1182
vt 0.9185 0.0859 0.0859
vt 0.9185 0.1108 0.1108
vt 0.9170 0.2461 0.2461
vt 0.9170 0.1279 0.1279
vt 0.9224 0.1274 0.1274
vt 0.9224 0.2432 0.2432
vt 0.8838 0.2612 0.2612
vt 0.8896 0.2612 0.2612
vt 0.8896 0.2827 0.2827
vt 0.8838 0.2827 0.2827
vt 0.8877 0.2466 0.2466
vt 0.8882 0.1279 0.1279
vt 0.8867 0.2544 0.2544
vt 0.9185 0.2544 0.2544
vt 0.9155 0.2612 0.2612
vt 0.9155 0.2827 0.2827
vt 0.6362 0.5039 0.5039
vt 0.7412 0.5039 0.5039
vt 0.7412 0.5073 0.5073
vt 0.6362 0.5073 0.5073
vt 0.6094 0.3071 0.3071
vt 0.6147 0.3071 0.3071
vt 0.6147 0.3745 0.3745
vt 0.6094 0.3745 0.3745
vt 0.4004 0.3071 0.3071
vt 0.6147 0.4321 0.4321
vt 0.4004 0.5051 0.5051
vt 0.6094 0.4321 0.4321
vt 0.6147 0.4917 0.4917
vt 0.6094 0.4917 0.4917
vt 0.6094 0.5051 0.5051
vt 0.6147 0.5051 0.5051
vt 0.6191 0.3071 0.3071
vt 0.6191 0.3745 0.3745
vt 0.6191 0.4321 0.4321
vt 0.6191 0.4917 0.4917
vt 0.6191 0.5051 0.5051
vt 0.6343 0.3022 0.3022
vt 0.6362 0.3022 0.3022
vt 0.6362 0.3125 0.3125
vt 0.6362 0.3696 0.3696
vt 0.6343 0.3696 0.3696
vt 0.6362 0.4272 0.4272
vt 0.6343 0.4272 0.4272
vt 0.6343 0.4868 0.4868
vt 0.6362 0.4849 0.4849
vt 0.6362 0.4873 0.4873
vt 0.1229 0.0674 0.0674
vt 0.1265 0.0698 0.0698
vt 0.1273 0.0752 0.0752
vt 0.1216 0.0688 0.0688
vt 0.0110 0.0752 0.0752
vt 0.0166 0.0688 0.0688
vt 0.0154 0.0674 0.0674
vt 0.0119 0.0698 0.0698
vt 0.0110 0.2842 0.2842
vt 0.1273 0.2842 0.2842
vt 0.1273 0.2905 0.2905
vt 0.3005 0.2905 0.2905
vt 0.3005 0.2842 0.2842
vt 0.4119 0.2905 0.2905
vt 0.4170 0.2842 0.2842
vt 0.4170 0.0752 0.0752
vt 0.3005 0.0752 0.0752
vt 0.4163 0.2876 0.2876
vt 0.4146 0.2896 0.2896
vt 0.0160 0.2905 0.2905
vt 0.0135 0.2896 0.2896
vt 0.0116 0.2876 0.2876
vt 0.4114 0.0688 0.0688
vt 0.4126 0.0674 0.0674
vt 0.4160 0.0698 0.0698
vt 0.3064 0.0688 0.0688
vt 0.3052 0.0674 0.0674
vt 0.3015 0.0698 0.0698
vt 0.7397 0.4292 0.4292
vt 0.7397 0.4839 0.4839
vt 0.6377 0.4839 0.4839
vt 0.6377 0.4292 0.4292
vt 0.7397 0.3135 0.3135
vt 0.7397 0.3682 0.3682
vt 0.6377 0.3682 0.3682
vt 0.6377 0.3135 0.3135
vt 0.7412 0.3022 0.3022
vt 0.7412 0.3125 0.3125
vt 0.7412 0.4272 0.4272
vt 0.7412 0.4849 0.4849
vt 0.7412 0.3696 0.3696
vt 0.7412 0.4873 0.4873
vt 0.6333 0.5007 0.5007
vt 0.6333 0.4907 0.4907
vt 0.6353 0.4907 0.4907
vt 0.6353 0.5007 0.5007
vt 0.6372 0.5000 0.5000
vt 0.6372 0.4917 0.4917
vt 0.6367 0.4893 0.4893
vt 0.7407 0.4893 0.4893
vt 0.7402 0.4917 0.4917
vt 0.7407 0.5020 0.5020
vt 0.6367 0.5020 0.5020
vt 0.7402 0.5000 0.5000
vt 0.6313 0.5039 0.5039
vt 0.6313 0.4902 0.4902
vt 0.6348 0.5073 0.5073
vt 0.0150 0.5889 0.5889
vt 0.0150 0.5215 0.5215
vt 0.0205 0.5215 0.5215
vt 0.0205 0.5889 0.5889
vt 0.0150 0.6467 0.6467
vt 0.2291 0.5215 0.5215
vt 0.2291 0.7197 0.7197
vt 0.0205 0.6467 0.6467
vt 0.0150 0.7058 0.7058
vt 0.0205 0.7058 0.7058
vt 0.0150 0.7197 0.7197
vt 0.0205 0.7197 0.7197
vt 0.2323 0.5215 0.5215
vt 0.2323 0.7197 0.7197
vt 0.2352 0.5215 0.5215
vt 0.2352 0.7197 0.7197
vt 0.0108 0.5889 0.5889
vt 0.0108 0.5215 0.5215
vt 0.0108 0.6467 0.6467
vt 0.0108 0.7058 0.7058
vt 0.0108 0.7197 0.7197
vt 0.7427 0.3022 0.3022
vt 0.7427 0.3696 0.3696
vt 0.7427 0.4272 0.4272
vt 0.7427 0.4868 0.4868
vt 0.2378 0.5215 0.5215
vt 0.2378 0.7197 0.7197
vt 0.3489 0.5215 0.5215
vt 0.6328 0.7197 0.7197
vt 0.5220 0.5215 0.5215
vt 0.6328 0.5215 0.5215
vt 0.6357 0.7197 0.7197
vt 0.6357 0.5215 0.5215
vt 0.7422 0.4907 0.4907
vt 0.7441 0.4907 0.4907
vt 0.7441 0.5007 0.5007
vt 0.7422 0.5007 0.5007
vt 0.7461 0.4902 0.4902
vt 0.7461 0.5039 0.5039
vt 0.7427 0.5073 0.5073
vt 0.7642 0.5034 0.5034
vt 0.8687 0.5034 0.5034
vt 0.8687 0.5068 0.5068
vt 0.7642 0.5068 0.5068
vt 0.8506 0.5215 0.5215
vt 0.8560 0.5215 0.5215
vt 0.8560 0.5889 0.5889
vt 0.8506 0.5889 0.5889
vt 0.6416 0.5215 0.5215
vt 0.8560 0.6467 0.6467
vt 0.6416 0.7197 0.7197
vt 0.8506 0.6467 0.6467
vt 0.8560 0.7058 0.7058
vt 0.8506 0.7058 0.7058
vt 0.8560 0.7197 0.7197
vt 0.8506 0.7197 0.7197
vt 0.6387 0.5215 0.5215
vt 0.6387 0.7197 0.7197
vt 0.8599 0.5215 0.5215
vt 0.8599 0.5889 0.5889
vt 0.8599 0.6467 0.6467
vt 0.8599 0.7058 0.7058
vt 0.8599 0.7197 0.7197
vt 0.7622 0.3018 0.3018
vt 0.7642 0.3018 0.3018
vt 0.7642 0.3120 0.3120
vt 0.7642 0.3691 0.3691
vt 0.7622 0.3691 0.3691
vt 0.7642 0.4272 0.4272
vt 0.7622 0.4272 0.4272
vt 0.7622 0.4863 0.4863
vt 0.7642 0.4844 0.4844
vt 0.7642 0.4868 0.4868
vt 0.8687 0.3018 0.3018
vt 0.8691 0.3120 0.3120
vt 0.8677 0.3711 0.3711
vt 0.8677 0.4253 0.4253
vt 0.7656 0.4253 0.4253
vt 0.7656 0.3711 0.3711
vt 0.8691 0.3691 0.3691
vt 0.8691 0.4272 0.4272
vt 0.8691 0.4844 0.4844
vt 0.8687 0.4868 0.4868
vt 0.7607 0.5000 0.5000
vt 0.7607 0.4902 0.4902
vt 0.7632 0.4902 0.4902
vt 0.7632 0.5000 0.5000
vt 0.7651 0.4995 0.4995
vt 0.7651 0.4912 0.4912
vt 0.7646 0.4888 0.4888
vt 0.8687 0.4888 0.4888
vt 0.8677 0.4912 0.4912
vt 0.8687 0.5015 0.5015
vt 0.7646 0.5015 0.5015
vt 0.8677 0.4995 0.4995
vt 0.7593 0.5034 0.5034
vt 0.7593 0.4897 0.4897
vt 0.7622 0.5068 0.5068
vt 0.0130 0.3745 0.3745
vt 0.0130 0.3071 0.3071
vt 0.0185 0.3071 0.3071
vt 0.0185 0.3745 0.3745
vt 0.0130 0.4321 0.4321
vt 0.2273 0.3071 0.3071
vt 0.2273 0.5051 0.5051
vt 0.0185 0.4321 0.4321
vt 0.0130 0.4917 0.4917
vt 0.0185 0.4917 0.4917
vt 0.0185 0.5051 0.5051
vt 0.0130 0.5051 0.5051
vt 0.0087 0.3745 0.3745
vt 0.0087 0.3071 0.3071
vt 0.0087 0.4321 0.4321
vt 0.0087 0.4917 0.4917
vt 0.0087 0.5051 0.5051
vt 0.8706 0.3018 0.3018
vt 0.8706 0.3691 0.3691
vt 0.8706 0.4272 0.4272
vt 0.8706 0.4863 0.4863
vt 0.8701 0.4902 0.4902
vt 0.8721 0.4902 0.4902
vt 0.8721 0.5000 0.5000
vt 0.8701 0.5000 0.5000
vt 0.8735 0.4897 0.4897
vt 0.8735 0.5034 0.5034
vt 0.8706 0.5068 0.5068
vt 0.9443 0.5298 0.5298
vt 0.9512 0.5298 0.5298
vt 0.9512 0.5544 0.5544
vt 0.9443 0.5544 0.5544
vt 0.9561 0.5659 0.5659
vt 0.9507 0.5620 0.5620
vt 0.9575 0.5627 0.5627
vt 0.9565 0.5588 0.5588
vt 0.9575 0.5298 0.5298
vt 0.9575 0.5554 0.5554
vt 0.9634 0.5698 0.5698
vt 0.9634 0.5637 0.5637
vt 0.9629 0.5569 0.5569
vt 0.9634 0.5298 0.5298
vt 0.9575 0.6902 0.6902
vt 0.9580 0.5708 0.5708
vt 0.9634 0.6899 0.6899
vt 0.9575 0.6970 0.6970
vt 0.9561 0.6943 0.6943
vt 0.9634 0.6960 0.6960
vt 0.9565 0.7009 0.7009
vt 0.9634 0.7031 0.7031
vt 0.9639 0.7268 0.7268
vt 0.9590 0.7041 0.7041
vt 0.9590 0.7268 0.7268
vt 0.9697 0.5698 0.5698
vt 0.9697 0.5637 0.5637
vt 0.9702 0.5566 0.5566
vt 0.9702 0.5298 0.5298
vt 0.9766 0.5588 0.5588
vt 0.9756 0.5627 0.5627
vt 0.9771 0.5659 0.5659
vt 0.9756 0.5708 0.5708
vt 0.9697 0.6899 0.6899
vt 0.9756 0.6902 0.6902
vt 0.9771 0.6943 0.6943
vt 0.9697 0.6960 0.6960
vt 0.9761 0.6970 0.6970
vt 0.9697 0.7031 0.7031
vt 0.9766 0.7009 0.7009
vt 0.9741 0.7041 0.7041
vt 0.9741 0.7268 0.7268
vt 0.9692 0.7268 0.7268
vt 0.9756 0.5557 0.5557
vt 0.9761 0.5298 0.5298
vt 0.9829 0.5618 0.5618
vt 0.9829 0.5298 0.5298
vt 0.9824 0.5547 0.5547
vt 0.9810 0.6899 0.6899
vt 0.9814 0.5718 0.5718
vt 0.9868 0.5715 0.5715
vt 0.9868 0.6870 0.6870
vt 0.9482 0.7053 0.7053
vt 0.9541 0.7053 0.7053
vt 0.9541 0.7268 0.7268
vt 0.9482 0.7268 0.7268
vt 0.9521 0.6904 0.6904
vt 0.9521 0.5718 0.5718
vt 0.9507 0.6982 0.6982
vt 0.9824 0.6982 0.6982
vt 0.9795 0.7053 0.7053
vt 0.9795 0.7268 0.7268
vt 0.6553 0.2817 0.2817
vt 0.6553 0.2837 0.2837
vt 0.6309 0.2837 0.2837
vt 0.6309 0.2817 0.2817
vt 0.6553 0.0972 0.0972
vt 0.6567 0.0977 0.0977
vt 0.6567 0.2817 0.2817
vt 0.6699 0.1006 0.1006
vt 0.6699 0.2788 0.2788
vt 0.6421 0.2866 0.2866
vt 0.6387 0.2866 0.2866
vt 0.8604 0.2788 0.2788
vt 0.8604 0.2822 0.2822
vt 0.6699 0.2822 0.2822
vt 0.8604 0.1006 0.1006
vt 0.6216 0.1006 0.1006
vt 0.6294 0.0977 0.0977
vt 0.6294 0.2817 0.2817
vt 0.6216 0.2788 0.2788
vt 0.6309 0.0972 0.0972
vt 0.6309 0.0957 0.0957
vt 0.6553 0.0957 0.0957
vt 0.6387 0.0928 0.0928
vt 0.6421 0.0928 0.0928
vt 0.6699 0.0967 0.0967
vt 0.8604 0.0967 0.0967
vt 0.4314 0.2788 0.2788
vt 0.4314 0.1006 0.1006
vt 0.6533 0.2803 0.2803
vt 0.6328 0.2803 0.2803
vt 0.6328 0.0986 0.0986
vt 0.6533 0.0986 0.0986
vt 0.1586 0.2271 0.2271
vt 0.1586 0.2017 0.2017
vt 0.1787 0.2017 0.2017
vt 0.1787 0.2261 0.2261
vt 0.1586 0.2554 0.2554
vt 0.1787 0.2573 0.2573
vt 0.1586 0.1182 0.1182
vt 0.1586 0.0869 0.0869
vt 0.1787 0.0869 0.0869
vt 0.1787 0.1182 0.1182
vt 0.1586 0.1416 0.1416
vt 0.1787 0.1421 0.1421
vt 0.1586 0.1719 0.1719
vt 0.1787 0.1719 0.1719
vt 0.1963 0.2007 0.2007
vt 0.1963 0.2212 0.2212
vt 0.1963 0.2510 0.2510
vt 0.1963 0.0913 0.0913
vt 0.1963 0.1177 0.1177
vt 0.1963 0.1440 0.1440
vt 0.1963 0.1714 0.1714
vt 0.5005 0.0454 0.0454
vt 0.5005 0.0127 0.0127
vt 0.6963 0.0127 0.0127
vt 0.6958 0.0454 0.0454
vt 0.7026 0.0449 0.0449
vt 0.7031 0.0122 0.0122
vt 0.7183 0.0122 0.0122
vt 0.7192 0.0449 0.0449
vt 0.7256 0.0454 0.0454
vt 0.7251 0.0127 0.0127
vt 0.9209 0.0127 0.0127
vt 0.9204 0.0454 0.0454
vt 0.9272 0.0454 0.0454
vt 0.9277 0.0127 0.0127
vt 0.9424 0.0122 0.0122
vt 0.9438 0.0449 0.0449
vt 0.9512 0.0449 0.0449
vt 0.9487 0.0122 0.0122
vt 0.0162 0.0449 0.0449
vt 0.0162 0.0122 0.0122
vt 0.2123 0.0122 0.0122
vt 0.2117 0.0449 0.0449
vt 0.2183 0.0449 0.0449
vt 0.2190 0.0122 0.0122
vt 0.2339 0.0122 0.0122
vt 0.2347 0.0449 0.0449
vt 0.2412 0.0449 0.0449
vt 0.2406 0.0122 0.0122
vt 0.4368 0.0122 0.0122
vt 0.4363 0.0449 0.0449
vt 0.4429 0.0449 0.0449
vt 0.4434 0.0122 0.0122
vt 0.4583 0.0122 0.0122
vt 0.4595 0.0449 0.0449
vt 0.4668 0.0449 0.0449
vt 0.4646 0.0122 0.0122
vt 0.6406 0.0630 0.0630
vt 0.6406 0.0776 0.0776
vt 0.6357 0.0820 0.0820
vt 0.6357 0.0591 0.0591
vt 0.4402 0.0591 0.0591
vt 0.4402 0.0820 0.0820
vt 0.4353 0.0776 0.0776
vt 0.4353 0.0630 0.0630
vt 0.8638 0.0635 0.0635
vt 0.8638 0.0781 0.0781
vt 0.8589 0.0825 0.0825
vt 0.8589 0.0596 0.0596
vt 0.6631 0.0596 0.0596
vt 0.6631 0.0825 0.0825
vt 0.6582 0.0781 0.0781
vt 0.6582 0.0635 0.0635
vt 0.4065 0.5259 0.5259
vt 0.4526 0.5259 0.5259
vt 0.4526 0.6707 0.6707
vt 0.4065 0.6707 0.6707
vt 0.5371 0.5259 0.5259
vt 0.5371 0.6707 0.6707
vt 0.3223 0.5259 0.5259
vt 0.3223 0.6707 0.6707
vt 0.5830 0.5259 0.5259
vt 0.5830 0.6707 0.6707
vt 0.5371 0.7168 0.7168
vt 0.4526 0.7168 0.7168
vt 0.2334 0.1997 0.1997
vt 0.2472 0.1997 0.1997
vt 0.2549 0.2148 0.2148
vt 0.2256 0.2148 0.2148
vt 0.2698 0.1841 0.1841
vt 0.2542 0.1841 0.1841
vt 0.2402 0.1841 0.1841
vt 0.2263 0.1841 0.1841
vt 0.2107 0.1841 0.1841
vt 0.2334 0.1685 0.1685
vt 0.2472 0.1685 0.1685
vt 0.2549 0.1533 0.1533
vt 0.2256 0.1533 0.1533
# 672 texture coords

o SM_INT_DeskMetal
g SM_INT_DeskMetal
usemtl MI_Desk_Metal_Dirty
s 1
f 1/1/1 2/2/2 3/3/3 
f 1/1/1 3/3/3 4/4/4 
f 4/4/4 3/3/3 5/5/5 
f 3/3/3 6/6/6 5/5/5 
f 4/4/4 5/5/5 7/7/7 
f 4/4/4 7/7/7 8/8/8 
f 4/4/4 8/8/8 1/1/1 
f 8/8/8 7/7/7 9/9/9 
f 7/7/7 10/10/10 9/9/9 
f 8/8/8 9/9/9 11/11/11 
f 8/8/8 11/11/11 1/1/1 
f 9/9/9 12/12/12 11/11/11 
f 1/1/1 11/11/11 13/13/13 
f 1/1/1 13/13/13 14/14/14 
f 15/15/15 16/16/16 17/17/17 
f 15/15/15 17/17/17 18/18/18 
f 18/18/18 17/17/17 19/19/19 
f 15/15/15 18/18/18 20/20/20 
f 15/15/15 20/20/20 21/21/21 
f 20/20/20 18/18/18 22/22/22 
f 22/22/22 18/18/18 19/19/19 
f 22/22/22 19/19/19 23/23/23 
f 19/19/19 24/24/24 23/23/23 
f 22/22/22 23/23/23 25/25/25 
f 22/22/22 25/25/25 20/20/20 
f 23/23/23 26/26/26 25/25/25 
f 25/25/25 26/26/26 10/10/27 
f 25/25/25 10/10/27 7/7/28 
f 25/25/25 7/7/28 5/5/29 
f 25/25/25 5/5/29 20/20/20 
f 20/20/20 5/5/29 6/6/30 
f 20/20/20 6/6/30 21/21/21 
f 27/27/31 28/28/32 29/29/33 
f 27/27/31 29/29/33 16/30/34 
f 27/27/31 30/31/35 28/32/32 
f 30/31/35 31/33/36 28/32/32 
f 31/33/36 30/31/35 32/34/37 
f 28/32/32 31/33/36 29/35/33 
f 31/33/36 33/36/38 29/35/33 
f 29/35/33 33/36/38 16/16/34 
f 33/36/38 17/17/39 16/16/34 
f 17/17/39 33/36/38 34/37/40 
f 34/37/40 33/36/38 31/33/36 
f 17/17/39 34/37/40 19/19/41 
f 19/19/41 34/37/40 24/24/42 
f 34/37/40 35/38/43 24/24/42 
f 35/38/43 34/37/40 36/39/44 
f 34/37/40 37/40/45 36/39/44 
f 37/40/45 34/37/40 31/33/36 
f 37/40/45 31/33/36 38/41/46 
f 38/41/46 31/33/36 32/34/37 
f 38/41/46 32/34/37 39/42/47 
f 32/34/37 40/43/48 39/42/47 
f 38/41/46 39/42/47 41/44/49 
f 38/41/46 41/44/49 42/45/50 
f 38/41/46 42/45/50 37/40/45 
f 37/40/45 42/45/50 43/46/51 
f 37/40/45 43/46/51 44/47/52 
f 37/40/45 44/47/52 36/39/44 
f 44/47/52 45/48/53 36/39/44 
f 45/48/53 24/49/42 35/50/43 
f 45/48/53 35/50/43 36/51/44 
f 39/42/47 46/52/54 41/44/49 
f 41/44/49 46/52/54 47/53/55 
f 41/44/49 47/53/55 48/54/56 
f 41/44/49 48/54/56 49/55/57 
f 41/44/49 49/55/57 42/45/50 
f 42/45/50 49/55/57 50/56/58 
f 42/45/50 50/56/58 43/46/51 
f 50/56/58 51/57/59 43/46/51 
f 50/56/58 49/55/57 52/58/60 
f 52/58/60 49/55/57 53/59/61 
f 49/55/57 54/60/62 53/59/61 
f 54/60/62 49/55/57 48/54/56 
f 40/43/48 47/61/55 46/62/54 
f 40/43/48 46/62/54 39/63/47 
f 51/57/59 50/64/58 52/65/60 
f 51/57/59 52/65/60 53/66/61 
f 55/67/63 27/27/64 16/30/16 
f 55/67/63 16/30/16 15/68/15 
f 55/67/63 15/68/15 21/69/21 
f 55/67/63 21/69/21 56/70/65 
f 56/70/65 21/69/21 57/71/66 
f 21/69/21 6/72/30 57/71/66 
f 6/72/6 3/73/3 2/74/2 
f 6/72/6 2/74/2 57/71/67 
f 57/71/67 1/75/1 58/76/68 
f 1/75/1 57/71/67 2/77/2 
f 58/76/68 1/75/1 14/78/14 
f 58/76/68 14/78/14 59/79/69 
f 59/79/69 14/78/14 60/80/70 
f 14/78/14 61/81/71 60/80/70 
f 60/80/70 61/82/71 62/83/72 
f 61/82/71 63/84/73 62/83/72 
f 56/70/74 57/85/75 58/76/76 
f 56/70/74 58/76/76 64/86/77 
f 64/86/77 58/76/76 59/79/78 
f 56/70/74 64/86/77 65/87/79 
f 56/70/74 65/87/79 55/67/80 
f 65/87/79 64/86/77 66/88/81 
f 66/88/81 64/86/77 59/79/78 
f 66/88/81 59/79/78 67/89/82 
f 59/79/78 60/80/83 67/89/82 
f 66/88/81 67/89/82 68/90/84 
f 66/88/81 68/90/84 65/87/79 
f 65/87/79 68/90/84 30/31/85 
f 65/87/79 30/31/85 27/91/86 
f 65/87/79 27/91/86 55/67/80 
f 30/31/85 68/90/84 32/34/87 
f 32/34/87 68/90/84 40/43/88 
f 68/90/84 69/92/89 40/43/88 
f 69/92/89 68/90/84 67/89/82 
f 69/92/89 67/89/82 70/93/90 
f 70/93/90 67/89/82 60/80/83 
f 70/93/90 60/80/83 62/83/91 
f 70/93/90 71/94/92 69/92/89 
f 69/92/89 71/94/92 47/61/93 
f 69/92/89 47/61/93 40/43/88 
f 24/49/24 45/48/94 72/95/95 
f 24/49/24 72/95/95 23/96/23 
f 23/96/23 72/95/95 26/97/26 
f 72/95/95 73/98/96 26/97/26 
f 26/97/26 73/98/96 74/99/97 
f 26/97/26 74/99/97 10/100/27 
f 12/101/12 9/102/9 10/100/10 
f 12/101/12 10/100/10 74/99/98 
f 74/99/98 75/103/99 11/104/11 
f 74/99/98 11/104/11 12/105/12 
f 11/104/11 75/103/99 13/106/13 
f 75/103/99 76/107/100 13/106/13 
f 13/106/13 76/107/100 77/108/101 
f 13/106/13 77/108/101 78/109/102 
f 77/108/101 79/110/103 78/111/102 
f 79/110/103 80/112/104 78/111/102 
f 75/103/105 74/113/106 73/98/107 
f 75/103/105 73/98/107 81/114/108 
f 75/103/105 81/114/108 76/107/109 
f 81/114/108 73/98/107 82/115/110 
f 73/98/107 72/95/111 82/115/110 
f 81/114/108 82/115/110 83/116/112 
f 81/114/108 83/116/112 76/107/109 
f 76/107/109 83/116/112 84/117/113 
f 76/107/109 84/117/113 77/108/114 
f 84/117/113 83/116/112 85/118/115 
f 85/118/115 83/116/112 82/115/110 
f 85/118/115 82/115/110 44/47/116 
f 44/47/116 82/115/110 45/119/117 
f 82/115/110 72/95/111 45/119/117 
f 44/47/116 43/46/118 85/118/115 
f 85/118/115 43/46/118 51/57/119 
f 85/118/115 51/57/119 86/120/120 
f 85/118/115 86/120/120 84/117/113 
f 84/117/113 86/120/120 87/121/121 
f 84/117/113 87/121/121 77/108/114 
f 87/121/121 79/110/122 77/108/114 
f 87/121/121 86/120/120 88/122/123 
f 88/122/123 86/120/120 53/66/124 
f 86/120/120 51/57/119 53/66/124 
f 48/54/125 47/53/93 71/123/92 
f 48/54/125 71/123/92 89/124/126 
f 48/54/125 89/124/126 54/60/127 
f 89/124/126 71/123/92 90/125/128 
f 71/123/92 70/126/90 90/125/128 
f 89/124/126 90/125/128 91/127/129 
f 89/124/126 91/127/129 54/60/127 
f 54/60/127 91/127/129 88/128/123 
f 54/60/127 88/128/123 53/59/124 
f 88/128/123 91/127/129 92/129/130 
f 92/129/130 91/127/129 90/125/128 
f 88/128/123 92/129/130 87/130/121 
f 87/130/121 92/129/130 79/131/122 
f 92/129/130 93/132/131 79/131/122 
f 93/132/131 92/129/130 94/133/132 
f 92/129/130 90/125/128 94/133/132 
f 94/133/132 90/125/128 62/134/91 
f 90/125/128 70/126/90 62/134/91 
f 94/133/133 62/134/72 63/135/73 
f 94/133/133 63/135/73 95/136/134 
f 94/133/133 95/136/134 93/132/135 
f 95/136/134 63/135/73 14/137/14 
f 63/135/73 61/138/71 14/137/14 
f 95/136/134 14/137/14 96/139/136 
f 95/136/134 96/139/136 93/132/135 
f 14/137/14 13/140/13 96/139/136 
f 96/139/136 13/140/13 78/141/102 
f 96/139/136 78/141/102 80/142/104 
f 96/139/136 80/142/104 93/132/135 
f 80/142/104 79/131/103 93/132/135 
f 97/143/137 98/144/137 99/145/137 
f 97/143/137 99/145/137 100/146/137 
f 101/147/138 99/148/139 102/149/140 
f 102/149/140 99/148/139 103/150/141 
f 98/144/142 104/151/142 103/152/141 
f 98/144/142 103/152/141 99/145/139 
f 105/153/143 101/147/144 102/149/145 
f 105/153/143 102/149/145 106/154/146 
f 106/154/146 102/149/145 103/150/147 
f 106/154/146 103/150/147 107/155/148 
f 107/155/148 104/151/149 108/156/149 
f 104/151/149 107/155/148 103/152/147 
f 109/157/150 101/158/144 105/153/143 
f 109/157/150 105/153/143 110/159/151 
f 110/159/151 111/160/152 109/161/150 
f 111/160/152 110/159/151 112/162/153 
f 111/160/152 112/162/153 113/163/154 
f 112/162/153 114/164/155 113/163/154 
f 114/164/155 115/165/156 113/166/154 
f 115/165/156 116/167/156 113/166/154 
f 117/168/157 105/153/157 106/154/158 
f 117/168/157 106/154/158 118/169/158 
f 118/169/158 106/154/158 107/155/159 
f 118/169/158 107/155/159 119/170/159 
f 119/170/159 107/155/159 108/156/160 
f 119/170/159 108/156/160 120/171/160 
f 119/170/161 121/172/162 122/173/163 
f 119/170/161 122/173/163 118/169/164 
f 118/169/164 122/173/163 123/174/165 
f 118/169/164 123/174/165 117/168/166 
f 117/168/166 123/175/165 124/176/167 
f 123/175/165 125/177/168 124/176/167 
f 124/176/167 125/178/168 126/179/169 
f 125/178/168 127/180/170 126/179/169 
f 126/179/169 127/180/170 128/181/171 
f 127/180/170 129/182/172 128/181/171 
f 128/181/171 129/183/172 130/184/173 
f 128/181/171 130/184/173 131/185/173 
f 121/186/162 119/170/161 120/171/174 
f 121/186/162 120/171/174 132/187/174 
f 100/188/175 123/174/176 122/173/177 
f 100/188/175 122/173/177 121/172/178 
f 121/186/178 132/187/179 97/189/179 
f 121/186/178 97/189/179 100/190/175 
f 133/191/180 100/192/180 99/193/180 
f 133/191/180 99/193/180 134/194/180 
f 133/195/160 134/196/160 135/197/160 
f 133/195/160 135/197/160 136/198/160 
f 134/199/181 99/200/139 101/158/138 
f 134/199/181 101/158/138 109/157/182 
f 109/161/182 111/160/183 134/201/181 
f 111/160/183 113/163/184 134/201/181 
f 134/196/181 113/166/184 116/167/185 
f 134/196/181 116/167/185 135/197/185 
f 110/159/186 105/153/186 117/168/186 
f 110/159/186 117/168/186 124/176/186 
f 112/162/187 110/159/188 124/176/188 
f 112/162/187 124/176/188 126/179/187 
f 112/162/187 126/179/187 114/164/189 
f 126/179/187 128/181/189 114/164/189 
f 114/164/189 128/181/189 131/185/137 
f 114/164/189 131/185/137 115/165/137 
f 125/177/190 123/175/176 100/192/175 
f 125/177/190 100/192/175 133/191/191 
f 133/202/191 127/180/192 125/178/190 
f 127/180/192 133/202/191 129/182/193 
f 130/184/194 129/183/193 133/203/191 
f 130/184/194 133/203/191 136/204/194 
f 137/205/137 138/206/137 139/207/137 
f 137/205/137 139/207/137 140/208/137 
f 141/209/195 139/210/196 142/211/197 
f 142/211/197 139/210/196 143/212/198 
f 138/206/199 144/213/199 143/214/198 
f 138/206/199 143/214/198 139/207/196 
f 145/215/200 141/209/201 142/211/202 
f 145/215/200 142/211/202 146/216/203 
f 146/216/203 142/211/202 143/212/204 
f 146/216/203 143/212/204 147/217/205 
f 147/217/205 144/213/206 148/218/206 
f 144/213/206 147/217/205 143/214/204 
f 149/219/207 141/220/201 145/215/200 
f 149/219/207 145/215/200 150/221/208 
f 150/221/208 151/222/209 149/223/207 
f 151/222/209 150/221/208 152/224/210 
f 151/222/209 152/224/210 153/225/211 
f 152/224/210 154/226/212 153/225/211 
f 154/226/212 155/227/213 153/228/211 
f 155/227/213 156/229/213 153/228/211 
f 157/230/157 145/215/157 146/216/158 
f 157/230/157 146/216/158 158/231/158 
f 158/231/158 146/216/158 147/217/159 
f 158/231/158 147/217/159 159/232/159 
f 159/232/159 147/217/159 148/218/160 
f 159/232/159 148/218/160 160/233/160 
f 159/232/214 161/234/215 162/235/216 
f 159/232/214 162/235/216 158/231/217 
f 158/231/217 162/235/216 163/236/218 
f 158/231/217 163/236/218 157/230/219 
f 157/230/219 163/237/218 164/238/220 
f 163/237/218 165/239/221 164/238/220 
f 164/238/220 165/240/221 166/241/222 
f 165/240/221 167/242/223 166/241/222 
f 166/241/222 167/242/223 168/243/224 
f 167/242/223 169/244/225 168/243/224 
f 168/243/224 169/245/225 170/246/226 
f 168/243/224 170/246/226 171/247/226 
f 161/248/215 159/232/214 160/233/227 
f 161/248/215 160/233/227 172/249/227 
f 140/250/228 163/236/229 162/235/230 
f 140/250/228 162/235/230 161/234/231 
f 161/248/231 172/249/232 137/251/232 
f 161/248/231 137/251/232 140/252/228 
f 173/253/180 140/254/180 139/255/180 
f 173/253/180 139/255/180 174/256/180 
f 173/257/160 174/258/160 175/259/160 
f 173/257/160 175/259/160 176/260/160 
f 174/261/233 139/262/196 141/220/195 
f 174/261/233 141/220/195 149/219/234 
f 149/223/234 151/222/235 174/263/233 
f 151/222/235 153/225/236 174/263/233 
f 174/258/233 153/228/236 156/229/237 
f 174/258/233 156/229/237 175/259/237 
f 150/221/186 145/215/186 157/230/186 
f 150/221/186 157/230/186 164/238/186 
f 152/224/238 150/221/188 164/238/188 
f 152/224/238 164/238/188 166/241/238 
f 152/224/238 166/241/238 154/226/189 
f 166/241/238 168/243/189 154/226/189 
f 154/226/189 168/243/189 171/247/137 
f 154/226/189 171/247/137 155/227/137 
f 165/239/239 163/237/229 140/254/228 
f 165/239/239 140/254/228 173/253/240 
f 173/264/240 167/242/241 165/240/239 
f 167/242/241 173/264/240 169/244/242 
f 170/246/243 169/245/242 173/265/240 
f 170/246/243 173/265/240 176/266/243 
f 177/267/186 178/268/186 179/269/186 
f 177/267/186 179/269/186 180/270/186 
f 181/271/244 182/272/245 183/273/246 
f 181/271/244 183/273/246 184/274/244 
f 181/271/244 184/274/244 185/275/137 
f 184/274/244 183/273/246 186/276/245 
f 185/275/137 184/274/244 187/277/137 
f 186/276/245 188/278/247 184/274/244 
f 187/277/137 184/274/244 188/278/247 
f 186/276/245 189/279/245 188/278/247 
f 189/279/245 190/280/247 188/278/247 
f 188/278/247 190/280/247 187/277/137 
f 187/277/137 190/280/247 191/281/247 
f 191/281/247 190/280/247 192/282/245 
f 190/280/247 189/279/245 192/282/245 
f 182/272/248 193/283/248 194/284/248 
f 182/272/248 194/284/248 183/273/248 
f 183/273/248 194/284/248 195/285/248 
f 183/273/248 195/285/248 186/276/248 
f 186/276/248 195/285/248 196/286/248 
f 186/276/248 196/286/248 189/279/248 
f 189/279/248 196/286/248 197/287/248 
f 189/279/248 197/287/248 192/282/248 
f 193/288/249 198/289/250 199/290/251 
f 193/288/249 199/290/251 200/291/252 
f 193/288/249 200/291/252 194/292/253 
f 194/292/253 200/291/252 201/293/254 
f 194/292/253 201/293/254 195/294/253 
f 195/294/253 201/293/254 196/295/255 
f 201/293/254 202/296/256 196/295/255 
f 196/295/255 202/296/256 203/297/250 
f 193/298/257 182/299/257 181/300/257 
f 193/298/257 181/300/257 198/301/257 
f 198/301/257 181/300/257 204/302/257 
f 198/301/257 204/302/257 205/303/257 
f 205/303/257 204/302/257 206/304/257 
f 204/302/257 207/305/257 206/304/257 
f 204/302/257 181/300/257 208/306/257 
f 181/300/257 185/307/257 208/306/257 
f 208/306/257 185/307/257 209/308/257 
f 209/308/257 185/307/257 210/309/257 
f 185/307/257 211/310/257 210/309/257 
f 210/309/257 211/310/257 212/311/257 
f 211/310/257 213/312/257 212/311/257 
f 213/312/257 211/310/257 214/313/257 
f 211/310/257 215/314/257 214/313/257 
f 213/312/257 216/315/257 212/311/257 
f 216/315/257 217/316/257 212/311/257 
f 209/308/257 218/317/257 208/306/257 
f 208/306/257 218/317/257 219/318/257 
f 208/306/257 219/318/257 220/319/257 
f 221/320/257 214/313/257 215/314/257 
f 214/313/257 221/320/257 222/321/257 
f 214/313/257 222/321/257 223/322/257 
f 221/320/257 215/314/257 224/323/257 
f 224/323/257 215/314/257 225/324/257 
f 215/314/257 226/325/257 225/324/257 
f 227/326/186 228/327/186 229/328/186 
f 227/326/186 229/328/186 230/329/186 
f 231/330/186 232/331/186 233/332/186 
f 231/330/186 233/332/186 234/333/186 
f 205/334/186 235/335/186 199/290/186 
f 205/334/186 199/290/186 198/289/186 
f 230/329/258 229/328/259 202/296/260 
f 230/329/258 202/296/260 201/293/261 
f 236/336/262 227/326/262 230/329/263 
f 236/336/262 230/329/263 201/293/263 
f 228/327/264 237/337/264 202/296/264 
f 228/327/264 202/296/264 229/328/264 
f 234/333/265 233/332/266 200/291/267 
f 234/333/265 200/291/267 199/290/268 
f 235/335/269 231/330/269 234/333/269 
f 235/335/269 234/333/269 199/290/269 
f 232/331/270 238/338/270 200/291/271 
f 232/331/270 200/291/271 233/332/271 
f 237/337/186 239/339/186 203/297/186 
f 237/337/186 203/297/186 202/296/186 
f 177/340/272 203/341/272 240/342/273 
f 177/340/272 240/342/273 241/343/273 
f 241/343/273 240/342/273 242/344/274 
f 240/342/273 243/345/274 242/344/274 
f 240/346/275 203/297/257 239/339/257 
f 240/346/275 239/339/257 244/347/275 
f 240/346/275 244/347/275 243/345/276 
f 244/347/275 245/348/276 243/345/276 
f 246/349/277 178/268/278 177/267/278 
f 246/349/277 177/267/278 241/350/279 
f 246/349/277 241/350/279 247/351/280 
f 241/350/279 242/344/280 247/351/280 
f 245/348/186 247/351/186 242/344/186 
f 245/348/186 242/344/186 243/345/186 
f 203/341/250 177/340/250 197/352/250 
f 203/341/250 197/352/250 196/353/255 
f 197/354/250 177/267/250 180/270/250 
f 248/355/281 207/356/281 204/357/282 
f 248/355/281 204/357/282 249/358/282 
f 248/355/281 249/358/282 250/359/281 
f 249/358/282 204/357/282 208/360/283 
f 249/358/282 208/360/283 251/361/283 
f 249/358/282 251/361/283 252/362/282 
f 249/358/282 252/362/282 250/359/281 
f 250/359/281 252/362/282 253/363/281 
f 252/362/282 254/364/282 253/363/281 
f 254/364/282 252/362/282 251/361/283 
f 253/363/281 254/364/282 255/365/281 
f 251/361/283 256/366/282 254/364/282 
f 255/365/281 254/364/282 256/366/282 
f 251/361/283 208/360/283 220/367/284 
f 251/361/283 220/367/284 257/368/284 
f 257/368/284 220/367/284 219/369/285 
f 257/368/284 219/369/285 258/370/285 
f 259/371/286 206/372/286 207/356/286 
f 259/371/286 207/356/286 248/355/286 
f 259/371/286 248/355/286 260/373/286 
f 248/355/286 250/359/286 260/373/286 
f 260/373/286 250/359/286 261/374/286 
f 250/359/286 253/363/286 261/374/286 
f 261/374/286 253/363/286 262/375/286 
f 253/363/286 255/365/286 262/375/286 
f 206/376/287 235/335/288 205/334/289 
f 235/335/288 206/376/287 238/338/290 
f 206/376/287 259/377/291 238/338/290 
f 238/338/290 259/377/291 236/336/292 
f 259/377/291 260/378/291 236/336/292 
f 236/336/292 260/378/291 261/379/293 
f 236/336/292 261/379/293 237/337/294 
f 237/337/294 261/379/293 239/339/289 
f 258/370/295 219/369/295 218/380/296 
f 258/370/295 218/380/296 263/381/296 
f 263/381/296 218/380/296 209/382/180 
f 263/381/296 209/382/180 264/383/297 
f 209/382/180 210/384/298 264/383/297 
f 264/383/297 210/384/298 212/385/299 
f 264/383/297 212/385/299 265/386/300 
f 212/385/299 217/387/301 265/386/300 
f 227/326/302 236/336/303 237/337/304 
f 227/326/302 237/337/304 228/327/305 
f 231/330/306 235/335/307 238/338/308 
f 231/330/306 238/338/308 232/331/309 
f 244/388/310 239/389/311 178/390/311 
f 244/388/310 178/390/311 246/391/310 
f 244/388/310 246/391/310 247/351/312 
f 244/388/310 247/351/312 245/348/312 
f 239/389/289 261/392/293 262/393/289 
f 239/389/289 262/393/289 178/390/289 
f 262/394/289 179/269/289 178/268/289 
f 266/395/186 267/396/186 268/397/186 
f 266/395/186 268/397/186 269/398/186 
f 214/399/313 223/400/314 270/401/314 
f 214/399/313 270/401/314 271/402/313 
f 214/399/313 271/402/313 213/403/315 
f 271/402/313 270/401/314 272/404/314 
f 213/403/315 271/402/313 273/405/315 
f 271/402/313 274/406/313 273/405/315 
f 274/406/313 271/402/313 272/404/314 
f 274/406/313 272/404/314 275/407/314 
f 274/406/313 275/407/314 276/408/313 
f 274/406/313 276/408/313 273/405/315 
f 276/408/313 275/407/314 277/409/314 
f 273/405/315 276/408/313 278/410/313 
f 277/409/314 278/410/313 276/408/313 
f 273/405/315 216/411/316 213/403/315 
f 216/411/316 273/405/315 279/412/316 
f 216/411/316 279/412/316 217/387/317 
f 279/412/316 265/386/317 217/387/317 
f 223/400/248 222/413/248 280/414/248 
f 223/400/248 280/414/248 270/401/248 
f 270/401/248 280/414/248 281/415/248 
f 270/401/248 281/415/248 272/404/248 
f 272/404/248 281/415/248 282/416/248 
f 272/404/248 282/416/248 275/407/248 
f 275/407/248 282/416/248 283/417/248 
f 275/407/248 283/417/248 277/409/248 
f 222/418/318 221/419/318 284/420/318 
f 222/418/318 284/420/318 285/421/318 
f 222/418/318 285/421/318 280/422/318 
f 280/422/318 285/421/318 286/423/318 
f 280/422/318 286/423/318 281/424/318 
f 281/424/318 286/423/318 282/425/318 
f 286/423/318 287/426/318 282/425/318 
f 282/425/318 287/426/318 288/427/318 
f 224/428/186 289/429/319 284/420/319 
f 224/428/186 284/420/319 221/419/186 
f 290/430/186 291/431/186 292/432/186 
f 290/430/186 292/432/186 293/433/186 
f 293/433/259 292/432/259 286/423/259 
f 293/433/259 286/423/259 285/421/259 
f 294/434/320 290/430/320 293/433/321 
f 294/434/320 293/433/321 285/421/321 
f 291/431/322 295/435/322 286/423/322 
f 291/431/322 286/423/322 292/432/322 
f 296/436/186 297/437/186 288/427/186 
f 296/436/186 288/427/186 287/426/186 
f 266/438/272 288/439/272 298/440/273 
f 266/438/272 298/440/273 299/441/273 
f 299/441/273 298/440/273 300/442/274 
f 298/440/273 301/443/274 300/442/274 
f 298/444/275 288/427/257 297/437/257 
f 298/444/275 297/437/257 302/445/275 
f 298/444/275 302/445/275 301/443/276 
f 302/445/275 303/446/276 301/443/276 
f 304/447/279 267/396/278 266/395/278 
f 304/447/279 266/395/278 299/448/279 
f 304/447/279 299/448/279 305/449/280 
f 299/448/279 300/442/280 305/449/280 
f 303/446/186 305/449/186 300/442/186 
f 303/446/186 300/442/186 301/443/186 
f 288/439/318 266/438/318 283/450/318 
f 288/439/318 283/450/318 282/451/318 
f 283/452/318 266/395/318 269/398/318 
f 306/453/323 226/454/323 215/455/324 
f 306/453/323 215/455/324 307/456/324 
f 306/453/323 307/456/324 308/457/323 
f 307/456/324 215/455/324 211/458/160 
f 307/456/324 211/458/160 309/459/160 
f 307/456/324 309/459/160 310/460/324 
f 307/456/324 310/460/324 308/457/323 
f 308/457/323 310/460/324 311/461/323 
f 310/460/324 312/462/324 311/461/323 
f 312/462/324 310/460/324 309/459/160 
f 312/462/324 309/459/160 313/463/324 
f 312/462/324 313/463/324 314/464/323 
f 312/462/324 314/464/323 311/461/323 
f 315/465/286 225/466/286 226/454/286 
f 315/465/286 226/454/286 306/453/286 
f 315/465/286 306/453/286 316/467/286 
f 306/453/286 308/457/286 316/467/286 
f 316/467/286 308/457/286 317/468/286 
f 308/457/286 311/461/286 317/468/286 
f 317/468/286 311/461/286 318/469/286 
f 311/461/286 314/464/286 318/469/286 
f 225/470/325 289/429/325 224/428/325 
f 289/429/325 225/470/325 294/434/325 
f 225/470/325 315/471/325 294/434/325 
f 294/434/325 315/471/325 295/435/325 
f 315/471/325 316/472/325 295/435/325 
f 295/435/325 316/472/325 317/473/325 
f 295/435/325 317/473/325 296/436/325 
f 296/436/325 317/473/325 297/437/325 
f 290/430/326 294/434/326 295/435/326 
f 290/430/326 295/435/326 291/431/326 
f 302/474/310 297/475/327 267/476/327 
f 302/474/310 267/476/327 304/477/310 
f 302/474/310 304/477/310 305/449/312 
f 302/474/310 305/449/312 303/446/312 
f 297/475/325 317/478/325 318/479/325 
f 297/475/325 318/479/325 267/476/325 
f 318/480/325 268/397/325 267/396/325 
f 185/275/186 187/277/186 309/459/186 
f 185/275/186 309/459/186 211/458/186 
f 319/481/137 320/482/137 321/483/137 
f 319/481/137 321/483/137 322/484/137 
f 323/485/328 321/486/196 324/487/197 
f 324/487/197 321/486/196 325/488/329 
f 320/482/330 326/489/330 325/490/329 
f 320/482/330 325/490/329 321/483/196 
f 327/491/200 323/485/201 324/487/331 
f 327/491/200 324/487/331 328/492/203 
f 328/492/203 324/487/331 325/488/204 
f 328/492/203 325/488/204 329/493/332 
f 329/493/332 326/489/206 330/494/206 
f 326/489/206 329/493/332 325/490/204 
f 331/495/333 323/496/201 327/491/200 
f 331/495/333 327/491/200 332/497/208 
f 332/497/208 333/498/209 331/499/333 
f 333/498/209 332/497/208 334/500/210 
f 333/498/209 334/500/210 335/501/334 
f 334/500/210 336/502/335 335/501/334 
f 336/502/335 337/503/336 335/504/334 
f 337/503/336 338/505/336 335/504/334 
f 339/506/157 327/491/157 328/492/337 
f 339/506/157 328/492/337 340/507/337 
f 340/507/337 328/492/337 329/493/338 
f 340/507/337 329/493/338 341/508/338 
f 341/508/338 329/493/338 330/494/160 
f 341/508/338 330/494/160 342/509/160 
f 341/508/214 343/510/339 344/511/216 
f 341/508/214 344/511/216 340/507/340 
f 340/507/340 344/511/216 345/512/341 
f 340/507/340 345/512/341 339/506/219 
f 339/506/219 345/513/341 346/514/220 
f 345/513/341 347/515/221 346/514/220 
f 346/514/220 347/516/221 348/517/342 
f 347/516/221 349/518/343 348/517/342 
f 348/517/342 349/518/343 350/519/344 
f 349/518/343 351/520/345 350/519/344 
f 350/519/344 351/521/345 352/522/346 
f 350/519/344 352/522/346 353/523/346 
f 343/524/339 341/508/214 342/509/227 
f 343/524/339 342/509/227 354/525/227 
f 322/526/228 345/512/347 344/511/230 
f 322/526/228 344/511/230 343/510/348 
f 343/524/348 354/525/232 319/527/232 
f 343/524/348 319/527/232 322/528/228 
f 355/529/180 322/530/180 321/531/180 
f 355/529/180 321/531/180 356/532/180 
f 355/533/349 356/534/349 357/535/349 
f 355/533/349 357/535/349 358/536/349 
f 356/537/233 321/538/196 323/496/328 
f 356/537/233 323/496/328 331/495/234 
f 331/499/234 333/498/235 356/539/233 
f 333/498/235 335/501/236 356/539/233 
f 356/534/233 335/504/236 338/505/237 
f 356/534/233 338/505/237 357/535/237 
f 332/497/186 327/491/186 339/506/186 
f 332/497/186 339/506/186 346/514/186 
f 334/500/187 332/497/188 346/514/188 
f 334/500/187 346/514/188 348/517/187 
f 334/500/187 348/517/187 336/502/189 
f 348/517/187 350/519/189 336/502/189 
f 336/502/189 350/519/189 353/523/137 
f 336/502/189 353/523/137 337/503/137 
f 347/515/239 345/513/347 322/530/228 
f 347/515/239 322/530/228 355/529/350 
f 355/540/350 349/518/351 347/516/239 
f 349/518/351 355/540/350 351/520/352 
f 352/522/194 351/521/352 355/541/350 
f 352/522/194 355/541/350 358/542/194 
f 359/543/137 360/544/137 361/545/137 
f 359/543/137 361/545/137 362/546/137 
f 363/547/278 364/548/278 360/549/278 
f 363/547/278 360/549/278 359/543/278 
f 364/548/180 365/550/180 366/551/180 
f 364/548/180 366/551/180 360/549/180 
f 361/545/180 360/544/180 366/552/180 
f 361/545/180 366/552/180 367/553/180 
f 368/554/137 369/555/137 367/556/137 
f 368/554/137 367/556/137 366/551/137 
f 366/551/278 365/550/278 370/557/278 
f 366/551/278 370/557/278 368/554/278 
f 371/558/180 372/559/180 361/560/180 
f 371/558/180 361/560/180 367/561/180 
f 361/560/257 372/559/257 373/562/257 
f 361/560/257 373/562/257 362/546/257 
f 363/547/160 373/562/160 372/563/160 
f 363/547/160 372/563/160 364/564/160 
f 372/563/180 371/565/180 365/566/180 
f 372/563/180 365/566/180 364/564/180 
f 370/557/160 365/550/160 371/567/160 
f 370/557/160 371/567/160 374/568/160 
f 371/558/257 367/561/257 369/569/257 
f 371/558/257 369/569/257 374/570/257 
f 375/571/186 376/572/186 377/573/186 
f 375/571/186 377/573/186 378/574/186 
f 373/562/353 377/573/353 376/572/353 
f 373/562/353 376/572/353 362/546/353 
f 375/571/354 359/543/354 362/546/354 
f 375/571/354 362/546/354 376/572/354 
f 378/574/355 363/547/355 359/543/355 
f 378/574/355 359/543/355 375/571/355 
f 363/547/356 378/574/356 377/573/357 
f 363/547/356 377/573/357 373/562/357 
f 379/575/358 380/576/359 381/577/358 
f 379/575/358 381/577/358 382/578/358 
f 383/579/360 379/575/360 382/578/360 
f 383/579/360 382/578/360 384/580/360 
f 385/581/361 383/582/361 384/583/361 
f 385/581/361 384/583/361 386/584/361 
f 387/585/362 385/581/363 386/584/362 
f 387/585/362 386/584/362 388/586/362 
f 389/587/364 387/585/365 388/586/364 
f 389/587/364 388/586/364 390/588/364 
f 380/576/366 389/587/367 390/588/367 
f 380/576/366 390/588/367 381/577/366 
f 391/589/368 392/590/369 382/578/368 
f 391/589/368 382/578/368 381/577/370 
f 392/590/371 393/591/372 384/580/372 
f 392/590/371 384/580/372 382/578/373 
f 393/592/374 394/593/375 386/584/374 
f 393/592/374 386/584/374 384/583/374 
f 394/593/376 395/594/377 388/586/376 
f 394/593/376 388/586/376 386/584/376 
f 395/594/378 396/595/379 390/588/379 
f 395/594/378 390/588/379 388/586/378 
f 396/595/380 391/589/381 381/577/382 
f 396/595/380 381/577/382 390/588/380 
f 397/596/383 398/597/384 399/598/385 
f 397/596/383 399/598/385 400/599/386 
f 400/599/386 399/598/385 401/600/387 
f 399/598/385 402/601/388 401/600/387 
f 401/600/387 402/601/388 403/602/389 
f 401/600/387 403/602/389 404/603/390 
f 404/603/390 403/602/389 405/604/391 
f 403/602/389 406/605/392 405/604/391 
f 405/604/391 406/605/392 407/606/393 
f 405/604/391 407/606/393 408/607/394 
f 408/607/394 407/606/393 409/608/395 
f 407/606/393 410/609/396 409/608/395 
f 409/608/395 410/609/396 411/610/397 
f 409/608/395 411/610/397 412/611/398 
f 412/611/398 411/610/397 397/612/383 
f 411/610/397 398/613/384 397/612/383 
f 413/614/383 414/615/384 415/616/385 
f 413/614/383 415/616/385 416/617/386 
f 416/617/386 415/616/385 417/618/387 
f 415/616/385 418/619/388 417/618/387 
f 417/618/387 418/619/388 419/620/389 
f 417/618/387 419/620/389 420/621/390 
f 420/621/390 419/620/389 421/622/391 
f 419/620/389 422/623/392 421/622/391 
f 421/622/391 422/623/392 423/624/393 
f 421/622/391 423/624/393 424/625/394 
f 424/625/394 423/624/393 425/626/395 
f 423/624/393 426/627/396 425/626/395 
f 425/626/395 426/627/396 427/628/397 
f 425/626/395 427/628/397 428/629/398 
f 428/629/398 427/628/397 413/630/383 
f 427/628/397 414/631/384 413/630/383 
f 403/632/257 402/633/257 399/634/257 
f 403/632/257 399/634/257 406/635/257 
f 406/635/257 399/634/257 407/636/257 
f 399/634/257 398/637/257 407/636/257 
f 407/636/257 398/637/257 411/638/257 
f 407/636/257 411/638/257 410/639/257 
f 419/640/257 418/641/257 415/642/257 
f 419/640/257 415/642/257 422/643/257 
f 422/643/257 415/642/257 423/644/257 
f 415/642/257 414/645/257 423/644/257 
f 423/644/257 414/645/257 427/646/257 
f 423/644/257 427/646/257 426/647/257 
f 287/648/160 286/649/160 429/650/160 
f 287/648/160 429/650/160 430/651/160 
f 286/649/278 295/652/278 431/653/278 
f 286/649/278 431/653/278 429/650/278 
f 296/654/257 287/648/257 430/651/257 
f 296/654/257 430/651/257 432/655/257 
f 295/652/137 296/656/137 432/657/137 
f 295/652/137 432/657/137 431/653/137 
f 431/653/186 432/658/186 430/659/186 
f 431/653/186 430/659/186 429/650/186 
f 285/648/160 284/649/160 433/650/160 
f 285/648/160 433/650/160 434/651/160 
f 284/649/319 289/652/319 435/653/399 
f 284/649/319 435/653/399 433/650/400 
f 294/654/401 285/648/401 434/651/401 
f 294/654/401 434/651/401 436/655/401 
f 289/652/137 294/656/137 436/657/137 
f 289/652/137 436/657/137 435/653/137 
f 435/653/186 436/658/186 434/659/186 
f 435/653/186 434/659/186 433/650/186 
f 201/648/254 200/649/252 437/650/402 
f 201/648/254 437/650/402 438/651/402 
f 200/649/403 238/652/403 439/653/403 
f 200/649/403 439/653/403 437/650/403 
f 236/654/404 201/648/404 438/651/404 
f 236/654/404 438/651/404 440/655/405 
f 238/652/290 236/656/292 440/657/406 
f 238/652/290 440/657/406 439/653/406 
f 439/653/186 440/658/186 438/659/186 
f 439/653/186 438/659/186 437/650/186 
f 441/660/407 442/661/408 380/662/409 
f 441/660/407 380/662/409 379/663/410 
f 380/662/409 442/661/408 389/664/411 
f 442/661/408 443/665/412 389/664/411 
f 443/665/412 442/661/408 444/666/413 
f 442/661/408 441/660/407 444/666/413 
f 441/660/407 445/667/414 444/666/413 
f 445/667/414 441/660/407 379/663/410 
f 445/667/414 379/663/410 383/668/415 
f 445/667/414 383/668/415 446/669/416 
f 445/667/414 446/669/416 444/666/413 
f 446/669/416 447/670/417 444/666/413 
f 447/670/417 443/665/412 444/666/413 
f 443/665/412 447/670/417 387/671/418 
f 443/665/412 387/671/418 389/664/411 
f 387/671/418 447/670/417 385/672/419 
f 447/670/417 446/669/416 385/672/419 
f 385/672/419 446/669/416 383/668/415 
# 0 polygons - 792 triangles

