<?xml version="1.0" encoding="utf-8"?>
<COLLADA xmlns="http://www.collada.org/2005/11/COLLADASchema" version="1.4.1" xmlns:xsi="http://www.w3.org/2001/XMLSchema-instance">
  <asset>
    <contributor>
      <author>Blender User</author>
      <authoring_tool>Blender 4.3.2 commit date:2024-12-16, commit time:21:10, hash:32f5fdce0a0a</authoring_tool>
    </contributor>
    <created>2025-03-05T16:56:12</created>
    <modified>2025-03-05T16:56:12</modified>
    <unit name="meter" meter="1"/>
    <up_axis>Z_UP</up_axis>
  </asset>
  <library_effects>
    <effect id="z_toiletroll_002-effect">
      <profile_COMMON>
        <newparam sid="z_toiletroll_diff_png_001-surface">
          <surface type="2D">
            <init_from>z_toiletroll_diff_png_001</init_from>
          </surface>
        </newparam>
        <newparam sid="z_toiletroll_diff_png_001-sampler">
          <sampler2D>
            <source>z_toiletroll_diff_png_001-surface</source>
          </sampler2D>
        </newparam>
        <technique sid="common">
          <lambert>
            <emission>
              <color sid="emission">0 0 0 1</color>
            </emission>
            <diffuse>
              <texture texture="z_toiletroll_diff_png_001-sampler" texcoord="UVMap"/>
            </diffuse>
            <reflectivity>
              <float sid="specular">1</float>
            </reflectivity>
            <index_of_refraction>
              <float sid="ior">1.5</float>
            </index_of_refraction>
          </lambert>
        </technique>
      </profile_COMMON>
    </effect>
  </library_effects>
  <library_images>
    <image id="z_toiletroll_diff_png_001" name="z_toiletroll_diff_png_001">
      <init_from>z_toiletroll_diff.png</init_from>
    </image>
  </library_images>
  <library_materials>
    <material id="z_toiletroll_002-material" name="z_toiletroll.002">
      <instance_effect url="#z_toiletroll_002-effect"/>
    </material>
  </library_materials>
  <library_geometries>
    <geometry id="Toilet_Paper-mesh" name="Toilet Paper">
      <mesh>
        <source id="Toilet_Paper-mesh-positions">
          <float_array id="Toilet_Paper-mesh-positions-array" count="636">-0.120339 2.776118 -0.473544 -0.00444895 0 -0.487614 -0.00444895 2.776118 -0.487616 0.344511 0 -1.419142 -0.00444895 0 -0.487614 -0.00444895 0 -1.461514 0.111442 0 -0.473543 0.67319 0 -1.294491 0.220597 0 -0.432146 0.962487 0 -1.094804 0.316673 0 -0.36583 1.19559 0 -0.831684 0.394087 0 -0.278447 1.35895 0 -0.520427 0.44834 0 -0.175077 1.443075 0 -0.179119 0.476277 0 -0.061728 1.443075 0 0.172403 0.476277 0 0.055013 1.35895 0 0.513711 0.44834 0 0.168362 1.19559 0 0.82497 0.394087 0 0.271731 0.962488 0 1.088088 0.316673 0 0.359114 0.67319 0 1.287775 0.220597 0 0.42543 0.344511 0 1.412426 0.111442 0 0.466828 -0.004447996 0 1.454798 -0.00444895 0 0.480899 -0.353408 0 1.412426 -0.120339 0 0.466828 -0.682087 0 1.287775 -0.229494 0 0.42543 -0.971385 0 1.088088 -0.32557 0 0.359114 -1.204487 0 0.82497 -0.402985 0 0.271731 -1.367849 0 0.513711 -0.457237 0 0.168362 -1.451974 0 0.172403 -0.485174 0 0.055013 -1.451974 0 -0.179119 -0.485174 0 -0.06172895 -1.367849 0 -0.520428 -0.457237 0 -0.175077 -1.204487 0 -0.831686 -0.402984 0 -0.278447 -0.971384 0 -1.094804 -0.32557 0 -0.36583 -0.682086 0 -1.294491 -0.229494 0 -0.432146 -0.353407 0 -1.419142 0.316673 2.776118 -0.36583 0.67319 2.74811 -1.294491 0.220597 2.776118 -0.432146 0.344511 2.753034 -1.419142 0.111442 2.776118 -0.473544 -0.00444895 2.74811 -1.461514 -0.00444895 2.776118 -0.487616 -0.353407 2.74811 -1.419144 -0.120339 2.776118 -0.473544 -0.682086 2.776118 -1.294492 -0.229494 2.776118 -0.432146 -0.971384 2.76503 -1.094804 -0.32557 2.776118 -0.36583 -1.204487 2.748111 -0.831686 -0.402984 2.776118 -0.278447 -1.367849 2.776118 -0.520428 -0.457237 2.776118 -0.175079 -1.451974 2.776118 -0.17912 -0.485174 2.776118 -0.06172895 -1.451974 2.776118 0.172402 -0.485174 2.776118 0.05501198 -1.367849 2.776118 0.513711 -0.457237 2.776118 0.168361 -1.204487 2.776118 0.824968 -0.402985 2.776118 0.271731 -0.971385 2.776118 1.088087 -0.32557 2.776118 0.359114 -0.682087 2.747896 1.287775 -0.229494 2.776118 0.42543 -0.353408 2.732904 1.412426 -0.120339 2.776118 0.466828 -0.004447996 2.760202 1.454798 -0.00444895 2.776118 0.480898 0.344511 2.760202 1.412426 0.111442 2.776118 0.466828 0.67319 2.776118 1.287775 0.220597 2.776118 0.42543 0.962488 2.762308 1.088087 0.316673 2.776118 0.359114 1.19559 2.762308 0.824968 0.394087 2.776118 0.271731 1.35895 2.776118 0.513711 0.44834 2.776118 0.168361 1.443075 2.776118 0.172403 0.476277 2.776118 0.05501198 1.443075 2.776118 -0.17912 0.476277 2.776118 -0.06172895 1.35895 2.776118 -0.520428 0.44834 2.776118 -0.175079 1.19559 2.751829 -0.831686 0.394087 2.776118 -0.278447 0.962487 2.74811 -1.094804 -0.457237 0 0.168362 -0.485174 0 0.055013 -0.457237 2.776118 0.168361 -0.485174 2.776118 0.05501198 -0.485174 0 -0.06172895 -0.485174 2.776118 -0.06172895 -0.457237 0 -0.175077 -0.457237 2.776118 -0.175079 -0.402984 0 -0.278447 -0.402984 2.776118 -0.278447 -0.32557 0 -0.36583 -0.32557 2.776118 -0.36583 -0.229494 0 -0.432146 -0.229494 2.776118 -0.432146 -0.682087 2.747896 1.287775 -0.971385 2.776118 1.088087 -0.682087 0 1.287775 -0.971385 0 1.088088 -1.204487 2.776118 0.824968 -1.204487 0 0.82497 -1.367849 2.776118 0.513711 -1.367849 0 0.513711 -1.451974 2.776118 0.172402 -1.451974 0 0.172403 -1.451974 2.776118 -0.17912 -1.451974 0 -0.179119 -1.367849 2.776118 -0.520428 -1.367849 0 -0.520428 -1.204487 2.748111 -0.831686 -1.204487 0 -0.831686 -0.353408 0 1.412426 -0.353408 2.732904 1.412426 -0.004447996 0 1.454798 -0.004447996 2.760202 1.454798 0.344511 0 1.412426 0.344511 2.760202 1.412426 0.67319 0 1.287775 0.67319 2.776118 1.287775 0.962488 0 1.088088 0.962488 2.762308 1.088087 1.19559 0 0.82497 1.19559 2.762308 0.824968 1.35895 0 0.513711 1.35895 2.776118 0.513711 1.443075 0 0.172403 1.443075 2.776118 0.172403 1.443075 0 -0.179119 1.443075 2.776118 -0.17912 1.35895 0 -0.520427 1.35895 2.776118 -0.520428 1.19559 0 -0.831684 1.19559 2.751829 -0.831686 0.962487 0 -1.094804 0.962487 2.74811 -1.094804 -0.00444895 0 -0.487614 0.111442 0 -0.473543 -0.00444895 2.776118 -0.487616 0.111442 2.776118 -0.473544 0.220597 0 -0.432146 0.220597 2.776118 -0.432146 0.316673 0 -0.36583 0.316673 2.776118 -0.36583 0.394087 0 -0.278447 0.394087 2.776118 -0.278447 0.44834 0 -0.175077 0.44834 2.776118 -0.175079 0.476277 0 -0.061728 0.476277 2.776118 -0.06172895 0.476277 0 0.055013 0.476277 2.776118 0.05501198 0.44834 0 0.168362 0.44834 2.776118 0.168361 0.394087 0 0.271731 0.394087 2.776118 0.271731 -0.00444895 0 -0.487614 -0.120339 2.776118 -0.473544 -0.120339 0 -0.473543 -0.120339 0 -0.473543 -0.229494 2.776118 -0.432146 -0.229494 0 -0.432146 -0.229494 0 -0.432146 -0.353407 0 -1.419142 -0.00444895 0 -1.461514 -0.00444895 0 -0.487614 -1.36419 2.776118 -0.52429 -1.625754 2.776118 -0.334509 -1.36419 0 -0.52429 -1.625752 0 -0.334508 -2.002352 2.776118 -0.202096 -2.002352 0 -0.202095 -3.61277 2.74926 0.192145 -3.591256 2.575752 0.188738 -3.075964 2.722401 0.06073099 -3.209316 2.100182 0.1180379 -2.982243 1.604048 0.04710197 -2.980651 1.038013 0.047378 -2.989902 0.504306 0.05149698 -2.961938 0.03381299 0.04683196 -3.921523 0.06762498 0.295758 -3.980323 0.467228 0.303784 -3.974581 0.801281 0.306396 -3.958951 1.091049 0.296852 -3.962134 1.388058 0.296299 -4.057981 1.920574 0.306758 -4.106548 2.429103 0.316744 -4.149576 2.776118 0.323559</float_array>
          <technique_common>
            <accessor source="#Toilet_Paper-mesh-positions-array" count="212" stride="3">
              <param name="X" type="float"/>
              <param name="Y" type="float"/>
              <param name="Z" type="float"/>
            </accessor>
          </technique_common>
        </source>
        <source id="Toilet_Paper-mesh-normals">
          <float_array id="Toilet_Paper-mesh-normals-array" count="456">0.08790552 0.04157954 0.9952607 0.02923154 0.03208565 0.9990576 -0.02872878 0.03237026 0.999063 0 -1 0 0.02927392 0.03208214 0.9990565 0.08799493 0.04169225 0.995248 0.1490724 0.04047006 0.9879978 0.212805 0.04557651 0.9760311 0.2806028 0.04239052 0.9588875 0.3293491 0.04709464 0.943033 0.288394 0.03918159 0.9567099 0.3292614 0.04708248 0.9430643 0.2068943 0.0397824 0.9775542 0.1392919 0.03967553 0.9894562 0.1280824 0.04087674 0.9909209 0.1169624 0.03907734 0.9923673 0.1141532 0.03488796 0.9928504 0.1155666 0.04210865 0.9924069 0.1141687 0.03488773 0.9928486 0.1238752 -0.04198753 0.9914091 0.1224805 0.03406745 0.991886 0.1224906 -0.03407585 0.9918845 0.1232706 0.04396766 0.9913986 0.123884 0.04197728 0.9914085 0.1224538 0.03408771 0.9918887 0.122483 0.03408402 0.9918852 0.1218935 0.03637146 0.9918766 0.1183616 -0.03467822 0.9923649 0.1093671 0.0365982 0.9933275 0.1169748 0.03908902 0.9923654 0.1169674 0.03909736 0.9923658 0.01760292 0.9987645 -0.04647022 0.01759791 0.9987679 -0.04640346 0.01659703 0.9988456 -0.04508036 0.006799519 0.9988966 -0.04647046 -5.00391e-4 0.9985675 -0.05350577 -0.001503586 0.9983339 -0.05768203 -4.99555e-4 0.9982522 -0.05909645 0.01470154 0.9975151 -0.06890231 0.02929466 0.9979047 -0.05769091 0.0107159 0.9997754 -0.01828801 -0.01419025 0.9998838 0.0055902 -0.02101582 0.9997301 0.009908556 -0.02778905 0.9996051 0.004181325 -0.01610362 0.9987881 -0.04650855 0.003898859 0.9964239 -0.08440566 0.004902422 0.9989753 -0.04499375 0 1 1.51621e-6 0 1 -4.74962e-7 0 1 2.1124e-6 0 1 0 0 1 -3.50779e-7 0 1 7.58102e-7 0.01470428 0.9995326 0.02680164 0.02240216 0.9977433 0.06329828 0.01561671 0.9968795 0.07737857 0.003888368 0.9967744 0.08016091 -0.01999956 0.9966978 0.07869887 -0.04048782 0.9977474 0.05348718 -0.02200132 0.999088 0.03659683 9.987e-4 0.9994753 0.03237539 -0.007314801 0.9993041 0.03657817 -0.01608401 0.9993908 0.03097629 -1.50616e-4 0.9999958 0.002897262 0.01760852 0.9997968 -0.009810626 0.01559627 0.9998696 0.004204213 0.009798347 0.999785 0.01827824 0.004901766 0.9994165 0.03380441 -0.001501202 0.9992222 0.03940445 -0.001514554 0.9997766 0.02108484 0 1 -1.48633e-7 0 1 -6.45037e-7 0 1 1.66484e-6 -0.005411863 0.999414 -0.03379803 -0.00339961 0.9976186 -0.06888884 0.005791127 0.9980665 -0.06188493 0.01759749 0.999008 -0.04090845 0.01759684 0.9988327 -0.04498535 0.8889513 0.05135655 -0.4551134 0.934644 0.04506224 -0.3527181 0.8889749 0.05137926 -0.4550647 0.9918328 0.04120802 -0.1207056 0.9919228 0.04308092 0.1193028 0.9348459 0.04997998 0.3515183 0.8427049 0.04577416 0.5364264 0.7331631 0.0462889 0.6784756 0.626447 0.04536443 0.7781429 0.5265308 0.03918588 0.8492525 0.4365866 0.040066 0.8987697 0.3550443 0.03866946 0.9340495 0.2806695 0.0423631 0.9588691 0.2127653 0.0455532 0.9760408 -0.2111186 0.04327481 0.976502 -0.3539469 0.04756343 0.9340553 -0.2802672 0.04457926 0.9588863 -0.436284 0.04395943 0.8987346 -0.5260645 0.04410231 0.8493004 -0.6261098 0.05066496 0.7780872 -0.7327568 0.05256807 0.6784572 -0.8422425 0.05346369 0.5364412 -0.9343759 0.05817872 0.3515068 -0.9914362 0.05310457 0.1193075 -0.9913477 0.05156946 -0.1207076 -0.9341297 0.05397689 -0.3528292 -0.8391664 0.05638098 -0.5409446 -0.7324057 0.04427647 -0.6794274 -0.6746796 0.04598855 -0.7366766 -0.6746801 0.04599285 -0.7366759 -0.1487796 0.0417608 0.9879882 -0.08769196 0.04236757 0.9952464 -0.02879774 0.03240019 0.99906 0.02777928 0.03327548 0.9990602 0.08796489 0.04167997 0.9952513 0.1490696 0.04046493 0.9879985 0.2127613 0.04557216 0.9760409 0.2806597 0.0423761 0.9588715 0.3550523 0.03866857 0.9340464 0.4366893 0.05038076 0.8982005 0.5265387 0.03918582 0.8492477 0.6263872 0.04538238 0.77819 0.7331796 0.0462864 0.678458 0.8412056 0.0475673 0.5386192 0.9348868 0.04995876 0.3514129 0.9919224 0.04308289 0.1193062 0.9918334 0.0412023 -0.1207019 0.9346073 0.04507631 -0.3528134 0.8423427 0.03777724 -0.5376169 0.7317569 0.0421828 -0.6802591 0.6261525 0.03447461 -0.7789382 0.5244759 0.03645879 -0.8506444 0.4768574 0.03379023 -0.878331 0.4768546 0.03379839 -0.8783321 0.02890211 0.03206169 0.9990679 -0.08766061 0.04237532 0.9952487 -0.02886039 0.03247731 0.9990558 -0.1486511 0.0417785 0.9880068 -0.2123861 0.04717761 0.9760463 -0.2803888 0.04457199 0.9588512 -0.3546695 0.04189234 0.9340528 -0.4362871 0.04395866 0.8987332 -0.5260784 0.04410058 0.8492919 -0.6259348 0.05067461 0.7782273 -0.732766 0.05258703 0.6784457 -0.8422514 0.05346024 0.5364277 -0.9343737 0.05816483 0.3515148 -0.9914383 0.05306774 0.1193062 -0.9913464 0.0516054 -0.1207033 -0.9341234 0.054066 -0.3528319 -0.8418721 0.04677724 -0.5376461 -0.7324795 0.04426509 -0.6793485 -0.6746345 0.04586887 -0.7367255 -0.6746384 0.04588526 -0.7367209</float_array>
          <technique_common>
            <accessor source="#Toilet_Paper-mesh-normals-array" count="152" stride="3">
              <param name="X" type="float"/>
              <param name="Y" type="float"/>
              <param name="Z" type="float"/>
            </accessor>
          </technique_common>
        </source>
        <source id="Toilet_Paper-mesh-map">
          <float_array id="Toilet_Paper-mesh-map-array" count="1206">0.474549 1.995424 0.493376 1.514707 0.493376 1.995423 0.521721 0.697577 0.689994 0.755314 0.514728 0.755326 0.689994 0.755314 0.521721 0.697577 0.692016 0.738616 0.521721 0.697577 0.542295 0.643184 0.692016 0.738616 0.692016 0.738616 0.542295 0.643184 0.697965 0.722888 0.542295 0.643184 0.575252 0.595309 0.697965 0.722888 0.697965 0.722888 0.575252 0.595309 0.707495 0.709044 0.575252 0.595309 0.618679 0.556733 0.707495 0.709044 0.707495 0.709044 0.618679 0.556733 0.720052 0.69789 0.618679 0.556733 0.670052 0.529698 0.720052 0.69789 0.720052 0.69789 0.670052 0.529698 0.734907 0.690072 0.670052 0.529698 0.726384 0.515777 0.734907 0.690072 0.734907 0.690072 0.726384 0.515777 0.751196 0.686047 0.726384 0.515777 0.784402 0.515777 0.751196 0.686047 0.751196 0.686047 0.784402 0.515777 0.767972 0.686047 0.784402 0.515777 0.840734 0.529698 0.767972 0.686047 0.767972 0.686047 0.840734 0.529698 0.784261 0.690072 0.840734 0.529698 0.892106 0.556733 0.784261 0.690072 0.784261 0.690072 0.892106 0.556733 0.799116 0.69789 0.892106 0.556733 0.935533 0.595309 0.799116 0.69789 0.799116 0.69789 0.935533 0.595309 0.811673 0.709044 0.935533 0.595309 0.968491 0.643184 0.811673 0.709044 0.811673 0.709044 0.968491 0.643184 0.821203 0.722888 0.968491 0.643184 0.989064 0.697577 0.821203 0.722888 0.821203 0.722888 0.989064 0.697577 0.827152 0.738616 0.989064 0.697577 0.996057 0.755326 0.827152 0.738616 0.827152 0.738616 0.996057 0.755326 0.829174 0.755314 0.996057 0.755326 0.989064 0.813075 0.829174 0.755314 0.829174 0.755314 0.989064 0.813075 0.827152 0.772013 0.989064 0.813075 0.968491 0.867468 0.827152 0.772013 0.827152 0.772013 0.968491 0.867468 0.821203 0.787741 0.968491 0.867468 0.935533 0.915343 0.821203 0.787741 0.821203 0.787741 0.935533 0.915343 0.811673 0.801585 0.935533 0.915343 0.892106 0.953919 0.811673 0.801585 0.811673 0.801585 0.892106 0.953919 0.799116 0.812739 0.892106 0.953919 0.840734 0.980954 0.799116 0.812739 0.799116 0.812739 0.840734 0.980954 0.784261 0.820557 0.840734 0.980954 0.784402 0.994876 0.784261 0.820557 0.784261 0.820557 0.784402 0.994876 0.767972 0.824582 0.784402 0.994876 0.726384 0.994876 0.767972 0.824582 0.767972 0.824582 0.726384 0.994876 0.751196 0.824582 0.726384 0.994876 0.670052 0.980954 0.751196 0.824582 0.751196 0.824582 0.670052 0.980954 0.734907 0.820557 0.670052 0.980954 0.618679 0.953919 0.734907 0.820557 0.734907 0.820557 0.618679 0.953919 0.720052 0.812739 0.618679 0.953919 0.575252 0.915343 0.720052 0.812739 0.720052 0.812739 0.575252 0.915343 0.707495 0.801585 0.575252 0.915343 0.542294 0.867468 0.707495 0.801585 0.707495 0.801585 0.542294 0.867468 0.697965 0.787741 0.542294 0.867468 0.521721 0.813075 0.697965 0.787741 0.493376 1.514707 0.474549 1.995424 0.474548 1.514707 0.474549 1.995424 0.455721 1.995424 0.474548 1.514707 0.474548 1.514707 0.455721 1.995424 0.455721 1.514707 0.697965 0.787741 0.521721 0.813075 0.692016 0.772013 0.521721 0.813075 0.514728 0.755326 0.692016 0.772013 0.692016 0.772013 0.514728 0.755326 0.689994 0.755314 1.466185 0.005635976 1.396317 0.00563395 1.46619 0.502906 1.46619 0.502906 1.396317 0.00563395 1.396322 0.502905 1.396317 0.00563395 1.310681 0.005632996 1.396322 0.502905 1.396322 0.502905 1.310681 0.005632996 1.310686 0.502905 0.927559 0.01054197 0.932462 0.041691 1.054822 0.01545 0.932462 0.041691 1.01527 0.131175 1.054822 0.01545 1.054822 0.01545 1.01527 0.131175 1.310681 0.005632996 1.01527 0.131175 1.071624 0.222385 1.310681 0.005632996 1.310681 0.005632996 1.071624 0.222385 1.310686 0.502905 1.071624 0.222385 1.069102 0.314015 1.310686 0.502905 1.069102 0.314015 1.069371 0.411952 1.310686 0.502905 1.310686 0.502905 1.069371 0.411952 1.08182 0.496906 0.852954 0.490907 1.08182 0.496906 0.837824 0.419471 1.08182 0.496906 1.069371 0.411952 0.837824 0.419471 0.837824 0.419471 1.069371 0.411952 0.832208 0.359695 1.069371 0.411952 1.069102 0.314015 0.832208 0.359695 0.832208 0.359695 1.069102 0.314015 0.842446 0.308366 0.842446 0.308366 1.069102 0.314015 0.841933 0.255939 1.069102 0.314015 1.071624 0.222385 0.841933 0.255939 1.071624 0.222385 1.01527 0.131175 0.841933 0.255939 0.841933 0.255939 1.01527 0.131175 0.815788 0.1598269 1.01527 0.131175 0.932462 0.041691 0.815788 0.1598269 0.815788 0.1598269 0.932462 0.041691 0.810102 0.067932 0.932462 0.041691 0.927559 0.01054197 0.810102 0.067932 0.810102 0.067932 0.927559 0.01054197 0.800296 0.00563395 0.811749 0.708887 0.968579 0.643004 0.821279 0.722731 0.968579 0.643004 0.989152 0.697397 0.821279 0.722731 0.821279 0.722731 0.989152 0.697397 0.827228 0.738459 0.989152 0.697397 0.996146 0.755146 0.827228 0.738459 0.827228 0.738459 0.996146 0.755146 0.829251 0.755158 0.996146 0.755146 0.989152 0.812895 0.829251 0.755158 0.829251 0.755158 0.989152 0.812895 0.827228 0.771856 0.989152 0.812895 0.968579 0.867288 0.827228 0.771856 0.827228 0.771856 0.968579 0.867288 0.821279 0.787584 0.968579 0.867288 0.935621 0.915163 0.821279 0.787584 0.821279 0.787584 0.935621 0.915163 0.811749 0.801428 0.935621 0.915163 0.892194 0.953739 0.811749 0.801428 0.811749 0.801428 0.892194 0.953739 0.799192 0.812583 0.892194 0.953739 0.840822 0.980774 0.799192 0.812583 0.799192 0.812583 0.840822 0.980774 0.784338 0.8204 0.840822 0.980774 0.78449 0.994696 0.784338 0.8204 0.784338 0.8204 0.78449 0.994696 0.768049 0.824425 0.78449 0.994696 0.726472 0.994696 0.768049 0.824425 0.768049 0.824425 0.726472 0.994696 0.751272 0.824425 0.726472 0.994696 0.67014 0.980774 0.751272 0.824425 0.751272 0.824425 0.67014 0.980774 0.734983 0.8204 0.67014 0.980774 0.618767 0.953739 0.734983 0.8204 0.734983 0.8204 0.618767 0.953739 0.720129 0.812583 0.618767 0.953739 0.57534 0.915164 0.720129 0.812583 0.720129 0.812583 0.57534 0.915164 0.707571 0.801428 0.57534 0.915164 0.542383 0.867288 0.707571 0.801428 0.707571 0.801428 0.542383 0.867288 0.698041 0.787585 0.542383 0.867288 0.521809 0.812895 0.698041 0.787585 0.698041 0.787585 0.521809 0.812895 0.692092 0.771856 0.521809 0.812895 0.514816 0.755146 0.692092 0.771856 0.692092 0.771856 0.514816 0.755146 0.69007 0.755158 0.514816 0.755146 0.521809 0.697397 0.69007 0.755158 0.69007 0.755158 0.521809 0.697397 0.692092 0.738459 0.521809 0.697397 0.542383 0.643004 0.692092 0.738459 0.692092 0.738459 0.542383 0.643004 0.698041 0.722731 0.542383 0.643004 0.575341 0.595129 0.698041 0.722731 0.698041 0.722731 0.575341 0.595129 0.707571 0.708887 0.575341 0.595129 0.618767 0.556553 0.707571 0.708887 0.707571 0.708887 0.618767 0.556553 0.720129 0.697733 0.618767 0.556553 0.67014 0.529518 0.720129 0.697733 0.720129 0.697733 0.67014 0.529518 0.734983 0.689916 0.67014 0.529518 0.726472 0.515597 0.734983 0.689916 0.734983 0.689916 0.726472 0.515597 0.751272 0.68589 0.726472 0.515597 0.78449 0.515597 0.751272 0.68589 0.751272 0.68589 0.78449 0.515597 0.768049 0.68589 0.78449 0.515597 0.840822 0.529518 0.768049 0.68589 0.768049 0.68589 0.840822 0.529518 0.784337 0.689916 0.840822 0.529518 0.892194 0.556553 0.784337 0.689916 0.784337 0.689916 0.892194 0.556553 0.799192 0.697733 0.892194 0.556553 0.935621 0.595129 0.799192 0.697733 0.799192 0.697733 0.935621 0.595129 0.811749 0.708887 0.935621 0.595129 0.968579 0.643004 0.811749 0.708887 0.342757 1.514709 0.361584 1.514709 0.342758 1.995426 0.342758 1.995426 0.361584 1.514709 0.361585 1.995425 0.361584 1.514709 0.380412 1.514708 0.361585 1.995425 0.361585 1.995425 0.380412 1.514708 0.380412 1.995425 0.380412 1.514708 0.399239 1.514708 0.380412 1.995425 0.380412 1.995425 0.399239 1.514708 0.399239 1.995425 0.399239 1.514708 0.418066 1.514708 0.399239 1.995425 0.399239 1.995425 0.418066 1.514708 0.418067 1.995425 0.418066 1.514708 0.436894 1.514708 0.418067 1.995425 0.418067 1.995425 0.436894 1.514708 0.436894 1.995424 0.436894 1.514708 0.455721 1.514707 0.436894 1.995424 0.436894 1.995424 0.455721 1.514707 0.455721 1.995424 1.157561 0.00563699 1.234717 0.005635976 1.157562 0.502907 1.157562 0.502907 1.234717 0.005635976 1.234719 0.502907 1.234717 0.005635976 1.311875 0.005635976 1.234719 0.502907 1.234719 0.502907 1.311875 0.005635976 1.311876 0.502907 1.311875 0.005635976 1.389032 0.005635976 1.311876 0.502907 1.311876 0.502907 1.389032 0.005635976 1.389033 0.502907 1.389032 0.005635976 1.466188 0.005635976 1.389033 0.502907 1.389033 0.502907 1.466188 0.005635976 1.46619 0.502906 1.466188 0.005635976 1.543345 0.005635976 1.46619 0.502906 1.46619 0.502906 1.543345 0.005635976 1.543347 0.502906 1.543345 0.005635976 1.620502 0.005634963 1.543347 0.502906 1.543347 0.502906 1.620502 0.005634963 1.620504 0.502906 1.620502 0.005634963 1.697659 0.005634963 1.620504 0.502906 1.620504 0.502906 1.697659 0.005634963 1.697661 0.502906 1.157562 0.502907 1.080405 0.502908 1.157561 0.00563699 1.157561 0.00563699 1.080405 0.502908 1.080403 0.00563699 1.080405 0.502908 1.003248 0.502908 1.080403 0.00563699 1.080403 0.00563699 1.003248 0.502908 1.003247 0.00563699 1.003248 0.502908 0.926091 0.502908 1.003247 0.00563699 1.003247 0.00563699 0.926091 0.502908 0.92609 0.00563699 0.926091 0.502908 0.848934 0.502909 0.92609 0.00563699 0.92609 0.00563699 0.848934 0.502909 0.848933 0.005637943 0.848934 0.502909 0.771778 0.502909 0.848933 0.005637943 0.848933 0.005637943 0.771778 0.502909 0.771776 0.005637943 0.771778 0.502909 0.69462 0.502909 0.771776 0.005637943 0.771776 0.005637943 0.69462 0.502909 0.694619 0.005637943 0.69462 0.502909 0.617464 0.50291 0.694619 0.005637943 0.694619 0.005637943 0.617464 0.50291 0.617462 0.005638957 0.617464 0.50291 0.540307 0.50291 0.617462 0.005638957 0.617462 0.005638957 0.540307 0.50291 0.540305 0.005638957 0.540307 0.50291 0.46315 0.50291 0.540305 0.005638957 0.540305 0.005638957 0.46315 0.50291 0.463148 0.005638957 0.46315 0.50291 0.385993 0.50291 0.463148 0.005638957 0.463148 0.005638957 0.385993 0.50291 0.385991 0.005638957 0.385993 0.50291 0.308836 0.50291 0.385991 0.005638957 0.385991 0.005638957 0.308836 0.50291 0.308834 0.00563997 0.308836 0.50291 0.231679 0.502911 0.308834 0.00563997 0.231679 0.502911 0.2316769 0.00563997 0.308834 0.00563997 0.003864943 1.514714 0.02269297 1.514714 0.003865957 1.995431 0.003865957 1.995431 0.02269297 1.514714 0.02269297 1.99543 0.02269297 1.514714 0.04151999 1.514713 0.02269297 1.99543 0.02269297 1.99543 0.04151999 1.514713 0.04151999 1.99543 0.04151999 1.514713 0.06034696 1.514713 0.04151999 1.99543 0.04151999 1.99543 0.06034696 1.514713 0.06034797 1.99543 0.06034696 1.514713 0.07917499 1.514713 0.06034797 1.99543 0.06034797 1.99543 0.07917499 1.514713 0.07917499 1.99543 0.07917499 1.514713 0.09800195 1.514712 0.07917499 1.99543 0.07917499 1.99543 0.09800195 1.514712 0.09800195 1.995429 0.09800195 1.514712 0.116829 1.514712 0.09800195 1.995429 0.09800195 1.995429 0.116829 1.514712 0.11683 1.995429 0.116829 1.514712 0.135657 1.514712 0.11683 1.995429 0.11683 1.995429 0.135657 1.514712 0.135657 1.995429 0.135657 1.514712 0.154484 1.514711 0.135657 1.995429 0.135657 1.995429 0.154484 1.514711 0.154484 1.995428 0.154484 1.514711 0.1733109 1.514711 0.154484 1.995428 0.154484 1.995428 0.1733109 1.514711 0.173312 1.995428</float_array>
          <technique_common>
            <accessor source="#Toilet_Paper-mesh-map-array" count="603" stride="2">
              <param name="S" type="float"/>
              <param name="T" type="float"/>
            </accessor>
          </technique_common>
        </source>
        <vertices id="Toilet_Paper-mesh-vertices">
          <input semantic="POSITION" source="#Toilet_Paper-mesh-positions"/>
        </vertices>
        <triangles material="z_toiletroll_002-material" count="201">
          <input semantic="VERTEX" source="#Toilet_Paper-mesh-vertices" offset="0"/>
          <input semantic="NORMAL" source="#Toilet_Paper-mesh-normals" offset="1"/>
          <input semantic="TEXCOORD" source="#Toilet_Paper-mesh-map" offset="2" set="0"/>
          <p>0 0 0 1 1 1 2 2 2 3 3 3 4 3 4 5 3 5 4 3 6 3 3 7 6 3 8 3 3 9 7 3 10 6 3 11 6 3 12 7 3 13 8 3 14 7 3 15 9 3 16 8 3 17 8 3 18 9 3 19 10 3 20 9 3 21 11 3 22 10 3 23 10 3 24 11 3 25 12 3 26 11 3 27 13 3 28 12 3 29 12 3 30 13 3 31 14 3 32 13 3 33 15 3 34 14 3 35 14 3 36 15 3 37 16 3 38 15 3 39 17 3 40 16 3 41 16 3 42 17 3 43 18 3 44 17 3 45 19 3 46 18 3 47 18 3 48 19 3 49 20 3 50 19 3 51 21 3 52 20 3 53 20 3 54 21 3 55 22 3 56 21 3 57 23 3 58 22 3 59 22 3 60 23 3 61 24 3 62 23 3 63 25 3 64 24 3 65 24 3 66 25 3 67 26 3 68 25 3 69 27 3 70 26 3 71 26 3 72 27 3 73 28 3 74 27 3 75 29 3 76 28 3 77 28 3 78 29 3 79 30 3 80 29 3 81 31 3 82 30 3 83 30 3 84 31 3 85 32 3 86 31 3 87 33 3 88 32 3 89 32 3 90 33 3 91 34 3 92 33 3 93 35 3 94 34 3 95 34 3 96 35 3 97 36 3 98 35 3 99 37 3 100 36 3 101 36 3 102 37 3 103 38 3 104 37 3 105 39 3 106 38 3 107 38 3 108 39 3 109 40 3 110 39 3 111 41 3 112 40 3 113 40 3 114 41 3 115 42 3 116 41 3 117 43 3 118 42 3 119 42 3 120 43 3 121 44 3 122 43 3 123 45 3 124 44 3 125 44 3 126 45 3 127 46 3 128 45 3 129 47 3 130 46 3 131 46 3 132 47 3 133 48 3 134 47 3 135 49 3 136 48 3 137 48 3 138 49 3 139 50 3 140 49 3 141 51 3 142 50 3 143 50 3 144 51 3 145 52 3 146 51 3 147 53 3 148 52 3 149 180 4 150 181 5 151 183 6 152 181 5 153 184 7 154 183 6 155 183 6 156 184 7 157 185 8 158 186 3 159 187 3 160 182 3 161 187 3 162 188 3 163 182 3 164 182 3 165 188 3 166 189 3 167 190 9 168 191 10 169 192 11 170 192 11 171 191 10 172 193 12 173 191 10 174 194 13 175 193 12 176 193 12 177 194 13 178 195 14 179 196 15 180 197 16 181 198 17 182 197 16 183 199 18 184 198 17 185 198 17 186 199 18 187 194 13 188 199 18 189 200 19 190 194 13 191 194 13 192 200 19 193 195 14 194 200 19 195 201 20 196 195 14 197 201 20 198 202 21 199 195 14 200 195 14 201 202 21 202 203 22 203 204 23 204 203 22 205 205 24 206 203 22 207 202 21 208 205 24 209 205 24 210 202 21 211 206 25 212 202 21 213 201 20 214 206 25 215 206 25 216 201 20 217 207 26 218 207 26 219 201 20 220 208 27 221 201 20 222 200 19 223 208 27 224 200 19 225 199 18 226 208 27 227 208 27 228 199 18 229 209 28 230 199 18 231 197 16 232 209 28 233 209 28 234 197 16 235 210 29 236 197 16 237 196 15 238 210 29 239 210 29 240 196 15 241 211 30 242 54 31 243 55 32 244 56 33 245 55 32 246 57 34 247 56 33 248 56 33 249 57 34 250 58 35 251 57 34 252 59 36 253 58 35 254 58 35 255 59 36 256 60 37 257 59 36 258 61 38 259 60 37 260 60 37 261 61 38 262 62 39 263 61 38 264 63 40 265 62 39 266 62 39 267 63 40 268 64 41 269 63 40 270 65 42 271 64 41 272 64 41 273 65 42 274 66 43 275 65 42 276 67 44 277 66 43 278 66 43 279 67 44 280 68 45 281 67 44 282 69 46 283 68 45 284 68 45 285 69 46 286 70 47 287 69 46 288 71 48 289 70 47 290 70 47 291 71 48 292 72 49 293 71 48 294 73 50 295 72 49 296 72 49 297 73 50 298 74 50 299 73 50 300 75 50 301 74 50 302 74 50 303 75 50 304 76 50 305 75 50 306 77 51 307 76 50 308 76 50 309 77 51 310 78 52 311 77 51 312 79 53 313 78 52 314 78 52 315 79 53 316 80 54 317 79 53 318 81 55 319 80 54 320 80 54 321 81 55 322 82 56 323 81 55 324 83 57 325 82 56 326 82 56 327 83 57 328 84 58 329 83 57 330 85 59 331 84 58 332 84 58 333 85 59 334 86 60 335 85 59 336 87 61 337 86 60 338 86 60 339 87 61 340 88 62 341 87 61 342 89 63 343 88 62 344 88 62 345 89 63 346 90 64 347 89 63 348 91 65 349 90 64 350 90 64 351 91 65 352 92 66 353 91 65 354 93 67 355 92 66 356 92 66 357 93 67 358 94 68 359 93 67 360 95 69 361 94 68 362 94 68 363 95 69 364 96 70 365 95 69 366 97 71 367 96 70 368 96 70 369 97 71 370 98 50 371 97 71 372 99 50 373 98 50 374 98 50 375 99 50 376 100 72 377 99 50 378 101 73 379 100 72 380 100 72 381 101 73 382 102 74 383 101 73 384 103 75 385 102 74 386 102 74 387 103 75 388 104 76 389 103 75 390 105 77 391 104 76 392 104 76 393 105 77 394 54 31 395 105 77 396 55 32 397 54 31 398 106 78 399 107 79 400 108 80 401 108 80 402 107 79 403 109 81 404 107 79 405 110 82 406 109 81 407 109 81 408 110 82 409 111 83 410 110 82 411 112 84 412 111 83 413 111 83 414 112 84 415 113 85 416 112 84 417 114 86 418 113 85 419 113 85 420 114 86 421 115 87 422 114 86 423 116 88 424 115 87 425 115 87 426 116 88 427 117 89 428 116 88 429 118 90 430 117 89 431 117 89 432 118 90 433 119 91 434 120 92 435 121 93 436 122 94 437 122 94 438 121 93 439 123 95 440 121 93 441 124 96 442 123 95 443 123 95 444 124 96 445 125 97 446 124 96 447 126 98 448 125 97 449 125 97 450 126 98 451 127 99 452 126 98 453 128 100 454 127 99 455 127 99 456 128 100 457 129 101 458 128 100 459 130 102 460 129 101 461 129 101 462 130 102 463 131 103 464 130 102 465 132 104 466 131 103 467 131 103 468 132 104 469 133 105 470 132 104 471 134 106 472 133 105 473 133 105 474 134 106 475 135 107 476 122 94 477 136 108 478 120 92 479 120 92 480 136 108 481 137 109 482 136 108 483 138 110 484 137 109 485 137 109 486 138 110 487 139 111 488 138 110 489 140 112 490 139 111 491 139 111 492 140 112 493 141 113 494 140 112 495 142 114 496 141 113 497 141 113 498 142 114 499 143 115 500 142 114 501 144 116 502 143 115 503 143 115 504 144 116 505 145 117 506 144 116 507 146 118 508 145 117 509 145 117 510 146 118 511 147 119 512 146 118 513 148 120 514 147 119 515 147 119 516 148 120 517 149 121 518 148 120 519 150 122 520 149 121 521 149 121 522 150 122 523 151 123 524 150 122 525 152 124 526 151 123 527 151 123 528 152 124 529 153 125 530 152 124 531 154 126 532 153 125 533 153 125 534 154 126 535 155 127 536 154 126 537 156 128 538 155 127 539 155 127 540 156 128 541 157 129 542 156 128 543 158 130 544 157 129 545 158 130 546 159 131 547 157 129 548 160 132 549 161 133 550 162 134 551 162 134 552 161 133 553 163 135 554 161 133 555 164 136 556 163 135 557 163 135 558 164 136 559 165 137 560 164 136 561 166 138 562 165 137 563 165 137 564 166 138 565 167 139 566 166 138 567 168 140 568 167 139 569 167 139 570 168 140 571 169 141 572 168 140 573 170 142 574 169 141 575 169 141 576 170 142 577 171 143 578 170 142 579 172 144 580 171 143 581 171 143 582 172 144 583 173 145 584 172 144 585 174 146 586 173 145 587 173 145 588 174 146 589 175 147 590 174 146 591 176 148 592 175 147 593 175 147 594 176 148 595 177 149 596 176 148 597 178 150 598 177 149 599 177 149 600 178 150 601 179 151 602</p>
        </triangles>
      </mesh>
    </geometry>
  </library_geometries>
  <library_visual_scenes>
    <visual_scene id="Scene" name="Scene">
      <node id="Toilet_Paper" name="Toilet Paper" type="NODE">
        <matrix sid="transform">1.526243 0 0 0 0 1.15228e-7 -1.526243 0 0 1.526243 1.15228e-7 0 0 0 0 1</matrix>
        <instance_geometry url="#Toilet_Paper-mesh" name="Toilet Paper">
          <bind_material>
            <technique_common>
              <instance_material symbol="z_toiletroll_002-material" target="#z_toiletroll_002-material"/>
            </technique_common>
          </bind_material>
        </instance_geometry>
      </node>
    </visual_scene>
  </library_visual_scenes>
  <scene>
    <instance_visual_scene url="#Scene"/>
  </scene>
</COLLADA>